<svg width="242" height="15" viewBox="0 0 242 15" fill="none" xmlns="http://www.w3.org/2000/svg">
<rect y="6" width="6" height="1" rx="0.5" fill="black"/>
<path d="M13.6523 10.656C14.231 10.656 14.6697 10.502 14.9683 10.194C15.2763 9.886 15.4303 9.51267 15.4303 9.074C15.4303 8.542 15.2717 8.15 14.9543 7.898C14.637 7.646 14.1377 7.52 13.4563 7.52H12.4483V6.554L14.1423 4.244L14.9403 3.614L13.8343 3.74H11.4823V2.2H16.8303V3.194L14.8563 5.84L14.2403 6.218V6.288L14.8283 6.204C15.155 6.232 15.463 6.30667 15.7523 6.428C16.051 6.54933 16.3077 6.72667 16.5223 6.96C16.7463 7.184 16.9237 7.464 17.0543 7.8C17.185 8.136 17.2503 8.52333 17.2503 8.962C17.2503 9.51267 17.157 9.98867 16.9703 10.39C16.793 10.7913 16.541 11.1273 16.2143 11.398C15.897 11.6687 15.5237 11.8693 15.0943 12C14.665 12.1307 14.203 12.196 13.7083 12.196C13.2977 12.196 12.873 12.1587 12.4343 12.084C11.9957 12.0093 11.641 11.902 11.3703 11.762L11.8603 10.25C12.103 10.3713 12.369 10.4693 12.6583 10.544C12.957 10.6187 13.2883 10.656 13.6523 10.656ZM18.7817 7.086C18.7817 5.36867 19.0757 4.09467 19.6637 3.264C20.2517 2.424 21.0963 2.004 22.1977 2.004C23.3737 2.004 24.237 2.41933 24.7877 3.25C25.3383 4.07133 25.6137 5.35 25.6137 7.086C25.6137 8.81267 25.315 10.096 24.7177 10.936C24.1297 11.776 23.285 12.196 22.1837 12.196C21.017 12.196 20.1583 11.7573 19.6077 10.88C19.057 9.99333 18.7817 8.72867 18.7817 7.086ZM20.6017 7.086C20.6017 8.22467 20.723 9.10667 20.9657 9.732C21.2177 10.348 21.6283 10.656 22.1977 10.656C22.7483 10.656 23.1497 10.3713 23.4017 9.802C23.663 9.23267 23.7937 8.32733 23.7937 7.086C23.7937 5.95667 23.6723 5.084 23.4297 4.468C23.187 3.852 22.7717 3.544 22.1837 3.544C21.6237 3.544 21.2177 3.83333 20.9657 4.412C20.723 4.99067 20.6017 5.882 20.6017 7.086ZM30.5461 2.2C30.7421 2.172 30.9614 2.14867 31.2041 2.13C31.4561 2.11133 31.7127 2.09733 31.9741 2.088C32.2354 2.07867 32.4874 2.074 32.7301 2.074C32.9821 2.06467 33.2061 2.06 33.4021 2.06C34.2701 2.06 35.0121 2.18133 35.6281 2.424C36.2441 2.66667 36.7434 3.00733 37.1261 3.446C37.5087 3.88467 37.7887 4.40733 37.9661 5.014C38.1434 5.62067 38.2321 6.288 38.2321 7.016C38.2321 7.67867 38.1481 8.318 37.9801 8.934C37.8121 9.55 37.5321 10.096 37.1401 10.572C36.7481 11.048 36.2301 11.4307 35.5861 11.72C34.9514 12.0093 34.1627 12.154 33.2201 12.154C33.0707 12.154 32.8701 12.1493 32.6181 12.14C32.3754 12.1307 32.1187 12.1167 31.8481 12.098C31.5867 12.0887 31.3347 12.0747 31.0921 12.056C30.8494 12.0467 30.6674 12.0327 30.5461 12.014V2.2ZM33.5561 3.768C33.3507 3.768 33.1407 3.77267 32.9261 3.782C32.7207 3.79133 32.5667 3.80533 32.4641 3.824V10.39C32.5014 10.3993 32.5621 10.4087 32.6461 10.418C32.7394 10.418 32.8374 10.4227 32.9401 10.432C33.0427 10.432 33.1407 10.4367 33.2341 10.446C33.3274 10.446 33.3974 10.446 33.4441 10.446C33.9854 10.446 34.4334 10.3527 34.7881 10.166C35.1521 9.97 35.4367 9.71333 35.6421 9.396C35.8567 9.07867 36.0061 8.71467 36.0901 8.304C36.1741 7.884 36.2161 7.45467 36.2161 7.016C36.2161 6.63333 36.1787 6.25067 36.1041 5.868C36.0294 5.476 35.8894 5.126 35.6841 4.818C35.4881 4.51 35.2174 4.258 34.8721 4.062C34.5267 3.866 34.0881 3.768 33.5561 3.768ZM44.044 9.83H41.034L40.292 12H38.374L41.902 2.13H43.316L46.844 12H44.828L44.044 9.83ZM41.524 8.29H43.624L42.896 6.106L42.602 4.566H42.532L42.238 6.12L41.524 8.29ZM48.8121 8.36L45.5921 2.2H47.8741L49.6661 5.882L49.8621 6.918H49.9321L50.1421 5.854L51.8781 2.2H53.9361L50.7301 8.346V12H48.8121V8.36ZM58.4775 10.46H60.4235V4.93L60.6335 3.978L59.9615 4.804L58.7155 5.658L57.9455 4.608L61.1375 2.032H62.1595V10.46H64.0635V12H58.4775V10.46ZM65.5668 7.086C65.5668 5.36867 65.8608 4.09467 66.4488 3.264C67.0368 2.424 67.8815 2.004 68.9828 2.004C70.1588 2.004 71.0222 2.41933 71.5728 3.25C72.1235 4.07133 72.3988 5.35 72.3988 7.086C72.3988 8.81267 72.1002 10.096 71.5028 10.936C70.9148 11.776 70.0702 12.196 68.9688 12.196C67.8022 12.196 66.9435 11.7573 66.3928 10.88C65.8422 9.99333 65.5668 8.72867 65.5668 7.086ZM67.3868 7.086C67.3868 8.22467 67.5082 9.10667 67.7508 9.732C68.0028 10.348 68.4135 10.656 68.9828 10.656C69.5335 10.656 69.9348 10.3713 70.1868 9.802C70.4482 9.23267 70.5788 8.32733 70.5788 7.086C70.5788 5.95667 70.4575 5.084 70.2148 4.468C69.9722 3.852 69.5568 3.544 68.9688 3.544C68.4088 3.544 68.0028 3.83333 67.7508 4.412C67.5082 4.99067 67.3868 5.882 67.3868 7.086ZM73.5102 7.086C73.5102 5.36867 73.8042 4.09467 74.3922 3.264C74.9802 2.424 75.8249 2.004 76.9262 2.004C78.1022 2.004 78.9655 2.41933 79.5162 3.25C80.0669 4.07133 80.3422 5.35 80.3422 7.086C80.3422 8.81267 80.0435 10.096 79.4462 10.936C78.8582 11.776 78.0135 12.196 76.9122 12.196C75.7455 12.196 74.8869 11.7573 74.3362 10.88C73.7855 9.99333 73.5102 8.72867 73.5102 7.086ZM75.3302 7.086C75.3302 8.22467 75.4515 9.10667 75.6942 9.732C75.9462 10.348 76.3569 10.656 76.9262 10.656C77.4769 10.656 77.8782 10.3713 78.1302 9.802C78.3915 9.23267 78.5222 8.32733 78.5222 7.086C78.5222 5.95667 78.4009 5.084 78.1582 4.468C77.9155 3.852 77.5002 3.544 76.9122 3.544C76.3522 3.544 75.9462 3.83333 75.6942 4.412C75.4515 4.99067 75.3302 5.882 75.3302 7.086ZM81.6076 4.412C81.6076 3.992 81.6682 3.63267 81.7896 3.334C81.9109 3.03533 82.0789 2.788 82.2936 2.592C82.5082 2.396 82.7649 2.256 83.0636 2.172C83.3716 2.07867 83.7029 2.032 84.0576 2.032C84.4122 2.032 84.7389 2.074 85.0376 2.158C85.3362 2.242 85.5929 2.37733 85.8076 2.564C86.0316 2.75067 86.2042 2.998 86.3256 3.306C86.4469 3.60467 86.5122 3.97333 86.5216 4.412C86.5122 4.85067 86.4469 5.224 86.3256 5.532C86.2042 5.83067 86.0316 6.07333 85.8076 6.26C85.5929 6.44667 85.3362 6.582 85.0376 6.666C84.7389 6.75 84.4122 6.792 84.0576 6.792C83.7029 6.792 83.3716 6.75 83.0636 6.666C82.7649 6.582 82.5082 6.44667 82.2936 6.26C82.0789 6.07333 81.9109 5.83067 81.7896 5.532C81.6682 5.224 81.6076 4.85067 81.6076 4.412ZM83.2316 4.412C83.2316 5.21467 83.5069 5.616 84.0576 5.616C84.3469 5.616 84.5522 5.532 84.6736 5.364C84.8042 5.18667 84.8742 4.86933 84.8836 4.412C84.8742 3.964 84.8042 3.65133 84.6736 3.474C84.5522 3.29667 84.3469 3.208 84.0576 3.208C83.7682 3.208 83.5582 3.29667 83.4276 3.474C83.2969 3.65133 83.2316 3.964 83.2316 4.412ZM87.2916 9.606C87.2916 9.186 87.3522 8.82667 87.4736 8.528C87.5949 8.22933 87.7629 7.982 87.9776 7.786C88.1922 7.59 88.4489 7.45 88.7476 7.366C89.0556 7.27267 89.3869 7.226 89.7416 7.226C90.0962 7.226 90.4229 7.268 90.7216 7.352C91.0202 7.436 91.2769 7.57133 91.4916 7.758C91.7156 7.94467 91.8882 8.192 92.0096 8.5C92.1309 8.79867 92.1962 9.16733 92.2056 9.606C92.1962 10.0447 92.1309 10.418 92.0096 10.726C91.8882 11.0247 91.7156 11.2673 91.4916 11.454C91.2769 11.6407 91.0202 11.776 90.7216 11.86C90.4229 11.944 90.0962 11.986 89.7416 11.986C89.3869 11.986 89.0556 11.944 88.7476 11.86C88.4489 11.776 88.1922 11.6407 87.9776 11.454C87.7629 11.2673 87.5949 11.0247 87.4736 10.726C87.3522 10.418 87.2916 10.0447 87.2916 9.606ZM88.9156 9.606C88.9156 10.4087 89.1909 10.81 89.7416 10.81C90.0309 10.81 90.2362 10.726 90.3576 10.558C90.4882 10.3807 90.5582 10.0633 90.5676 9.606C90.5582 9.158 90.4882 8.84533 90.3576 8.668C90.2362 8.49067 90.0309 8.402 89.7416 8.402C89.4522 8.402 89.2422 8.49067 89.1116 8.668C88.9809 8.84533 88.9156 9.158 88.9156 9.606ZM90.3716 2.004L91.3936 2.928L83.3296 12.196L82.3076 11.23L90.3716 2.004ZM104.634 6.918L104.844 4.972H104.76L104.158 6.54L102.072 10.194H101.456L99.2584 6.526L98.6424 4.972H98.5724L98.8524 6.904V12H97.0324V2.2H98.7824L101.4 6.68L101.862 7.8H101.918L102.338 6.652L104.816 2.2H106.552V12H104.634V6.918ZM107.852 8.5C107.852 7.31467 108.141 6.40467 108.72 5.77C109.298 5.126 110.11 4.804 111.156 4.804C111.716 4.804 112.201 4.89267 112.612 5.07C113.022 5.24733 113.363 5.49933 113.634 5.826C113.904 6.14333 114.105 6.53067 114.236 6.988C114.376 7.44533 114.446 7.94933 114.446 8.5C114.446 9.68533 114.156 10.6 113.578 11.244C113.008 11.8787 112.201 12.196 111.156 12.196C110.596 12.196 110.11 12.1073 109.7 11.93C109.289 11.7527 108.944 11.5053 108.664 11.188C108.393 10.8613 108.188 10.4693 108.048 10.012C107.917 9.55467 107.852 9.05067 107.852 8.5ZM109.728 8.5C109.728 8.808 109.756 9.09267 109.812 9.354C109.868 9.61533 109.952 9.844 110.064 10.04C110.176 10.236 110.32 10.39 110.498 10.502C110.684 10.6047 110.904 10.656 111.156 10.656C111.632 10.656 111.986 10.4833 112.22 10.138C112.453 9.79267 112.57 9.24667 112.57 8.5C112.57 7.856 112.462 7.338 112.248 6.946C112.033 6.54467 111.669 6.344 111.156 6.344C110.708 6.344 110.358 6.512 110.106 6.848C109.854 7.184 109.728 7.73467 109.728 8.5ZM119.991 12V8.024C119.991 7.45467 119.907 7.044 119.739 6.792C119.581 6.54 119.305 6.414 118.913 6.414C118.568 6.414 118.274 6.51667 118.031 6.722C117.798 6.918 117.63 7.16533 117.527 7.464V12H115.707V5H117.149L117.359 5.924H117.415C117.63 5.62533 117.915 5.364 118.269 5.14C118.624 4.916 119.081 4.804 119.641 4.804C119.987 4.804 120.295 4.85067 120.565 4.944C120.836 5.03733 121.065 5.19133 121.251 5.406C121.438 5.62067 121.578 5.91467 121.671 6.288C121.765 6.652 121.811 7.10467 121.811 7.646V12H119.991ZM128.936 11.398C128.656 11.622 128.273 11.8133 127.788 11.972C127.312 12.1213 126.803 12.196 126.262 12.196C125.133 12.196 124.307 11.8693 123.784 11.216C123.261 10.5533 123 9.648 123 8.5C123 7.268 123.294 6.344 123.882 5.728C124.47 5.112 125.296 4.804 126.36 4.804C126.715 4.804 127.06 4.85067 127.396 4.944C127.732 5.03733 128.031 5.19133 128.292 5.406C128.553 5.62067 128.763 5.91 128.922 6.274C129.081 6.638 129.16 7.09067 129.16 7.632C129.16 7.828 129.146 8.038 129.118 8.262C129.099 8.486 129.067 8.71933 129.02 8.962H124.82C124.848 9.55 124.997 9.99333 125.268 10.292C125.548 10.5907 125.996 10.74 126.612 10.74C126.995 10.74 127.335 10.684 127.634 10.572C127.942 10.4507 128.175 10.3293 128.334 10.208L128.936 11.398ZM126.332 6.26C125.856 6.26 125.501 6.40467 125.268 6.694C125.044 6.974 124.909 7.352 124.862 7.828H127.466C127.503 7.324 127.424 6.93667 127.228 6.666C127.041 6.39533 126.743 6.26 126.332 6.26ZM132.802 8.934L133.054 10.026H133.138L133.32 8.92L134.384 5H136.26L134.132 11.314C133.955 11.8367 133.782 12.3127 133.614 12.742C133.455 13.1807 133.278 13.5587 133.082 13.876C132.886 14.1933 132.667 14.436 132.424 14.604C132.191 14.7813 131.911 14.87 131.584 14.87C131.099 14.87 130.711 14.7907 130.422 14.632L130.758 13.176C130.898 13.232 131.038 13.26 131.178 13.26C131.393 13.26 131.598 13.1667 131.794 12.98C131.999 12.8027 132.153 12.476 132.256 12L129.33 5H131.514L132.802 8.934ZM146.611 4.482C146.611 4.72467 146.578 4.96733 146.513 5.21C146.457 5.45267 146.359 5.67667 146.219 5.882C146.079 6.078 145.897 6.25533 145.673 6.414C145.449 6.56333 145.178 6.67533 144.861 6.75V6.834C145.141 6.88067 145.407 6.96 145.659 7.072C145.911 7.184 146.13 7.338 146.317 7.534C146.503 7.73 146.648 7.968 146.751 8.248C146.863 8.528 146.919 8.85933 146.919 9.242C146.919 9.746 146.811 10.1847 146.597 10.558C146.382 10.922 146.093 11.2207 145.729 11.454C145.374 11.6873 144.968 11.86 144.511 11.972C144.053 12.084 143.582 12.14 143.097 12.14C142.938 12.14 142.733 12.14 142.481 12.14C142.238 12.14 141.972 12.1307 141.683 12.112C141.403 12.1027 141.113 12.084 140.815 12.056C140.525 12.028 140.259 11.986 140.017 11.93V2.27C140.194 2.242 140.395 2.214 140.619 2.186C140.852 2.158 141.099 2.13467 141.361 2.116C141.622 2.09733 141.888 2.08333 142.159 2.074C142.439 2.06467 142.714 2.06 142.985 2.06C143.442 2.06 143.885 2.09733 144.315 2.172C144.753 2.23733 145.141 2.35867 145.477 2.536C145.822 2.71333 146.097 2.96067 146.303 3.278C146.508 3.59533 146.611 3.99667 146.611 4.482ZM143.111 10.558C143.344 10.558 143.568 10.53 143.783 10.474C144.007 10.418 144.203 10.334 144.371 10.222C144.539 10.1007 144.674 9.95133 144.777 9.774C144.879 9.59667 144.931 9.38667 144.931 9.144C144.931 8.836 144.87 8.59333 144.749 8.416C144.627 8.23867 144.469 8.10333 144.273 8.01C144.077 7.90733 143.857 7.842 143.615 7.814C143.372 7.786 143.129 7.772 142.887 7.772H141.865V10.474C141.911 10.4927 141.986 10.5067 142.089 10.516C142.191 10.5253 142.299 10.5347 142.411 10.544C142.532 10.544 142.653 10.5487 142.775 10.558C142.905 10.558 143.017 10.558 143.111 10.558ZM142.481 6.316C142.611 6.316 142.761 6.31133 142.929 6.302C143.106 6.29267 143.251 6.27867 143.363 6.26C143.717 6.148 144.021 5.98 144.273 5.756C144.534 5.532 144.665 5.238 144.665 4.874C144.665 4.63133 144.618 4.43067 144.525 4.272C144.431 4.11333 144.305 3.98733 144.147 3.894C143.997 3.80067 143.825 3.73533 143.629 3.698C143.433 3.66067 143.227 3.642 143.013 3.642C142.77 3.642 142.546 3.64667 142.341 3.656C142.135 3.66533 141.977 3.67933 141.865 3.698V6.316H142.481ZM148.204 5.406C148.578 5.238 149.021 5.10733 149.534 5.014C150.048 4.91133 150.584 4.86 151.144 4.86C151.63 4.86 152.036 4.92067 152.362 5.042C152.689 5.154 152.946 5.31733 153.132 5.532C153.328 5.74667 153.464 6.00333 153.538 6.302C153.622 6.60067 153.664 6.93667 153.664 7.31C153.664 7.72067 153.65 8.136 153.622 8.556C153.594 8.96667 153.576 9.37267 153.566 9.774C153.566 10.1753 153.58 10.5673 153.608 10.95C153.636 11.3233 153.706 11.678 153.818 12.014H152.334L152.04 11.048H151.97C151.784 11.3373 151.522 11.5893 151.186 11.804C150.86 12.0093 150.435 12.112 149.912 12.112C149.586 12.112 149.292 12.0653 149.03 11.972C148.769 11.8693 148.545 11.7293 148.358 11.552C148.172 11.3653 148.027 11.1507 147.924 10.908C147.822 10.656 147.77 10.376 147.77 10.068C147.77 9.63867 147.864 9.27933 148.05 8.99C148.246 8.69133 148.522 8.45333 148.876 8.276C149.24 8.08933 149.67 7.96333 150.164 7.898C150.668 7.82333 151.228 7.8 151.844 7.828C151.91 7.30533 151.872 6.932 151.732 6.708C151.592 6.47467 151.28 6.358 150.794 6.358C150.43 6.358 150.043 6.39533 149.632 6.47C149.231 6.54467 148.9 6.64267 148.638 6.764L148.204 5.406ZM150.514 10.614C150.878 10.614 151.168 10.5347 151.382 10.376C151.597 10.208 151.756 10.0307 151.858 9.844V8.934C151.569 8.906 151.289 8.90133 151.018 8.92C150.757 8.93867 150.524 8.98067 150.318 9.046C150.113 9.11133 149.95 9.20467 149.828 9.326C149.707 9.44733 149.646 9.60133 149.646 9.788C149.646 10.0493 149.721 10.2547 149.87 10.404C150.029 10.544 150.244 10.614 150.514 10.614ZM160.148 11.566C159.868 11.7713 159.527 11.9253 159.126 12.028C158.734 12.14 158.328 12.196 157.908 12.196C157.348 12.196 156.872 12.1073 156.48 11.93C156.097 11.7527 155.784 11.5053 155.542 11.188C155.299 10.8613 155.122 10.4693 155.01 10.012C154.907 9.55467 154.856 9.05067 154.856 8.5C154.856 7.31467 155.122 6.40467 155.654 5.77C156.186 5.126 156.96 4.804 157.978 4.804C158.491 4.804 158.902 4.846 159.21 4.93C159.527 5.014 159.812 5.12133 160.064 5.252L159.63 6.736C159.415 6.63333 159.2 6.554 158.986 6.498C158.78 6.442 158.542 6.414 158.272 6.414C157.768 6.414 157.385 6.582 157.124 6.918C156.862 7.24467 156.732 7.772 156.732 8.5C156.732 8.79867 156.764 9.074 156.83 9.326C156.895 9.578 156.993 9.79733 157.124 9.984C157.254 10.1707 157.422 10.32 157.628 10.432C157.842 10.5347 158.09 10.586 158.37 10.586C158.678 10.586 158.939 10.5487 159.154 10.474C159.368 10.39 159.56 10.292 159.728 10.18L160.148 11.566ZM163.558 9.102H163.068V12H161.248V2.2H163.068V7.982L163.488 7.786L165.084 5H167.086L165.406 7.66L164.692 8.192L165.462 8.738L167.352 12H165.266L163.558 9.102ZM174.565 6.89H178.219V11.258C177.827 11.5847 177.355 11.8227 176.805 11.972C176.263 12.1213 175.727 12.196 175.195 12.196C174.569 12.196 173.986 12.098 173.445 11.902C172.913 11.706 172.451 11.4027 172.059 10.992C171.667 10.572 171.359 10.04 171.135 9.396C170.911 8.752 170.799 7.98667 170.799 7.1C170.799 6.176 170.929 5.392 171.191 4.748C171.461 4.09467 171.811 3.56733 172.241 3.166C172.679 2.75533 173.169 2.46133 173.711 2.284C174.252 2.09733 174.803 2.004 175.363 2.004C175.923 2.004 176.413 2.046 176.833 2.13C177.262 2.214 177.603 2.30267 177.855 2.396L177.463 4.006C177.229 3.91267 176.968 3.84267 176.679 3.796C176.389 3.74 176.021 3.712 175.573 3.712C175.171 3.712 174.803 3.77267 174.467 3.894C174.131 4.01533 173.837 4.216 173.585 4.496C173.342 4.76667 173.151 5.11667 173.011 5.546C172.88 5.97533 172.815 6.498 172.815 7.114C172.815 7.702 172.88 8.21067 173.011 8.64C173.141 9.06 173.323 9.41 173.557 9.69C173.79 9.96067 174.061 10.1613 174.369 10.292C174.686 10.4227 175.022 10.488 175.377 10.488C175.619 10.488 175.857 10.46 176.091 10.404C176.324 10.3387 176.52 10.2453 176.679 10.124V8.276L174.565 8.052V6.89ZM181.346 5V8.976C181.346 9.54533 181.411 9.956 181.542 10.208C181.682 10.46 181.948 10.586 182.34 10.586C182.685 10.586 182.97 10.4833 183.194 10.278C183.427 10.0727 183.6 9.82067 183.712 9.522V5H185.532V9.872C185.532 10.2547 185.551 10.6327 185.588 11.006C185.625 11.37 185.681 11.7013 185.756 12H184.384L184.062 10.964H184.006C183.791 11.3187 183.493 11.6127 183.11 11.846C182.727 12.0793 182.275 12.196 181.752 12.196C181.397 12.196 181.08 12.1493 180.8 12.056C180.52 11.9627 180.287 11.8087 180.1 11.594C179.913 11.3793 179.769 11.09 179.666 10.726C179.573 10.362 179.526 9.90467 179.526 9.354V5H181.346ZM187.087 5.406C187.46 5.238 187.904 5.10733 188.417 5.014C188.93 4.91133 189.467 4.86 190.027 4.86C190.512 4.86 190.918 4.92067 191.245 5.042C191.572 5.154 191.828 5.31733 192.015 5.532C192.211 5.74667 192.346 6.00333 192.421 6.302C192.505 6.60067 192.547 6.93667 192.547 7.31C192.547 7.72067 192.533 8.136 192.505 8.556C192.477 8.96667 192.458 9.37267 192.449 9.774C192.449 10.1753 192.463 10.5673 192.491 10.95C192.519 11.3233 192.589 11.678 192.701 12.014H191.217L190.923 11.048H190.853C190.666 11.3373 190.405 11.5893 190.069 11.804C189.742 12.0093 189.318 12.112 188.795 12.112C188.468 12.112 188.174 12.0653 187.913 11.972C187.652 11.8693 187.428 11.7293 187.241 11.552C187.054 11.3653 186.91 11.1507 186.807 10.908C186.704 10.656 186.653 10.376 186.653 10.068C186.653 9.63867 186.746 9.27933 186.933 8.99C187.129 8.69133 187.404 8.45333 187.759 8.276C188.123 8.08933 188.552 7.96333 189.047 7.898C189.551 7.82333 190.111 7.8 190.727 7.828C190.792 7.30533 190.755 6.932 190.615 6.708C190.475 6.47467 190.162 6.358 189.677 6.358C189.313 6.358 188.926 6.39533 188.515 6.47C188.114 6.54467 187.782 6.64267 187.521 6.764L187.087 5.406ZM189.397 10.614C189.761 10.614 190.05 10.5347 190.265 10.376C190.48 10.208 190.638 10.0307 190.741 9.844V8.934C190.452 8.906 190.172 8.90133 189.901 8.92C189.64 8.93867 189.406 8.98067 189.201 9.046C188.996 9.11133 188.832 9.20467 188.711 9.326C188.59 9.44733 188.529 9.60133 188.529 9.788C188.529 10.0493 188.604 10.2547 188.753 10.404C188.912 10.544 189.126 10.614 189.397 10.614ZM197.938 6.708C197.649 6.60533 197.388 6.554 197.154 6.554C196.828 6.554 196.552 6.64267 196.328 6.82C196.114 6.988 195.969 7.20733 195.894 7.478V12H194.074V5H195.488L195.698 5.924H195.754C195.913 5.57867 196.128 5.31267 196.398 5.126C196.669 4.93933 196.986 4.846 197.35 4.846C197.593 4.846 197.868 4.89733 198.176 5L197.938 6.708ZM198.941 5.406C199.314 5.238 199.757 5.10733 200.271 5.014C200.784 4.91133 201.321 4.86 201.881 4.86C202.366 4.86 202.772 4.92067 203.099 5.042C203.425 5.154 203.682 5.31733 203.869 5.532C204.065 5.74667 204.2 6.00333 204.275 6.302C204.359 6.60067 204.401 6.93667 204.401 7.31C204.401 7.72067 204.387 8.136 204.359 8.556C204.331 8.96667 204.312 9.37267 204.303 9.774C204.303 10.1753 204.317 10.5673 204.345 10.95C204.373 11.3233 204.443 11.678 204.555 12.014H203.071L202.777 11.048H202.707C202.52 11.3373 202.259 11.5893 201.923 11.804C201.596 12.0093 201.171 12.112 200.649 12.112C200.322 12.112 200.028 12.0653 199.767 11.972C199.505 11.8693 199.281 11.7293 199.095 11.552C198.908 11.3653 198.763 11.1507 198.661 10.908C198.558 10.656 198.507 10.376 198.507 10.068C198.507 9.63867 198.6 9.27933 198.787 8.99C198.983 8.69133 199.258 8.45333 199.613 8.276C199.977 8.08933 200.406 7.96333 200.901 7.898C201.405 7.82333 201.965 7.8 202.581 7.828C202.646 7.30533 202.609 6.932 202.469 6.708C202.329 6.47467 202.016 6.358 201.531 6.358C201.167 6.358 200.779 6.39533 200.369 6.47C199.967 6.54467 199.636 6.64267 199.375 6.764L198.941 5.406ZM201.251 10.614C201.615 10.614 201.904 10.5347 202.119 10.376C202.333 10.208 202.492 10.0307 202.595 9.844V8.934C202.305 8.906 202.025 8.90133 201.755 8.92C201.493 8.93867 201.26 8.98067 201.055 9.046C200.849 9.11133 200.686 9.20467 200.565 9.326C200.443 9.44733 200.383 9.60133 200.383 9.788C200.383 10.0493 200.457 10.2547 200.607 10.404C200.765 10.544 200.98 10.614 201.251 10.614ZM210.212 12V8.024C210.212 7.45467 210.128 7.044 209.96 6.792C209.801 6.54 209.526 6.414 209.134 6.414C208.789 6.414 208.495 6.51667 208.252 6.722C208.019 6.918 207.851 7.16533 207.748 7.464V12H205.928V5H207.37L207.58 5.924H207.636C207.851 5.62533 208.135 5.364 208.49 5.14C208.845 4.916 209.302 4.804 209.862 4.804C210.207 4.804 210.515 4.85067 210.786 4.944C211.057 5.03733 211.285 5.19133 211.472 5.406C211.659 5.62067 211.799 5.91467 211.892 6.288C211.985 6.652 212.032 7.10467 212.032 7.646V12H210.212ZM212.829 5H213.795V3.684L215.615 3.166V5H217.323V6.54H215.615V9.228C215.615 9.71333 215.661 10.0633 215.755 10.278C215.857 10.4833 216.044 10.586 216.315 10.586C216.501 10.586 216.66 10.5673 216.791 10.53C216.931 10.4927 217.085 10.4367 217.253 10.362L217.575 11.762C217.323 11.8833 217.029 11.986 216.693 12.07C216.357 12.154 216.016 12.196 215.671 12.196C215.027 12.196 214.551 12.0327 214.243 11.706C213.944 11.37 213.795 10.824 213.795 10.068V6.54H212.829V5ZM223.969 11.398C223.689 11.622 223.307 11.8133 222.821 11.972C222.345 12.1213 221.837 12.196 221.295 12.196C220.166 12.196 219.34 11.8693 218.817 11.216C218.295 10.5533 218.033 9.648 218.033 8.5C218.033 7.268 218.327 6.344 218.915 5.728C219.503 5.112 220.329 4.804 221.393 4.804C221.748 4.804 222.093 4.85067 222.429 4.944C222.765 5.03733 223.064 5.19133 223.325 5.406C223.587 5.62067 223.797 5.91 223.955 6.274C224.114 6.638 224.193 7.09067 224.193 7.632C224.193 7.828 224.179 8.038 224.151 8.262C224.133 8.486 224.1 8.71933 224.053 8.962H219.853C219.881 9.55 220.031 9.99333 220.301 10.292C220.581 10.5907 221.029 10.74 221.645 10.74C222.028 10.74 222.369 10.684 222.667 10.572C222.975 10.4507 223.209 10.3293 223.367 10.208L223.969 11.398ZM221.365 6.26C220.889 6.26 220.535 6.40467 220.301 6.694C220.077 6.974 219.942 7.352 219.895 7.828H222.499C222.537 7.324 222.457 6.93667 222.261 6.666C222.075 6.39533 221.776 6.26 221.365 6.26ZM231.01 11.398C230.73 11.622 230.348 11.8133 229.862 11.972C229.386 12.1213 228.878 12.196 228.336 12.196C227.207 12.196 226.381 11.8693 225.858 11.216C225.336 10.5533 225.074 9.648 225.074 8.5C225.074 7.268 225.368 6.344 225.956 5.728C226.544 5.112 227.37 4.804 228.434 4.804C228.789 4.804 229.134 4.85067 229.47 4.944C229.806 5.03733 230.105 5.19133 230.366 5.406C230.628 5.62067 230.838 5.91 230.996 6.274C231.155 6.638 231.234 7.09067 231.234 7.632C231.234 7.828 231.22 8.038 231.192 8.262C231.174 8.486 231.141 8.71933 231.094 8.962H226.894C226.922 9.55 227.072 9.99333 227.342 10.292C227.622 10.5907 228.07 10.74 228.686 10.74C229.069 10.74 229.41 10.684 229.708 10.572C230.016 10.4507 230.25 10.3293 230.408 10.208L231.01 11.398ZM228.406 6.26C227.93 6.26 227.576 6.40467 227.342 6.694C227.118 6.974 226.983 7.352 226.936 7.828H229.54C229.578 7.324 229.498 6.93667 229.302 6.666C229.116 6.39533 228.817 6.26 228.406 6.26Z" fill="black"/>
<rect x="236" y="6" width="6" height="1" rx="0.5" fill="black"/>
</svg>
