<svg width="304" height="101" viewBox="0 0 304 101" fill="none" xmlns="http://www.w3.org/2000/svg">
<mask id="mask0_409_2929" style="mask-type:alpha" maskUnits="userSpaceOnUse" x="0" y="0" width="100" height="101">
<path d="M100 0.5H0V100.5H100V0.5Z" fill="#C4C4C4"/>
</mask>
<g mask="url(#mask0_409_2929)">
<path d="M82.4739 32.9733L90.4636 28.8496L88.9171 38.1281L98.7111 41.4784L88.9171 46.6331L82.4739 32.9733Z" fill="#BF4B32" stroke="white" stroke-width="1.32146"/>
<path d="M17.7833 75.4998L9.79357 79.6235L11.34 70.3452L1.54614 66.9948L11.34 61.8398L17.7833 75.4998Z" fill="#BF4B32" stroke="white" stroke-width="1.32146"/>
<path d="M48.9683 90.448C71.0313 90.448 88.9169 72.5624 88.9169 50.4994C88.9169 28.4364 71.0313 10.5508 48.9683 10.5508C26.9053 10.5508 9.01974 28.4364 9.01974 50.4994C9.01974 72.5624 26.9053 90.448 48.9683 90.448Z" fill="#ECA244" stroke="black" stroke-width="0.909091"/>
<path d="M48.9682 79.3648C64.9104 79.3648 77.8342 66.4411 77.8342 50.4988C77.8342 34.5566 64.9104 21.6328 48.9682 21.6328C33.0259 21.6328 20.1022 34.5566 20.1022 50.4988C20.1022 66.4411 33.0259 79.3648 48.9682 79.3648Z" stroke="white" stroke-width="12.7273"/>
<path d="M48.9682 79.3648C64.9104 79.3648 77.8342 66.4411 77.8342 50.4988C77.8342 34.5566 64.9104 21.6328 48.9682 21.6328C33.0259 21.6328 20.1022 34.5566 20.1022 50.4988C20.1022 66.4411 33.0259 79.3648 48.9682 79.3648Z" stroke="#BF4B32" stroke-width="10"/>
<path d="M65.4632 71.1182L66.4451 72.8597L68.4047 73.255L67.0518 74.727L67.2813 76.7128L65.4632 75.8809L63.6454 76.7128L63.8749 74.727L62.522 73.255L64.4816 72.8597L65.4632 71.1182Z" fill="white"/>
<path d="M49.4841 76.2725L50.4656 78.0139L52.4256 78.4093L51.0724 79.8813L51.3018 81.8671L49.4841 81.0352L47.666 81.8671L47.8958 79.8813L46.5426 78.4093L48.5025 78.0139L49.4841 76.2725Z" fill="white"/>
<path d="M75.2576 59.7773L76.2392 61.5188L78.1987 61.9146L76.8459 63.3862L77.0753 65.3724L75.2576 64.5401L73.4395 65.3724L73.6689 63.3862L72.3161 61.9146L74.2757 61.5188L75.2576 59.7773Z" fill="white"/>
<g filter="url(#filter0_d_409_2929)">
<path d="M83.3479 25.5811L7.27051 59.4971L14.1967 75.0334L90.2742 41.1175L83.3479 25.5811Z" fill="white"/>
<path d="M83.0606 26.205L7.92703 59.7002L14.4839 74.4081L89.6175 40.9129L83.0606 26.205Z" fill="url(#paint0_linear_409_2929)"/>
</g>
<path d="M26.2928 63.9124C26.1603 64.3819 25.876 64.8284 25.4397 65.2518C25.0019 65.6716 24.466 66.0238 23.8319 66.3075C23.1661 66.6053 22.5167 66.7223 21.8837 66.6589C21.2526 66.5904 20.676 66.3411 20.1538 65.911C19.6351 65.4791 19.2051 64.8915 18.8639 64.1479L18.6298 63.6248C18.2862 62.8567 18.1177 62.1351 18.1242 61.4599C18.1327 60.7798 18.3138 60.183 18.6675 59.6695C19.0232 59.1511 19.5287 58.745 20.1839 58.4521C21.0963 58.0436 21.9074 57.9429 22.6171 58.1496C23.3253 58.3528 23.913 58.8489 24.3801 59.6376L22.8371 60.328C22.5696 59.9192 22.2686 59.667 21.9341 59.5713C21.6032 59.4745 21.2263 59.5202 20.8036 59.7096C20.2646 59.9507 19.9449 60.3369 19.8443 60.8681C19.7438 61.3993 19.8706 62.0656 20.2249 62.8667L20.4448 63.3582C20.8058 64.1649 21.2317 64.7057 21.7226 64.9809C22.2135 65.2557 22.7548 65.261 23.3466 64.9961C23.942 64.7298 24.3097 64.4128 24.4498 64.0457L23.8564 62.7195L22.4138 63.3649L21.8913 62.1972L24.9191 60.8426L26.2928 63.9124ZM30.3977 54.0089L32.6651 59.0762C33.0418 59.9181 33.0755 60.7021 32.7662 61.428C32.4604 62.1528 31.8513 62.7192 30.939 63.1273C30.0407 63.5291 29.2209 63.6106 28.4797 63.3716C27.7385 63.1323 27.1767 62.5996 26.7941 61.7727L24.5007 56.6472L26.0859 55.9379L28.358 61.016C28.5834 61.5199 28.8679 61.8344 29.2115 61.9596C29.557 62.0798 29.9429 62.0447 30.3692 61.8539C31.2604 61.455 31.5034 60.784 31.0982 59.8408L28.8072 54.7202L30.3977 54.0089ZM38.6581 57.644L35.8786 58.8876L36.0595 60.7092L34.3738 61.4635L33.7954 52.4883L35.2643 51.8312L41.5864 58.2362L39.901 58.9904L38.6581 57.644ZM35.7322 57.4121L37.6556 56.5514L35.3999 54.1043L35.7322 57.4121ZM43.8932 53.8238L42.6304 54.389L43.8903 57.2053L42.3052 57.9145L38.8627 50.2209L41.7215 48.9418C42.6304 48.5355 43.4219 48.4241 44.0964 48.6085C44.7708 48.7929 45.2737 49.2553 45.6045 49.995C45.8393 50.5199 45.9212 51.0096 45.8499 51.4642C45.7804 51.9138 45.5616 52.3461 45.1932 52.7603L48.2645 55.1596L48.2974 55.2333L46.596 55.9947L43.8932 53.8238ZM42.0556 53.105L43.3347 52.5326C43.7325 52.3546 43.996 52.1163 44.1244 51.8177C44.2513 51.5156 44.2354 51.1869 44.0762 50.8312C43.9137 50.4681 43.6822 50.2294 43.3815 50.1145C43.084 49.9982 42.7223 50.0351 42.296 50.2259L41.0226 50.7957L42.0556 53.105ZM52.851 51.2933L50.0715 52.5369L50.2524 54.3589L48.5669 55.1128L47.9882 46.1379L49.4574 45.4805L55.7797 51.8855L54.0939 52.6397L52.851 51.2933ZM49.9251 51.0613L51.8485 50.2011L49.5928 47.7539L49.9251 51.0613ZM62.7545 48.7645L61.1694 49.4741L55.8184 45.7926L58.0836 50.8546L56.4981 51.5642L53.0559 43.8706L54.641 43.161L60.002 46.8507L57.7322 41.778L59.312 41.0713L62.7545 48.7645ZM66.9038 39.2152L64.5471 40.2699L67.4152 46.6794L65.8301 47.3887L62.962 40.9791L60.6371 42.0195L60.0623 40.7355L66.3293 37.9312L66.9038 39.2152ZM73.8176 39.8128L70.774 41.1748L71.696 43.2355L75.268 41.6372L75.8379 42.9106L70.6808 45.2181L67.2382 37.5245L72.385 35.2217L72.9595 36.5057L69.3978 38.0993L70.2183 39.933L73.262 38.5709L73.8176 39.8128ZM79.9049 37.089L76.8613 38.4511L77.7832 40.5117L81.3552 38.9135L81.9251 40.1869L76.768 42.4943L73.3254 34.8009L78.4722 32.498L79.0467 33.7821L75.4854 35.3756L76.3056 37.2092L79.3492 35.8473L79.9049 37.089Z" fill="white"/>
<path d="M22.3486 41.8309C22.1571 41.7745 21.9907 41.799 21.8495 41.9043C21.706 42.0089 21.5262 42.2206 21.3099 42.5391C21.0915 42.8568 20.8968 43.1018 20.726 43.2742C20.2595 43.744 19.7704 43.904 19.2589 43.7533C18.993 43.6749 18.7783 43.5309 18.6148 43.321C18.4497 43.1082 18.3497 42.8451 18.3148 42.5309C18.2806 42.215 18.3149 41.882 18.4178 41.5327C18.5213 41.1813 18.6778 40.887 18.8873 40.6501C19.0944 40.4121 19.3363 40.2518 19.6129 40.1692C19.8901 40.0845 20.1763 40.0855 20.4715 40.1724L20.1728 41.1866C19.9475 41.1203 19.7519 41.1398 19.5862 41.2451C19.4182 41.3501 19.2963 41.5309 19.2207 41.7877C19.1477 42.0355 19.1439 42.2437 19.2093 42.4125C19.2725 42.5806 19.3897 42.6898 19.5609 42.7401C19.7209 42.7873 19.8786 42.7469 20.0339 42.6185C20.1898 42.4884 20.3612 42.2802 20.5481 41.9951C20.8916 41.4692 21.2306 41.1125 21.5651 40.9245C21.8996 40.7362 22.2584 40.6987 22.6415 40.8118C23.0674 40.937 23.3546 41.1969 23.503 41.5909C23.6492 41.9838 23.642 42.4533 23.4814 42.9987C23.3699 43.377 23.1996 43.7015 22.9706 43.9721C22.7393 44.2419 22.4789 44.4235 22.1893 44.5171C21.9004 44.6082 21.5971 44.6072 21.2794 44.5135L21.579 43.4962C22.1221 43.6561 22.4892 43.4114 22.6803 42.7625C22.7514 42.5213 22.7583 42.3192 22.7013 42.1554C22.6419 41.9909 22.5244 41.8827 22.3486 41.8309Z" fill="white"/>
<path d="M24.5567 37.6851L23.7487 39.3532L24.5465 40.1308L24.0565 41.1425L20.2717 37.1872L20.6987 36.3057L26.1532 36.8138L25.6632 37.8255L24.5567 37.6851ZM23.1025 38.723L23.6617 37.5684L21.6523 37.3117L23.1025 38.723Z" fill="white"/>
<path d="M25.167 31.0843L24.2594 32.3673L27.7487 34.8358L27.1382 35.6988L23.6488 33.2303L22.7534 34.496L22.0544 34.0015L24.468 30.5898L25.167 31.0843Z" fill="white"/>
<path d="M29.8543 32.4721L29.1338 33.2457L25.3794 29.7491L26.0999 28.9756L29.8543 32.4721Z" fill="white"/>
<path d="M32.1181 28.7723C31.9915 28.6179 31.8402 28.5445 31.6642 28.5521C31.4867 28.5579 31.219 28.6316 30.8611 28.7731C30.5018 28.9129 30.203 29.006 29.9647 29.0525C29.3146 29.1785 28.8205 29.0353 28.4824 28.623C28.3066 28.4086 28.2102 28.1687 28.193 27.9033C28.1762 27.6346 28.2417 27.3606 28.3895 27.0814C28.5391 26.8008 28.7547 26.5451 29.0362 26.3142C29.3196 26.0818 29.6146 25.9266 29.9211 25.8484C30.2261 25.7684 30.5162 25.772 30.7913 25.8594C31.0683 25.9452 31.3043 26.107 31.4994 26.345L30.682 27.0153C30.533 26.8336 30.3604 26.7398 30.164 26.7337C29.9662 26.7258 29.7637 26.8068 29.5566 26.9766C29.3568 27.1404 29.2365 27.3105 29.1957 27.4867C29.1534 27.6611 29.1888 27.8174 29.302 27.9554C29.4078 28.0844 29.5609 28.1396 29.7614 28.121C29.9636 28.101 30.2223 28.0256 30.5374 27.8949C31.1171 27.6534 31.5981 27.5491 31.9805 27.5819C32.3628 27.6147 32.6806 27.7855 32.9338 28.0944C33.2153 28.4377 33.3066 28.8139 33.2077 29.2231C33.1073 29.6305 32.8373 30.0144 32.3977 30.3749C32.0925 30.6251 31.7692 30.7975 31.4276 30.8923C31.0846 30.9852 30.7671 30.9889 30.4751 30.9032C30.185 30.8161 29.9349 30.6445 29.7249 30.3884L30.545 29.7158C30.904 30.1536 31.3451 30.158 31.8682 29.7291C32.0626 29.5697 32.1823 29.4063 32.2272 29.2388C32.2706 29.0695 32.2343 28.914 32.1181 28.7723Z" fill="white"/>
<path d="M36.1249 25.3339L34.3781 26.3676L35.4458 28.1719L34.5361 28.7103L31.9232 24.295L34.798 22.5938L35.2341 23.3306L33.269 24.4935L33.9438 25.6337L35.6905 24.6001L36.1249 25.3339Z" fill="white"/>
<path d="M40.2616 24.813L38.5375 25.4932L38.5974 26.6059L37.552 27.0185L37.4453 21.5451L38.3566 21.1855L42.0261 25.2531L40.9804 25.6657L40.2616 24.813ZM38.4885 24.592L39.6818 24.1212L38.3768 22.5715L38.4885 24.592Z" fill="white"/>
<path d="M45.881 22.8429C45.9576 23.391 45.8491 23.8588 45.5548 24.2462C45.263 24.6331 44.8229 24.8896 44.2349 25.0156C43.592 25.1536 43.0392 25.0462 42.5768 24.6937C42.1162 24.3383 41.8048 23.7828 41.6427 23.0271L41.5771 22.7205C41.4736 22.2381 41.4676 21.795 41.5587 21.391C41.6498 20.9871 41.8321 20.6538 42.1048 20.3911C42.3796 20.1256 42.7257 19.948 43.1438 19.8584C43.7225 19.7343 44.2222 19.7894 44.6424 20.0236C45.0626 20.2579 45.3605 20.6493 45.5357 21.198L44.502 21.4195C44.4073 21.1011 44.2662 20.8863 44.0793 20.775C43.8938 20.661 43.6424 20.638 43.3254 20.706C42.981 20.7798 42.7491 20.9593 42.63 21.2443C42.513 21.5265 42.5076 21.9276 42.6144 22.4477L42.6956 22.8267C42.8115 23.3688 42.9782 23.7475 43.1949 23.9629C43.414 24.1778 43.7002 24.2474 44.0541 24.1715C44.3732 24.1031 44.5956 23.9798 44.7208 23.8016C44.8477 23.6206 44.8899 23.3749 44.8474 23.0645L45.881 22.8429Z" fill="white"/>
<path d="M50.1237 20.1705L48.5542 20.2532L48.779 24.5215L47.7234 24.5771L47.4985 20.3088L45.9503 20.3904L45.9053 19.5354L50.0783 19.3154L50.1237 20.1705Z" fill="white"/>
<path d="M51.9386 24.7102L50.885 24.6242L51.3027 19.5107L52.3563 19.5968L51.9386 24.7102Z" fill="white"/>
<path d="M58.2988 23.4855C58.1878 23.9782 58.0031 24.3905 57.7453 24.7225C57.4875 25.0545 57.1733 25.2846 56.8024 25.4129C56.4336 25.5417 56.0396 25.5589 55.6204 25.4643C55.2055 25.3708 54.858 25.1876 54.5775 24.9149C54.297 24.6422 54.1091 24.3012 54.0133 23.892C53.9183 23.4804 53.924 23.0338 54.03 22.552L54.086 22.3045C54.197 21.8118 54.3828 21.3986 54.6435 21.0649C54.907 20.7293 55.2229 20.4983 55.591 20.3718C55.9616 20.2435 56.3555 20.2264 56.7729 20.3204C57.1899 20.4144 57.5371 20.5987 57.8148 20.8732C58.0953 21.1459 58.2814 21.4901 58.3733 21.9057C58.4676 22.3195 58.4598 22.7716 58.3492 23.262L58.2988 23.4855ZM57.3048 23.023C57.4233 22.4983 57.419 22.0783 57.2928 21.7633C57.1662 21.4482 56.9289 21.2514 56.5807 21.1729C56.2346 21.0948 55.9371 21.1699 55.6882 21.3979C55.4399 21.6237 55.2559 21.9964 55.1364 22.5161L55.0814 22.7601C54.9662 23.2712 54.9708 23.6888 55.0949 24.013C55.2194 24.3372 55.458 24.5391 55.8109 24.6187C56.157 24.6967 56.4534 24.6214 56.6999 24.3929C56.947 24.162 57.1304 23.7868 57.2499 23.2671L57.3048 23.023Z" fill="white"/>
<path d="M61.9249 27.7325L60.9483 27.3283L60.338 23.4222L59.0469 26.5412L58.0703 26.1369L60.0324 21.3965L61.0093 21.8008L61.62 25.7147L62.9139 22.5892L63.8873 22.9922L61.9249 27.7325Z" fill="white"/>
<path d="M37.2065 43.5919L36.0119 44.1277L33.9464 39.5227L32.7187 40.6046L32.283 39.6334L34.3751 37.6224L34.5032 37.5649L37.2065 43.5919ZM42.1009 38.4075C42.4739 39.2397 42.5874 39.9536 42.4406 40.5493C42.2938 41.1447 41.8885 41.5912 41.2243 41.889C40.5686 42.1834 39.97 42.1919 39.4285 41.9149C38.8874 41.638 38.4314 41.0979 38.0612 40.294L37.564 39.1862C37.187 38.3458 37.0746 37.6298 37.2264 37.0387C37.3814 36.4465 37.7863 36.0029 38.4424 35.7089C39.0984 35.4147 39.697 35.4061 40.2381 35.683C40.7782 35.9571 41.2335 36.4961 41.6037 37.2997L42.1009 38.4075ZM40.3612 37.728C40.1374 37.2295 39.9058 36.8979 39.6668 36.7337C39.4289 36.5656 39.1654 36.5465 38.876 36.6763C38.5952 36.8022 38.436 37.0043 38.3984 37.2826C38.3626 37.5571 38.4438 37.9259 38.642 38.3901L39.2984 39.8532C39.5182 40.344 39.748 40.6795 39.9881 40.8596C40.2292 41.0362 40.4973 41.0582 40.7924 40.9259C41.0846 40.7951 41.2438 40.5862 41.2707 40.2993C41.2977 40.0124 41.2083 39.6323 41.0026 39.1585L40.3612 37.728ZM46.9619 36.2273C47.3353 37.0596 47.4484 37.7734 47.3019 38.3688C47.1551 38.9642 46.7498 39.411 46.0856 39.7089C45.4296 40.0029 44.831 40.0117 44.2899 39.7348C43.7484 39.4578 43.2927 38.9174 42.9221 38.1135L42.4253 37.0057C42.0484 36.1653 41.9356 35.4495 42.0877 34.8583C42.2424 34.2659 42.6477 33.8226 43.3037 33.5285C43.9594 33.2343 44.558 33.2257 45.0994 33.5026C45.6395 33.7767 46.0945 34.3157 46.4651 35.1194L46.9619 36.2273ZM45.2221 35.5478C44.9984 35.049 44.7672 34.7175 44.5278 34.5533C44.2902 34.3852 44.0268 34.3659 43.7374 34.4957C43.4562 34.6218 43.297 34.824 43.2597 35.1023C43.2239 35.3765 43.3051 35.7457 43.503 36.2096L44.1594 37.6731C44.3796 38.1635 44.6094 38.499 44.8491 38.6795C45.0906 38.8557 45.3587 38.8777 45.6533 38.7458C45.9455 38.6146 46.1051 38.4057 46.1321 38.1188C46.159 37.8319 46.0697 37.4518 45.8636 36.978L45.2221 35.5478ZM46.6913 33.4985C46.5257 33.1292 46.5115 32.7765 46.6487 32.4402C46.7846 32.1012 47.047 31.8445 47.4353 31.6703C47.8296 31.4935 48.1977 31.4657 48.5399 31.5869C48.881 31.7053 49.1388 31.9589 49.3133 32.3474L49.4466 32.6451C49.6136 33.0171 49.6278 33.3698 49.4892 33.7034C49.3509 34.0369 49.0874 34.2908 48.6987 34.4651C48.3076 34.6406 47.9399 34.6697 47.5963 34.5525C47.2537 34.4313 46.9959 34.1778 46.8229 33.792L46.6913 33.4985ZM47.6278 33.4608C47.7019 33.6262 47.8087 33.7388 47.948 33.7988C48.0892 33.8547 48.2367 33.8481 48.3909 33.7789C48.5455 33.7096 48.6452 33.6037 48.6902 33.4609C48.7356 33.3181 48.72 33.1613 48.6434 32.9905L48.5062 32.6846C48.4317 32.5192 48.3264 32.406 48.1899 32.3448C48.053 32.2836 47.9048 32.2889 47.7452 32.3606C47.5934 32.4286 47.4938 32.5346 47.4459 32.6785C47.3966 32.8198 47.4122 32.98 47.4924 33.1591L47.6278 33.4608ZM51.087 35.5936C50.92 35.2215 50.9073 34.8682 51.0484 34.5334C51.1881 34.1959 51.4512 33.9406 51.837 33.7676C52.2282 33.5921 52.5945 33.5635 52.9356 33.682C53.2782 33.7964 53.5377 34.0507 53.7147 34.4448L53.848 34.7424C54.0136 35.1117 54.0292 35.4638 53.8948 35.7989C53.7594 36.1312 53.4945 36.3855 53.1005 36.5624C52.7037 36.7404 52.3338 36.7688 51.9916 36.6475C51.6491 36.5263 51.3934 36.277 51.2239 35.8995L51.087 35.5936ZM52.0253 35.56C52.0931 35.7116 52.2009 35.8189 52.3484 35.8819C52.4955 35.9448 52.6438 35.9429 52.7927 35.8762C53.1289 35.7254 53.2136 35.464 53.0466 35.0919L52.9058 34.7778C52.8317 34.6124 52.7253 34.5012 52.587 34.444C52.4477 34.3841 52.3009 34.3887 52.1466 34.4579C51.9924 34.5272 51.8909 34.6337 51.8431 34.7777C51.7938 34.919 51.8083 35.0764 51.886 35.25L52.0253 35.56ZM50.2158 37.2156L49.492 37.1631L50.3211 31.1406L51.0448 31.1934L50.2158 37.2156Z" fill="#512B15"/>
<path d="M49.1488 69.663L47.9541 70.1988L45.8885 65.5938L44.6609 66.6758L44.225 65.7045L46.3172 63.6935L46.4453 63.636L49.1488 69.663ZM54.0428 64.4789C54.4162 65.3109 54.5293 66.0247 54.3828 66.6204C54.236 67.2158 53.8307 67.6623 53.1665 67.9602C52.5105 68.2545 51.9119 68.263 51.3708 67.986C50.8293 67.7091 50.3736 67.169 50.0031 66.3651L49.5062 65.2573C49.1293 64.4169 49.0169 63.7009 49.1687 63.1098C49.3233 62.5176 49.7286 62.0743 50.3846 61.78C51.0403 61.4857 51.6389 61.4772 52.1804 61.7541C52.7204 62.0282 53.1754 62.5672 53.546 63.3708L54.0428 64.4789ZM52.3031 63.7992C52.0793 63.3006 51.8481 62.969 51.6087 62.8048C51.3711 62.6367 51.1077 62.6176 50.8183 62.7474C50.5374 62.8733 50.3779 63.0754 50.3406 63.3538C50.3048 63.6282 50.386 63.997 50.5843 64.4612L51.2403 65.9243C51.4605 66.4151 51.6903 66.7506 51.93 66.9307C52.1715 67.1073 52.4396 67.1293 52.7346 66.997C53.0265 66.8662 53.186 66.6573 53.213 66.3704C53.2399 66.0836 53.1506 65.7034 52.9445 65.2297L52.3031 63.7992ZM58.9041 62.2984C59.2775 63.1307 59.3906 63.8445 59.2438 64.4399C59.0974 65.0353 58.6917 65.4821 58.0275 65.78C57.3718 66.074 56.7733 66.0828 56.2318 65.8059C55.6906 65.5289 55.235 64.9885 54.8644 64.1846L54.3676 63.0768C53.9906 62.2364 53.8779 61.5208 54.03 60.9293C54.1846 60.3371 54.5899 59.8938 55.2456 59.5995C55.9016 59.3055 56.5002 59.2967 57.0413 59.5736C57.5814 59.8477 58.0367 60.3867 58.4073 61.1906L58.9041 62.2984ZM57.1644 61.619C56.9406 61.1201 56.7091 60.7885 56.4701 60.6243C56.2325 60.4562 55.969 60.4371 55.6796 60.5669C55.3984 60.6931 55.2392 60.8953 55.202 61.1733C55.1662 61.4477 55.247 61.8169 55.4453 62.2807L56.1016 63.7442C56.3215 64.2346 56.5516 64.5701 56.7913 64.7506C57.0328 64.9268 57.3009 64.9492 57.5956 64.8169C57.8878 64.6857 58.0474 64.4768 58.0743 64.1899C58.1013 63.9031 58.0116 63.5229 57.8059 63.0492L57.1644 61.619ZM58.6335 59.5697C58.4679 59.2002 58.4538 58.8477 58.591 58.5112C58.7268 58.1722 58.9889 57.9158 59.3775 57.7414C59.7715 57.5648 60.1399 57.5367 60.4821 57.658C60.8233 57.7765 61.0811 58.03 61.2552 58.4187L61.3889 58.7162C61.5555 59.0882 61.5697 59.441 61.4314 59.7743C61.2931 60.108 61.0296 60.3619 60.641 60.536C60.2499 60.7116 59.8821 60.741 59.5382 60.6236C59.196 60.5023 58.9382 60.2488 58.7651 59.863L58.6335 59.5697ZM59.5701 59.5321C59.6442 59.6974 59.7509 59.8098 59.8903 59.8701C60.0314 59.9257 60.1789 59.9194 60.3332 59.8499C60.4874 59.7807 60.5874 59.6747 60.6325 59.5321C60.6779 59.3892 60.6619 59.2325 60.5853 59.0616L60.4481 58.7559C60.374 58.5903 60.2687 58.4772 60.1321 58.4158C59.9953 58.3548 59.847 58.3601 59.6871 58.4318C59.5357 58.4999 59.436 58.6055 59.3878 58.7495C59.3389 58.891 59.3541 59.0509 59.4346 59.2304L59.5701 59.5321ZM63.0289 61.6648C62.8623 61.2928 62.8495 60.9392 62.9906 60.6045C63.1304 60.2669 63.3931 60.0119 63.7789 59.8389C64.1704 59.6633 64.5367 59.6346 64.8779 59.7531C65.2204 59.8676 65.48 60.1218 65.657 60.5158L65.7903 60.8137C65.9559 61.1828 65.9715 61.535 65.8371 61.8701C65.7016 62.2023 65.4367 62.4566 65.0424 62.6336C64.6456 62.8116 64.2761 62.8399 63.9339 62.7187C63.5914 62.5974 63.3357 62.3481 63.1662 61.9708L63.0289 61.6648ZM63.9672 61.6311C64.0353 61.7828 64.1431 61.8899 64.2903 61.9531C64.4378 62.0158 64.586 62.014 64.7346 61.9474C65.0711 61.7967 65.1555 61.535 64.9889 61.163L64.8477 60.8488C64.7736 60.6836 64.6676 60.5722 64.5293 60.5151C64.3899 60.4552 64.2431 60.4598 64.0889 60.5289C63.9343 60.5984 63.8332 60.7048 63.7853 60.8488C63.736 60.9899 63.7506 61.1474 63.8282 61.3211L63.9672 61.6311ZM62.1577 63.2867L61.4339 63.2343L62.2633 57.2119L62.9871 57.2644L62.1577 63.2867Z" fill="#512B15"/>
</g>
<mask id="mask1_409_2929" style="mask-type:alpha" maskUnits="userSpaceOnUse" x="102" y="0" width="100" height="101">
<path d="M202 0.5H102V100.5H202V0.5Z" fill="#C4C4C4"/>
</mask>
<g mask="url(#mask1_409_2929)">
<path d="M184.474 32.9733L192.464 28.8496L190.917 38.1281L200.711 41.4786L190.917 46.633L184.474 32.9733Z" fill="#3A7742" stroke="white" stroke-width="1.33552"/>
<path d="M119.783 75.4995L111.794 79.6233L113.34 70.3451L103.546 66.9946L113.34 61.8398L119.783 75.4995Z" fill="#3A7742" stroke="white" stroke-width="1.33552"/>
<path d="M150.969 90.4476C173.032 90.4476 190.918 72.5621 190.918 50.4992C190.918 28.4363 173.032 10.5508 150.969 10.5508C128.906 10.5508 111.021 28.4363 111.021 50.4992C111.021 72.5621 128.906 90.4476 150.969 90.4476Z" fill="#98B74F" stroke="black" stroke-width="0.909091"/>
<path d="M150.969 79.3648C166.912 79.3648 179.835 66.441 179.835 50.4988C179.835 34.5566 166.912 21.6328 150.969 21.6328C135.027 21.6328 122.104 34.5566 122.104 50.4988C122.104 66.441 135.027 79.3648 150.969 79.3648Z" stroke="white" stroke-width="11.8182"/>
<path d="M150.97 79.3648C166.912 79.3648 179.836 66.441 179.836 50.4988C179.836 34.5566 166.912 21.6328 150.97 21.6328C135.027 21.6328 122.104 34.5566 122.104 50.4988C122.104 66.441 135.027 79.3648 150.97 79.3648Z" stroke="#3A7742" stroke-width="9.09091"/>
<path d="M174.774 50.5166C174.774 52.4222 174.545 54.3208 174.092 56.172L150.988 50.5166H174.774Z" fill="white"/>
<path d="M171.587 62.4096C170.634 64.0598 169.486 65.5899 168.169 66.9661L150.988 50.5166L171.587 62.4096Z" fill="white"/>
<path d="M162.896 71.1328C161.246 72.0855 159.487 72.8364 157.657 73.3697L151.003 50.5332L162.896 71.1328Z" fill="white"/>
<path d="M151.003 74.3192C149.097 74.3192 147.198 74.0904 145.347 73.6371L151.003 50.5332V74.3192Z" fill="white"/>
<path d="M139.095 71.1159C137.445 70.1633 135.915 69.0156 134.538 67.6977L150.988 50.5166L139.095 71.1159Z" fill="white"/>
<path d="M130.404 62.4262C129.451 60.776 128.7 59.0171 128.167 57.1876L151.003 50.5332L130.404 62.4262Z" fill="white"/>
<path d="M127.217 50.5321C127.217 48.6264 127.446 46.7278 127.899 44.877L151.003 50.5321H127.217Z" fill="white"/>
<path d="M127.217 50.5321C127.217 48.6264 127.446 46.7278 127.899 44.877L151.003 50.5321H127.217Z" fill="white"/>
<path d="M130.404 38.6395C131.357 36.9893 132.505 35.4595 133.822 34.083L151.003 50.5324L130.404 38.6395Z" fill="white"/>
<path d="M139.095 29.9186C140.745 28.9658 142.504 28.2148 144.334 27.6816L150.988 50.5179L139.095 29.9186Z" fill="white"/>
<path d="M150.988 26.7314C152.894 26.7314 154.793 26.9605 156.643 27.4135L150.988 50.5175V26.7314Z" fill="white"/>
<path d="M162.896 29.9326C164.546 30.8854 166.076 32.0331 167.453 33.3509L151.003 50.5318L162.896 29.9326Z" fill="white"/>
<path d="M171.587 38.624C172.54 40.2742 173.291 42.0331 173.824 43.8626L150.988 50.517L171.587 38.624Z" fill="white"/>
<path d="M174.774 50.5166C174.774 52.4222 174.545 54.3208 174.092 56.172L150.988 50.5166H174.774Z" fill="white"/>
<path d="M167.464 71.1182L168.446 72.8599L170.406 73.2554L169.053 74.7269L169.282 76.7132L167.464 75.881L165.646 76.7132L165.876 74.7269L164.523 73.2554L166.482 72.8599L167.464 71.1182Z" fill="white"/>
<path d="M151.485 76.2725L152.467 78.0139L154.426 78.4093L153.073 79.8812L153.303 81.8672L151.485 81.0353L149.667 81.8672L149.896 79.8812L148.543 78.4093L150.503 78.0139L151.485 76.2725Z" fill="white"/>
<path d="M177.258 59.7773L178.24 61.5191L180.2 61.9145L178.847 63.3865L179.076 65.3724L177.258 64.5405L175.44 65.3724L175.67 63.3865L174.317 61.9145L176.277 61.5191L177.258 59.7773Z" fill="white"/>
<g filter="url(#filter1_d_409_2929)">
<path d="M185.348 25.5801L109.271 59.4961L116.197 75.0324L192.275 41.1165L185.348 25.5801Z" fill="white"/>
<path d="M185.05 26.2093L109.939 59.6943L116.496 74.4022L191.607 40.9171L185.05 26.2093Z" fill="#3A7742"/>
</g>
<path d="M120.865 68.3859L119.279 69.095L115.837 61.4017L117.422 60.6922L120.865 68.3859ZM128.595 64.927L127.01 65.6361L121.659 61.9547L123.924 67.0168L122.339 67.7263L118.896 60.0326L120.482 59.3235L125.843 63.0129L123.573 57.9403L125.153 57.2333L128.595 64.927ZM135.632 60.6115C135.499 61.0807 135.215 61.5273 134.779 61.9508C134.341 62.3708 133.805 62.7224 133.171 63.0063C132.505 63.3042 131.856 63.4214 131.223 63.3578C130.592 63.2894 130.015 63.0399 129.493 62.6098C128.974 62.1782 128.544 61.5905 128.203 60.847L127.969 60.3238C127.625 59.5557 127.457 58.8343 127.463 58.1589C127.472 57.4789 127.653 56.8821 128.007 56.3684C128.362 55.8501 128.868 55.4442 129.523 55.1508C130.435 54.7428 131.246 54.642 131.956 54.8487C132.664 55.0519 133.252 55.5477 133.719 56.3364L132.176 57.027C131.909 56.6182 131.608 56.3659 131.273 56.2705C130.942 56.1733 130.565 56.2192 130.143 56.4084C129.604 56.6494 129.284 57.0357 129.183 57.567C129.083 58.0982 129.21 58.7645 129.564 59.5656L129.784 60.0571C130.145 60.8638 130.571 61.4045 131.062 61.6796C131.552 61.9547 132.094 61.9599 132.686 61.695C133.281 61.4287 133.649 61.1119 133.789 60.7449L133.195 59.4185L131.753 60.0638L131.23 58.8961L134.258 57.5414L135.632 60.6115ZM138.944 56.9161L137.681 57.481L138.941 60.2975L137.356 61.0066L133.914 53.3133L136.772 52.034C137.681 51.6273 138.473 51.5164 139.147 51.7006C139.822 51.8852 140.325 52.3473 140.655 53.087C140.89 53.6119 140.972 54.1017 140.901 54.5564C140.831 55.0059 140.612 55.4382 140.244 55.8522L143.315 58.2515L143.348 58.3256L141.647 59.087L138.944 56.9161ZM137.107 56.1971L138.385 55.6249C138.784 55.4466 139.047 55.2084 139.175 54.9098C139.302 54.608 139.286 54.2789 139.127 53.9231C138.965 53.5603 138.733 53.3214 138.432 53.2066C138.135 53.0901 137.773 53.1273 137.347 53.3182L136.073 53.888L137.107 56.1971ZM147.405 52.5087L144.361 53.8708L145.283 55.9315L148.855 54.3333L149.425 55.6066L144.268 57.9143L140.825 50.2206L145.972 47.9178L146.546 49.2017L142.985 50.7954L143.805 52.6291L146.849 51.267L147.405 52.5087ZM150.355 55.1905L146.912 47.4968L149.28 46.4378C149.956 46.135 150.629 46.0178 151.298 46.0866C151.969 46.1498 152.58 46.3964 153.132 46.8259C153.682 47.2522 154.117 47.8228 154.437 48.5378L154.595 48.8919C154.915 49.607 155.052 50.3091 155.005 50.9982C154.961 51.6856 154.741 52.3021 154.342 52.8484C153.944 53.3943 153.409 53.8196 152.738 54.1242L150.355 55.1905ZM149.072 48.0715L151.37 53.2077L152.137 52.8649C152.757 52.5877 153.14 52.1729 153.286 51.6213C153.432 51.0694 153.34 50.415 153.01 49.6582L152.828 49.2512C152.478 48.4694 152.051 47.9501 151.548 47.6933C151.042 47.4333 150.478 47.4428 149.854 47.7217L149.072 48.0715ZM159.079 51.287L157.494 51.9964L154.051 44.3028L155.637 43.5933L159.079 51.287ZM163.69 45.222L160.646 46.5838L161.568 48.6445L165.141 47.0463L165.711 48.3196L160.553 50.6273L157.111 42.9336L162.257 40.6308L162.832 41.915L159.271 43.5084L160.091 45.3421L163.134 43.9803L163.69 45.222ZM172.897 45.1042L171.312 45.8136L165.961 42.1322L168.226 47.1943L166.64 47.9038L163.198 40.2101L164.783 39.5006L170.144 43.1905L167.874 38.1175L169.454 37.4108L172.897 45.1042ZM177.046 35.5549L174.69 36.6094L177.557 43.0189L175.972 43.7284L173.104 37.3185L170.779 38.3589L170.205 37.075L176.472 34.2709L177.046 35.5549ZM183.825 37.7919C183.691 37.4926 183.482 37.3108 183.2 37.247C182.916 37.1796 182.46 37.1806 181.832 37.2505C181.202 37.3168 180.688 37.335 180.29 37.3059C179.205 37.2249 178.484 36.7845 178.126 35.9849C177.94 35.5691 177.891 35.1472 177.979 34.7191C178.068 34.2859 178.29 33.8799 178.645 33.5013C179.003 33.1211 179.455 32.8088 180.001 32.5645C180.551 32.3186 181.086 32.1999 181.605 32.2084C182.123 32.2134 182.581 32.3445 182.98 32.6017C183.382 32.8574 183.686 33.2159 183.892 33.6774L182.307 34.3867C182.15 34.0345 181.917 33.8111 181.608 33.7166C181.298 33.6187 180.942 33.6596 180.54 33.8392C180.153 34.0126 179.888 34.2302 179.748 34.4919C179.605 34.7501 179.594 35.013 179.714 35.2808C179.826 35.5309 180.045 35.6845 180.371 35.7417C180.7 35.7971 181.142 35.7894 181.698 35.7185C182.721 35.5861 183.529 35.6287 184.121 35.8459C184.713 36.0627 185.142 36.4708 185.41 37.0698C185.708 37.7357 185.691 38.3715 185.357 38.9771C185.022 39.5796 184.428 40.0715 183.575 40.4529C182.984 40.7178 182.397 40.8515 181.814 40.854C181.231 40.8533 180.726 40.7217 180.3 40.4599C179.878 40.1964 179.555 39.8164 179.333 39.3196L180.924 38.608C181.304 39.4571 182.001 39.6547 183.015 39.2006C183.392 39.0319 183.652 38.8245 183.796 38.5785C183.938 38.3291 183.947 38.067 183.825 37.7919Z" fill="white"/>
<path d="M124.859 43.0609L124.569 43.9609L121.1 42.8423L121.086 44.024L120.355 43.7879L120.288 41.6932L120.319 41.5967L124.859 43.0609Z" fill="white"/>
<path d="M125.133 37.7572C125.727 38.0435 126.121 38.3856 126.317 38.7828C126.513 39.18 126.496 39.6155 126.268 40.0888C126.042 40.5565 125.715 40.8393 125.287 40.9379C124.859 41.0365 124.356 40.9498 123.778 40.6779L122.988 40.2965C122.389 40.0074 121.994 39.6639 121.803 39.2667C121.613 38.8674 121.631 38.4337 121.857 37.9663C122.082 37.499 122.409 37.2158 122.837 37.1172C123.263 37.0176 123.765 37.1039 124.344 37.3758L125.133 37.7572ZM123.856 38.1905C123.5 38.0186 123.218 37.9432 123.01 37.9635C122.8 37.9811 122.646 38.093 122.546 38.2993C122.449 38.4997 122.455 38.6853 122.564 38.8565C122.672 39.0249 122.888 39.1912 123.213 39.3555L124.257 39.859C124.606 40.0281 124.889 40.1063 125.106 40.0948C125.321 40.08 125.479 39.9677 125.581 39.7576C125.682 39.5491 125.673 39.3597 125.554 39.1884C125.436 39.0176 125.209 38.8488 124.875 38.6828L123.856 38.1905Z" fill="white"/>
<path d="M127.513 34.2166C128.061 34.5819 128.405 34.9747 128.544 35.3952C128.684 35.8158 128.607 36.2445 128.316 36.6821C128.028 37.114 127.665 37.3495 127.228 37.3884C126.791 37.427 126.304 37.2719 125.769 36.9231L125.039 36.4368C124.485 36.0681 124.141 35.6737 124.007 35.2537C123.874 34.832 123.951 34.4052 124.239 33.9732C124.527 33.5412 124.889 33.3057 125.327 33.2669C125.762 33.2269 126.248 33.3814 126.783 33.7303L127.513 34.2166ZM126.188 34.4701C125.86 34.2511 125.591 34.1375 125.381 34.129C125.171 34.1176 125.003 34.2071 124.876 34.3978C124.753 34.5829 124.733 34.7677 124.817 34.9522C124.901 35.1337 125.092 35.3282 125.392 35.5356L126.356 36.1779C126.679 36.3933 126.948 36.5098 127.164 36.5281C127.38 36.5431 127.552 36.4537 127.681 36.2593C127.81 36.067 127.827 35.8779 127.733 35.6923C127.639 35.5064 127.438 35.3083 127.13 35.0978L126.188 34.4701Z" fill="white"/>
<path d="M126.814 32.182C126.598 31.9855 126.486 31.7561 126.48 31.4939C126.472 31.2302 126.571 30.9845 126.778 30.7568C126.987 30.5259 127.223 30.401 127.485 30.3822C127.745 30.362 127.988 30.4552 128.216 30.662L128.391 30.8203C128.609 31.0183 128.72 31.2477 128.725 31.5084C128.73 31.7691 128.629 32.0134 128.422 32.2411C128.214 32.4704 127.979 32.596 127.718 32.6178C127.456 32.6367 127.212 32.5434 126.986 32.3381L126.814 32.182ZM127.423 31.8862C127.52 31.9742 127.623 32.0178 127.733 32.0172C127.842 32.0135 127.938 31.9664 128.02 31.876C128.102 31.7855 128.137 31.6865 128.126 31.579C128.115 31.4714 128.059 31.3722 127.959 31.2813L127.78 31.1185C127.683 31.0305 127.58 30.9861 127.472 30.9851C127.364 30.9841 127.267 31.0305 127.182 31.1242C127.102 31.213 127.066 31.312 127.076 31.4211C127.084 31.5288 127.141 31.6303 127.246 31.7256L127.423 31.8862ZM130.329 32.2974C130.111 32.0994 130 31.8692 129.997 31.6069C129.992 31.3431 130.092 31.0981 130.297 30.872C130.505 30.6427 130.739 30.5179 130.999 30.4977C131.259 30.4743 131.505 30.5675 131.736 30.7772L131.91 30.9356C132.126 31.1321 132.239 31.3606 132.247 31.6212C132.253 31.8803 132.151 32.1253 131.941 32.3563C131.73 32.5888 131.494 32.7145 131.232 32.7333C130.971 32.7521 130.729 32.661 130.508 32.4601L130.329 32.2974ZM130.94 32.0038C131.029 32.0845 131.131 32.1243 131.247 32.1234C131.363 32.1224 131.46 32.0783 131.539 31.9911C131.718 31.7941 131.699 31.5966 131.481 31.3987L131.297 31.2315C131.2 31.1435 131.097 31.1006 130.989 31.1027C130.88 31.1034 130.784 31.1489 130.702 31.2394C130.62 31.3298 130.583 31.4296 130.593 31.5388C130.602 31.6464 130.657 31.7465 130.758 31.8389L130.94 32.0038ZM130.221 33.6229L129.727 33.7972L128.534 29.5719L129.028 29.3975L130.221 33.6229Z" fill="white"/>
<path d="M138.32 27.5914L137.499 28.13L134.182 26.5576L135.902 29.1783L135.081 29.7168L132.467 25.7337L133.288 25.1952L136.612 26.7713L134.888 24.1451L135.706 23.6084L138.32 27.5914Z" fill="white"/>
<path d="M141.119 25.3254L139.548 26.0269L139.649 27.0566L138.696 27.482L138.374 22.4088L139.204 22.0381L142.774 25.6617L141.821 26.0871L141.119 25.3254ZM139.465 25.1928L140.553 24.7074L139.28 23.323L139.465 25.1928Z" fill="white"/>
<path d="M145.819 20.8221L144.41 21.2037L145.448 25.0345L144.501 25.2913L143.463 21.4605L142.073 21.837L141.865 21.0696L145.611 20.0547L145.819 20.8221Z" fill="white"/>
<path d="M150.637 19.4785L150.998 22.5955C151.058 23.1134 150.943 23.5418 150.652 23.8806C150.364 24.2191 149.94 24.4209 149.378 24.4858C148.826 24.5497 148.37 24.4542 148.011 24.1993C147.652 23.9444 147.44 23.5616 147.374 23.051L147.01 19.8982L147.985 19.7854L148.346 22.9089C148.382 23.2188 148.482 23.4367 148.646 23.5627C148.812 23.6862 149.026 23.7328 149.288 23.7025C149.836 23.639 150.081 23.3186 150.023 22.7413L149.659 19.5917L150.637 19.4785Z" fill="white"/>
<path d="M153.729 22.6148L152.947 22.588L152.888 24.331L151.907 24.2974L152.07 19.5361L153.839 19.5967C154.401 19.616 154.831 19.7562 155.127 20.0174C155.424 20.2785 155.565 20.638 155.549 21.0958C155.538 21.4206 155.457 21.6896 155.308 21.9028C155.161 22.1138 154.943 22.2788 154.653 22.3976L155.616 24.3786L155.615 24.4244L154.562 24.3883L153.729 22.6148ZM152.975 21.7934L153.766 21.8205C154.012 21.8289 154.205 21.7733 154.345 21.6537C154.484 21.5319 154.557 21.3609 154.565 21.1407C154.573 20.9161 154.515 20.7374 154.39 20.6043C154.268 20.4714 154.075 20.4004 153.812 20.3914L153.023 20.3644L152.975 21.7934Z" fill="white"/>
<path d="M159.024 24.1466L157.334 23.8226L156.828 24.725L155.802 24.5285L158.441 20.1836L159.334 20.3549L160.189 25.3694L159.164 25.1729L159.024 24.1466ZM157.744 23.0916L158.913 23.3159L158.661 21.4518L157.744 23.0916Z" fill="white"/>
<path d="M161.94 25.2583L163.905 25.9511L163.643 26.6948L160.752 25.6758L162.335 21.1826L163.261 21.5089L161.94 25.2583Z" fill="white"/>
</g>
<mask id="mask2_409_2929" style="mask-type:alpha" maskUnits="userSpaceOnUse" x="204" y="0" width="100" height="101">
<rect x="204" y="0.5" width="100" height="100" fill="#C4C4C4"/>
</mask>
<g mask="url(#mask2_409_2929)">
<g filter="url(#filter2_dd_409_2929)">
<path d="M265.082 63.9019C216.629 67.4071 215.684 33.2318 221.268 15.7061C222.127 29.7095 231.062 56.17 259.928 49.9844L256.319 37.871L292.402 48.438L268.175 76.5308L265.082 63.9019Z" fill="url(#paint1_linear_409_2929)"/>
</g>
</g>
<defs>
<filter id="filter0_d_409_2929" x="1.98465" y="25.581" width="93.5754" height="60.0239" filterUnits="userSpaceOnUse" color-interpolation-filters="sRGB">
<feFlood flood-opacity="0" result="BackgroundImageFix"/>
<feColorMatrix in="SourceAlpha" type="matrix" values="0 0 0 0 0 0 0 0 0 0 0 0 0 0 0 0 0 0 127 0" result="hardAlpha"/>
<feOffset dy="5.28585"/>
<feGaussianBlur stdDeviation="2.64293"/>
<feColorMatrix type="matrix" values="0 0 0 0 0 0 0 0 0 0 0 0 0 0 0 0 0 0 0.25 0"/>
<feBlend mode="normal" in2="BackgroundImageFix" result="effect1_dropShadow_409_2929"/>
<feBlend mode="normal" in="SourceGraphic" in2="effect1_dropShadow_409_2929" result="shape"/>
</filter>
<filter id="filter1_d_409_2929" x="103.929" y="25.5801" width="93.6879" height="60.1363" filterUnits="userSpaceOnUse" color-interpolation-filters="sRGB">
<feFlood flood-opacity="0" result="BackgroundImageFix"/>
<feColorMatrix in="SourceAlpha" type="matrix" values="0 0 0 0 0 0 0 0 0 0 0 0 0 0 0 0 0 0 127 0" result="hardAlpha"/>
<feOffset dy="5.34208"/>
<feGaussianBlur stdDeviation="2.67104"/>
<feColorMatrix type="matrix" values="0 0 0 0 0 0 0 0 0 0 0 0 0 0 0 0 0 0 0.25 0"/>
<feBlend mode="normal" in2="BackgroundImageFix" result="effect1_dropShadow_409_2929"/>
<feBlend mode="normal" in="SourceGraphic" in2="effect1_dropShadow_409_2929" result="shape"/>
</filter>
<filter id="filter2_dd_409_2929" x="214.942" y="15.7061" width="81.4603" height="68.8247" filterUnits="userSpaceOnUse" color-interpolation-filters="sRGB">
<feFlood flood-opacity="0" result="BackgroundImageFix"/>
<feColorMatrix in="SourceAlpha" type="matrix" values="0 0 0 0 0 0 0 0 0 0 0 0 0 0 0 0 0 0 127 0" result="hardAlpha"/>
<feOffset dy="4"/>
<feGaussianBlur stdDeviation="2"/>
<feComposite in2="hardAlpha" operator="out"/>
<feColorMatrix type="matrix" values="0 0 0 0 0 0 0 0 0 0 0 0 0 0 0 0 0 0 0.25 0"/>
<feBlend mode="normal" in2="BackgroundImageFix" result="effect1_dropShadow_409_2929"/>
<feColorMatrix in="SourceAlpha" type="matrix" values="0 0 0 0 0 0 0 0 0 0 0 0 0 0 0 0 0 0 127 0" result="hardAlpha"/>
<feOffset dy="4"/>
<feGaussianBlur stdDeviation="2"/>
<feComposite in2="hardAlpha" operator="out"/>
<feColorMatrix type="matrix" values="0 0 0 0 0 0 0 0 0 0 0 0 0 0 0 0 0 0 0.25 0"/>
<feBlend mode="normal" in2="effect1_dropShadow_409_2929" result="effect2_dropShadow_409_2929"/>
<feBlend mode="normal" in="SourceGraphic" in2="effect2_dropShadow_409_2929" result="shape"/>
</filter>
<linearGradient id="paint0_linear_409_2929" x1="13.1089" y1="66.7803" x2="85.5921" y2="34.7318" gradientUnits="userSpaceOnUse">
<stop stop-color="#AA5430"/>
<stop offset="0.506026" stop-color="#DC7945"/>
<stop offset="1" stop-color="#BF4B32"/>
</linearGradient>
<linearGradient id="paint1_linear_409_2929" x1="255.672" y1="15.7061" x2="255.672" y2="76.5308" gradientUnits="userSpaceOnUse">
<stop offset="0.47733" stop-color="#FF7B10"/>
<stop offset="1" stop-color="#F8A357"/>
</linearGradient>
</defs>
</svg>
