<svg width="304" height="51" viewBox="0 0 304 51" fill="none" xmlns="http://www.w3.org/2000/svg">
<path d="M47.9159 37.5158C54.2386 37.5158 59.3641 32.3962 59.3641 26.0809C59.3641 19.7656 54.2386 14.646 47.9159 14.646C41.5932 14.646 36.4677 19.7656 36.4677 26.0809C36.4677 32.3962 41.5932 37.5158 47.9159 37.5158Z" stroke="#999999" stroke-width="4"/>
<path d="M40.091 25.2432C39.7182 24.606 40.0287 24.1426 40.7125 24.1426C42.3533 24.0499 45.3329 27.1162 46.6172 28.661C46.9654 27.5024 49.0826 24.0461 50.0978 22.4627H50.8439V21.5937H51.5895V20.609H52.5842V19.5662H53.5785V18.7552H54.5732V17.5966H56.3135V16.7277H55.1947V15.7429H56.3135V16.7277H56.8727V14.7581H57.9915V13.7154H60.2292V12.7886H61.2235V13.7154H60.2292V14.7581H57.9915V16.7277H56.8727V17.5966H56.3135V18.7552H57.2455V17.5966H58.3643V16.7277H59.2968V15.7429H60.4779V16.7277H59.2968V17.5966H58.3643V19.5662H57.4319V20.3772H56.8727V21.2461H55.7539V22.4627H54.635V23.6212H53.703V24.606H52.7706V25.6487H51.9004V26.8073C51.3203 27.6762 50.0732 29.5647 49.725 30.1672C49.29 30.9202 48.7303 32.4843 48.4816 33.0057C48.2831 33.4228 48.0261 33.7202 47.9224 33.8167C47.8188 33.9132 47.413 34.0947 46.6172 34.0484C45.8214 34.0021 45.4156 33.334 45.312 33.0057L44.4418 31.094C44.0067 30.2444 42.8753 28.4872 42.3287 27.7921C41.6449 26.9231 40.4638 25.8805 40.091 25.2432Z" fill="black"/>
<path d="M66.6418 34.485C66.6418 35.1324 66.4963 35.6476 66.2058 36.0304C65.9176 36.4132 65.5202 36.6046 65.0135 36.6046C64.525 36.6046 64.1443 36.4286 63.8715 36.0766L63.825 36.5275H62.9762V30.6079H63.9138V32.7584C64.1838 32.4398 64.5478 32.2805 65.0061 32.2805C65.5151 32.2805 65.9153 32.4694 66.2058 32.8471C66.4963 33.2247 66.6418 33.7527 66.6418 34.431V34.485ZM65.7043 34.404C65.7043 33.9518 65.6243 33.6127 65.4649 33.3866C65.3054 33.1605 65.074 33.0475 64.7704 33.0475C64.3642 33.0475 64.0788 33.2247 63.9138 33.5793V35.2982C64.0811 35.6604 64.3693 35.8416 64.7783 35.8416C65.0716 35.8416 65.298 35.7324 65.4574 35.514C65.6169 35.2956 65.6992 34.9654 65.7043 34.5235V34.404ZM68.8451 35.1864L69.6939 32.3576H70.6933L69.0343 37.1596C68.7796 37.861 68.3473 38.2117 67.7374 38.2117C67.6012 38.2117 67.4506 38.1886 67.2861 38.1423V37.4178L67.4636 37.4294C67.7002 37.4294 67.8778 37.3857 67.9963 37.2984C68.1172 37.2135 68.212 37.0696 68.2817 36.8667L68.4165 36.5083L66.9505 32.3576H67.9615L68.8451 35.1864ZM76.2298 35.0823C76.2298 34.8357 76.1424 34.6456 75.9677 34.5119C75.7952 34.3783 75.4828 34.2435 75.0301 34.1073C74.5774 33.9711 74.2171 33.8195 73.9498 33.6525C73.4376 33.3314 73.1819 32.9126 73.1819 32.3962C73.1819 31.9439 73.366 31.5714 73.7337 31.2785C74.1042 30.9856 74.5839 30.8391 75.1728 30.8391C75.5637 30.8391 75.9123 30.9111 76.2187 31.055C76.5245 31.1989 76.7653 31.4044 76.9401 31.6716C77.1149 31.9362 77.2022 32.2304 77.2022 32.5541H76.2298C76.2298 32.2612 76.1373 32.0326 75.9523 31.8682C75.7696 31.7012 75.507 31.6176 75.1649 31.6176C74.846 31.6176 74.5978 31.6857 74.4202 31.8219C74.2455 31.9581 74.1581 32.1482 74.1581 32.3923C74.1581 32.5978 74.2534 32.7699 74.4435 32.9087C74.6341 33.0449 74.9478 33.1785 75.3852 33.3095C75.8222 33.438 76.1736 33.5857 76.4385 33.7527C76.7035 33.9172 76.8978 34.1073 77.021 34.3231C77.1446 34.5364 77.2064 34.7868 77.2064 35.0746C77.2064 35.5422 77.0261 35.9148 76.6658 36.1922C76.3084 36.4672 75.8222 36.6046 75.2077 36.6046C74.8009 36.6046 74.4268 36.5301 74.0846 36.3811C73.7453 36.2295 73.4804 36.0214 73.2898 35.7567C73.102 35.4921 73.0081 35.1838 73.0081 34.8318H73.9842C73.9842 35.1504 74.0898 35.3971 74.3008 35.5718C74.5118 35.7465 74.814 35.8339 75.2077 35.8339C75.547 35.8339 75.8017 35.7658 75.9714 35.6296C76.1438 35.4908 76.2298 35.3084 76.2298 35.0823ZM79.4325 35.1864L80.2813 32.3576H81.2806L79.6217 37.1596C79.3669 37.861 78.9347 38.2117 78.3253 38.2117C78.1891 38.2117 78.0385 38.1886 77.8739 38.1423V37.4178L78.051 37.4294C78.2881 37.4294 78.4652 37.3857 78.5837 37.2984C78.7046 37.2135 78.7999 37.0696 78.8691 36.8667L79.0044 36.5083L77.5378 32.3576H78.5489L79.4325 35.1864ZM82.7044 32.3576L82.7314 32.7931C83.0247 32.4514 83.4258 32.2805 83.9353 32.2805C84.4935 32.2805 84.8756 32.4937 85.0811 32.9203C85.3846 32.4937 85.8118 32.2805 86.3621 32.2805C86.8228 32.2805 87.1649 32.4077 87.3885 32.662C87.6148 32.9164 87.7306 33.2915 87.7357 33.7874V36.5275H86.7981V33.8144C86.7981 33.5498 86.7405 33.3558 86.6248 33.2324C86.509 33.1091 86.317 33.0475 86.0498 33.0475C85.8364 33.0475 85.6612 33.1053 85.525 33.2209C85.3911 33.3339 85.2972 33.483 85.2433 33.6679L85.247 36.5275H84.3095V33.7835C84.2969 33.2928 84.0459 33.0475 83.5574 33.0475C83.1818 33.0475 82.9154 33.2003 82.7583 33.5061V36.5275H81.8208V32.3576H82.7044ZM91.1931 36.5275C91.1517 36.4479 91.1159 36.3182 91.0848 36.1383C90.7868 36.4492 90.4215 36.6046 89.9892 36.6046C89.5699 36.6046 89.2278 36.4852 88.9628 36.2462C88.6979 36.0073 88.5654 35.7118 88.5654 35.3598C88.5654 34.9153 88.73 34.5749 89.0595 34.3385C89.391 34.0996 89.8646 33.9801 90.4791 33.9801H91.0541V33.7065C91.0541 33.4907 90.9937 33.3185 90.8728 33.19C90.752 33.059 90.5679 32.9935 90.3211 32.9935C90.1077 32.9935 89.9325 33.0475 89.7963 33.1554C89.6601 33.2607 89.5918 33.3956 89.5918 33.56H88.6542C88.6542 33.3314 88.73 33.1181 88.882 32.9203C89.0335 32.7199 89.2394 32.5632 89.4993 32.4501C89.7614 32.337 90.0533 32.2805 90.375 32.2805C90.864 32.2805 91.2535 32.4039 91.544 32.6505C91.835 32.8946 91.9842 33.2389 91.9917 33.6833V35.5641C91.9917 35.9392 92.0447 36.2385 92.1502 36.462V36.5275H91.1931ZM90.163 35.8531C90.348 35.8531 90.5219 35.8081 90.6836 35.7182C90.8482 35.6283 90.9718 35.5076 91.0541 35.356V34.5698H90.5488C90.2016 34.5698 89.9404 34.6301 89.7656 34.7509C89.5904 34.8716 89.503 35.0425 89.503 35.2634C89.503 35.4433 89.562 35.5872 89.6805 35.6951C89.8014 35.8004 89.9622 35.8531 90.163 35.8531ZM93.844 32.3576L93.871 32.8394C94.1796 32.4668 94.5845 32.2805 95.086 32.2805C95.9557 32.2805 96.3982 32.7777 96.4136 33.772V36.5275H95.476V33.826C95.476 33.5613 95.4179 33.366 95.3022 33.2401C95.1892 33.1117 95.0028 33.0475 94.743 33.0475C94.3646 33.0475 94.0829 33.2183 93.8979 33.56V36.5275H92.9604V32.3576H93.844ZM98.5471 31.344V32.3576H99.2843V33.0513H98.5471V35.3791C98.5471 35.5384 98.5783 35.654 98.6396 35.7259C98.7042 35.7953 98.8172 35.83 98.9794 35.83C99.0872 35.83 99.1965 35.8171 99.3071 35.7915V36.516C99.0938 36.5751 98.8878 36.6046 98.6898 36.6046C97.9698 36.6046 97.6096 36.2077 97.6096 35.4138V33.0513H96.923V32.3576H97.6096V31.344H98.5471ZM101.842 36.6046C101.248 36.6046 100.766 36.4184 100.395 36.0458C100.028 35.6707 99.8435 35.1723 99.8435 34.5505V34.4349C99.8435 34.0186 99.9235 33.6474 100.083 33.3211C100.245 32.9922 100.472 32.7366 100.762 32.5541C101.053 32.3717 101.377 32.2805 101.734 32.2805C102.303 32.2805 102.741 32.4617 103.05 32.8239C103.361 33.1862 103.517 33.6988 103.517 34.3617V34.7393H100.789C100.817 35.0836 100.932 35.356 101.132 35.5564C101.336 35.7567 101.59 35.857 101.896 35.857C102.326 35.857 102.676 35.6835 102.946 35.3367L103.451 35.8184C103.284 36.0676 103.06 36.2616 102.78 36.4004C102.502 36.5366 102.19 36.6046 101.842 36.6046ZM101.73 33.032C101.473 33.032 101.265 33.122 101.106 33.3018C100.948 33.4817 100.848 33.7322 100.804 34.0533H102.591V33.984C102.57 33.6705 102.487 33.4341 102.34 33.2748C102.193 33.113 101.99 33.032 101.73 33.032ZM105.963 35.857C106.197 35.857 106.392 35.7889 106.546 35.6527C106.7 35.5165 106.782 35.3483 106.793 35.1478H107.676C107.666 35.4073 107.585 35.6501 107.433 35.8762C107.281 36.0998 107.076 36.277 106.816 36.4081C106.556 36.5391 106.276 36.6046 105.975 36.6046C105.391 36.6046 104.928 36.4158 104.586 36.0381C104.244 35.6604 104.073 35.1389 104.073 34.4734V34.3771C104.073 33.7424 104.242 33.235 104.582 32.8548C104.921 32.4719 105.384 32.2805 105.971 32.2805C106.467 32.2805 106.871 32.4257 107.182 32.716C107.496 33.0038 107.661 33.3828 107.676 33.8529H106.793C106.782 33.614 106.7 33.4174 106.546 33.2633C106.394 33.1091 106.2 33.032 105.963 33.032C105.659 33.032 105.426 33.1425 105.261 33.3635C105.096 33.5818 105.013 33.9146 105.01 34.3617V34.5119C105.01 34.9641 105.091 35.302 105.253 35.5255C105.418 35.7465 105.654 35.857 105.963 35.857Z" fill="#999999"/>
<path d="M72.1287 28.1704H69.594L65.8461 21.5979V28.1704H63.297V17.6079H65.8461L69.5866 24.1804V17.6079H72.1287V28.1704ZM73.3196 24.1732C73.3196 23.3897 73.4721 22.6933 73.7775 22.0839C74.0824 21.4697 74.5207 20.9982 75.092 20.6693C75.6633 20.3404 76.334 20.176 77.1038 20.176C78.2802 20.176 79.2076 20.5411 79.8853 21.2714C80.5635 21.9968 80.9023 22.9859 80.9023 24.2385V24.3256C80.9023 25.5491 80.5607 26.5212 79.8783 27.2418C79.2001 27.9576 78.2803 28.3155 77.1182 28.3155C75.9998 28.3155 75.1018 27.9818 74.4236 27.3144C73.7459 26.6421 73.38 25.7329 73.327 24.5867L73.3196 24.1732ZM75.7674 24.3256C75.7674 25.051 75.8813 25.583 76.1086 25.9215C76.3363 26.2601 76.6729 26.4293 77.1182 26.4293C77.9897 26.4293 78.435 25.7595 78.4546 24.4199V24.1732C78.4546 22.7658 78.0041 22.0622 77.1038 22.0622C76.2852 22.0622 75.8422 22.6691 75.7744 23.883L75.7674 24.3256ZM86.7345 22.5337L85.9281 22.4757C85.1583 22.4757 84.6647 22.7175 84.4466 23.2011V28.1704H81.9989V20.3211H84.2942L84.3737 21.3294C84.7855 20.5605 85.3591 20.176 86.0954 20.176C86.3566 20.176 86.5844 20.205 86.7778 20.2631L86.7345 22.5337ZM90.8306 18.3696V20.3211H92.1233V22.0186H90.8306V25.6096C90.8306 25.9046 90.884 26.1101 90.9905 26.2262C91.0969 26.3423 91.3075 26.4003 91.6222 26.4003C91.8644 26.4003 92.068 26.3858 92.2325 26.3568V28.1051C91.7919 28.2454 91.3317 28.3155 90.8524 28.3155C90.0102 28.3155 89.3878 28.1172 88.9857 27.7206C88.5841 27.3241 88.3833 26.7219 88.3833 25.9143V22.0186H87.3806V20.3211H88.3833V18.3696H90.8306ZM92.5667 24.1732C92.5667 23.3897 92.7192 22.6933 93.0241 22.0839C93.329 21.4697 93.7674 20.9982 94.3386 20.6693C94.9099 20.3404 95.5807 20.176 96.3504 20.176C97.5269 20.176 98.4542 20.5411 99.1319 21.2714C99.8101 21.9968 100.149 22.9859 100.149 24.2385V24.3256C100.149 25.5491 99.8078 26.5212 99.125 27.2418C98.4473 27.9576 97.5269 28.3155 96.3648 28.3155C95.2465 28.3155 94.3484 27.9818 93.6702 27.3144C92.9925 26.6421 92.6272 25.7329 92.5737 24.5867L92.5667 24.1732ZM95.014 24.3256C95.014 25.051 95.1279 25.583 95.3557 25.9215C95.583 26.2601 95.9195 26.4293 96.3648 26.4293C97.2364 26.4293 97.6821 25.7595 97.7012 24.4199V24.1732C97.7012 22.7658 97.2513 22.0622 96.3504 22.0622C95.5323 22.0622 95.0893 22.6691 95.0215 23.883L95.014 24.3256ZM103.475 20.3211L103.555 21.2424C104.098 20.5315 104.846 20.176 105.799 20.176C106.618 20.176 107.228 20.4202 107.63 20.9087C108.037 21.3972 108.247 22.1323 108.262 23.1141V28.1704H105.807V23.2156C105.807 22.8191 105.727 22.5289 105.567 22.3451C105.407 22.1565 105.117 22.0622 104.695 22.0622C104.216 22.0622 103.86 22.2508 103.628 22.628V28.1704H101.18V20.3211H103.475Z" fill="black"/>
<path d="M107.807 30.1919H109.24V30.3846H108.638V31.8842H108.408V30.3846H107.807V30.1919ZM109.3 30.1919H109.641L110.074 31.3435L110.508 30.1919H110.85V31.8842H110.626V30.3982L110.189 31.5589H109.959L109.522 30.3982V31.8842H109.3V30.1919Z" fill="#56575B"/>
<path d="M215.891 16.0981H200.087C199.06 16.0981 198.228 16.9296 198.228 17.9553V33.741C198.228 34.7667 199.06 35.5981 200.087 35.5981H215.891C216.918 35.5981 217.75 34.7667 217.75 33.741V17.9553C217.75 16.9296 216.918 16.0981 215.891 16.0981Z" fill="#999999"/>
<path d="M220.805 20.5652H218.719V19.3374H224.4V20.5652H222.314V25.8486H220.805V20.5652Z" fill="#222222"/>
<path d="M228.992 25.8486L227.735 24.0348H226.347V25.8486H224.839V19.3374H227.661C228.238 19.3374 228.738 19.4335 229.16 19.6257C229.588 19.818 229.917 20.0908 230.147 20.4443C230.377 20.7978 230.491 21.2163 230.491 21.7C230.491 22.1837 230.374 22.6023 230.138 22.9558C229.908 23.303 229.579 23.5696 229.15 23.7557L230.613 25.8486H228.992ZM228.964 21.7C228.964 21.3342 228.846 21.0551 228.61 20.8629C228.375 20.6644 228.03 20.5652 227.577 20.5652H226.347V22.8348H227.577C228.03 22.8348 228.375 22.7356 228.61 22.5372C228.846 22.3387 228.964 22.0597 228.964 21.7Z" fill="#222222"/>
<path d="M234.21 25.9602C233.279 25.9602 232.553 25.7029 232.031 25.1881C231.516 24.6735 231.258 23.9386 231.258 22.9837V19.3374H232.767V22.9279C232.767 24.0937 233.251 24.6766 234.22 24.6766C234.692 24.6766 235.052 24.537 235.3 24.258C235.548 23.9727 235.673 23.5293 235.673 22.9279V19.3374H237.163V22.9837C237.163 23.9386 236.902 24.6735 236.38 25.1881C235.865 25.7029 235.142 25.9602 234.21 25.9602Z" fill="#222222"/>
<path d="M240.423 25.9605C239.907 25.9605 239.408 25.8923 238.923 25.7559C238.445 25.6133 238.061 25.4303 237.769 25.2071L238.281 24.0723C238.56 24.2769 238.893 24.4413 239.278 24.5653C239.662 24.6893 240.047 24.7513 240.432 24.7513C240.861 24.7513 241.177 24.6893 241.382 24.5653C241.587 24.4351 241.69 24.2646 241.69 24.0537C241.69 23.8986 241.627 23.7715 241.503 23.6723C241.385 23.5669 241.23 23.4832 241.037 23.4212C240.851 23.3591 240.597 23.2909 240.274 23.2165C239.777 23.0987 239.37 22.9809 239.054 22.8631C238.737 22.7453 238.464 22.5561 238.234 22.2957C238.011 22.0352 237.899 21.688 237.899 21.2539C237.899 20.8756 238.002 20.5345 238.207 20.2307C238.411 19.9206 238.719 19.6757 239.128 19.4958C239.544 19.316 240.051 19.2261 240.646 19.2261C241.062 19.2261 241.469 19.2757 241.866 19.3749C242.264 19.4741 242.611 19.6168 242.909 19.8028L242.443 20.9469C241.842 20.6058 241.239 20.4353 240.637 20.4353C240.215 20.4353 239.901 20.5035 239.696 20.64C239.498 20.7764 239.398 20.9562 239.398 21.1795C239.398 21.4027 239.513 21.5701 239.743 21.6817C239.979 21.7872 240.336 21.8926 240.814 21.998C241.311 22.1158 241.717 22.2337 242.034 22.3515C242.351 22.4693 242.621 22.6553 242.844 22.9096C243.074 23.1638 243.189 23.508 243.189 23.9421C243.189 24.3141 243.083 24.6552 242.872 24.9653C242.667 25.2691 242.357 25.511 241.941 25.6908C241.525 25.8706 241.019 25.9605 240.423 25.9605Z" fill="#222222"/>
<path d="M245.106 20.5652H243.02V19.3374H248.701V20.5652H246.615V25.8486H245.106V20.5652Z" fill="#222222"/>
<path d="M253.436 23.3642C253.436 23.3828 253.427 23.513 253.408 23.7549H249.618C249.686 24.065 249.848 24.3099 250.102 24.4897C250.357 24.6696 250.674 24.7595 251.052 24.7595C251.313 24.7595 251.543 24.7223 251.741 24.6478C251.946 24.5672 252.136 24.4432 252.309 24.2758L253.082 25.1129C252.611 25.6524 251.921 25.9222 251.015 25.9222C250.45 25.9222 249.95 25.8136 249.516 25.5966C249.081 25.3734 248.746 25.0664 248.51 24.6757C248.274 24.2851 248.156 23.8417 248.156 23.3456C248.156 22.8557 248.271 22.4154 248.501 22.0248C248.736 21.6279 249.056 21.3209 249.459 21.1039C249.869 20.8807 250.326 20.769 250.829 20.769C251.319 20.769 251.763 20.8744 252.16 21.0853C252.558 21.2961 252.868 21.6 253.092 21.9968C253.321 22.3875 253.436 22.8433 253.436 23.3642ZM250.838 21.8666C250.509 21.8666 250.233 21.9597 250.009 22.1457C249.786 22.3317 249.649 22.586 249.599 22.9084H252.067C252.017 22.5922 251.881 22.341 251.658 22.155C251.434 21.9628 251.161 21.8666 250.838 21.8666Z" fill="#222222"/>
<path d="M221.88 31.2582C221.53 31.2582 221.214 31.1808 220.931 31.0262C220.652 30.8715 220.432 30.658 220.27 30.3857C220.112 30.11 220.033 29.8024 220.033 29.4628C220.033 29.1232 220.112 28.8173 220.27 28.545C220.432 28.2693 220.654 28.0541 220.936 27.8994C221.219 27.7448 221.536 27.6675 221.886 27.6675C222.148 27.6675 222.39 27.7112 222.613 27.7986C222.835 27.886 223.023 28.0137 223.178 28.1819L222.941 28.4189C222.665 28.1398 222.316 28.0003 221.896 28.0003C221.616 28.0003 221.362 28.0642 221.133 28.1919C220.904 28.3197 220.724 28.4946 220.593 28.7164C220.465 28.9383 220.401 29.1871 220.401 29.4628C220.401 29.7385 220.465 29.9873 220.593 30.2092C220.724 30.4311 220.904 30.6059 221.133 30.7337C221.362 30.8614 221.616 30.9253 221.896 30.9253C222.32 30.9253 222.668 30.7841 222.941 30.5017L223.178 30.7387C223.023 30.9068 222.833 31.0362 222.607 31.1271C222.385 31.2144 222.143 31.2582 221.88 31.2582Z" fill="#999999"/>
<path d="M226.272 30.9052V31.2279H223.773V27.6978H226.196V28.0205H224.147V29.2763H225.974V29.594H224.147V30.9052H226.272Z" fill="#999999"/>
<path d="M229.361 31.2279L228.554 30.0932C228.463 30.1034 228.368 30.1084 228.271 30.1084H227.322V31.2279H226.948V27.6978H228.271C228.722 27.6978 229.075 27.8054 229.331 28.0205C229.587 28.2357 229.715 28.5316 229.715 28.9081C229.715 29.1838 229.644 29.4175 229.503 29.6091C229.365 29.7974 229.166 29.9336 228.907 30.0176L229.77 31.2279H229.361ZM228.261 29.7907C228.611 29.7907 228.878 29.7134 229.064 29.5587C229.249 29.404 229.341 29.1872 229.341 28.9081C229.341 28.6223 229.249 28.4038 229.064 28.2525C228.878 28.0979 228.611 28.0205 228.261 28.0205H227.322V29.7907H228.261Z" fill="#999999"/>
<path d="M231.032 28.0205H229.79V27.6978H232.648V28.0205H231.406V31.2279H231.032V28.0205Z" fill="#999999"/>
<path d="M233.043 27.6978H233.417V31.2279H233.043V27.6978Z" fill="#999999"/>
<path d="M234.738 28.0205V29.4074H236.566V29.7302H234.738V31.2279H234.364V27.6978H236.788V28.0205H234.738Z" fill="#999999"/>
<path d="M237.357 27.6978H237.731V31.2279H237.357V27.6978Z" fill="#999999"/>
<path d="M241.178 30.9052V31.2279H238.679V27.6978H241.103V28.0205H239.053V29.2763H240.881V29.594H239.053V30.9052H241.178Z" fill="#999999"/>
<path d="M241.855 27.6978H243.294C243.667 27.6978 243.997 27.7734 244.283 27.9247C244.57 28.0727 244.791 28.2811 244.95 28.55C245.108 28.8157 245.187 29.1199 245.187 29.4629C245.187 29.8058 245.108 30.1118 244.95 30.3807C244.791 30.6463 244.57 30.8548 244.283 31.0061C243.997 31.154 243.667 31.2279 243.294 31.2279H241.855V27.6978ZM243.274 30.9052C243.583 30.9052 243.854 30.8447 244.086 30.7236C244.319 30.5993 244.499 30.4295 244.627 30.2143C244.755 29.9957 244.818 29.7453 244.818 29.4629C244.818 29.1804 244.755 28.9316 244.627 28.7165C244.499 28.4979 244.319 28.3282 244.086 28.2071C243.854 28.0827 243.583 28.0205 243.274 28.0205H242.228V30.9052H243.274Z" fill="#999999"/>
<path d="M248.266 27.6978C248.717 27.6978 249.071 27.8054 249.327 28.0205C249.582 28.2357 249.711 28.5316 249.711 28.9081C249.711 29.2847 249.582 29.5805 249.327 29.7957C249.071 30.0075 248.717 30.1134 248.266 30.1134H247.317V31.2279H246.943V27.6978H248.266ZM248.256 29.7856C248.606 29.7856 248.874 29.71 249.059 29.5587C249.244 29.404 249.337 29.1872 249.337 28.9081C249.337 28.6223 249.244 28.4038 249.059 28.2525C248.874 28.0979 248.606 28.0205 248.256 28.0205H247.317V29.7856H248.256Z" fill="#999999"/>
<path d="M252.73 31.2279L251.922 30.0932C251.831 30.1034 251.737 30.1084 251.639 30.1084H250.69V31.2279H250.316V27.6978H251.639C252.09 27.6978 252.444 27.8054 252.699 28.0205C252.955 28.2357 253.083 28.5316 253.083 28.9081C253.083 29.1838 253.012 29.4175 252.871 29.6091C252.733 29.7974 252.534 29.9336 252.276 30.0176L253.139 31.2279H252.73ZM251.629 29.7907C251.979 29.7907 252.247 29.7134 252.432 29.5587C252.617 29.404 252.71 29.1872 252.71 28.9081C252.71 28.6223 252.617 28.4038 252.432 28.2525C252.247 28.0979 251.979 28.0205 251.629 28.0205H250.69V29.7907H251.629Z" fill="#999999"/>
<path d="M253.763 27.6978H254.137V31.2279H253.763V27.6978Z" fill="#999999"/>
<path d="M257.983 27.6978L256.418 31.2279H256.05L254.485 27.6978H254.889L256.242 30.764L257.605 27.6978H257.983Z" fill="#999999"/>
<path d="M260.403 30.2849H258.433L258.01 31.2279H257.62L259.236 27.6978H259.605L261.221 31.2279H260.827L260.403 30.2849ZM260.266 29.9823L259.418 28.0861L258.57 29.9823H260.266Z" fill="#999999"/>
<path d="M263.089 31.2582C262.739 31.2582 262.423 31.1808 262.14 31.0262C261.86 30.8715 261.64 30.658 261.478 30.3857C261.32 30.11 261.241 29.8024 261.241 29.4628C261.241 29.1232 261.32 28.8173 261.478 28.545C261.64 28.2693 261.862 28.0541 262.145 27.8994C262.427 27.7448 262.744 27.6675 263.094 27.6675C263.357 27.6675 263.599 27.7112 263.821 27.7986C264.043 27.886 264.232 28.0137 264.387 28.1819L264.149 28.4189C263.873 28.1398 263.525 28.0003 263.104 28.0003C262.825 28.0003 262.571 28.0642 262.342 28.1919C262.113 28.3197 261.933 28.4946 261.802 28.7164C261.673 28.9383 261.61 29.1871 261.61 29.4628C261.61 29.7385 261.673 29.9873 261.802 30.2092C261.933 30.4311 262.113 30.6059 262.342 30.7337C262.571 30.8614 262.825 30.9253 263.104 30.9253C263.528 30.9253 263.877 30.7841 264.149 30.5017L264.387 30.7387C264.232 30.9068 264.042 31.0362 263.816 31.1271C263.594 31.2144 263.351 31.2582 263.089 31.2582Z" fill="#999999"/>
<path d="M266.119 30.0075V31.2279H265.75V30.0075L264.336 27.6978H264.735L265.947 29.6797L267.159 27.6978H267.533L266.119 30.0075Z" fill="#999999"/>
<path d="M200.247 25.9608C200.247 25.9608 200.291 18.228 207.933 18.228C215.575 18.228 215.619 25.9608 215.619 25.9608H214.104C214.104 25.9608 214.155 19.6849 207.933 19.6849C201.711 19.6849 201.706 25.9608 201.706 25.9608H200.247Z" fill="#222222"/>
<path d="M211.355 29.3222C211.355 29.3222 209.09 31.4692 206.643 30.723C205.258 30.3008 203.052 28.6618 203.052 25.904C203.052 22.0877 206.867 20.249 210.009 21.4773C212.589 22.4862 212.813 25.904 212.813 25.904H211.355C211.355 25.904 211.233 23.8086 209.728 22.9902C207.852 21.9701 204.511 22.4557 204.511 25.904C204.511 28.0082 206.086 28.802 206.979 29.154C208.724 29.8417 210.402 28.3695 210.402 28.3695L211.355 29.3222Z" fill="white"/>
<path d="M210.009 25.9608C210.009 25.6812 209.953 25.4043 209.846 25.146C209.739 24.8877 209.582 24.6529 209.384 24.4552C209.186 24.2575 208.951 24.1006 208.693 23.9936C208.434 23.8866 208.157 23.8315 207.877 23.8315C207.597 23.8315 207.32 23.8866 207.061 23.9936C206.802 24.1006 206.567 24.2575 206.369 24.4552C206.171 24.6529 206.014 24.8877 205.907 25.146C205.8 25.4043 205.745 25.6812 205.745 25.9608H207.877H210.009Z" fill="white"/>
<path d="M142.651 15.8501H145.04L146.698 19.7416L148.366 15.8501H150.75V23.1217H148.975V17.8032L147.297 21.7239H146.108L144.43 17.8032V23.1217H142.651V15.8501Z" fill="#999999"/>
<path d="M156.524 17.8376V19.2598C156.286 19.0975 156.047 18.9773 155.807 18.8994C155.569 18.8215 155.323 18.7825 155.066 18.7825C154.578 18.7825 154.198 18.9254 153.924 19.2111C153.655 19.4936 153.52 19.8897 153.52 20.3995C153.52 20.9093 153.655 21.307 153.924 21.5928C154.198 21.8753 154.578 22.0165 155.066 22.0165C155.339 22.0165 155.597 21.9759 155.841 21.8947C156.088 21.8136 156.316 21.6935 156.524 21.5344V22.9614C156.25 23.062 155.972 23.1367 155.69 23.1854C155.41 23.2374 155.129 23.2634 154.846 23.2634C153.861 23.2634 153.091 23.0117 152.535 22.5084C151.979 22.0019 151.701 21.2989 151.701 20.3995C151.701 19.5001 151.979 18.7987 152.535 18.2954C153.091 17.7889 153.861 17.5356 154.846 17.5356C155.133 17.5356 155.413 17.5616 155.69 17.6136C155.969 17.6623 156.247 17.737 156.524 17.8376Z" fill="#999999"/>
<path d="M162.127 21.7969H159.191L158.728 23.1217H156.841L159.538 15.8501H161.776L164.472 23.1217H162.585L162.127 21.7969ZM159.66 20.4478H161.654L160.659 17.5548L159.66 20.4478Z" fill="#999999"/>
<path d="M168.559 15.5435V16.688H167.593C167.346 16.688 167.174 16.7335 167.076 16.8244C166.979 16.9121 166.93 17.0663 166.93 17.2871V17.667H168.422V18.9138H166.93V23.122H165.184V18.9138H164.317V17.667H165.184V17.2871C165.184 16.6929 165.35 16.2546 165.682 15.9721C166.014 15.6863 166.527 15.5435 167.223 15.5435H168.559Z" fill="#999999"/>
<path d="M174.367 20.38V20.8768H170.285C170.328 21.286 170.476 21.5928 170.729 21.7973C170.983 22.0019 171.337 22.1042 171.792 22.1042C172.16 22.1042 172.535 22.0506 172.919 21.9435C173.305 21.8331 173.702 21.6675 174.108 21.4466V22.7909C173.695 22.9468 173.283 23.0637 172.87 23.1416C172.457 23.2228 172.044 23.2634 171.631 23.2634C170.643 23.2634 169.874 23.0133 169.325 22.5133C168.778 22.01 168.506 21.3054 168.506 20.3995C168.506 19.5098 168.774 18.8101 169.31 18.3003C169.85 17.7905 170.591 17.5356 171.533 17.5356C172.392 17.5356 173.078 17.7938 173.591 18.3101C174.108 18.8264 174.367 19.5163 174.367 20.38ZM172.572 19.8004C172.572 19.4693 172.475 19.203 172.28 19.0017C172.088 18.7971 171.836 18.6948 171.524 18.6948C171.186 18.6948 170.911 18.7906 170.7 18.9822C170.489 19.1705 170.357 19.4433 170.305 19.8004H172.572Z" fill="#999999"/>
<path d="M180.745 20.38V20.8768H176.664C176.706 21.286 176.854 21.5928 177.108 21.7973C177.361 22.0019 177.715 22.1042 178.17 22.1042C178.538 22.1042 178.913 22.0506 179.297 21.9435C179.684 21.8331 180.08 21.6675 180.487 21.4466V22.7909C180.074 22.9468 179.661 23.0637 179.248 23.1416C178.836 23.2228 178.422 23.2634 178.01 23.2634C177.021 23.2634 176.252 23.0133 175.703 22.5133C175.157 22.01 174.884 21.3054 174.884 20.3995C174.884 19.5098 175.152 18.8101 175.689 18.3003C176.228 17.7905 176.969 17.5356 177.912 17.5356C178.77 17.5356 179.456 17.7938 179.97 18.3101C180.487 18.8264 180.745 19.5163 180.745 20.38ZM178.951 19.8004C178.951 19.4693 178.853 19.203 178.658 19.0017C178.466 18.7971 178.215 18.6948 177.903 18.6948C177.564 18.6948 177.29 18.7906 177.078 18.9822C176.867 19.1705 176.735 19.4433 176.683 19.8004H178.951Z" fill="#999999"/>
<path d="M148.279 25.898V27.4371C147.879 27.2585 147.488 27.1237 147.108 27.0328C146.728 26.9419 146.369 26.8965 146.031 26.8965C145.582 26.8965 145.25 26.9581 145.036 27.0815C144.821 27.2049 144.714 27.3965 144.714 27.6563C144.714 27.8511 144.786 28.0037 144.929 28.1141C145.075 28.2212 145.338 28.3137 145.718 28.3917L146.518 28.5524C147.328 28.7148 147.903 28.9616 148.244 29.2927C148.586 29.6239 148.757 30.0947 148.757 30.7052C148.757 31.5072 148.518 32.1046 148.04 32.4975C147.565 32.8871 146.839 33.082 145.86 33.082C145.399 33.082 144.935 33.0381 144.47 32.9505C144.006 32.8628 143.541 32.7329 143.076 32.5608V30.9779C143.541 31.2247 143.989 31.4114 144.422 31.538C144.857 31.6614 145.276 31.7231 145.68 31.7231C146.089 31.7231 146.403 31.6549 146.621 31.5186C146.839 31.3822 146.947 31.1874 146.947 30.9341C146.947 30.7068 146.873 30.5315 146.723 30.4081C146.577 30.2847 146.283 30.1743 145.841 30.0769L145.114 29.9161C144.386 29.7603 143.853 29.5119 143.515 29.171C143.18 28.83 143.012 28.3706 143.012 27.7926C143.012 27.0685 143.246 26.5117 143.715 26.122C144.183 25.7324 144.856 25.5376 145.733 25.5376C146.133 25.5376 146.544 25.5684 146.967 25.6301C147.389 25.6886 147.827 25.7779 148.279 25.898Z" fill="#56575B"/>
<path d="M149.411 25.6694H154.477V27.0868H151.288V28.4408H154.287V29.8581H151.288V31.5237H154.585V32.9411H149.411V25.6694Z" fill="#56575B"/>
<path d="M161.012 32.5413C160.668 32.72 160.308 32.8547 159.935 32.9456C159.561 33.0365 159.17 33.082 158.764 33.082C157.552 33.082 156.591 32.7443 155.882 32.0689C155.174 31.3903 154.82 30.4714 154.82 29.3122C154.82 28.1498 155.174 27.2309 155.882 26.5555C156.591 25.8769 157.552 25.5376 158.764 25.5376C159.17 25.5376 159.561 25.5831 159.935 25.674C160.308 25.7649 160.668 25.8996 161.012 26.0782V27.5832C160.664 27.3462 160.321 27.1724 159.983 27.062C159.645 26.9517 159.289 26.8965 158.915 26.8965C158.246 26.8965 157.719 27.1107 157.336 27.5394C156.952 27.9679 156.76 28.5589 156.76 29.3122C156.76 30.0623 156.952 30.6516 157.336 31.0802C157.719 31.5088 158.246 31.7231 158.915 31.7231C159.289 31.7231 159.645 31.6679 159.983 31.5575C160.321 31.4471 160.664 31.2734 161.012 31.0364V32.5413Z" fill="#56575B"/>
<path d="M161.574 25.6694H163.451V30.0285C163.451 30.6292 163.549 31.0595 163.744 31.3192C163.942 31.5757 164.264 31.704 164.709 31.704C165.158 31.704 165.48 31.5757 165.675 31.3192C165.873 31.0595 165.972 30.6292 165.972 30.0285V25.6694H167.85V30.0285C167.85 31.0578 167.591 31.8241 167.074 32.3274C166.558 32.8307 165.769 33.0823 164.709 33.0823C163.653 33.0823 162.866 32.8307 162.349 32.3274C161.833 31.8241 161.574 31.0578 161.574 30.0285V25.6694Z" fill="#56575B"/>
<path d="M171.357 28.8937C171.75 28.8937 172.031 28.8206 172.2 28.6745C172.373 28.5284 172.459 28.2881 172.459 27.9537C172.459 27.6225 172.373 27.3855 172.2 27.2426C172.031 27.0998 171.75 27.0283 171.357 27.0283H170.567V28.8937H171.357ZM170.567 30.1893V32.9411H168.689V25.6694H171.556C172.515 25.6694 173.218 25.8302 173.663 26.1516C174.112 26.4731 174.336 26.9812 174.336 27.6761C174.336 28.1567 174.219 28.5512 173.985 28.8596C173.754 29.1681 173.405 29.3954 172.936 29.5415C173.194 29.5999 173.423 29.733 173.624 29.9409C173.829 30.1454 174.035 30.4571 174.244 30.876L175.262 32.9411H173.263L172.376 31.1341C172.197 30.7704 172.015 30.5221 171.83 30.3889C171.648 30.2558 171.404 30.1893 171.098 30.1893H170.567Z" fill="#56575B"/>
<path d="M175.385 25.6694H180.452V27.0868H177.263V28.4408H180.262V29.8581H177.263V31.5237H180.559V32.9411H175.385V25.6694Z" fill="#56575B"/>
<path d="M181.249 25.5493H182.682V25.742H182.081V27.2416H181.851V25.742H181.249V25.5493ZM182.742 25.5493H183.084L183.516 26.7009L183.951 25.5493H184.293V27.2416H184.069V25.7556L183.632 26.9163H183.402L182.965 25.7556V27.2416H182.742V25.5493Z" fill="#56575B"/>
<path fill-rule="evenodd" clip-rule="evenodd" d="M120.601 14.7056V32.3173L130.276 36.7591L139.794 32.3173V14.7056L130.276 19.2254L120.601 14.7056ZM124.58 20.8619V29.8235L130.198 32.4731L135.893 29.8235V20.8619L130.198 23.4335L124.58 20.8619Z" fill="url(#paint0_linear_404_2803)"/>
<defs>
<linearGradient id="paint0_linear_404_2803" x1="120.601" y1="25.7713" x2="139.794" y2="25.7713" gradientUnits="userSpaceOnUse">
<stop offset="0.499807" stop-color="#56575B"/>
<stop offset="0.508474" stop-color="#999999"/>
</linearGradient>
</defs>
</svg>
