<svg width="100" height="100" viewBox="0 0 100 100" fill="none" xmlns="http://www.w3.org/2000/svg">
<path d="M52.6896 2.9306L52.9473 3.15467L53.231 2.96466L56.1925 0.981224L58.5678 3.63885L58.7953 3.89344L59.1006 3.74049L62.2874 2.14388L64.3108 5.07825L64.5046 5.35935L64.8267 5.24587L68.1884 4.06126L69.8281 7.22608L69.9852 7.52927L70.3189 7.45704L73.8027 6.70311L75.0328 10.0485L75.1506 10.369L75.4908 10.3391L79.0415 10.0278L79.8426 13.501L79.9194 13.8337L80.2606 13.8467L83.8224 13.9828L84.1819 17.529L84.2163 17.8688L84.5532 17.9245L88.0698 18.5059L87.982 22.0692L87.9736 22.4106L88.3008 22.508L91.7169 23.5257L91.1832 27.0499L91.132 27.3875L91.4445 27.5252L94.706 28.9629L93.7348 32.3924L93.6418 32.721L93.9345 32.8968L96.9902 34.732L95.5968 38.0127L95.4633 38.327L95.7317 38.5381L98.5332 40.7418L96.7396 43.822L96.5678 44.1171L96.8076 44.3602L99.3109 46.8976L97.1454 49.7288L96.938 50L97.1454 50.2712L99.3109 53.1024L96.8076 55.6398L96.5678 55.8829L96.7396 56.178L98.5332 59.2582L95.7317 61.4619L95.4633 61.673L95.5968 61.9873L96.9902 65.268L93.9345 67.1032L93.6418 67.279L93.7348 67.6076L94.706 71.0371L91.4445 72.4748L91.132 72.6125L91.1832 72.9501L91.7169 76.4743L88.3008 77.492L87.9736 77.5894L87.982 77.9308L88.0698 81.4941L84.5532 82.0755L84.2163 82.1312L84.1819 82.471L83.8224 86.0172L80.2606 86.1533L79.9194 86.1663L79.8426 86.499L79.0415 89.9722L75.4908 89.6609L75.1506 89.631L75.0328 89.9515L73.8027 93.2969L70.3189 92.543L69.9852 92.4707L69.8281 92.7739L68.1884 95.9387L64.8267 94.7541L64.5046 94.6406L64.3108 94.9218L62.2874 97.8561L59.1006 96.2595L58.7953 96.1066L58.5678 96.3612L56.1925 99.0188L53.231 97.0353L52.9473 96.8453L52.6896 97.0694L50 99.4084L47.3104 97.0694L47.0527 96.8453L46.769 97.0353L43.8075 99.0188L41.4322 96.3612L41.2047 96.1066L40.8994 96.2595L37.7126 97.8561L35.6892 94.9218L35.4954 94.6406L35.1733 94.7541L31.8116 95.9387L30.1719 92.7739L30.0148 92.4707L29.6811 92.543L26.1973 93.2969L24.9672 89.9515L24.8494 89.631L24.5092 89.6609L20.9585 89.9722L20.1574 86.499L20.0806 86.1663L19.7394 86.1533L16.1776 86.0172L15.8181 82.471L15.7837 82.1312L15.4468 82.0755L11.9302 81.4941L12.018 77.9308L12.0264 77.5894L11.6991 77.492L8.28313 76.4743L8.81683 72.9501L8.86796 72.6125L8.55551 72.4748L5.29397 71.0371L6.26515 67.6076L6.35819 67.279L6.06547 67.1032L3.00984 65.268L4.40321 61.9873L4.53669 61.673L4.26831 61.4619L1.46679 59.2582L3.26035 56.178L3.43217 55.8829L3.19236 55.6398L0.689123 53.1024L2.8546 50.2712L3.06204 50L2.8546 49.7288L0.689123 46.8976L3.19236 44.3602L3.43217 44.1171L3.26035 43.822L1.46679 40.7418L4.26831 38.5381L4.53669 38.327L4.40321 38.0127L3.00984 34.732L6.06547 32.8968L6.35819 32.721L6.26515 32.3924L5.29397 28.9629L8.55551 27.5252L8.86796 27.3875L8.81683 27.0499L8.28313 23.5257L11.6991 22.508L12.0264 22.4106L12.018 22.0692L11.9302 18.5059L15.4468 17.9245L15.7837 17.8688L15.8181 17.529L16.1776 13.9828L19.7394 13.8467L20.0806 13.8337L20.1574 13.501L20.9585 10.0278L24.5092 10.3391L24.8494 10.369L24.9672 10.0485L26.1973 6.70311L29.6811 7.45704L30.0148 7.52927L30.1719 7.22608L31.8116 4.06126L35.1733 5.24587L35.4954 5.35935L35.6892 5.07825L37.7126 2.14388L40.8994 3.74049L41.2047 3.89344L41.4322 3.63885L43.8075 0.981224L46.769 2.96466L47.0527 3.15467L47.3104 2.9306L50 0.591625L52.6896 2.9306Z" fill="url(#paint0_linear_404_2319)" stroke="url(#paint1_linear_404_2319)" stroke-width="0.892857"/>
<circle cx="50.0004" cy="50" r="45.4116" stroke="url(#paint2_linear_404_2319)" stroke-width="0.892857"/>
<circle cx="49.9999" cy="49.9997" r="42.453" stroke="url(#paint3_linear_404_2319)" stroke-width="0.892857"/>
<path d="M19.0686 39.0693V28.6103C19.058 28.6207 18.937 28.6519 18.7054 28.704C18.4843 28.756 18.2317 28.808 17.9475 28.8601C17.6633 28.9121 17.4106 28.9589 17.1895 29.0006C16.9685 29.0422 16.8527 29.063 16.8422 29.063V27.7986C17.0211 27.7569 17.2264 27.6997 17.458 27.6268C17.7001 27.554 17.9422 27.4655 18.1843 27.3615C18.437 27.2574 18.6738 27.1273 18.8949 26.9712C19.1265 26.8151 19.3212 26.633 19.4791 26.4248H20.7581V39.0693H19.0686Z" fill="#4D0A05"/>
<path d="M26.245 39.2098C25.5186 39.2098 24.9186 39.0485 24.4449 38.7259C23.9817 38.4033 23.6343 37.961 23.4027 37.399C23.1817 36.837 23.0711 36.197 23.0711 35.4789V30.0309C23.0711 29.292 23.1817 28.6467 23.4027 28.0952C23.6238 27.5332 23.9659 27.0961 24.4291 26.7839C24.9028 26.4717 25.5081 26.3156 26.245 26.3156C26.9818 26.3156 27.5818 26.4717 28.045 26.7839C28.5082 27.0961 28.8503 27.5332 29.0714 28.0952C29.2924 28.6467 29.403 29.292 29.403 30.0309V35.4789C29.403 36.2074 29.2872 36.8527 29.0556 37.4146C28.8345 37.9766 28.4924 38.4189 28.0292 38.7415C27.5661 39.0537 26.9713 39.2098 26.245 39.2098ZM26.245 37.8361C26.645 37.8361 26.945 37.7216 27.145 37.4927C27.3555 37.2637 27.4976 36.9723 27.5713 36.6185C27.6555 36.2542 27.6976 35.8796 27.6976 35.4945V30.0152C27.6976 29.6094 27.6608 29.2295 27.5871 28.8757C27.5134 28.5114 27.3713 28.22 27.1608 28.0015C26.9608 27.7829 26.6555 27.6737 26.245 27.6737C25.8344 27.6737 25.5239 27.7829 25.3133 28.0015C25.1028 28.22 24.9607 28.5114 24.887 28.8757C24.8133 29.2295 24.7765 29.6094 24.7765 30.0152V35.4945C24.7765 35.8796 24.8133 36.2542 24.887 36.6185C24.9712 36.9723 25.1186 37.2637 25.3291 37.4927C25.5502 37.7216 25.8555 37.8361 26.245 37.8361Z" fill="#4D0A05"/>
<path d="M33.9285 39.2098C33.2021 39.2098 32.6021 39.0485 32.1284 38.7259C31.6652 38.4033 31.3178 37.961 31.0862 37.399C30.8652 36.837 30.7546 36.197 30.7546 35.4789V30.0309C30.7546 29.292 30.8652 28.6467 31.0862 28.0952C31.3073 27.5332 31.6494 27.0961 32.1126 26.7839C32.5863 26.4717 33.1916 26.3156 33.9285 26.3156C34.6653 26.3156 35.2654 26.4717 35.7285 26.7839C36.1917 27.0961 36.5338 27.5332 36.7549 28.0952C36.976 28.6467 37.0865 29.292 37.0865 30.0309V35.4789C37.0865 36.2074 36.9707 36.8527 36.7391 37.4146C36.518 37.9766 36.1759 38.4189 35.7127 38.7415C35.2496 39.0537 34.6548 39.2098 33.9285 39.2098ZM33.9285 37.8361C34.3285 37.8361 34.6285 37.7216 34.8285 37.4927C35.039 37.2637 35.1811 36.9723 35.2548 36.6185C35.339 36.2542 35.3812 35.8796 35.3812 35.4945V30.0152C35.3812 29.6094 35.3443 29.2295 35.2706 28.8757C35.1969 28.5114 35.0548 28.22 34.8443 28.0015C34.6443 27.7829 34.339 27.6737 33.9285 27.6737C33.5179 27.6737 33.2074 27.7829 32.9968 28.0015C32.7863 28.22 32.6442 28.5114 32.5705 28.8757C32.4968 29.2295 32.46 29.6094 32.46 30.0152V35.4945C32.46 35.8796 32.4968 36.2542 32.5705 36.6185C32.6547 36.9723 32.8021 37.2637 33.0126 37.4927C33.2337 37.7216 33.539 37.8361 33.9285 37.8361Z" fill="#4D0A05"/>
<path d="M42.0857 39.0693L45.6069 26.4092H47.0596L43.5542 39.0693H42.0857ZM40.5698 33.1373C39.6961 33.1373 39.0645 32.872 38.675 32.3412C38.2855 31.8105 38.0908 31.0976 38.0908 30.2026V29.2191C38.0908 28.2929 38.2802 27.58 38.6592 27.0805C39.0382 26.5809 39.675 26.3312 40.5698 26.3312C41.4646 26.3312 42.1015 26.5705 42.4804 27.0492C42.8594 27.528 43.0489 28.2252 43.0489 29.1411V30.2494C43.0489 31.1548 42.8541 31.8625 42.4646 32.3724C42.0857 32.8824 41.4541 33.1373 40.5698 33.1373ZM40.5698 31.8729C40.8435 31.8729 41.0435 31.8 41.1698 31.6543C41.3067 31.4982 41.3962 31.2953 41.4383 31.0455C41.4909 30.7958 41.5172 30.5304 41.5172 30.2494V29.1411C41.5172 28.7144 41.4593 28.3501 41.3435 28.0483C41.2383 27.7465 40.9804 27.5956 40.5698 27.5956C40.1593 27.5956 39.9014 27.7517 39.7961 28.0639C39.6908 28.3657 39.6382 28.73 39.6382 29.1567V30.265C39.6382 30.546 39.6593 30.8114 39.7014 31.0612C39.754 31.3005 39.8435 31.4982 39.9698 31.6543C40.1066 31.8 40.3067 31.8729 40.5698 31.8729ZM48.5438 39.1474C47.6701 39.1474 47.0385 38.8872 46.649 38.3669C46.2701 37.8361 46.0806 37.118 46.0806 36.2126V35.2292C46.0806 34.3133 46.2648 33.6057 46.6332 33.1061C47.0122 32.5962 47.6491 32.3412 48.5438 32.3412C49.4491 32.3412 50.086 32.5858 50.4545 33.0749C50.8334 33.5536 51.0229 34.2509 51.0229 35.1667V36.2595C51.0229 37.1753 50.8282 37.8881 50.4387 38.3981C50.0597 38.8976 49.4281 39.1474 48.5438 39.1474ZM48.5438 37.8829C48.8175 37.8829 49.0228 37.8101 49.1597 37.6644C49.2965 37.5083 49.386 37.3054 49.4281 37.0556C49.4702 36.8058 49.4913 36.5456 49.4913 36.2751V35.1511C49.4913 34.7244 49.4334 34.3602 49.3176 34.0584C49.2123 33.7566 48.9544 33.6057 48.5438 33.6057C48.1333 33.6057 47.8754 33.7618 47.7701 34.074C47.6649 34.3758 47.6122 34.74 47.6122 35.1667V36.2751C47.6122 36.5561 47.6333 36.8214 47.6754 37.0712C47.728 37.3106 47.8175 37.5083 47.9438 37.6644C48.0807 37.8101 48.2807 37.8829 48.5438 37.8829Z" fill="#4D0A05"/>
<path d="M55.2411 39.0693V26.4248H58.4149C59.1834 26.4248 59.7939 26.5653 60.2466 26.8463C60.7097 27.1169 61.0466 27.5124 61.2571 28.0327C61.4677 28.5531 61.5729 29.1827 61.5729 29.9216C61.5729 30.5876 61.4519 31.1652 61.2098 31.6543C60.9782 32.1435 60.6308 32.5233 60.1676 32.7939C59.7044 33.0541 59.1255 33.1842 58.4307 33.1842H57.0254V39.0693H55.2411ZM57.0254 31.9197H57.8465C58.3623 31.9197 58.7676 31.8625 59.0623 31.748C59.3571 31.6335 59.5676 31.4358 59.6939 31.1548C59.8202 30.8634 59.8834 30.4575 59.8834 29.9372C59.8834 29.3336 59.836 28.8705 59.7413 28.5479C59.6571 28.2252 59.4728 28.0015 59.1886 27.8766C58.9044 27.7517 58.4623 27.6893 57.8623 27.6893H57.0254V31.9197Z" fill="#4D0A05"/>
<path d="M65.6542 39.2098C64.7278 39.2098 64.0173 39.0277 63.5225 38.6635C63.0278 38.2992 62.6909 37.7893 62.512 37.1336C62.333 36.4676 62.2435 35.6923 62.2435 34.8077V26.4248H63.9489V34.8857C63.9489 35.4269 63.9857 35.9212 64.0594 36.3687C64.1331 36.8162 64.291 37.1701 64.5331 37.4302C64.7857 37.6904 65.1594 37.8205 65.6542 37.8205C66.1595 37.8205 66.5332 37.6904 66.7753 37.4302C67.0174 37.1701 67.1753 36.8162 67.249 36.3687C67.3227 35.9212 67.3595 35.4269 67.3595 34.8857V26.4248H69.0491V34.8077C69.0491 35.6923 68.9596 36.4676 68.7806 37.1336C68.6017 37.7893 68.2648 38.2992 67.7701 38.6635C67.2858 39.0277 66.5806 39.2098 65.6542 39.2098Z" fill="#4D0A05"/>
<path d="M70.4539 39.0693V26.4248H73.0277C73.8804 26.4248 74.5857 26.5393 75.1436 26.7683C75.7015 26.9868 76.112 27.3458 76.3752 27.8454C76.6489 28.3345 76.7858 28.9797 76.7858 29.7811C76.7858 30.2702 76.7331 30.7177 76.6279 31.1236C76.5226 31.5191 76.3542 31.8573 76.1226 32.1383C75.891 32.4089 75.5857 32.6066 75.2067 32.7315L77.0226 39.0693H75.3015L73.6277 33.1373H72.2382V39.0693H70.4539ZM72.2382 31.8729H72.9172C73.4225 31.8729 73.833 31.8105 74.1488 31.6856C74.4646 31.5607 74.6962 31.3473 74.8436 31.0455C74.9909 30.7437 75.0646 30.3223 75.0646 29.7811C75.0646 29.0422 74.9278 28.5114 74.6541 28.1888C74.3804 27.8558 73.8383 27.6893 73.0277 27.6893H72.2382V31.8729Z" fill="#4D0A05"/>
<path d="M78.1683 39.0693V26.4248H83.1264V27.7361H79.9525V31.9197H82.5263V33.1686H79.9525V37.8049H83.1579V39.0693H78.1683Z" fill="#4D0A05"/>
<path d="M23.0827 73.684V40.6983H30.7444C32.2547 40.6983 33.5591 40.8612 34.6576 41.1869C35.7835 41.5127 36.7172 42.015 37.4586 42.6937C38.2001 43.3724 38.7493 44.2412 39.1063 45.3C39.4633 46.3316 39.6418 47.5533 39.6418 48.9651C39.6418 50.3225 39.4633 51.5035 39.1063 52.508C38.7767 53.4853 38.255 54.2591 37.541 54.8292C36.8545 55.3993 35.962 55.7658 34.8635 55.9287C36.2091 56.2273 37.2938 56.7432 38.1177 57.4762C38.9415 58.1821 39.5457 59.1051 39.9301 60.2454C40.342 61.3585 40.548 62.7023 40.548 64.2769C40.548 65.6887 40.3832 66.9782 40.0537 68.1456C39.7241 69.313 39.2024 70.304 38.4884 71.1184C37.8019 71.9329 36.9094 72.5709 35.8109 73.0324C34.74 73.4668 33.463 73.684 31.9801 73.684H23.0827ZM27.7374 70.3854H30.8679C32.955 70.3854 34.3418 69.9103 35.0283 68.9601C35.7423 67.9827 36.0993 66.4217 36.0993 64.2769C36.0993 62.8924 35.9071 61.7385 35.5226 60.8155C35.1656 59.8653 34.5752 59.1594 33.7514 58.6979C32.955 58.2092 31.8703 57.9649 30.4972 57.9649H27.7374V70.3854ZM27.7374 54.4627H30.4972C31.8153 54.4627 32.8451 54.2862 33.5866 53.9333C34.328 53.5532 34.8498 52.9559 35.1519 52.1415C35.4539 51.327 35.605 50.2682 35.605 48.9651C35.605 47.4447 35.3716 46.3452 34.9047 45.6665C34.4379 44.9878 33.7102 44.567 32.7216 44.4041C31.733 44.214 30.4423 44.119 28.8495 44.119H27.7374V54.4627Z" fill="#4D0A05"/>
<path d="M42.0067 73.684V40.6983H46.6614V54.9514H55.2293V40.6983H59.8839V73.684H55.2293V58.2499H46.6614V73.684H42.0067Z" fill="#4D0A05"/>
<path d="M62.4192 73.684V40.6983H70.0808C71.5912 40.6983 72.8956 40.8612 73.994 41.1869C75.1199 41.5127 76.0536 42.015 76.7951 42.6937C77.5365 43.3724 78.0857 44.2412 78.4427 45.3C78.7997 46.3316 78.9782 47.5533 78.9782 48.9651C78.9782 50.3225 78.7997 51.5035 78.4427 52.508C78.1132 53.4853 77.5914 54.2591 76.8774 54.8292C76.1909 55.3993 75.2984 55.7658 74.2 55.9287C75.5456 56.2273 76.6303 56.7432 77.4541 57.4762C78.278 58.1821 78.8821 59.1051 79.2666 60.2454C79.6785 61.3585 79.8844 62.7023 79.8844 64.2769C79.8844 65.6887 79.7197 66.9782 79.3901 68.1456C79.0606 69.313 78.5388 70.304 77.8249 71.1184C77.1383 71.9329 76.2458 72.5709 75.1474 73.0324C74.0764 73.4668 72.7995 73.684 71.3166 73.684H62.4192ZM67.0738 70.3854H70.2044C72.2914 70.3854 73.6782 69.9103 74.3647 68.9601C75.0787 67.9827 75.4357 66.4217 75.4357 64.2769C75.4357 62.8924 75.2435 61.7385 74.8591 60.8155C74.5021 59.8653 73.9116 59.1594 73.0878 58.6979C72.2914 58.2092 71.2067 57.9649 69.8337 57.9649H67.0738V70.3854ZM67.0738 54.4627H69.8337C71.1518 54.4627 72.1816 54.2862 72.923 53.9333C73.6645 53.5532 74.1863 52.9559 74.4883 52.1415C74.7904 51.327 74.9414 50.2682 74.9414 48.9651C74.9414 47.4447 74.708 46.3452 74.2412 45.6665C73.7743 44.9878 73.0466 44.567 72.058 44.4041C71.0694 44.214 69.7787 44.119 68.186 44.119H67.0738V54.4627Z" fill="#4D0A05"/>
<defs>
<linearGradient id="paint0_linear_404_2319" x1="19.5266" y1="2.36686" x2="68.0473" y2="102.071" gradientUnits="userSpaceOnUse">
<stop stop-color="#ECA244"/>
<stop offset="0.181337" stop-color="#FFD87D"/>
<stop offset="0.295296" stop-color="#FCE570"/>
<stop offset="0.741325" stop-color="#F4B144"/>
<stop offset="0.852761" stop-color="#F9C847"/>
<stop offset="0.919444" stop-color="#FCE570"/>
</linearGradient>
<linearGradient id="paint1_linear_404_2319" x1="50" y1="0" x2="50" y2="100" gradientUnits="userSpaceOnUse">
<stop stop-color="#F4BB5E"/>
<stop offset="1" stop-color="#FCE570"/>
</linearGradient>
<linearGradient id="paint2_linear_404_2319" x1="50.0004" y1="4.14197" x2="50.0004" y2="95.8579" gradientUnits="userSpaceOnUse">
<stop stop-color="#DE6E33"/>
<stop offset="1" stop-color="#DFB74D"/>
</linearGradient>
<linearGradient id="paint3_linear_404_2319" x1="49.9999" y1="7.10028" x2="49.9999" y2="92.8991" gradientUnits="userSpaceOnUse">
<stop stop-color="#DE6E33"/>
<stop offset="1" stop-color="#DFB74D"/>
</linearGradient>
</defs>
</svg>
