<svg width="142" height="30" viewBox="0 0 142 30" fill="none" xmlns="http://www.w3.org/2000/svg">
<path d="M21.5223 9.20168C20.8601 7.96919 19.9496 7.03081 18.7907 6.38656C17.6318 5.7423 16.2797 5.42017 14.7345 5.42017C13.0238 5.42017 11.5062 5.81233 10.1817 6.59664C8.85727 7.38095 7.82254 8.5014 7.07754 9.95798C6.33253 11.4146 5.96003 13.0952 5.96003 15C5.96003 16.9608 6.33253 18.6695 7.07754 20.1261C7.85014 21.5826 8.91246 22.7031 10.2645 23.4874C11.6165 24.2717 13.1893 24.6639 14.9829 24.6639C17.1903 24.6639 18.9976 24.0756 20.4048 22.8992C21.8121 21.6947 22.7364 20.028 23.1779 17.8992H13.2445V13.4034H28.8896V18.5294C28.5033 20.5742 27.6755 22.465 26.4063 24.2017C25.137 25.9384 23.4952 27.3389 21.4809 28.4034C19.4943 29.4398 17.2593 29.958 14.7759 29.958C11.989 29.958 9.46431 29.3277 7.20171 28.0672C4.96669 26.7787 3.20076 25 1.9039 22.7311C0.634633 20.4622 0 17.8852 0 15C0 12.1148 0.634633 9.53782 1.9039 7.26891C3.20076 4.97199 4.96669 3.19328 7.20171 1.93277C9.46431 0.644258 11.9753 0 14.7345 0C17.9905 0 20.8187 0.812325 23.2193 2.43697C25.6199 4.03361 27.2754 6.28852 28.186 9.20168H21.5223Z" fill="white"/>
<path d="M41.9925 30C39.7575 30 37.7432 29.5098 35.9497 28.5294C34.1562 27.549 32.7489 26.1905 31.728 24.4538C30.7346 22.6891 30.238 20.7003 30.238 18.4874C30.238 16.2745 30.7346 14.2997 31.728 12.563C32.7489 10.8263 34.1562 9.46779 35.9497 8.4874C37.7432 7.507 39.7575 7.01681 41.9925 7.01681C44.2551 7.01681 46.2832 7.507 48.0767 8.4874C49.8702 9.46779 51.2637 10.8263 52.257 12.563C53.2779 14.2997 53.7884 16.2745 53.7884 18.4874C53.7884 20.7003 53.2779 22.6891 52.257 24.4538C51.2637 26.1905 49.8702 27.549 48.0767 28.5294C46.2832 29.5098 44.2551 30 41.9925 30ZM41.9925 25.5042C43.8964 25.5042 45.4692 24.8599 46.7108 23.5714C47.9525 22.2829 48.5734 20.5882 48.5734 18.4874C48.5734 16.3866 47.9525 14.6919 46.7108 13.4034C45.4692 12.1148 43.8964 11.4706 41.9925 11.4706C40.0886 11.4706 38.5158 12.1148 37.2741 13.4034C36.06 14.6919 35.453 16.3866 35.453 18.4874C35.453 20.5882 36.06 22.2829 37.2741 23.5714C38.5158 24.8599 40.0886 25.5042 41.9925 25.5042Z" fill="white"/>
<path d="M71.7688 29.7059L61.256 16.6387V29.7059H55.4615V0.378151H61.256V13.5294L71.7688 0.378151H78.7636L66.8435 14.916L79.0947 29.7059H71.7688Z" fill="white"/>
<path d="M102.566 18.6134C102.566 18.9776 102.538 19.4958 102.483 20.1681H85.1411C85.4446 21.8207 86.231 23.1373 87.5002 24.1176C88.7971 25.07 90.3975 25.5462 92.3014 25.5462C94.7295 25.5462 96.73 24.7339 98.3028 23.1092L101.076 26.3445C100.083 27.549 98.8271 28.4594 97.3095 29.0756C95.7919 29.6919 94.0811 30 92.1772 30C89.749 30 87.6106 29.5098 85.7619 28.5294C83.9132 27.549 82.4784 26.1905 81.4574 24.4538C80.4641 22.6891 79.9674 20.7003 79.9674 18.4874C79.9674 16.3025 80.4503 14.3417 81.416 12.605C82.4094 10.8403 83.7752 9.46779 85.5136 8.4874C87.2519 7.507 89.211 7.01681 91.3908 7.01681C93.5431 7.01681 95.4607 7.507 97.1439 8.4874C98.8547 9.43978 100.179 10.7983 101.117 12.563C102.083 14.2997 102.566 16.3165 102.566 18.6134ZM91.3908 11.2185C89.7353 11.2185 88.328 11.7227 87.1691 12.7311C86.0378 13.7115 85.348 15.028 85.0997 16.6807H97.6406C97.4198 15.056 96.7438 13.7395 95.6125 12.7311C94.4812 11.7227 93.074 11.2185 91.3908 11.2185Z" fill="white"/>
<path d="M112.088 11.2605V22.521C112.088 23.3053 112.268 23.8796 112.626 24.2437C113.013 24.5798 113.647 24.7479 114.53 24.7479H117.221V29.7059H113.578C108.694 29.7059 106.252 27.2969 106.252 22.479V11.2605H103.521V6.42857H106.252V1.34457L112.088 0.672268V6.42857H117.221V11.2605H112.088Z" fill="white"/>
<path d="M130.204 30C127.969 30 125.955 29.5098 124.161 28.5294C122.368 27.549 120.961 26.1905 119.94 24.4538C118.946 22.6891 118.45 20.7003 118.45 18.4874C118.45 16.2745 118.946 14.2997 119.94 12.563C120.961 10.8263 122.368 9.46779 124.161 8.4874C125.955 7.507 127.969 7.01681 130.204 7.01681C132.467 7.01681 134.495 7.507 136.288 8.4874C138.082 9.46779 139.475 10.8263 140.469 12.563C141.49 14.2997 142 16.2745 142 18.4874C142 20.7003 141.49 22.6891 140.469 24.4538C139.475 26.1905 138.082 27.549 136.288 28.5294C134.495 29.5098 132.467 30 130.204 30ZM130.204 25.5042C132.108 25.5042 133.681 24.8599 134.922 23.5714C136.164 22.2829 136.785 20.5882 136.785 18.4874C136.785 16.3866 136.164 14.6919 134.922 13.4034C133.681 12.1148 132.108 11.4706 130.204 11.4706C128.3 11.4706 126.727 12.1148 125.486 13.4034C124.272 14.6919 123.665 16.3866 123.665 18.4874C123.665 20.5882 124.272 22.2829 125.486 23.5714C126.727 24.8599 128.3 25.5042 130.204 25.5042Z" fill="white"/>
</svg>
