<svg width="120" height="120" viewBox="0 0 120 120" fill="none" xmlns="http://www.w3.org/2000/svg">
<mask id="mask0_404_2232" style="mask-type:alpha" maskUnits="userSpaceOnUse" x="0" y="0" width="120" height="120">
<path d="M120 0H0V120H120V0Z" fill="#C4C4C4"/>
</mask>
<g mask="url(#mask0_404_2232)">
<path d="M98.9691 38.9692L108.557 34.0208L106.701 45.1549L118.454 49.1754L106.701 55.3609L98.9691 38.9692Z" fill="#BF4B32" stroke="white" stroke-width="1.14009"/>
<path d="M21.3404 90.0003L11.7527 94.9488L13.6084 83.8147L1.85583 79.7943L13.6084 73.6083L21.3404 90.0003Z" fill="#BF4B32" stroke="white" stroke-width="1.14009"/>
<path d="M58.7623 107.938C85.2379 107.938 106.701 86.4755 106.701 59.9999C106.701 33.5244 85.2379 12.0616 58.7623 12.0616C32.2867 12.0616 10.824 33.5244 10.824 59.9999C10.824 86.4755 32.2867 107.938 58.7623 107.938Z" fill="#ECA244" stroke="black" stroke-width="0.923077"/>
<path d="M58.7623 94.6394C77.893 94.6394 93.4015 79.1309 93.4015 60.0002C93.4015 40.8695 77.893 25.361 58.7623 25.361C39.6316 25.361 24.1231 40.8695 24.1231 60.0002C24.1231 79.1309 39.6316 94.6394 58.7623 94.6394Z" stroke="white" stroke-width="14.902"/>
<path d="M58.7623 94.6394C77.893 94.6394 93.4015 79.1309 93.4015 60.0002C93.4015 40.8695 77.893 25.361 58.7623 25.361C39.6316 25.361 24.1231 40.8695 24.1231 60.0002C24.1231 79.1309 39.6316 94.6394 58.7623 94.6394Z" stroke="#BF4B32" stroke-width="11.7647"/>
<path d="M78.5564 84.7431L79.7347 86.8329L82.0862 87.3074L80.4628 89.0737L80.7381 91.4567L78.5564 90.4584L76.3751 91.4567L76.6504 89.0737L75.027 87.3074L77.3785 86.8329L78.5564 84.7431Z" fill="white"/>
<path d="M59.3814 90.9279L60.5593 93.0176L62.9112 93.4921L61.2874 95.2585L61.5627 97.6415L59.3814 96.6432L57.1997 97.6415L57.4754 95.2585L55.8516 93.4921L58.2035 93.0176L59.3814 90.9279Z" fill="white"/>
<path d="M90.3095 71.1343L91.4874 73.2241L93.8389 73.699L92.2155 75.465L92.4908 77.8484L90.3095 76.8497L88.1278 77.8484L88.4031 75.465L86.7797 73.699L89.1312 73.2241L90.3095 71.1343Z" fill="white"/>
<g filter="url(#filter0_d_404_2232)">
<path d="M100.018 30.0978L8.72534 70.7969L17.0368 89.4406L108.33 48.7414L100.018 30.0978Z" fill="white"/>
<path d="M99.6735 30.8468L9.51318 71.041L17.3814 88.6905L107.542 48.4963L99.6735 30.8468Z" fill="url(#paint0_linear_404_2232)"/>
</g>
<path d="M31.5517 76.0951C31.3927 76.6585 31.0515 77.1942 30.528 77.7023C30.0026 78.2061 29.3595 78.6287 28.5986 78.9691C27.7996 79.3266 27.0203 79.467 26.2608 79.3908C25.5035 79.3087 24.8115 79.0095 24.1849 78.4934C23.5624 77.9751 23.0464 77.27 22.637 76.3776L22.3561 75.75C21.9438 74.8283 21.7415 73.9623 21.7494 73.1521C21.7595 72.3359 21.9769 71.6197 22.4014 71.0036C22.8282 70.3814 23.4347 69.8942 24.221 69.5427C25.3158 69.0525 26.2892 68.9317 27.1409 69.1797C27.9907 69.4236 28.6959 70.0189 29.2564 70.9653L27.4049 71.7938C27.0839 71.3032 26.7227 71.0006 26.3213 70.8857C25.9241 70.7695 25.4719 70.8244 24.9646 71.0517C24.3179 71.341 23.9342 71.8044 23.8135 72.4419C23.6929 73.0793 23.8451 73.8789 24.2702 74.8402L24.5341 75.43C24.9672 76.398 25.4783 77.047 26.0674 77.3772C26.6565 77.707 27.3061 77.7134 28.0163 77.3955C28.7307 77.0759 29.172 76.6955 29.3401 76.2551L28.628 74.6636L26.8969 75.438L26.2699 74.0368L29.9032 72.4112L31.5517 76.0951ZM36.4776 64.2108L39.1984 70.2917C39.6505 71.3019 39.6909 72.2427 39.3198 73.1138C38.9528 73.9836 38.2219 74.6632 37.1271 75.1529C36.0491 75.6351 35.0654 75.7329 34.176 75.4461C33.2866 75.1589 32.6123 74.5197 32.1532 73.5274L29.4012 67.3768L31.3034 66.5257L34.03 72.6193C34.3004 73.224 34.6418 73.6014 35.0541 73.7517C35.4687 73.8959 35.9318 73.8538 36.4433 73.6249C37.5128 73.1461 37.8044 72.341 37.3182 71.2091L34.569 65.0644L36.4776 64.2108ZM46.39 68.5729L43.0547 70.0653L43.2717 72.2512L41.2489 73.1563L40.5548 62.3861L42.3175 61.5976L49.904 69.2836L47.8815 70.1887L46.39 68.5729ZM42.8789 68.2946L45.187 67.2619L42.4802 64.3253L42.8789 68.2946ZM52.6721 63.9887L51.1568 64.667L52.6687 68.0466L50.7666 68.8976L46.6355 59.6653L50.0662 58.1304C51.1568 57.6427 52.1066 57.5091 52.916 57.7304C53.7253 57.9517 54.3287 58.5066 54.7257 59.3942C55.0074 60.024 55.1057 60.6117 55.0202 61.1572C54.9368 61.6968 54.6743 62.2155 54.2321 62.7125L57.9177 65.5917L57.9572 65.6802L55.9155 66.5938L52.6721 63.9887ZM50.467 63.1261L52.0019 62.4393C52.4794 62.2257 52.7955 61.9397 52.9496 61.5814C53.1019 61.2189 53.0828 60.8244 52.8917 60.3976C52.6968 59.9619 52.4189 59.6755 52.0581 59.5376C51.7011 59.398 51.267 59.4423 50.7555 59.6712L49.2274 60.3551L50.467 63.1261ZM63.4215 60.9521L60.0862 62.4444L60.3032 64.6308L58.2806 65.5355L57.5862 54.7657L59.3491 53.9768L66.936 61.6627L64.913 62.5678L63.4215 60.9521ZM59.9104 60.6738L62.2185 59.6414L59.5117 56.7049L59.9104 60.6738ZM75.3057 57.9176L73.4036 58.7691L66.9823 54.3512L69.7006 60.4257L67.7981 61.2772L63.6674 52.0449L65.5696 51.1934L72.0028 55.621L69.2789 49.5338L71.1747 48.6857L75.3057 57.9176ZM80.2849 46.4585L77.4568 47.724L80.8985 55.4155L78.9964 56.2666L75.5547 48.5751L72.7649 49.8236L72.0751 48.2827L79.5955 44.9176L80.2849 46.4585ZM88.5815 47.1755L84.9291 48.81L86.0355 51.2827L90.3219 49.3649L91.0057 50.8929L84.8172 53.6619L80.6862 44.4295L86.8623 41.6663L87.5517 43.207L83.2777 45.1193L84.2623 47.3197L87.9147 45.6853L88.5815 47.1755ZM95.8862 43.907L92.2338 45.5414L93.3402 48.0142L97.6266 46.0963L98.3104 47.6244L92.1219 50.3934L87.9908 41.1612L94.167 38.3978L94.8564 39.9387L90.5828 41.8509L91.567 44.0512L95.2194 42.417L95.8862 43.907Z" fill="white"/>
<path d="M26.8186 49.5977C26.5887 49.53 26.3891 49.5594 26.2196 49.6858C26.0474 49.8113 25.8316 50.0654 25.5721 50.4475C25.31 50.8288 25.0764 51.1228 24.8715 51.3296C24.3116 51.8934 23.7247 52.0854 23.1109 51.9045C22.7918 51.8105 22.5342 51.6377 22.338 51.3858C22.1398 51.1305 22.0199 50.8147 21.978 50.4377C21.937 50.0585 21.9781 49.659 22.1016 49.2398C22.2258 48.8181 22.4136 48.4649 22.665 48.1807C22.9136 47.8951 23.2038 47.7028 23.5357 47.6037C23.8684 47.5019 24.2118 47.5032 24.566 47.6075L24.2076 48.8245C23.9372 48.7449 23.7026 48.7683 23.5037 48.8947C23.3021 49.0207 23.1558 49.2377 23.065 49.5458C22.9775 49.8432 22.9729 50.093 23.0514 50.2956C23.1272 50.4973 23.2679 50.6283 23.4734 50.6888C23.6654 50.7454 23.8545 50.6968 24.0409 50.5428C24.228 50.3866 24.4337 50.1368 24.658 49.7947C25.0701 49.1637 25.4769 48.7356 25.8784 48.51C26.2798 48.2841 26.7104 48.239 27.1701 48.3747C27.6811 48.5249 28.0258 48.8368 28.2039 49.3096C28.3793 49.7811 28.3707 50.3445 28.178 50.999C28.0441 51.453 27.8398 51.8424 27.565 52.1671C27.2874 52.4909 26.9749 52.7088 26.6274 52.8211C26.2807 52.9305 25.9167 52.9292 25.5355 52.8168L25.895 51.596C26.5467 51.7879 26.9873 51.4943 27.2167 50.7156C27.3019 50.4262 27.3102 50.1837 27.2418 49.9871C27.1706 49.7896 27.0295 49.6598 26.8186 49.5977Z" fill="white"/>
<path d="M29.4685 44.623L28.4989 46.6247L29.4562 47.5579L28.8682 48.7719L24.3265 44.0255L24.839 42.9677L31.3843 43.5774L30.7963 44.7915L29.4685 44.623ZM27.7235 45.8685L28.3945 44.483L25.9832 44.1749L27.7235 45.8685Z" fill="white"/>
<path d="M30.2008 36.7017L29.1117 38.2413L33.2988 41.2035L32.5662 42.2391L28.379 39.2769L27.3045 40.7957L26.4657 40.2023L29.362 36.1083L30.2008 36.7017Z" fill="white"/>
<path d="M35.8255 38.3677L34.9609 39.296L30.4556 35.1001L31.3202 34.1718L35.8255 38.3677Z" fill="white"/>
<path d="M38.5421 33.9277C38.3901 33.7424 38.2085 33.6543 37.9974 33.6635C37.7843 33.6705 37.4631 33.7589 37.0337 33.9287C36.6025 34.0964 36.2439 34.2081 35.9579 34.264C35.1779 34.4151 34.5849 34.2433 34.1792 33.7485C33.9683 33.4913 33.8525 33.2034 33.8319 32.8849C33.8118 32.5624 33.8904 32.2337 34.0677 31.8987C34.2473 31.5619 34.5059 31.255 34.8438 30.978C35.1839 30.6991 35.5378 30.5128 35.9056 30.419C36.2717 30.323 36.6198 30.3274 36.9499 30.4322C37.2822 30.5351 37.5655 30.7294 37.7996 31.015L36.8187 31.8193C36.64 31.6013 36.4328 31.4887 36.1971 31.4814C35.9597 31.4719 35.7168 31.5691 35.4683 31.7728C35.2285 31.9694 35.0841 32.1735 35.0351 32.385C34.9844 32.5943 35.0269 32.7818 35.1628 32.9474C35.2897 33.1022 35.4734 33.1685 35.714 33.1462C35.9567 33.1221 36.2671 33.0317 36.6452 32.8748C37.3409 32.585 37.9181 32.4599 38.3769 32.4992C38.8357 32.5386 39.2171 32.7436 39.5209 33.1142C39.8587 33.5262 39.9683 33.9777 39.8496 34.4687C39.7291 34.9575 39.4051 35.4182 38.8776 35.8508C38.5114 36.151 38.1234 36.358 37.7135 36.4717C37.3019 36.5832 36.9209 36.5876 36.5705 36.4848C36.2223 36.3803 35.9222 36.1743 35.6702 35.867L36.6544 35.06C37.0851 35.5853 37.6144 35.5906 38.2422 35.0758C38.4754 34.8845 38.6191 34.6885 38.673 34.4875C38.7251 34.2843 38.6815 34.0977 38.5421 33.9277Z" fill="white"/>
<path d="M43.3507 29.8012L41.2545 31.0416L42.5358 33.2068L41.4441 33.8528L38.3087 28.5545L41.7584 26.513L42.2817 27.3973L39.9236 28.7927L40.7333 30.161L42.8294 28.9206L43.3507 29.8012Z" fill="white"/>
<path d="M48.3142 29.1769L46.2452 29.9932L46.3171 31.3284L45.0627 31.8235L44.9346 25.2554L46.0282 24.824L50.4316 29.705L49.1767 30.2001L48.3142 29.1769ZM46.1865 28.9117L47.6184 28.3468L46.0524 26.4872L46.1865 28.9117Z" fill="white"/>
<path d="M55.0576 26.812C55.1496 27.4698 55.0193 28.0311 54.6662 28.496C54.3159 28.9603 53.7879 29.2681 53.0823 29.4194C52.3108 29.5848 51.6474 29.456 51.0925 29.033C50.5398 28.6066 50.1662 27.94 49.9717 27.0331L49.893 26.6652C49.7687 26.0863 49.7615 25.5546 49.8708 25.0698C49.9802 24.5851 50.1989 24.1851 50.5262 23.8699C50.8559 23.5513 51.2713 23.3382 51.773 23.2307C52.4674 23.0817 53.067 23.1479 53.5713 23.4289C54.0755 23.71 54.433 24.1798 54.6432 24.8381L53.4028 25.104C53.2891 24.7219 53.1198 24.4641 52.8955 24.3306C52.673 24.1938 52.3713 24.1662 51.9908 24.2477C51.5776 24.3364 51.2993 24.5517 51.1564 24.8937C51.0159 25.2323 51.0096 25.7137 51.1376 26.3378L51.2351 26.7926C51.3742 27.4431 51.5742 27.8976 51.8342 28.1561C52.0972 28.414 52.4406 28.4974 52.8653 28.4064C53.2483 28.3243 53.5151 28.1763 53.6653 27.9625C53.8176 27.7453 53.8683 27.4505 53.8172 27.078L55.0576 26.812Z" fill="white"/>
<path d="M60.1492 23.6045L58.2658 23.7038L58.5355 28.8258L57.2687 28.8925L56.999 23.7706L55.1411 23.8684L55.087 22.8424L60.0947 22.5785L60.1492 23.6045Z" fill="white"/>
<path d="M62.3269 29.0528L61.0626 28.9495L61.5639 22.8134L62.8282 22.9166L62.3269 29.0528Z" fill="white"/>
<path d="M69.9589 27.5833C69.8257 28.1745 69.604 28.6693 69.2946 29.0676C68.9853 29.466 68.6083 29.7422 68.1632 29.8961C67.7206 30.0507 67.2478 30.0713 66.7449 29.9578C66.247 29.8456 65.83 29.6258 65.4934 29.2986C65.1568 28.9713 64.9312 28.5621 64.8164 28.071C64.7023 27.5772 64.7091 27.0412 64.8364 26.4631L64.9036 26.1661C65.0368 25.5749 65.2598 25.079 65.5725 24.6785C65.8887 24.2759 66.2678 23.9987 66.7095 23.8468C67.1542 23.6929 67.627 23.6723 68.1278 23.7851C68.6283 23.898 69.0449 24.1191 69.3781 24.4485C69.7146 24.7758 69.9381 25.1888 70.0483 25.6875C70.1615 26.1841 70.1521 26.7266 70.0193 27.3151L69.9589 27.5833ZM68.7661 27.0283C68.9083 26.3986 68.9032 25.8947 68.7517 25.5166C68.5998 25.1385 68.3151 24.9024 67.8972 24.8081C67.4819 24.7145 67.1249 24.8045 66.8261 25.0781C66.5283 25.3491 66.3074 25.7963 66.164 26.4199L66.0981 26.7128C65.9598 27.3261 65.9653 27.8272 66.1142 28.2163C66.2636 28.6053 66.55 28.8476 66.9734 28.9431C67.3887 29.0367 67.7444 28.9464 68.0402 28.6721C68.3368 28.3951 68.5568 27.9448 68.7002 27.3212L68.7661 27.0283Z" fill="white"/>
<path d="M74.3106 32.68L73.1387 32.1948L72.4064 27.5075L70.857 31.2503L69.6851 30.7652L72.0396 25.0767L73.2119 25.5619L73.9447 30.2586L75.4975 26.508L76.6655 26.9915L74.3106 32.68Z" fill="white"/>
<path d="M44.6482 51.7108L43.2146 52.3538L40.736 46.8279L39.2627 48.1262L38.7399 46.9606L41.2505 44.5474L41.4042 44.4785L44.6482 51.7108ZM50.5214 45.4896C50.969 46.4883 51.1052 47.3449 50.929 48.0598C50.7528 48.7742 50.2665 49.31 49.4694 49.6674C48.6826 50.0206 47.9643 50.0308 47.3146 49.6985C46.6652 49.3662 46.118 48.7181 45.6737 47.7534L45.0771 46.424C44.6248 45.4155 44.4899 44.5564 44.672 43.847C44.858 43.1364 45.3439 42.604 46.1311 42.2512C46.9184 41.8982 47.6367 41.8879 48.286 42.2202C48.9341 42.5491 49.4805 43.1959 49.9248 44.1602L50.5214 45.4896ZM48.4337 44.6742C48.1652 44.0759 47.8873 43.6781 47.6005 43.4811C47.315 43.2793 46.9988 43.2564 46.6516 43.4121C46.3145 43.5632 46.1235 43.8057 46.0784 44.1398C46.0354 44.4691 46.1328 44.9117 46.3707 45.4687L47.1584 47.2245C47.4222 47.8134 47.698 48.2159 47.986 48.4321C48.2754 48.644 48.5971 48.6704 48.9511 48.5117C49.3018 48.3547 49.4929 48.104 49.5252 47.7598C49.5575 47.4155 49.4503 46.9593 49.2035 46.3908L48.4337 44.6742ZM56.3546 42.8734C56.8026 43.8721 56.9384 44.7287 56.7626 45.4432C56.5865 46.1576 56.1001 46.6938 55.3031 47.0513C54.5158 47.404 53.7975 47.4147 53.1482 47.0823C52.4984 46.75 51.9516 46.1015 51.5069 45.1368L50.9107 43.8074C50.4584 42.7989 50.3231 41.94 50.5056 41.2306C50.6911 40.5197 51.1775 39.9878 51.9648 39.6348C52.7516 39.2817 53.4699 39.2714 54.1197 39.6037C54.7677 39.9327 55.3137 40.5794 55.7584 41.5439L56.3546 42.8734ZM54.2669 42.0579C53.9984 41.4593 53.7209 41.0616 53.4337 40.8646C53.1486 40.6628 52.8324 40.6397 52.4852 40.7955C52.1477 40.9468 51.9567 41.1894 51.912 41.5233C51.869 41.8525 51.9665 42.2954 52.2039 42.8521L52.9916 44.6083C53.2558 45.1968 53.5316 45.5993 53.8192 45.8159C54.109 46.0274 54.4307 46.0538 54.7843 45.8955C55.135 45.7381 55.3265 45.4874 55.3588 45.1432C55.3911 44.7989 55.2839 44.3428 55.0367 43.7742L54.2669 42.0579ZM56.0299 39.5988C55.8311 39.1557 55.8141 38.7324 55.9788 38.3288C56.1418 37.922 56.4567 37.614 56.9226 37.4049C57.3958 37.1928 57.8375 37.1595 58.2482 37.3049C58.6575 37.447 58.9669 37.7512 59.1763 38.2175L59.3363 38.5747C59.5367 39.0211 59.5537 39.4444 59.3873 39.8446C59.2214 40.2448 58.9052 40.5495 58.4388 40.7587C57.9694 40.9693 57.5282 41.0043 57.1158 40.8636C56.7048 40.7182 56.3954 40.414 56.1877 39.951L56.0299 39.5988ZM57.1537 39.5536C57.2426 39.752 57.3707 39.8872 57.538 39.9591C57.7073 40.0262 57.8843 40.0183 58.0694 39.9352C58.255 39.8522 58.3746 39.725 58.4286 39.5537C58.4831 39.3824 58.4643 39.1942 58.3724 38.9892L58.2077 38.6221C58.1184 38.4237 57.992 38.2878 57.8282 38.2144C57.6639 38.141 57.486 38.1473 57.2945 38.2333C57.1124 38.3149 56.9929 38.4421 56.9354 38.6148C56.8763 38.7843 56.895 38.9765 56.9911 39.1915L57.1537 39.5536ZM61.3048 42.1129C61.1043 41.6665 61.089 41.2424 61.2584 40.8407C61.426 40.4357 61.7418 40.1293 62.2048 39.9217C62.6741 39.7111 63.1137 39.6768 63.5231 39.819C63.9341 39.9563 64.2456 40.2614 64.458 40.7343L64.618 41.0915C64.8167 41.5346 64.8354 41.9572 64.6741 42.3592C64.5116 42.7581 64.1937 43.0632 63.7209 43.2755C63.2448 43.4891 62.8009 43.5232 62.3903 43.3776C61.9792 43.2321 61.6724 42.933 61.469 42.48L61.3048 42.1129ZM62.4307 42.0726C62.512 42.2545 62.6414 42.3833 62.8184 42.4588C62.995 42.5344 63.1729 42.5321 63.3516 42.452C63.755 42.2711 63.8567 41.9574 63.6563 41.5109L63.4873 41.1339C63.3984 40.9355 63.2707 40.802 63.1048 40.7334C62.9375 40.6615 62.7614 40.6671 62.5763 40.7501C62.3911 40.8332 62.2694 40.9611 62.212 41.1339C62.1528 41.3033 62.1703 41.4923 62.2635 41.7006L62.4307 42.0726ZM60.2592 44.0594L59.3907 43.9964L60.3856 36.7693L61.2541 36.8326L60.2592 44.0594Z" fill="#512B15"/>
<path d="M58.9789 82.9958L57.5453 83.6388L55.0665 78.1128L53.5934 79.4111L53.0704 78.2456L55.581 75.8324L55.7346 75.7634L58.9789 82.9958ZM64.8517 76.7749C65.2997 77.7732 65.4355 78.6298 65.2597 79.3447C65.0836 80.0592 64.5972 80.5949 63.8002 80.9524C63.0129 81.3056 62.2946 81.3158 61.6453 80.9834C60.9955 80.6511 60.4487 80.003 60.004 79.0383L59.4078 77.709C58.9555 76.7005 58.8206 75.8413 59.0027 75.132C59.1882 74.4213 59.6746 73.8894 60.4619 73.5362C61.2487 73.183 61.967 73.1728 62.6168 73.5051C63.2648 73.8341 63.8108 74.4809 64.2555 75.4451L64.8517 76.7749ZM62.764 75.9592C62.4955 75.3609 62.218 74.963 61.9308 74.766C61.6457 74.5643 61.3295 74.5413 60.9823 74.6971C60.6453 74.8481 60.4538 75.0907 60.4091 75.4247C60.3661 75.7541 60.4636 76.1966 60.7014 76.7537L61.4887 78.5094C61.7529 79.0983 62.0287 79.5009 62.3163 79.7171C62.6061 79.929 62.9278 79.9554 63.2819 79.7966C63.6321 79.6396 63.8236 79.389 63.8559 79.0447C63.8882 78.7005 63.781 78.2443 63.5338 77.6758L62.764 75.9592ZM70.6853 74.1583C71.1334 75.1571 71.2691 76.0137 71.0929 76.7281C70.9172 77.4426 70.4304 77.9788 69.6334 78.3362C68.8465 78.689 68.1282 78.6996 67.4785 78.3673C66.8291 78.0349 66.2823 77.3864 65.8376 76.4217L65.2414 75.0924C64.7891 74.0839 64.6538 73.2251 64.8363 72.5154C65.0219 71.8047 65.5082 71.2728 66.2951 70.9196C67.0823 70.5668 67.8006 70.5562 68.4499 70.8885C69.098 71.2175 69.6444 71.8643 70.0891 72.829L70.6853 74.1583ZM68.5976 73.343C68.3291 72.7443 68.0512 72.3464 67.7644 72.1494C67.4793 71.9477 67.1631 71.9247 66.8159 72.0805C66.4785 72.232 66.2874 72.4745 66.2427 72.8081C66.1997 73.1375 66.2968 73.5805 66.5346 74.1371L67.3223 75.8932C67.5861 76.4817 67.8623 76.8843 68.1499 77.1009C68.4397 77.3124 68.7614 77.3392 69.1151 77.1805C69.4657 77.023 69.6572 76.7724 69.6895 76.4281C69.7219 76.0839 69.6142 75.6277 69.3674 75.0592L68.5976 73.343ZM70.3606 70.8839C70.1619 70.4405 70.1448 70.0175 70.3095 69.6137C70.4725 69.2068 70.787 68.8992 71.2534 68.6898C71.7261 68.4779 72.1682 68.4443 72.5789 68.5898C72.9882 68.732 73.2976 69.0362 73.5065 69.5026L73.667 69.8596C73.867 70.306 73.884 70.7294 73.718 71.1294C73.5521 71.5298 73.2359 71.8345 72.7695 72.0434C72.3002 72.2541 71.8589 72.2894 71.4461 72.1485C71.0355 72.003 70.7261 71.6988 70.5185 71.2358L70.3606 70.8839ZM71.4844 70.8388C71.5734 71.0371 71.7014 71.172 71.8687 71.2443C72.038 71.3111 72.2151 71.3034 72.4002 71.22C72.5853 71.1371 72.7053 71.0098 72.7593 70.8388C72.8138 70.6673 72.7946 70.4792 72.7027 70.2741L72.538 69.9073C72.4491 69.7085 72.3227 69.5728 72.1589 69.4992C71.9946 69.426 71.8168 69.4324 71.6248 69.5183C71.4431 69.6 71.3236 69.7269 71.2657 69.8996C71.207 70.0694 71.2253 70.2613 71.3219 70.4766L71.4844 70.8388ZM75.6351 73.3979C75.4351 72.9515 75.4197 72.5273 75.5891 72.1256C75.7568 71.7205 76.0721 71.4145 76.5351 71.2068C77.0048 70.9962 77.4444 70.9617 77.8538 71.1039C78.2648 71.2413 78.5763 71.5464 78.7887 72.0192L78.9487 72.3766C79.1474 72.8196 79.1661 73.2422 79.0048 73.6443C78.8423 74.043 78.5244 74.3481 78.0512 74.5605C77.5751 74.7741 77.1317 74.8081 76.721 74.6626C76.31 74.5171 76.0031 74.2179 75.7997 73.7651L75.6351 73.3979ZM76.761 73.3575C76.8427 73.5396 76.9721 73.6681 77.1487 73.7439C77.3257 73.8192 77.5036 73.8171 77.6819 73.7371C78.0857 73.5562 78.187 73.2422 77.987 72.7958L77.8176 72.4188C77.7287 72.2205 77.6014 72.0868 77.4355 72.0183C77.2682 71.9464 77.0921 71.952 76.907 72.0349C76.7214 72.1183 76.6002 72.246 76.5427 72.4188C76.4836 72.5881 76.501 72.7771 76.5942 72.9856L76.761 73.3575ZM74.5895 75.3443L73.721 75.2813L74.7163 68.0545L75.5848 68.1175L74.5895 75.3443Z" fill="#512B15"/>
</g>
<defs>
<filter id="filter0_d_404_2232" x="4.165" y="30.0978" width="108.725" height="68.4634" filterUnits="userSpaceOnUse" color-interpolation-filters="sRGB">
<feFlood flood-opacity="0" result="BackgroundImageFix"/>
<feColorMatrix in="SourceAlpha" type="matrix" values="0 0 0 0 0 0 0 0 0 0 0 0 0 0 0 0 0 0 127 0" result="hardAlpha"/>
<feOffset dy="4.56034"/>
<feGaussianBlur stdDeviation="2.28017"/>
<feColorMatrix type="matrix" values="0 0 0 0 0 0 0 0 0 0 0 0 0 0 0 0 0 0 0.25 0"/>
<feBlend mode="normal" in2="BackgroundImageFix" result="effect1_dropShadow_404_2232"/>
<feBlend mode="normal" in="SourceGraphic" in2="effect1_dropShadow_404_2232" result="shape"/>
</filter>
<linearGradient id="paint0_linear_404_2232" x1="15.7315" y1="79.5372" x2="102.711" y2="41.0789" gradientUnits="userSpaceOnUse">
<stop stop-color="#AA5430"/>
<stop offset="0.506026" stop-color="#DC7945"/>
<stop offset="1" stop-color="#BF4B32"/>
</linearGradient>
</defs>
</svg>
