<svg width="235" height="194" viewBox="0 0 235 194" fill="none" xmlns="http://www.w3.org/2000/svg">
<path d="M0 0H235V168L117.5 194L0 168V0Z" fill="url(#paint0_linear_404_2463)"/>
<path d="M48.6039 69V47.94H54.0899C54.9913 47.94 55.8406 48.0093 56.6379 48.148C57.4526 48.2867 58.1719 48.5553 58.7959 48.954C59.4199 49.3353 59.9053 49.89 60.2519 50.618C60.6159 51.3287 60.7979 52.2733 60.7979 53.452C60.7979 54.3013 60.6679 55.0207 60.4079 55.61C60.1653 56.182 59.8099 56.6413 59.3419 56.988C58.8913 57.3347 58.3453 57.5687 57.7039 57.69C58.5186 57.794 59.2033 58.0627 59.7579 58.496C60.3126 58.912 60.7286 59.4753 61.0059 60.186C61.3006 60.8967 61.4479 61.7547 61.4479 62.76C61.4479 63.852 61.3006 64.7967 61.0059 65.594C60.7286 66.374 60.3213 67.0153 59.7839 67.518C59.2466 68.0207 58.5793 68.3933 57.7819 68.636C57.0019 68.8787 56.1006 69 55.0779 69H48.6039ZM53.2579 65.75H54.2459C55.2686 65.75 55.9706 65.49 56.3519 64.97C56.7506 64.45 56.9499 63.6873 56.9499 62.682C56.9499 61.8847 56.8633 61.252 56.6899 60.784C56.5166 60.316 56.2306 59.978 55.8319 59.77C55.4333 59.5447 54.8959 59.432 54.2199 59.432H53.2579V65.75ZM53.2579 56.364H54.1679C54.8786 56.364 55.4159 56.26 55.7799 56.052C56.1439 55.8267 56.3866 55.506 56.5079 55.09C56.6466 54.674 56.7159 54.1713 56.7159 53.582C56.7159 53.0273 56.6119 52.568 56.4039 52.204C56.2133 51.8227 55.9186 51.5367 55.5199 51.346C55.1386 51.1553 54.6533 51.06 54.0639 51.06H53.2579V56.364ZM69.9211 69.312C68.3438 69.312 67.0958 69.0347 66.1771 68.48C65.2584 67.9253 64.5998 67.128 64.2011 66.088C63.8024 65.048 63.6031 63.8087 63.6031 62.37V54.544C63.6031 53.088 63.8024 51.8487 64.2011 50.826C64.5998 49.8033 65.2584 49.0233 66.1771 48.486C67.0958 47.9313 68.3438 47.654 69.9211 47.654C71.5158 47.654 72.7724 47.9313 73.6911 48.486C74.6271 49.0233 75.2944 49.8033 75.6931 50.826C76.0918 51.8487 76.2911 53.088 76.2911 54.544V62.37C76.2911 63.8087 76.0918 65.048 75.6931 66.088C75.2944 67.128 74.6271 67.9253 73.6911 68.48C72.7724 69.0347 71.5158 69.312 69.9211 69.312ZM69.9211 66.01C70.4064 66.01 70.7618 65.8887 70.9871 65.646C71.2124 65.4033 71.3598 65.0913 71.4291 64.71C71.4984 64.3287 71.5331 63.9387 71.5331 63.54V53.4C71.5331 52.984 71.4984 52.594 71.4291 52.23C71.3598 51.8487 71.2124 51.5367 70.9871 51.294C70.7618 51.0513 70.4064 50.93 69.9211 50.93C69.4704 50.93 69.1324 51.0513 68.9071 51.294C68.6818 51.5367 68.5344 51.8487 68.4651 52.23C68.3958 52.594 68.3611 52.984 68.3611 53.4V63.54C68.3611 63.9387 68.3871 64.3287 68.4391 64.71C68.5084 65.0913 68.6471 65.4033 68.8551 65.646C69.0804 65.8887 69.4358 66.01 69.9211 66.01ZM79.1235 69V47.94H84.4535C86.2908 47.94 87.7208 48.174 88.7435 48.642C89.7661 49.0927 90.4855 49.812 90.9015 50.8C91.3175 51.7707 91.5255 53.036 91.5255 54.596V62.24C91.5255 63.8173 91.3175 65.1087 90.9015 66.114C90.4855 67.102 89.7661 67.83 88.7435 68.298C87.7381 68.766 86.3255 69 84.5055 69H79.1235ZM83.7775 65.776H84.5055C85.2161 65.776 85.7275 65.672 86.0395 65.464C86.3515 65.256 86.5421 64.944 86.6115 64.528C86.6981 64.112 86.7415 63.592 86.7415 62.968V53.79C86.7415 53.166 86.6895 52.6633 86.5855 52.282C86.4988 51.9007 86.2995 51.6233 85.9875 51.45C85.6755 51.2767 85.1728 51.19 84.4795 51.19H83.7775V65.776ZM96.6036 69V60.394L92.5996 47.94H96.9936L98.9956 54.596L100.79 47.94H105.002L101.076 60.394V69H96.6036ZM113.426 69V47.94H118.912C119.814 47.94 120.663 48.0093 121.46 48.148C122.275 48.2867 122.994 48.5553 123.618 48.954C124.242 49.3353 124.728 49.89 125.074 50.618C125.438 51.3287 125.62 52.2733 125.62 53.452C125.62 54.3013 125.49 55.0207 125.23 55.61C124.988 56.182 124.632 56.6413 124.164 56.988C123.714 57.3347 123.168 57.5687 122.526 57.69C123.341 57.794 124.026 58.0627 124.58 58.496C125.135 58.912 125.551 59.4753 125.828 60.186C126.123 60.8967 126.27 61.7547 126.27 62.76C126.27 63.852 126.123 64.7967 125.828 65.594C125.551 66.374 125.144 67.0153 124.606 67.518C124.069 68.0207 123.402 68.3933 122.604 68.636C121.824 68.8787 120.923 69 119.9 69H113.426ZM118.08 65.75H119.068C120.091 65.75 120.793 65.49 121.174 64.97C121.573 64.45 121.772 63.6873 121.772 62.682C121.772 61.8847 121.686 61.252 121.512 60.784C121.339 60.316 121.053 59.978 120.654 59.77C120.256 59.5447 119.718 59.432 119.042 59.432H118.08V65.75ZM118.08 56.364H118.99C119.701 56.364 120.238 56.26 120.602 56.052C120.966 55.8267 121.209 55.506 121.33 55.09C121.469 54.674 121.538 54.1713 121.538 53.582C121.538 53.0273 121.434 52.568 121.226 52.204C121.036 51.8227 120.741 51.5367 120.342 51.346C119.961 51.1553 119.476 51.06 118.886 51.06H118.08V56.364ZM134.795 69.312C133.183 69.312 131.918 69.052 130.999 68.532C130.098 67.9947 129.465 67.2233 129.101 66.218C128.737 65.1953 128.555 63.9473 128.555 62.474V47.94H133.157V63.176C133.157 63.6093 133.192 64.0427 133.261 64.476C133.331 64.9093 133.478 65.2647 133.703 65.542C133.946 65.8193 134.31 65.958 134.795 65.958C135.298 65.958 135.662 65.8193 135.887 65.542C136.113 65.2647 136.251 64.9093 136.303 64.476C136.373 64.0427 136.407 63.6093 136.407 63.176V47.94H141.035V62.474C141.035 63.9473 140.845 65.1953 140.463 66.218C140.099 67.2233 139.467 67.9947 138.565 68.532C137.664 69.052 136.407 69.312 134.795 69.312ZM143.997 69V47.94H149.795C151.216 47.94 152.447 48.096 153.487 48.408C154.527 48.72 155.333 49.2833 155.905 50.098C156.494 50.8953 156.789 52.0307 156.789 53.504C156.789 54.3707 156.719 55.142 156.581 55.818C156.442 56.494 156.182 57.0833 155.801 57.586C155.437 58.0713 154.908 58.4787 154.215 58.808L157.101 69H152.291L149.977 59.562H148.651V69H143.997ZM148.651 56.884H149.951C150.609 56.884 151.121 56.7713 151.485 56.546C151.849 56.3033 152.1 55.9653 152.239 55.532C152.395 55.0813 152.473 54.544 152.473 53.92C152.473 53.0187 152.308 52.3167 151.979 51.814C151.649 51.3113 151.043 51.06 150.159 51.06H148.651V56.884ZM159.586 69V47.94H162.862L167.178 58.08V47.94H171.026V69H167.88L163.564 58.08V69H159.586ZM179.751 69.312C178.433 69.312 177.333 69.078 176.449 68.61C175.565 68.142 174.897 67.4227 174.447 66.452C173.996 65.464 173.745 64.19 173.693 62.63L177.671 62.032C177.688 62.9333 177.766 63.6613 177.905 64.216C178.061 64.7707 178.269 65.1693 178.529 65.412C178.806 65.6547 179.135 65.776 179.517 65.776C180.002 65.776 180.314 65.6113 180.453 65.282C180.609 64.9527 180.687 64.606 180.687 64.242C180.687 63.3753 180.479 62.6473 180.063 62.058C179.647 61.4513 179.083 60.8447 178.373 60.238L176.553 58.652C175.755 57.976 175.079 57.2133 174.525 56.364C173.987 55.4973 173.719 54.4313 173.719 53.166C173.719 51.3807 174.247 50.02 175.305 49.084C176.362 48.1307 177.801 47.654 179.621 47.654C180.747 47.654 181.649 47.8447 182.325 48.226C183.018 48.6073 183.538 49.11 183.885 49.734C184.249 50.3407 184.491 50.9907 184.613 51.684C184.751 52.36 184.829 53.01 184.847 53.634L180.843 54.128C180.825 53.504 180.782 52.9667 180.713 52.516C180.661 52.048 180.539 51.6927 180.349 51.45C180.158 51.19 179.863 51.06 179.465 51.06C179.031 51.06 178.711 51.242 178.503 51.606C178.312 51.97 178.217 52.334 178.217 52.698C178.217 53.478 178.399 54.1193 178.763 54.622C179.144 55.1073 179.638 55.6187 180.245 56.156L181.987 57.69C182.905 58.47 183.677 59.354 184.301 60.342C184.942 61.33 185.263 62.552 185.263 64.008C185.263 64.996 185.037 65.8973 184.587 66.712C184.136 67.5093 183.495 68.142 182.663 68.61C181.848 69.078 180.877 69.312 179.751 69.312ZM53.2885 156V134.94H62.3885V138.086H57.9425V143.39H61.8165V146.64H57.9425V156H53.2885ZM70.594 156.312C69.0166 156.312 67.7686 156.035 66.85 155.48C65.9313 154.925 65.2726 154.128 64.874 153.088C64.4753 152.048 64.276 150.809 64.276 149.37V141.544C64.276 140.088 64.4753 138.849 64.874 137.826C65.2726 136.803 65.9313 136.023 66.85 135.486C67.7686 134.931 69.0166 134.654 70.594 134.654C72.1886 134.654 73.4453 134.931 74.364 135.486C75.3 136.023 75.9673 136.803 76.366 137.826C76.7646 138.849 76.964 140.088 76.964 141.544V149.37C76.964 150.809 76.7646 152.048 76.366 153.088C75.9673 154.128 75.3 154.925 74.364 155.48C73.4453 156.035 72.1886 156.312 70.594 156.312ZM70.594 153.01C71.0793 153.01 71.4346 152.889 71.66 152.646C71.8853 152.403 72.0326 152.091 72.102 151.71C72.1713 151.329 72.206 150.939 72.206 150.54V140.4C72.206 139.984 72.1713 139.594 72.102 139.23C72.0326 138.849 71.8853 138.537 71.66 138.294C71.4346 138.051 71.0793 137.93 70.594 137.93C70.1433 137.93 69.8053 138.051 69.58 138.294C69.3546 138.537 69.2073 138.849 69.138 139.23C69.0686 139.594 69.034 139.984 69.034 140.4V150.54C69.034 150.939 69.06 151.329 69.112 151.71C69.1813 152.091 69.32 152.403 69.528 152.646C69.7533 152.889 70.1086 153.01 70.594 153.01ZM79.7963 156V134.94H85.5943C87.0157 134.94 88.2463 135.096 89.2863 135.408C90.3263 135.72 91.1323 136.283 91.7043 137.098C92.2937 137.895 92.5883 139.031 92.5883 140.504C92.5883 141.371 92.519 142.142 92.3803 142.818C92.2417 143.494 91.9817 144.083 91.6003 144.586C91.2363 145.071 90.7077 145.479 90.0143 145.808L92.9003 156H88.0903L85.7763 146.562H84.4503V156H79.7963ZM84.4503 143.884H85.7503C86.409 143.884 86.9203 143.771 87.2843 143.546C87.6483 143.303 87.8997 142.965 88.0383 142.532C88.1943 142.081 88.2723 141.544 88.2723 140.92C88.2723 140.019 88.1077 139.317 87.7783 138.814C87.449 138.311 86.8423 138.06 85.9583 138.06H84.4503V143.884ZM102.039 156V134.94H111.503V138.112H106.693V143.338H110.359V146.562H106.693V152.854H111.555V156H102.039ZM113.667 156V134.94H116.943L121.259 145.08V134.94H125.107V156H121.961L117.645 145.08V156H113.667ZM128.242 156V134.94H137.706V138.112H132.896V143.338H136.562V146.562H132.896V152.854H137.758V156H128.242ZM139.871 156V134.94H145.669C147.09 134.94 148.321 135.096 149.361 135.408C150.401 135.72 151.207 136.283 151.779 137.098C152.368 137.895 152.663 139.031 152.663 140.504C152.663 141.371 152.593 142.142 152.455 142.818C152.316 143.494 152.056 144.083 151.675 144.586C151.311 145.071 150.782 145.479 150.089 145.808L152.975 156H148.165L145.851 146.562H144.525V156H139.871ZM144.525 143.884H145.825C146.483 143.884 146.995 143.771 147.359 143.546C147.723 143.303 147.974 142.965 148.113 142.532C148.269 142.081 148.347 141.544 148.347 140.92C148.347 140.019 148.182 139.317 147.853 138.814C147.523 138.311 146.917 138.06 146.033 138.06H144.525V143.884ZM160.743 156.312C159.287 156.312 158.135 156.009 157.285 155.402C156.453 154.795 155.855 153.946 155.491 152.854C155.145 151.745 154.971 150.471 154.971 149.032V141.96C154.971 140.469 155.162 139.178 155.543 138.086C155.925 136.994 156.575 136.153 157.493 135.564C158.429 134.957 159.695 134.654 161.289 134.654C162.849 134.654 164.071 134.914 164.955 135.434C165.857 135.954 166.498 136.673 166.879 137.592C167.261 138.511 167.451 139.585 167.451 140.816V142.168H162.901V140.452C162.901 140.001 162.867 139.585 162.797 139.204C162.745 138.823 162.607 138.519 162.381 138.294C162.173 138.051 161.827 137.93 161.341 137.93C160.839 137.93 160.475 138.069 160.249 138.346C160.024 138.606 159.877 138.935 159.807 139.334C159.755 139.733 159.729 140.149 159.729 140.582V150.332C159.729 150.8 159.773 151.242 159.859 151.658C159.963 152.057 160.137 152.386 160.379 152.646C160.639 152.889 161.003 153.01 161.471 153.01C161.957 153.01 162.329 152.88 162.589 152.62C162.849 152.36 163.031 152.022 163.135 151.606C163.239 151.19 163.291 150.748 163.291 150.28V147.81H161.393V145.08H167.477V156H164.409L164.149 154.258C163.872 154.847 163.465 155.341 162.927 155.74C162.39 156.121 161.662 156.312 160.743 156.312ZM172.661 156V147.394L168.657 134.94H173.051L175.053 141.596L176.847 134.94H181.059L177.133 147.394V156H172.661Z" fill="white"/>
<path d="M74.4503 122V83.12H91.2503V88.928H83.0423V98.72H90.1943V104.72H83.0423V122H74.4503ZM92.0314 122L99.3754 83.12H109.167L116.415 122H108.495L107.199 113.792H101.487L100.143 122H92.0314ZM102.255 108.656H106.383L104.319 93.488L102.255 108.656ZM121.782 122V89.504H115.926V83.12H136.23V89.504H130.422V122H121.782ZM149.973 122.576C147.541 122.576 145.509 122.144 143.877 121.28C142.245 120.416 141.013 119.088 140.181 117.296C139.349 115.472 138.885 113.12 138.789 110.24L146.133 109.136C146.165 110.8 146.309 112.144 146.565 113.168C146.853 114.192 147.237 114.928 147.717 115.376C148.229 115.824 148.837 116.048 149.541 116.048C150.437 116.048 151.013 115.744 151.269 115.136C151.557 114.528 151.701 113.888 151.701 113.216C151.701 111.616 151.317 110.272 150.549 109.184C149.781 108.064 148.741 106.944 147.429 105.824L144.069 102.896C142.597 101.648 141.349 100.24 140.325 98.672C139.333 97.072 138.837 95.104 138.837 92.768C138.837 89.472 139.813 86.96 141.765 85.232C143.717 83.472 146.373 82.592 149.733 82.592C151.813 82.592 153.477 82.944 154.725 83.648C156.005 84.352 156.965 85.28 157.605 86.432C158.277 87.552 158.725 88.752 158.949 90.032C159.205 91.28 159.349 92.48 159.381 93.632L151.989 94.544C151.957 93.392 151.877 92.4 151.749 91.568C151.653 90.704 151.429 90.048 151.077 89.6C150.725 89.12 150.181 88.88 149.445 88.88C148.645 88.88 148.053 89.216 147.669 89.888C147.317 90.56 147.141 91.232 147.141 91.904C147.141 93.344 147.477 94.528 148.149 95.456C148.853 96.352 149.765 97.296 150.885 98.288L154.101 101.12C155.797 102.56 157.221 104.192 158.373 106.016C159.557 107.84 160.149 110.096 160.149 112.784C160.149 114.608 159.733 116.272 158.901 117.776C158.069 119.248 156.885 120.416 155.349 121.28C153.845 122.144 152.053 122.576 149.973 122.576Z" fill="#FFD600"/>
<defs>
<linearGradient id="paint0_linear_404_2463" x1="117" y1="-1.33987e-10" x2="117.5" y2="194" gradientUnits="userSpaceOnUse">
<stop stop-color="#1281FC" stop-opacity="0"/>
<stop offset="0.865295" stop-color="#1281FC"/>
</linearGradient>
</defs>
</svg>
