<svg width="264" height="58" viewBox="0 0 264 58" fill="none" xmlns="http://www.w3.org/2000/svg">
<path d="M0 0H264V42C264 50.8366 256.837 58 248 58H16C7.16344 58 0 50.8366 0 42V0Z" fill="black"/>
<path d="M48.0186 39L45.7646 20.37H49.2606L50.3646 31.226L51.7676 20.393H54.5046L55.9766 31.157L57.1036 20.37H60.5536L58.3226 39H54.7346L53.1476 27.753L51.6526 39H48.0186ZM62.6297 39V20.37H66.7467V27.914H69.6217V20.37H73.7617V39H69.6217V30.858H66.7467V39H62.6297ZM78.9448 39V31.387L75.4028 20.37H79.2898L81.0608 26.258L82.6478 20.37H86.3738L82.9008 31.387V39H78.9448ZM93.8263 39V20.37H97.9433V27.983L101.071 20.37H105.096L101.646 28.788L105.257 39H101.071L98.3803 30.766L97.9433 31.502V39H93.8263ZM106.876 39V20.37H115.248V23.176H110.993V27.799H114.236V30.651H110.993V36.217H115.294V39H106.876ZM118.842 39V23.429H116.036V20.37H125.765V23.429H122.982V39H118.842ZM132.562 39.276C131.166 39.276 130.062 39.0307 129.25 38.54C128.437 38.0493 127.854 37.344 127.502 36.424C127.149 35.504 126.973 34.4077 126.973 33.135V26.212C126.973 24.924 127.149 23.8277 127.502 22.923C127.854 22.0183 128.437 21.3283 129.25 20.853C130.062 20.3623 131.166 20.117 132.562 20.117C133.972 20.117 135.084 20.3623 135.897 20.853C136.725 21.3283 137.315 22.0183 137.668 22.923C138.02 23.8277 138.197 24.924 138.197 26.212V33.135C138.197 34.4077 138.02 35.504 137.668 36.424C137.315 37.344 136.725 38.0493 135.897 38.54C135.084 39.0307 133.972 39.276 132.562 39.276ZM132.562 36.355C132.991 36.355 133.305 36.2477 133.505 36.033C133.704 35.8183 133.834 35.5423 133.896 35.205C133.957 34.8677 133.988 34.5227 133.988 34.17V25.2C133.988 24.832 133.957 24.487 133.896 24.165C133.834 23.8277 133.704 23.5517 133.505 23.337C133.305 23.1223 132.991 23.015 132.562 23.015C132.163 23.015 131.864 23.1223 131.665 23.337C131.465 23.5517 131.335 23.8277 131.274 24.165C131.212 24.487 131.182 24.832 131.182 25.2V34.17C131.182 34.5227 131.205 34.8677 131.251 35.205C131.312 35.5423 131.435 35.8183 131.619 36.033C131.818 36.2477 132.132 36.355 132.562 36.355ZM148.082 39L145.828 20.37H149.324L150.428 31.226L151.831 20.393H154.568L156.04 31.157L157.167 20.37H160.617L158.386 39H154.798L153.211 27.753L151.716 39H148.082ZM167.915 39.276C166.52 39.276 165.416 39.0307 164.603 38.54C163.791 38.0493 163.208 37.344 162.855 36.424C162.503 35.504 162.326 34.4077 162.326 33.135V26.212C162.326 24.924 162.503 23.8277 162.855 22.923C163.208 22.0183 163.791 21.3283 164.603 20.853C165.416 20.3623 166.52 20.117 167.915 20.117C169.326 20.117 170.438 20.3623 171.25 20.853C172.078 21.3283 172.669 22.0183 173.021 22.923C173.374 23.8277 173.55 24.924 173.55 26.212V33.135C173.55 34.4077 173.374 35.504 173.021 36.424C172.669 37.344 172.078 38.0493 171.25 38.54C170.438 39.0307 169.326 39.276 167.915 39.276ZM167.915 36.355C168.345 36.355 168.659 36.2477 168.858 36.033C169.058 35.8183 169.188 35.5423 169.249 35.205C169.311 34.8677 169.341 34.5227 169.341 34.17V25.2C169.341 24.832 169.311 24.487 169.249 24.165C169.188 23.8277 169.058 23.5517 168.858 23.337C168.659 23.1223 168.345 23.015 167.915 23.015C167.517 23.015 167.218 23.1223 167.018 23.337C166.819 23.5517 166.689 23.8277 166.627 24.165C166.566 24.487 166.535 24.832 166.535 25.2V34.17C166.535 34.5227 166.558 34.8677 166.604 35.205C166.666 35.5423 166.788 35.8183 166.972 36.033C167.172 36.2477 167.486 36.355 167.915 36.355ZM176.056 39V20.37H181.185C182.442 20.37 183.531 20.508 184.451 20.784C185.371 21.06 186.084 21.5583 186.59 22.279C187.111 22.9843 187.372 23.9887 187.372 25.292C187.372 26.0587 187.31 26.741 187.188 27.339C187.065 27.937 186.835 28.4583 186.498 28.903C186.176 29.3323 185.708 29.6927 185.095 29.984L187.648 39H183.393L181.346 30.651H180.173V39H176.056ZM180.173 28.282H181.323C181.905 28.282 182.358 28.1823 182.68 27.983C183.002 27.7683 183.224 27.4693 183.347 27.086C183.485 26.6873 183.554 26.212 183.554 25.66C183.554 24.8627 183.408 24.2417 183.117 23.797C182.825 23.3523 182.289 23.13 181.507 23.13H180.173V28.282ZM189.847 39V20.37H193.964V27.983L197.092 20.37H201.117L197.667 28.788L201.278 39H197.092L194.401 30.766L193.964 31.502V39H189.847ZM207.46 39.276C206.294 39.276 205.321 39.069 204.539 38.655C203.757 38.241 203.166 37.6047 202.768 36.746C202.369 35.872 202.147 34.745 202.101 33.365L205.62 32.836C205.635 33.6333 205.704 34.2773 205.827 34.768C205.965 35.2587 206.149 35.6113 206.379 35.826C206.624 36.0407 206.915 36.148 207.253 36.148C207.682 36.148 207.958 36.0023 208.081 35.711C208.219 35.4197 208.288 35.113 208.288 34.791C208.288 34.0243 208.104 33.3803 207.736 32.859C207.368 32.3223 206.869 31.7857 206.241 31.249L204.631 29.846C203.925 29.248 203.327 28.5733 202.837 27.822C202.361 27.0553 202.124 26.1123 202.124 24.993C202.124 23.4137 202.591 22.21 203.527 21.382C204.462 20.5387 205.735 20.117 207.345 20.117C208.341 20.117 209.139 20.2857 209.737 20.623C210.35 20.9603 210.81 21.405 211.117 21.957C211.439 22.4937 211.653 23.0687 211.761 23.682C211.883 24.28 211.952 24.855 211.968 25.407L208.426 25.844C208.41 25.292 208.372 24.8167 208.311 24.418C208.265 24.004 208.157 23.6897 207.989 23.475C207.82 23.245 207.559 23.13 207.207 23.13C206.823 23.13 206.54 23.291 206.356 23.613C206.187 23.935 206.103 24.257 206.103 24.579C206.103 25.269 206.264 25.8363 206.586 26.281C206.923 26.7103 207.36 27.1627 207.897 27.638L209.438 28.995C210.25 29.685 210.933 30.467 211.485 31.341C212.052 32.215 212.336 33.296 212.336 34.584C212.336 35.458 212.136 36.2553 211.738 36.976C211.339 37.6813 210.772 38.241 210.036 38.655C209.315 39.069 208.456 39.276 207.46 39.276ZM215.157 34.262L214.076 20.416H217.802L216.445 34.262H215.157ZM214.007 39V35.504H217.549V39H214.007Z" fill="white"/>
</svg>
