<svg width="264" height="58" viewBox="0 0 264 58" fill="none" xmlns="http://www.w3.org/2000/svg">
<path d="M0 0H264V42C264 50.8366 256.837 58 248 58H16C7.16344 58 0 50.8366 0 42V0Z" fill="black"/>
<path d="M25.1084 39L22.8544 20.37H26.3504L27.4544 31.226L28.8574 20.393H31.5944L33.0664 31.157L34.1934 20.37H37.6434L35.4124 39H31.8244L30.2374 27.753L28.7424 39H25.1084ZM39.7195 39V20.37H43.8365V27.914H46.7115V20.37H50.8515V39H46.7115V30.858H43.8365V39H39.7195ZM56.0346 39V31.387L52.4926 20.37H56.3796L58.1506 26.258L59.7376 20.37H63.4636L59.9906 31.387V39H56.0346ZM73.2621 39V31.387L69.7201 20.37H73.6071L75.3781 26.258L76.9651 20.37H80.6911L77.2181 31.387V39H73.2621ZM87.2355 39.276C85.8402 39.276 84.7362 39.0307 83.9235 38.54C83.1109 38.0493 82.5282 37.344 82.1755 36.424C81.8229 35.504 81.6465 34.4077 81.6465 33.135V26.212C81.6465 24.924 81.8229 23.8277 82.1755 22.923C82.5282 22.0183 83.1109 21.3283 83.9235 20.853C84.7362 20.3623 85.8402 20.117 87.2355 20.117C88.6462 20.117 89.7579 20.3623 90.5705 20.853C91.3985 21.3283 91.9889 22.0183 92.3415 22.923C92.6942 23.8277 92.8705 24.924 92.8705 26.212V33.135C92.8705 34.4077 92.6942 35.504 92.3415 36.424C91.9889 37.344 91.3985 38.0493 90.5705 38.54C89.7579 39.0307 88.6462 39.276 87.2355 39.276ZM87.2355 36.355C87.6649 36.355 87.9792 36.2477 88.1785 36.033C88.3779 35.8183 88.5082 35.5423 88.5695 35.205C88.6309 34.8677 88.6615 34.5227 88.6615 34.17V25.2C88.6615 24.832 88.6309 24.487 88.5695 24.165C88.5082 23.8277 88.3779 23.5517 88.1785 23.337C87.9792 23.1223 87.6649 23.015 87.2355 23.015C86.8369 23.015 86.5379 23.1223 86.3385 23.337C86.1392 23.5517 86.0089 23.8277 85.9475 24.165C85.8862 24.487 85.8555 24.832 85.8555 25.2V34.17C85.8555 34.5227 85.8785 34.8677 85.9245 35.205C85.9859 35.5423 86.1085 35.8183 86.2925 36.033C86.4919 36.2477 86.8062 36.355 87.2355 36.355ZM100.758 39.276C99.3321 39.276 98.2128 39.046 97.4001 38.586C96.6028 38.1107 96.0431 37.4283 95.7211 36.539C95.3991 35.6343 95.2381 34.5303 95.2381 33.227V20.37H99.3091V33.848C99.3091 34.2313 99.3398 34.6147 99.4011 34.998C99.4624 35.3813 99.5928 35.6957 99.7921 35.941C100.007 36.1863 100.329 36.309 100.758 36.309C101.203 36.309 101.525 36.1863 101.724 35.941C101.923 35.6957 102.046 35.3813 102.092 34.998C102.153 34.6147 102.184 34.2313 102.184 33.848V20.37H106.278V33.227C106.278 34.5303 106.109 35.6343 105.772 36.539C105.45 37.4283 104.89 38.1107 104.093 38.586C103.296 39.046 102.184 39.276 100.758 39.276ZM108.898 39V20.37H114.027C115.284 20.37 116.373 20.508 117.293 20.784C118.213 21.06 118.926 21.5583 119.432 22.279C119.953 22.9843 120.214 23.9887 120.214 25.292C120.214 26.0587 120.152 26.741 120.03 27.339C119.907 27.937 119.677 28.4583 119.34 28.903C119.018 29.3323 118.55 29.6927 117.937 29.984L120.49 39H116.235L114.188 30.651H113.015V39H108.898ZM113.015 28.282H114.165C114.747 28.282 115.2 28.1823 115.522 27.983C115.844 27.7683 116.066 27.4693 116.189 27.086C116.327 26.6873 116.396 26.212 116.396 25.66C116.396 24.8627 116.25 24.2417 115.959 23.797C115.667 23.3523 115.131 23.13 114.349 23.13H113.015V28.282ZM128.573 39V20.37H133.288C134.914 20.37 136.179 20.577 137.083 20.991C137.988 21.3897 138.624 22.026 138.992 22.9C139.36 23.7587 139.544 24.878 139.544 26.258V33.02C139.544 34.4153 139.36 35.5577 138.992 36.447C138.624 37.321 137.988 37.965 137.083 38.379C136.194 38.793 134.944 39 133.334 39H128.573ZM132.69 36.148H133.334C133.963 36.148 134.415 36.056 134.691 35.872C134.967 35.688 135.136 35.412 135.197 35.044C135.274 34.676 135.312 34.216 135.312 33.664V25.545C135.312 24.993 135.266 24.5483 135.174 24.211C135.098 23.8737 134.921 23.6283 134.645 23.475C134.369 23.3217 133.925 23.245 133.311 23.245H132.69V36.148ZM142.073 39V20.37H146.19V39H142.073ZM148.968 39V20.37H157.34V23.176H153.085V27.799H156.328V30.651H153.085V36.217H157.386V39H148.968ZM160.934 39V23.429H158.128V20.37H167.857V23.429H165.074V39H160.934ZM174.442 39.276C173.277 39.276 172.303 39.069 171.521 38.655C170.739 38.241 170.149 37.6047 169.75 36.746C169.352 35.872 169.129 34.745 169.083 33.365L172.602 32.836C172.618 33.6333 172.687 34.2773 172.809 34.768C172.947 35.2587 173.131 35.6113 173.361 35.826C173.607 36.0407 173.898 36.148 174.235 36.148C174.665 36.148 174.941 36.0023 175.063 35.711C175.201 35.4197 175.27 35.113 175.27 34.791C175.27 34.0243 175.086 33.3803 174.718 32.859C174.35 32.3223 173.852 31.7857 173.223 31.249L171.613 29.846C170.908 29.248 170.31 28.5733 169.819 27.822C169.344 27.0553 169.106 26.1123 169.106 24.993C169.106 23.4137 169.574 22.21 170.509 21.382C171.445 20.5387 172.717 20.117 174.327 20.117C175.324 20.117 176.121 20.2857 176.719 20.623C177.333 20.9603 177.793 21.405 178.099 21.957C178.421 22.4937 178.636 23.0687 178.743 23.682C178.866 24.28 178.935 24.855 178.95 25.407L175.408 25.844C175.393 25.292 175.355 24.8167 175.293 24.418C175.247 24.004 175.14 23.6897 174.971 23.475C174.803 23.245 174.542 23.13 174.189 23.13C173.806 23.13 173.522 23.291 173.338 23.613C173.17 23.935 173.085 24.257 173.085 24.579C173.085 25.269 173.246 25.8363 173.568 26.281C173.906 26.7103 174.343 27.1627 174.879 27.638L176.42 28.995C177.233 29.685 177.915 30.467 178.467 31.341C179.035 32.215 179.318 33.296 179.318 34.584C179.318 35.458 179.119 36.2553 178.72 36.976C178.322 37.6813 177.754 38.241 177.018 38.655C176.298 39.069 175.439 39.276 174.442 39.276ZM187.196 39V20.37H195.246V23.153H191.313V27.845H194.74V30.72H191.313V39H187.196ZM195.621 39L199.14 20.37H203.832L207.305 39H203.51L202.889 35.067H200.152L199.508 39H195.621ZM200.52 32.606H202.498L201.509 25.338L200.52 32.606ZM209.209 39V20.37H213.326V39H209.209ZM216.104 39V20.37H220.221V36.217H224.499V39H216.104ZM225.979 39V35.458H229.521V39H225.979ZM231.594 39V35.458H235.136V39H231.594ZM237.209 39V35.458H240.751V39H237.209Z" fill="white"/>
</svg>
