<svg width="120" height="120" viewBox="0 0 120 120" fill="none" xmlns="http://www.w3.org/2000/svg">
<mask id="mask0_404_2262" style="mask-type:alpha" maskUnits="userSpaceOnUse" x="0" y="0" width="120" height="120">
<path d="M120 0H0V120H120V0Z" fill="#C4C4C4"/>
</mask>
<g mask="url(#mask0_404_2262)">
<path d="M98.9693 38.97L108.557 34.0215L106.701 45.1557L118.454 49.1764L106.701 55.3616L98.9693 38.97Z" fill="#3A7742" stroke="white" stroke-width="1.15221"/>
<path d="M21.3399 90.0008L11.7523 94.9495L13.6079 83.8156L1.85535 79.7949L13.6079 73.6093L21.3399 90.0008Z" fill="#3A7742" stroke="white" stroke-width="1.15221"/>
<path d="M58.7632 107.939C85.2387 107.939 106.701 86.476 106.701 60.0005C106.701 33.525 85.2387 12.0624 58.7632 12.0624C32.2878 12.0624 10.8251 33.525 10.8251 60.0005C10.8251 86.476 32.2878 107.939 58.7632 107.939Z" fill="#98B74F" stroke="black" stroke-width="0.923077"/>
<path d="M58.7632 94.6397C77.8939 94.6397 93.4024 79.1312 93.4024 60.0006C93.4024 40.8699 77.8939 25.3614 58.7632 25.3614C39.6326 25.3614 24.1241 40.8699 24.1241 60.0006C24.1241 79.1312 39.6326 94.6397 58.7632 94.6397Z" stroke="white" stroke-width="14.902"/>
<path d="M58.7635 94.6397C77.8942 94.6397 93.4027 79.1312 93.4027 60.0006C93.4027 40.8699 77.8942 25.3614 58.7635 25.3614C39.6328 25.3614 24.1243 40.8699 24.1243 60.0006C24.1243 79.1312 39.6328 94.6397 58.7635 94.6397Z" stroke="#3A7742" stroke-width="11.7647"/>
<path d="M87.3293 60.0223C87.3293 62.309 87.0543 64.5873 86.5108 66.8088L58.7857 60.0223H87.3293Z" fill="white"/>
<path d="M83.5042 74.2939C82.3606 76.2741 80.9834 78.1103 79.4023 79.7616L58.785 60.0223L83.5042 74.2939Z" fill="white"/>
<path d="M73.0753 84.7599C71.0947 85.903 68.9843 86.8041 66.789 87.4441L58.8037 60.0403L73.0753 84.7599Z" fill="white"/>
<path d="M58.8033 88.5834C56.5166 88.5834 54.2383 88.3089 52.0168 87.7649L58.8033 60.0403V88.5834Z" fill="white"/>
<path d="M44.5136 84.7414C42.5334 83.5983 40.6976 82.221 39.0459 80.6395L58.7852 60.0223L44.5136 84.7414Z" fill="white"/>
<path d="M34.0843 74.3119C32.9409 72.3316 32.0396 70.2209 31.3999 68.0255L58.8033 60.0403L34.0843 74.3119Z" fill="white"/>
<path d="M30.26 60.0403C30.26 57.7536 30.5348 55.4753 31.0785 53.2542L58.8033 60.0403H30.26Z" fill="white"/>
<path d="M30.26 60.0403C30.26 57.7536 30.5348 55.4753 31.0785 53.2542L58.8033 60.0403H30.26Z" fill="white"/>
<path d="M34.0846 45.7687C35.228 43.7885 36.6052 41.9527 38.1866 40.301L58.8039 60.0403L34.0846 45.7687Z" fill="white"/>
<path d="M44.514 35.3032C46.4943 34.1599 48.605 33.2586 50.8004 32.6189L58.7856 60.0224L44.514 35.3032Z" fill="white"/>
<path d="M58.7857 31.479C61.0724 31.479 63.3512 31.7538 65.5722 32.2975L58.7857 60.0223V31.479Z" fill="white"/>
<path d="M73.0753 35.3214C75.0555 36.4648 76.8913 37.842 78.5431 39.4234L58.8037 60.0405L73.0753 35.3214Z" fill="white"/>
<path d="M83.5049 45.7506C84.6484 47.7308 85.5495 49.8416 86.1891 52.0369L58.7857 60.0222L83.5049 45.7506Z" fill="white"/>
<path d="M87.3293 60.0223C87.3293 62.309 87.0543 64.5873 86.5108 66.8088L58.7857 60.0223H87.3293Z" fill="white"/>
<path d="M78.5569 84.743L79.735 86.8331L82.0866 87.3076L80.463 89.0735L80.7384 91.4571L78.5569 90.4583L76.3754 91.4571L76.6508 89.0735L75.0272 87.3076L77.3788 86.8331L78.5569 84.743Z" fill="white"/>
<path d="M59.3816 90.9282L60.5597 93.0179L62.9113 93.4924L61.2877 95.2588L61.5631 97.6419L59.3816 96.6436L57.2001 97.6419L57.4755 95.2588L55.8519 93.4924L58.2035 93.0179L59.3816 90.9282Z" fill="white"/>
<path d="M90.3099 71.1343L91.488 73.2244L93.8396 73.699L92.216 75.4653L92.4914 77.8485L90.3099 76.8501L88.1284 77.8485L88.4038 75.4653L86.7802 73.699L89.1322 73.2244L90.3099 71.1343Z" fill="white"/>
<g filter="url(#filter0_d_404_2262)">
<path d="M100.018 30.0987L8.7254 70.7978L17.0369 89.4414L108.33 48.7423L100.018 30.0987Z" fill="white"/>
<path d="M99.6602 30.8537L9.52701 71.0358L17.3953 88.6852L107.528 48.5031L99.6602 30.8537Z" fill="#3A7742"/>
</g>
<path d="M22.6375 81.4654L20.7352 82.3163L16.6043 73.0843L18.5065 72.2329L22.6375 81.4654ZM31.9142 77.3146L30.0119 78.1656L23.5908 73.7479L26.3088 79.8224L24.4066 80.6738L20.2756 71.4414L22.1779 70.5904L28.611 75.0178L25.8873 68.9306L27.7832 68.0822L31.9142 77.3146ZM40.3581 72.1361C40.1992 72.699 39.858 73.235 39.3345 73.7433C38.8091 74.2473 38.166 74.6691 37.405 75.0098C36.6061 75.3673 35.8268 75.5079 35.0672 75.4317C34.31 75.3496 33.618 75.0502 32.9913 74.534C32.3689 74.0161 31.8529 73.3108 31.4435 72.4186L31.1626 71.7908C30.7503 70.8691 30.548 70.0035 30.5559 69.1929C30.566 68.3769 30.7834 67.6607 31.2078 67.0443C31.6346 66.4224 32.2412 65.9353 33.0274 65.5833C34.1223 65.0936 35.0956 64.9727 35.9473 65.2207C36.7972 65.4645 37.5023 66.0595 38.0629 67.006L36.2113 67.8346C35.8903 67.3441 35.5292 67.0414 35.1278 66.9268C34.7306 66.8102 34.2784 66.8654 33.7711 67.0923C33.1244 67.3816 32.7407 67.8451 32.62 68.4826C32.4993 69.1201 32.6516 69.9197 33.0767 70.8809L33.3405 71.4708C33.7737 72.4388 34.2848 73.0877 34.8739 73.4178C35.4629 73.7479 36.1126 73.7542 36.8228 73.4363C37.5372 73.1167 37.9784 72.7365 38.1466 72.2961L37.4345 70.7045L35.7034 71.4788L35.0764 70.0776L38.7097 68.4519L40.3581 72.1361ZM44.3327 67.7016L42.8173 68.3795L44.3297 71.7593L42.4274 72.6102L38.2964 63.3782L41.7268 61.843C42.8173 61.355 43.7676 61.222 44.5769 61.443C45.3861 61.6645 45.9895 62.219 46.3866 63.1066C46.6682 63.7365 46.7663 64.3243 46.6809 64.87C46.5975 65.4094 46.3348 65.9281 45.8927 66.4249L49.5781 69.3041L49.6177 69.3929L47.576 70.3066L44.3327 67.7016ZM42.128 66.8388L43.6623 66.1521C44.1402 65.9382 44.456 65.6523 44.6106 65.294C44.763 64.9319 44.7436 64.5369 44.5524 64.11C44.3575 63.6746 44.0796 63.3879 43.7188 63.2502C43.3617 63.1104 42.9276 63.155 42.4165 63.3841L40.8881 64.0679L42.128 66.8388ZM54.4855 62.4127L50.8333 64.0472L51.9398 66.5201L56.2261 64.6022L56.9099 66.1302L50.7213 68.8995L46.5903 59.667L52.7663 56.9037L53.4556 58.4443L49.1819 60.3567L50.1663 62.5571L53.819 60.9226L54.4855 62.4127ZM58.0257 65.6308L53.8948 56.3984L56.7356 55.1277C57.5474 54.7643 58.3546 54.6237 59.1575 54.7062C59.9626 54.782 60.696 55.078 61.3583 55.5934C62.0181 56.1049 62.5402 56.7896 62.9242 57.6477L63.1141 58.0725C63.4981 58.9306 63.6619 59.7731 63.6059 60.6001C63.5537 61.4249 63.2889 62.1647 62.811 62.8203C62.3331 63.4755 61.691 63.9858 60.8855 64.3512L58.0257 65.6308ZM56.4868 57.0881L59.2442 63.2515L60.1638 62.8401C60.9078 62.5075 61.3676 62.0098 61.5432 61.3479C61.7188 60.6856 61.6085 59.9003 61.2122 58.9921L60.9937 58.5037C60.5739 57.5656 60.0615 56.9424 59.4573 56.6342C58.8506 56.3222 58.1735 56.3336 57.4253 56.6683L56.4868 57.0881ZM68.4948 60.9466L66.5925 61.798L62.4615 52.5656L64.3638 51.7142L68.4948 60.9466ZM74.0282 53.6687L70.3756 55.3028L71.4821 57.7757L75.7689 55.8578L76.4527 57.3858L70.2636 60.155L66.1327 50.9226L72.3087 48.1593L72.9983 49.7003L68.7247 51.6123L69.7091 53.8127L73.3613 52.1786L74.0282 53.6687ZM85.0762 53.5273L83.1739 54.3786L76.7529 49.9609L79.4708 56.0355L77.5685 56.8868L73.4375 47.6544L75.3398 46.803L81.7731 51.2308L79.0493 45.1433L80.9453 44.2953L85.0762 53.5273ZM90.0552 42.0681L87.2274 43.3336L90.6687 51.0249L88.7664 51.8763L85.3251 44.1845L82.5352 45.4329L81.8455 43.8923L89.3659 40.5273L90.0552 42.0681ZM98.1895 44.7525C98.0287 44.3934 97.779 44.1753 97.44 44.0986C97.0994 44.0178 96.5525 44.019 95.7983 44.1028C95.0421 44.1824 94.4257 44.2043 93.9482 44.1694C92.6463 44.0721 91.7811 43.5437 91.3516 42.5841C91.1285 42.0852 91.0691 41.5789 91.1744 41.0651C91.2817 40.5453 91.5482 40.0582 91.9739 39.6038C92.4038 39.1476 92.9466 38.7729 93.6017 38.4797C94.2615 38.1846 94.9028 38.0422 95.5264 38.0524C96.1478 38.0584 96.6977 38.2157 97.176 38.5243C97.6581 38.8311 98.0232 39.2614 98.2708 39.8152L96.3689 40.6663C96.1794 40.2436 95.8998 39.9756 95.5293 39.8622C95.1571 39.7447 94.7301 39.7937 94.2485 40.0094C93.7832 40.2174 93.4661 40.4785 93.2973 40.7925C93.1264 41.1024 93.1129 41.4179 93.2565 41.7392C93.3908 42.0393 93.6535 42.2237 94.0447 42.2923C94.4396 42.3588 94.9706 42.3496 95.6379 42.2645C96.8657 42.1056 97.8346 42.1567 98.5449 42.4174C99.2552 42.6776 99.771 43.1673 100.092 43.886C100.45 44.6851 100.429 45.4481 100.028 46.1748C99.6261 46.8978 98.9137 47.4881 97.8906 47.9458C97.1807 48.2637 96.4762 48.4241 95.7773 48.427C95.0767 48.4262 94.4708 48.2683 93.96 47.9542C93.4531 47.638 93.0666 47.182 92.7996 46.5858L94.7083 45.7319C95.1642 46.7508 96.0009 46.9879 97.2181 46.443C97.6708 46.2405 97.9828 45.9917 98.1554 45.6965C98.3255 45.3971 98.3369 45.0826 98.1895 44.7525Z" fill="white"/>
<path d="M27.4309 51.0747L27.0827 52.1547L22.9197 50.8124L22.9039 52.2305L22.0257 51.9471L21.9451 49.4334L21.9825 49.3176L27.4309 51.0747Z" fill="white"/>
<path d="M27.7603 44.7102C28.4721 45.0537 28.9455 45.4643 29.1804 45.9409C29.4152 46.4175 29.3955 46.9401 29.1212 47.5081C28.8503 48.0693 28.4581 48.4087 27.9446 48.527C27.4311 48.6453 26.8273 48.5413 26.1333 48.215L25.1857 47.7573C24.4668 47.4104 23.9928 46.9982 23.7638 46.5215C23.5359 46.0424 23.5574 45.522 23.8283 44.9611C24.0992 44.4003 24.4914 44.0605 25.0049 43.9422C25.516 43.8226 26.1186 43.9262 26.8127 44.2525L27.7603 44.7102ZM26.2273 45.2302C25.8007 45.0239 25.4622 44.9333 25.2121 44.9578C24.9606 44.9788 24.7752 45.1131 24.6557 45.3607C24.5396 45.6011 24.5468 45.8239 24.6772 46.0293C24.8064 46.2314 25.0661 46.431 25.4564 46.6281L26.708 47.2323C27.1276 47.4352 27.4672 47.5291 27.7269 47.5152C27.9854 47.4975 28.1756 47.3628 28.2974 47.1106C28.418 46.8605 28.4073 46.6331 28.2651 46.4276C28.123 46.2226 27.8515 46.0201 27.4507 45.8209L26.2273 45.2302Z" fill="white"/>
<path d="M30.6158 40.4623C31.2736 40.9006 31.6861 41.3721 31.8532 41.8766C32.0203 42.3813 31.9289 42.8958 31.5791 43.4209C31.2336 43.9392 30.7985 44.2217 30.2736 44.2684C29.7487 44.3147 29.165 44.1286 28.5224 43.7101L27.6467 43.1265C26.9823 42.684 26.5695 42.2107 26.4082 41.7068C26.2484 41.2008 26.3412 40.6886 26.6867 40.1702C27.0322 39.6518 27.4673 39.3692 27.9922 39.3227C28.5149 39.2746 29.0975 39.46 29.7401 39.8787L30.6158 40.4623ZM29.026 40.7665C28.6317 40.5037 28.309 40.3673 28.0578 40.3572C27.8058 40.3435 27.6036 40.4509 27.4513 40.6797C27.3032 40.9018 27.2796 41.1236 27.3806 41.345C27.4808 41.5628 27.7107 41.7962 28.0701 42.0451L29.2268 42.8158C29.6145 43.0743 29.938 43.2141 30.1971 43.236C30.4556 43.2541 30.6625 43.1467 30.8178 42.9135C30.9716 42.6827 30.9923 42.4558 30.8797 42.2331C30.7671 42.01 30.526 41.7723 30.1564 41.5198L29.026 40.7665Z" fill="white"/>
<path d="M29.7767 38.0196C29.5171 37.7838 29.3833 37.5086 29.3755 37.1939C29.3659 36.8775 29.4851 36.5827 29.7332 36.3095C29.9848 36.0323 30.2676 35.8825 30.5815 35.8599C30.8935 35.8357 31.1861 35.9475 31.4594 36.1957L31.6687 36.3857C31.9303 36.6232 32.064 36.8985 32.0698 37.2114C32.0757 37.5242 31.9545 37.8173 31.7064 38.0906C31.4566 38.3657 31.1747 38.5165 30.861 38.5427C30.547 38.5653 30.2544 38.4533 29.9831 38.207L29.7767 38.0196ZM30.5073 37.6647C30.6236 37.7703 30.7475 37.8227 30.879 37.8219C31.0104 37.8174 31.1253 37.7609 31.2239 37.6524C31.3224 37.5439 31.3649 37.4251 31.3512 37.296C31.3376 37.167 31.2707 37.0479 31.1505 36.9388L30.9354 36.7435C30.8192 36.6379 30.6961 36.5845 30.5664 36.5834C30.4366 36.5822 30.3207 36.6378 30.2186 36.7503C30.1219 36.8568 30.0794 36.9756 30.0913 37.1066C30.1012 37.2359 30.1691 37.3577 30.2951 37.472L30.5073 37.6647ZM33.9945 38.1581C33.7329 37.9205 33.6001 37.6444 33.596 37.3295C33.59 37.013 33.7102 36.719 33.9565 36.4477C34.2064 36.1725 34.4873 36.0228 34.7993 35.9985C35.1111 35.9705 35.4056 36.0823 35.6827 36.3339L35.892 36.5239C36.1517 36.7597 36.2863 37.034 36.2958 37.3467C36.3034 37.6576 36.1814 37.9517 35.9297 38.2288C35.6763 38.5079 35.3927 38.6586 35.0787 38.6812C34.7648 38.7037 34.4751 38.5945 34.2096 38.3534L33.9945 38.1581ZM34.728 37.8058C34.8346 37.9026 34.9574 37.9505 35.0963 37.9493C35.2352 37.9482 35.3522 37.8953 35.4472 37.7906C35.6619 37.5542 35.6384 37.3172 35.3768 37.0797L35.1558 36.8791C35.0396 36.7735 34.9166 36.722 34.787 36.7245C34.6555 36.7253 34.5405 36.7799 34.4419 36.8885C34.3434 36.997 34.3001 37.1168 34.312 37.2478C34.3219 37.377 34.3879 37.497 34.51 37.6079L34.728 37.8058ZM33.8655 39.7487L33.2724 39.958L31.841 34.8875L32.4341 34.6782L33.8655 39.7487Z" fill="white"/>
<path d="M43.5841 32.5114L42.5992 33.1576L38.6187 31.2707L40.6823 34.4156L39.6974 35.0618L36.5611 30.2821L37.5459 29.6359L41.5342 31.5272L39.4663 28.3757L40.4479 27.7317L43.5841 32.5114Z" fill="white"/>
<path d="M46.9432 29.792L45.0573 30.6338L45.179 31.8694L44.035 32.3799L43.6484 26.2921L44.6451 25.8472L48.9293 30.1955L47.7857 30.706L46.9432 29.792ZM44.9588 29.6328L46.264 29.0503L44.7356 27.3891L44.9588 29.6328Z" fill="white"/>
<path d="M52.5828 24.3874L50.8923 24.8454L52.1382 29.4424L51.0013 29.7504L49.7554 25.1535L48.0881 25.6053L47.8384 24.6844L52.3331 23.4666L52.5828 24.3874Z" fill="white"/>
<path d="M58.3645 22.776L58.7973 26.5164C58.8693 27.1379 58.7312 27.6519 58.383 28.0585C58.0373 28.4647 57.5279 28.7068 56.8542 28.7848C56.191 28.8615 55.6445 28.7469 55.2138 28.441C54.783 28.1351 54.5283 27.6757 54.4495 27.063L54.0117 23.2796L55.1818 23.1442L55.6154 26.8925C55.6584 27.2643 55.7784 27.5258 55.975 27.677C56.1742 27.8252 56.431 27.8811 56.7455 27.8448C57.4032 27.7686 57.6975 27.3841 57.6277 26.6913L57.1906 22.9118L58.3645 22.776Z" fill="white"/>
<path d="M62.0749 26.5389L61.1368 26.5068L61.0652 28.5984L59.8879 28.558L60.0837 22.8445L62.2067 22.9173C62.8816 22.9404 63.397 23.1086 63.7528 23.422C64.109 23.7354 64.2774 24.1668 64.2585 24.7162C64.2454 25.1059 64.149 25.4288 63.97 25.6845C63.7936 25.9378 63.5317 26.1357 63.1835 26.2783L64.3397 28.6555L64.338 28.7104L63.0745 28.6672L62.0749 26.5389ZM61.1696 25.5533L62.1191 25.5858C62.4147 25.5959 62.6463 25.5292 62.8134 25.3856C62.981 25.2394 63.069 25.0342 63.0783 24.77C63.0875 24.5005 63.0176 24.286 62.8686 24.1264C62.722 23.9669 62.4905 23.8816 62.1738 23.8708L61.2282 23.8384L61.1696 25.5533Z" fill="white"/>
<path d="M68.4292 28.3768L66.4005 27.988L65.7934 29.0709L64.563 28.8351L67.7294 23.6212L68.8014 23.8267L69.8266 29.8441L68.5967 29.6083L68.4292 28.3768ZM66.8927 27.1108L68.2961 27.3799L67.9934 25.143L66.8927 27.1108Z" fill="white"/>
<path d="M71.9279 29.7123L74.2866 30.5436L73.9721 31.4361L70.5026 30.2132L72.4028 24.8214L73.5136 25.2129L71.9279 29.7123Z" fill="white"/>
</g>
<defs>
<filter id="filter0_d_404_2262" x="4.11656" y="30.0986" width="108.822" height="68.5605" filterUnits="userSpaceOnUse" color-interpolation-filters="sRGB">
<feFlood flood-opacity="0" result="BackgroundImageFix"/>
<feColorMatrix in="SourceAlpha" type="matrix" values="0 0 0 0 0 0 0 0 0 0 0 0 0 0 0 0 0 0 127 0" result="hardAlpha"/>
<feOffset dy="4.60885"/>
<feGaussianBlur stdDeviation="2.30442"/>
<feColorMatrix type="matrix" values="0 0 0 0 0 0 0 0 0 0 0 0 0 0 0 0 0 0 0.25 0"/>
<feBlend mode="normal" in2="BackgroundImageFix" result="effect1_dropShadow_404_2262"/>
<feBlend mode="normal" in="SourceGraphic" in2="effect1_dropShadow_404_2262" result="shape"/>
</filter>
</defs>
</svg>
