<svg width="222" height="25" viewBox="0 0 222 25" fill="none" xmlns="http://www.w3.org/2000/svg">
<g clip-path="url(#clip0_404_2428)">
<path fill-rule="evenodd" clip-rule="evenodd" d="M4.04107 5.76157C3.00508 5.91216 2.1008 6.32272 1.38152 6.96912C0.65103 7.62554 0.195091 8.44078 0.0363474 9.37419C-0.0254212 9.73749 -0.00585898 10.469 0.0752891 10.8299C0.418164 12.3549 1.61822 13.5837 3.23722 14.0676C4.43197 14.4246 5.75361 14.3452 6.88065 13.8486C8.85738 12.9776 9.89655 11.0014 9.4105 9.03756C9.05175 7.58803 7.87193 6.41144 6.30606 5.94159C5.77537 5.78237 5.50299 5.74402 4.84346 5.73571C4.43877 5.73059 4.20151 5.73824 4.04107 5.76157ZM13.6743 5.84461C13.2538 5.90399 12.6704 6.13684 12.2221 6.42423C11.9241 6.61528 11.4281 7.05061 11.2072 7.31502C10.6351 7.99958 10.289 8.78297 10.1565 9.69287C10.1039 10.0541 10.1163 10.7099 10.1819 11.0408C10.3953 12.1159 11.0984 13.0834 12.0964 13.6754C12.6603 14.0098 13.1622 14.1522 13.7771 14.1522C14.2003 14.1522 14.5418 14.0917 14.9249 13.9488C15.6225 13.6886 15.6682 13.6756 15.9238 13.6644C16.1449 13.6547 16.1773 13.659 16.3063 13.7157C16.4377 13.7735 16.5693 13.8829 16.706 14.0479L16.7633 14.117L16.7648 12.4682L16.7662 10.8194H16.7051C16.6498 10.8194 16.6408 10.8355 16.6104 10.9896C16.481 11.6454 16.1498 12.3961 15.7548 12.9287C15.555 13.1981 15.1375 13.5738 14.8795 13.7164C14.5189 13.9158 14.1142 14.0072 13.7267 13.9768C13.2329 13.9381 12.8609 13.7619 12.5954 13.4408C12.296 13.0788 12.1305 12.5965 12.022 11.77C11.9564 11.2702 11.9559 9.56841 12.0211 8.94781C12.1842 7.39637 12.6019 6.51302 13.3366 6.16611C13.8216 5.93708 14.4325 5.95903 14.9333 6.22347C15.1422 6.33375 15.5802 6.73214 15.7546 6.97053C16.0749 7.40813 16.3466 7.96149 16.544 8.57803C16.64 8.87791 16.6648 8.93119 16.7114 8.9376L16.7662 8.94508V7.44136C16.7662 6.61429 16.7619 5.93762 16.7567 5.93762C16.7514 5.93762 16.7164 5.97928 16.6789 6.03021C16.5875 6.15432 16.4263 6.23457 16.2047 6.26628C15.9176 6.30737 15.8069 6.28543 15.1339 6.0542C14.5789 5.86348 14.0641 5.78957 13.6743 5.84461ZM27.9055 5.83463C27.3244 5.91058 26.8565 6.12766 26.4818 6.49514C25.9592 7.00759 25.6724 7.69954 25.6724 8.44775C25.6724 9.12412 25.8686 9.57632 26.3305 9.9644C26.6984 10.2736 27.1147 10.4678 28.1304 10.8044C28.9164 11.0648 29.1651 11.1603 29.441 11.3077C30.0085 11.6107 30.2546 11.9751 30.2523 12.5093C30.2505 12.9465 30.1165 13.2567 29.8098 13.5338C29.4938 13.8191 29.0703 13.9667 28.5634 13.9681C27.9539 13.9697 27.4903 13.773 26.9857 13.2988C26.7116 13.0411 26.4934 12.7554 26.2751 12.3686C26.0307 11.9356 25.7803 11.2914 25.728 10.9614C25.7142 10.8743 25.7003 10.8533 25.6526 10.8471L25.5941 10.8397V12.4398V14.04L25.7332 13.9129C25.9367 13.7272 26.0258 13.6944 26.3254 13.6953C26.5542 13.696 26.6009 13.7048 26.9261 13.8087C27.9205 14.1263 28.1042 14.1621 28.6629 14.1472C28.9897 14.1384 29.0549 14.1293 29.2767 14.0617C30.276 13.757 31.0991 12.8942 31.3005 11.9402C31.3571 11.6718 31.3517 11.1905 31.2891 10.9174C31.1941 10.5039 30.931 10.1205 30.5619 9.85773C30.1913 9.59392 29.8111 9.43608 28.7804 9.11827C27.9791 8.87118 27.6778 8.75493 27.3851 8.57989C26.894 8.28623 26.68 7.9242 26.6836 7.39278C26.6893 6.55712 27.1727 6.05511 28.01 6.01543C28.4226 5.99588 28.75 6.08769 29.0938 6.31939C29.5772 6.64506 30.0291 7.28231 30.3045 8.02648C30.4258 8.35427 30.5042 8.66851 30.5042 8.82705C30.5042 8.9088 30.5111 8.91835 30.5695 8.91835H30.6348L30.635 7.915C30.6351 7.36314 30.6428 6.67666 30.6522 6.38943C30.6637 6.03406 30.6605 5.86721 30.642 5.86721C30.6271 5.86721 30.5834 5.90434 30.5449 5.94971C30.414 6.10391 30.0464 6.21753 29.7726 6.1884C29.7015 6.18084 29.458 6.11748 29.2315 6.04758C29.0049 5.97771 28.7373 5.90378 28.6368 5.88331C28.4448 5.84423 28.0388 5.8172 27.9055 5.83463ZM17.1319 6.01977V6.10191H17.8501H18.5684V9.98625V13.8706H17.8501H17.1319V13.9645V14.0583H19.4681C22.1947 14.0583 22.253 14.0549 22.9431 13.8547C23.3335 13.7414 23.7781 13.5152 24.0641 13.2843C24.3723 13.0356 24.6576 12.5987 24.7619 12.2159C24.8418 11.9227 24.842 11.4519 24.7622 11.1867C24.6548 10.8294 24.3917 10.4945 24.0225 10.2451C23.806 10.0989 23.299 9.8747 22.9778 9.78319L22.7124 9.70756L22.9192 9.64452C23.5138 9.46317 23.9253 9.20736 24.1968 8.85033C24.4909 8.46352 24.5716 7.87195 24.3937 7.40724C24.1002 6.64077 23.2439 6.13543 21.9637 5.97323C21.7387 5.94473 21.28 5.9384 19.4107 5.93804L17.1319 5.93762V6.01977ZM21.141 6.12496C21.6258 6.14972 21.8858 6.19354 22.1132 6.28888C22.4321 6.42261 22.6094 6.63124 22.7278 7.0124C22.779 7.17739 22.784 7.24999 22.7841 7.83872C22.7842 8.56139 22.7485 8.7983 22.5952 9.09269C22.375 9.51569 22.0388 9.62246 20.9275 9.62246H20.3966V7.86219V6.10191L20.5599 6.10276C20.6496 6.10323 20.9111 6.11323 21.141 6.12496ZM5.44905 7.59193C6.33058 7.70454 7.16659 8.03192 7.86007 8.53607C8.11482 8.72129 8.53879 9.1163 8.73136 9.34788C8.90635 9.55834 9.16596 9.94433 9.16596 9.99409C9.16596 10.0402 8.8796 10.4686 8.72397 10.6553C8.41622 11.0244 8.01858 11.3731 7.58583 11.6534C7.28744 11.8467 6.67787 12.1229 6.30606 12.2333C4.87015 12.6598 3.29303 12.4676 2.04525 11.7141C1.57845 11.4322 1.23946 11.1508 0.882382 10.749C0.685506 10.5275 0.364257 10.0568 0.364257 9.98993C0.364257 9.93645 0.682215 9.478 0.865066 9.26782C1.46742 8.57554 2.31455 8.03831 3.22677 7.77011C3.51075 7.68661 3.95796 7.59648 4.20357 7.57324C4.45256 7.54968 5.20697 7.56099 5.44905 7.59193ZM4.27997 7.8739C3.51981 8.01005 2.89254 8.44531 2.55948 9.06767C2.39701 9.37126 2.34871 9.544 2.33054 9.8865C2.30732 10.3247 2.38904 10.6557 2.61245 11.028C2.91573 11.5335 3.42991 11.8999 4.08604 12.0782C4.29932 12.1361 4.36104 12.1422 4.75205 12.1436C5.12512 12.145 5.21042 12.1381 5.38713 12.0922C5.83254 11.9766 6.15243 11.8147 6.45866 11.5498C6.94453 11.1297 7.18908 10.6105 7.18952 9.99799C7.18996 9.407 6.99042 8.95255 6.54305 8.52574C6.18623 8.18535 5.73141 7.9595 5.2264 7.87195C4.99199 7.8313 4.51218 7.83229 4.27997 7.8739ZM21.9502 9.84393C22.5555 9.9652 22.8784 10.3282 23.0266 11.0541C23.0876 11.3528 23.0878 12.2473 23.027 12.5915C22.9402 13.0829 22.7672 13.4234 22.5122 13.6047C22.2119 13.8182 21.9321 13.8686 21.043 13.8698L20.3966 13.8706V11.8254V9.78016L21.0822 9.79379C21.5571 9.80323 21.8239 9.81863 21.9502 9.84393ZM27.8794 15.2229C27.5043 15.2711 27.127 15.3959 26.8633 15.5589C26.2742 15.9231 25.8057 16.6333 25.6587 17.3851C25.6114 17.6267 25.6051 18.1332 25.6464 18.3658C25.7076 18.7101 25.8552 19.0133 26.0929 19.2828C26.4464 19.6837 26.9533 19.9438 28.1928 20.3604C29.3368 20.7449 29.7432 20.9624 30.0168 21.3369C30.1846 21.5666 30.2291 21.7244 30.2277 22.0852C30.2267 22.364 30.2181 22.4248 30.1567 22.5916C29.9838 23.0613 29.5795 23.3941 29.0155 23.5313C28.7818 23.5881 28.2801 23.5894 28.0491 23.5338C27.4964 23.4007 26.9647 23.0136 26.5472 22.4402C26.1774 21.9322 25.8067 21.1227 25.6969 20.5831C25.6532 20.3685 25.655 20.3719 25.5818 20.3719H25.5157V22.0148C25.5157 22.9184 25.5191 23.6577 25.5232 23.6577C25.5274 23.6577 25.6081 23.5899 25.7027 23.507C25.8824 23.3494 26.043 23.2822 26.2398 23.2822C26.4074 23.2822 26.7282 23.3569 27.0938 23.481C27.7767 23.713 28.0883 23.7749 28.5715 23.7748C28.9282 23.7747 29.2118 23.7139 29.5546 23.564C30.3529 23.2148 31.0158 22.4856 31.2508 21.6979C31.3447 21.3832 31.3686 20.8223 31.3017 20.5009C31.2146 20.0822 31.0164 19.7517 30.681 19.4658C30.2742 19.1192 29.9015 18.9543 28.6174 18.5531C27.7163 18.2716 27.3965 18.123 27.0808 17.839C26.7426 17.5348 26.6197 17.2263 26.6463 16.7481C26.6842 16.0647 27.0072 15.6237 27.5889 15.461C27.8444 15.3895 28.2998 15.3892 28.5397 15.4604C29.2466 15.6701 29.9012 16.414 30.2799 17.4381C30.4012 17.7662 30.5042 18.1693 30.5042 18.316C30.5042 18.3903 30.512 18.4004 30.5695 18.4004H30.6348V16.8263V15.2522L30.5081 15.3691C30.4062 15.4631 30.3468 15.4956 30.205 15.535C29.8878 15.623 29.6876 15.5999 29.1069 15.4084C28.9633 15.361 28.7517 15.3025 28.6368 15.2784C28.425 15.234 28.0225 15.2045 27.8794 15.2229ZM0.0769606 15.4196V15.5135H0.599317H1.12167V19.48V23.4465H0.599317H0.0769606V23.5404V23.6342H1.21309H2.34921V23.5404V23.4465H1.83991H1.33062V19.832C1.33062 17.8441 1.33477 16.2176 1.33981 16.2176C1.34488 16.2176 2.47612 17.886 3.85365 19.9252L6.35829 23.6328L6.52153 23.6335L6.68477 23.6342V19.5739V15.5135H7.62501H8.56525V19.48V23.4465H8.04289H7.52054V23.5404V23.6342H11.1117H14.7029V22.3419V21.0495L14.622 21.0569C14.5419 21.0641 14.5401 21.0673 14.4679 21.3224C14.3688 21.6725 14.2797 21.887 14.112 22.1791C13.8409 22.651 13.4537 23.0262 13.0392 23.2186C12.5871 23.4284 12.5709 23.4305 11.3141 23.4407L10.2107 23.4497V21.3592V19.2688H10.6381C11.1464 19.2688 11.2861 19.2889 11.5331 19.3977C11.7634 19.4992 11.9845 19.7031 12.1252 19.9437C12.236 20.1332 12.4064 20.5835 12.4583 20.8237C12.4923 20.9812 12.493 20.9821 12.5791 20.9821H12.6657V19.1617V17.3412L12.5835 17.3486C12.5015 17.3559 12.501 17.3567 12.4401 17.6016C12.2579 18.3334 11.9846 18.7391 11.5364 18.9429C11.2974 19.0515 11.1095 19.0803 10.6351 19.0806L10.2107 19.081V17.2956V15.5102L11.275 15.5186L12.3393 15.527L12.5482 15.5898C12.7875 15.6618 13.0072 15.7743 13.205 15.9261C13.5102 16.1604 13.8373 16.6474 14.0007 17.1106L14.0831 17.3442H14.171H14.2589V16.4283V15.5123L14.681 15.5188L15.1032 15.5252L16.026 18.3299C16.5335 19.8725 17.1566 21.7661 17.4106 22.5379L17.8725 23.9412L18.0556 23.9344L18.2387 23.9276L19.1675 21.2008C19.6783 19.701 20.1037 18.4811 20.1127 18.4899C20.1218 18.4988 20.514 19.6625 20.9842 21.076C21.4545 22.4895 21.8618 23.712 21.8894 23.7927L21.9397 23.9393H22.1203H22.301L22.354 23.7809C22.3831 23.6938 23.0285 21.8006 23.7881 19.5739L25.1692 15.5252L25.6298 15.5188L26.0903 15.5124V15.4191V15.3257H25.0456H24.0009V15.4196V15.5135H24.4741C24.9119 15.5135 24.9463 15.5166 24.935 15.5546C24.9282 15.5772 24.4656 16.9504 23.9068 18.6062C23.2412 20.5787 22.8842 21.6025 22.8716 21.5752C22.8611 21.5523 22.4109 20.1945 21.8713 18.5577C21.3317 16.9209 20.8837 15.5663 20.8757 15.5476C20.8633 15.5185 20.938 15.5135 21.3863 15.5135H21.9114V15.4196V15.3257H20.2138H18.5161V15.4196V15.5135H18.8253H19.1345L19.5684 16.8393L20.0023 18.1651L19.4224 19.8764C19.1035 20.8176 18.8367 21.5828 18.8295 21.5769C18.8224 21.571 18.3689 20.2069 17.8218 18.5457L16.8271 15.5252L17.2276 15.5188L17.6281 15.5123V15.419V15.3257H11.5427H5.45723V15.4196V15.5135H5.96653H6.47582V18.1657C6.47582 19.6243 6.47107 20.8178 6.46527 20.8178C6.45947 20.8178 5.62237 19.5821 4.60506 18.0718L2.75539 15.3257H1.41618H0.0769606V15.4196Z" fill="#777777"/>
<path fill-rule="evenodd" clip-rule="evenodd" d="M47.4325 0.0143288C45.6801 0.162905 44.449 1.69295 44.8287 3.2501C44.8889 3.4968 44.9073 3.5391 45.3807 4.51878C45.525 4.81742 45.6598 5.097 45.6803 5.14007C45.7008 5.18314 45.9262 5.65067 46.1812 6.17903C47.3799 8.66253 47.8329 9.60142 48.6776 11.3529C49.1674 12.3685 49.1321 12.3047 49.1725 12.248C49.1832 12.2331 49.4507 10.5715 49.9243 7.57823L50.6596 2.93163L50.6601 2.66536C50.6626 1.0978 49.1647 -0.132545 47.4325 0.0143288ZM53.8484 0.0101521C52.3603 0.118945 51.1697 1.30648 51.174 2.6776C51.1751 3.00083 51.139 2.97862 51.6634 2.97862C52.4664 2.97862 52.6187 3.06935 52.1641 3.27672C51.5799 3.54313 51.4333 3.722 51.4197 4.18464L51.4142 4.3726L52.0366 8.30791C52.6698 12.3114 52.6647 12.2818 52.7104 12.266C52.7351 12.2574 52.7039 12.3199 53.3065 11.071C53.5933 10.4766 53.8554 9.9339 53.8888 9.86498C54.0173 9.60025 54.8446 7.88756 54.8799 7.81317C54.9003 7.77009 55.1909 7.16865 55.5255 6.47662C55.8602 5.78459 56.1508 5.18314 56.1712 5.14007C56.1917 5.097 56.3006 4.87145 56.4133 4.63886C56.526 4.40627 56.635 4.18073 56.6556 4.13766C56.6762 4.09458 56.7356 3.97007 56.7877 3.86095C57.7395 1.86599 56.1922 -0.161198 53.8484 0.0101521ZM42.1291 3.42426C40.017 3.54627 38.7295 5.56511 39.6691 7.28146C39.9232 7.74571 40.2191 8.03364 40.8222 8.40364C40.9703 8.49451 41.3067 8.70109 41.5699 8.86271C41.833 9.02433 43.1223 9.81596 44.4349 10.6219C45.7475 11.4278 47.0367 12.2195 47.2999 12.3813C49.1048 13.4908 49.0005 13.4286 49.0357 13.4164C49.0676 13.4053 49.0641 13.3976 48.5388 12.3136C48.2619 11.7422 47.9159 11.0279 47.77 10.7264C47.624 10.4249 47.4009 9.96444 47.2742 9.70313C47.1474 9.44183 46.9905 9.11761 46.9255 8.98265C46.8604 8.84769 46.6864 8.48823 46.5389 8.18385C45.9859 7.04321 45.9347 6.9375 45.8587 6.77943C45.8159 6.69041 45.7421 6.5377 45.6946 6.44007C45.6471 6.34244 45.5343 6.10985 45.4439 5.9232C45.3535 5.73656 45.2522 5.52746 45.2188 5.45854C45.1854 5.38963 45.1208 5.25571 45.0753 5.16095C44.5156 3.99651 43.4184 3.34978 42.1291 3.42426ZM59.2498 3.42889C58.1707 3.52133 57.2526 4.14453 56.8058 5.08786C56.7732 5.15666 56.1991 6.34031 55.722 7.3224C55.5871 7.60007 55.122 8.55973 54.8744 9.0714C54.8438 9.13458 54.78 9.26614 54.7325 9.36377C54.685 9.4614 54.5699 9.69869 54.4767 9.89108C54.3835 10.0835 54.2688 10.3196 54.222 10.4159C54.1751 10.5121 54.0349 10.8011 53.9104 11.058C53.786 11.315 53.5427 11.8165 53.3699 12.1726C52.728 13.4953 52.7649 13.4131 52.8055 13.4272C52.827 13.4347 60.4608 8.77183 61.2155 8.29026C63.7081 6.69978 62.2806 3.16924 59.2498 3.42889ZM39.6123 8.99308C37.7962 9.16682 36.5874 10.7145 37.0272 12.3031C37.3258 13.3815 38.3425 14.1869 39.5521 14.3032C39.7299 14.3203 49.3898 14.3262 49.4194 14.3092C49.4735 14.2781 49.5527 14.3278 45.4783 11.8412C41.29 9.28517 41.4105 9.35774 41.1894 9.25854C40.7193 9.04754 40.1118 8.9453 39.6123 8.99308ZM61.6536 8.99483C61.436 9.0134 61.0926 9.08933 60.8755 9.16692C60.602 9.26464 60.4883 9.32942 59.0192 10.2245C58.2393 10.6997 56.7503 11.607 55.7104 12.2408C54.6704 12.8745 53.5083 13.5824 53.1278 13.8139C52.4149 14.2478 52.3723 14.277 52.4125 14.3037C52.4512 14.3293 62.258 14.3201 62.4261 14.2942C64.0778 14.0403 65.1549 12.676 64.8761 11.1911C64.6172 9.81258 63.2212 8.8611 61.6536 8.99483ZM60.8927 15.6305C59.6011 15.7116 58.5414 16.0865 57.5839 16.8013C55.6152 18.2707 55.1855 20.8182 56.5787 22.7602C57.7386 24.3771 60.0346 25.2535 62.1017 24.8685C62.4647 24.8009 62.9618 24.6566 63.017 24.6028L63.0487 24.5719V23.7413C63.0487 22.7559 63.0624 22.823 62.8806 22.9179C60.3607 24.234 57.3014 22.1894 57.9365 19.6139C58.4207 17.6507 61.0199 16.6354 62.8903 17.6789C63.0597 17.7734 63.0487 17.8312 63.0487 16.8507C63.0487 15.9079 63.0559 15.9772 62.9524 15.9328C62.4745 15.7281 61.5352 15.5902 60.8927 15.6305ZM38.833 15.8072C38.8291 15.8163 38.826 17.7994 38.826 20.2141V24.6045L38.8543 24.6301L38.8826 24.6558H39.829H40.7754L40.8037 24.6301L40.832 24.6045V22.2345C40.832 20.0939 40.8338 19.8629 40.8501 19.8481C40.8839 19.8175 40.8888 19.8207 41.191 20.0718C41.3327 20.1896 41.5965 20.4079 41.7773 20.5569C41.9581 20.706 42.2253 20.927 42.3712 21.048C42.6693 21.2954 43.1872 21.7238 43.5011 21.9827C43.616 22.0774 43.8264 22.2514 43.9687 22.3694C44.1109 22.4873 44.5231 22.8283 44.8845 23.1272C45.246 23.4261 45.6714 23.7779 45.8299 23.909C45.9884 24.0401 46.2554 24.2606 46.4233 24.399C46.5911 24.5373 46.7652 24.6817 46.8102 24.7197C46.9039 24.7989 46.9388 24.814 46.9618 24.7856C46.9744 24.7699 46.9771 24.0059 46.9771 20.3722V15.9777L46.9488 15.9521L46.9205 15.9264H45.974H45.0276L44.9993 15.9521L44.971 15.9777V18.3439C44.971 19.9551 44.9672 20.7166 44.9591 20.7304C44.9301 20.7794 44.9331 20.7814 44.4957 20.4194C44.3236 20.2771 44.0863 20.0807 43.9683 19.9831C43.8504 19.8854 43.6373 19.7092 43.4949 19.5915C43.2052 19.3519 42.7541 18.9783 42.5435 18.8036C42.4671 18.7402 42.327 18.6244 42.2322 18.5463C42.1374 18.4683 41.9561 18.3184 41.8293 18.2132C41.7025 18.1081 41.3992 17.8572 41.1553 17.6556C40.9115 17.454 40.6129 17.2069 40.4919 17.1064C40.3709 17.0059 40.1009 16.7822 39.8919 16.6093C39.6829 16.4365 39.3748 16.1816 39.2071 16.0429C38.8963 15.7858 38.8535 15.7588 38.833 15.8072ZM48.147 15.9518L48.1184 15.9777V20.2963V24.615L48.1471 24.6409L48.1758 24.6669L50.5077 24.6636L52.8396 24.6602L52.9995 24.6367C55.629 24.2494 56.2194 21.1337 53.8651 20.0687C53.6947 19.9916 53.6946 19.9842 53.8601 19.8649C54.5609 19.36 54.7998 18.9354 54.7985 18.1975C54.7964 17.0178 53.9569 16.1652 52.5917 15.9562L52.4361 15.9323L50.3058 15.9292L48.1756 15.926L48.147 15.9518ZM51.9173 17.2868C53.0495 17.5666 53.195 18.9482 52.1403 19.4033C51.8998 19.5071 51.7797 19.518 50.8763 19.5182L50.1926 19.5184L50.1643 19.4928L50.136 19.4672V18.3855V17.3038L50.1649 17.2777L50.1937 17.2516L50.9978 17.2549L51.802 17.2583L51.9173 17.2868ZM52.2464 20.852C53.6647 21.1687 53.6811 22.9571 52.2689 23.3048L52.1479 23.3346L51.1706 23.3377L50.1934 23.3408L50.1647 23.3148L50.136 23.2889V22.0819V20.8749L50.1648 20.8489L50.1935 20.8229L51.1707 20.8264C52.1184 20.8299 52.1508 20.8307 52.2464 20.852Z" fill="#777777"/>
<path fill-rule="evenodd" clip-rule="evenodd" d="M78.935 7.44237C78.9278 7.44886 78.8028 7.46827 78.6572 7.48548C73.5994 8.08346 69.8686 12.4663 70.6112 16.9376C71.2518 20.7947 74.2463 23.5425 78.5326 24.2064C79.079 24.291 85.9413 24.299 86.3161 24.2155C87.7628 23.8931 88.7539 23.0006 89.1038 21.7052C89.1658 21.4756 89.1693 21.3683 89.1866 19.1747C89.2063 16.6784 89.2017 16.7352 89.372 16.8963C89.4207 16.9423 90.2565 18.243 91.2294 19.7869C93.3948 23.223 93.3681 23.1854 93.9322 23.5757C96.0484 25.0397 99.0114 24.1287 99.7136 21.7981L99.7969 21.5218L99.8147 19.1803C99.8244 17.8925 99.8354 16.8357 99.839 16.8318C99.9372 16.7267 99.8711 16.6303 101.854 19.7728C103.795 22.849 103.887 22.9861 104.201 23.2763C106.204 25.1262 109.594 24.3096 110.345 21.7964L110.44 21.4786V14.4546V7.43058H109.318H108.197L108.189 14.3648L108.181 21.2991L108.061 21.5181C107.562 22.4334 106.232 22.4939 105.632 21.6287C105.591 21.5699 103.991 19.04 102.076 16.0066C99.621 12.1176 98.5595 10.4608 98.4757 10.3876C98.1964 10.1434 97.7861 10.2064 97.63 10.5174C97.5746 10.6281 97.5723 10.8322 97.5717 15.8571C97.5712 19.5879 97.561 21.1245 97.5362 21.2313C97.3007 22.2454 95.9107 22.5859 95.1588 21.8138C95.0558 21.708 93.9162 19.9286 91.475 16.0619C89.1861 12.4363 87.9033 10.4315 87.835 10.3732C87.6315 10.1995 87.345 10.1929 87.1297 10.3569C86.9329 10.5068 86.9456 10.1311 86.9456 15.8172C86.9456 19.4305 86.9353 21.0689 86.9118 21.1852C86.8157 21.6618 86.4442 22.0473 85.9457 22.1877C85.6816 22.2622 79.5959 22.2709 78.9794 22.1977C72.0479 21.3751 70.4964 12.9373 76.7565 10.1086C77.9743 9.55826 78.4636 9.48339 80.9733 9.46316C82.834 9.44818 82.9015 9.44578 82.9442 9.39289C82.9803 9.34817 82.9884 9.16325 82.9884 8.38435V7.43058H80.9682C79.8571 7.43058 78.9422 7.43588 78.935 7.44237ZM86.5977 7.51594C85.3728 7.80857 84.3178 8.59907 83.931 9.64233C83.8141 9.95752 83.8508 9.81263 83.8316 14.6807C83.8181 18.116 83.8054 19.1376 83.7759 19.1843C83.6054 19.4537 83.6031 19.454 81.3213 19.4414L79.3271 19.4304L79 19.3578C75.4385 18.5677 74.7618 14.3548 77.9332 12.7166C78.7162 12.3121 78.9593 12.2768 81.0982 12.257L82.8693 12.2405L82.9288 12.1739C83.0249 12.0664 83.0203 10.3652 82.9237 10.2777C82.825 10.1883 79.3376 10.2097 78.7974 10.3029C71.9247 11.49 71.9863 20.2773 78.8753 21.4139C79.1407 21.4577 79.5027 21.4638 82.3652 21.4729C85.7585 21.4837 85.7059 21.4856 85.889 21.3461C86.0858 21.1962 86.0732 21.5718 86.0732 15.8858C86.0732 10.349 86.0694 10.4862 86.2295 10.1811C86.6713 9.33954 87.9355 9.21042 88.5548 9.94364C88.6258 10.0277 90.2583 12.591 92.1825 15.6399C94.1068 18.6888 95.7149 21.2239 95.7561 21.2736C95.9885 21.5535 96.4332 21.5313 96.6288 21.23L96.7141 21.0987L96.7297 15.7527C96.7448 10.5651 96.747 10.4031 96.8049 10.2799C97.2725 9.28546 98.6662 9.17039 99.2945 10.0743C99.3353 10.1331 100.935 12.663 102.85 15.6963C105.3 19.5767 106.367 21.2423 106.45 21.3154C106.729 21.5596 107.14 21.4966 107.296 21.1855C107.352 21.0746 107.354 20.8284 107.354 14.2505L107.355 7.43058H106.233H105.112L105.111 11.0909C105.111 14.8558 105.11 14.8782 105.019 14.8782C104.932 14.8782 104.945 14.8977 103.072 11.9302C100.879 8.45638 100.952 8.5592 100.422 8.17277C98.3466 6.6582 94.5029 7.9417 94.5029 9.83182C94.5029 9.83182 94.5051 10.0152 94.5029 10.1529C94.4868 11.1295 94.4868 12.5001 94.4868 12.5001C94.4691 15.0594 94.4742 14.9956 94.3022 14.8349C94.253 14.7889 93.3958 13.4564 92.3975 11.8738C91.3991 10.2911 90.526 8.92109 90.4573 8.82918C89.6448 7.74253 87.9967 7.18176 86.5977 7.51594Z" fill="#777777"/>
<mask id="path-4-outside-1_404_2428" maskUnits="userSpaceOnUse" x="115.036" y="4.05872" width="108" height="21" fill="black">
<rect fill="white" x="115.036" y="4.05872" width="108" height="21"/>
<path d="M129.831 6.94019C130.307 6.94019 130.696 6.91607 131 6.86782V7.35025C130.747 7.51106 130.499 7.82464 130.256 8.29099C130.024 8.74126 129.826 9.38449 129.664 10.2207L126.993 23.994C126.882 23.978 126.705 23.9699 126.462 23.9699C126.219 23.9699 126.042 23.978 125.931 23.994L123.7 13.2359L121.454 23.994C121.343 23.978 121.166 23.9699 120.923 23.9699C120.68 23.9699 120.503 23.978 120.392 23.994L116.992 8.89403C116.871 8.36335 116.724 7.97741 116.552 7.7362C116.38 7.49498 116.208 7.36633 116.036 7.35025V6.86782C116.643 6.91607 117.397 6.94019 118.298 6.94019C119.147 6.94019 119.77 6.91607 120.164 6.86782V7.35025C119.81 7.43066 119.633 7.74424 119.633 8.29099C119.633 8.54828 119.679 8.91011 119.77 9.37645L121.985 19.5798L123.518 12.3916L122.744 8.65281C122.643 8.18646 122.522 7.86484 122.38 7.68795C122.248 7.49498 122.092 7.38241 121.909 7.35025V6.86782C122.476 6.91607 123.199 6.94019 124.08 6.94019C125.071 6.94019 125.8 6.91607 126.265 6.86782V7.35025C125.901 7.36633 125.638 7.4387 125.476 7.56735C125.314 7.67991 125.233 7.90505 125.233 8.24275C125.233 8.5322 125.284 8.91011 125.385 9.37645L127.464 19.4592L128.906 12.1745C129.138 10.9685 129.255 10.0358 129.255 9.37645C129.255 8.68497 129.143 8.18646 128.921 7.88092C128.708 7.55931 128.385 7.38241 127.95 7.35025V6.86782C128.638 6.91607 129.265 6.94019 129.831 6.94019Z"/>
<path d="M133.815 11.1373C134.978 11.1373 135.889 11.668 136.546 12.7293C137.204 13.7746 137.533 15.439 137.533 17.7225C137.533 20.006 137.204 21.6703 136.546 22.7156C135.889 23.7609 134.978 24.2835 133.815 24.2835C132.661 24.2835 131.751 23.7609 131.083 22.7156C130.425 21.6703 130.096 20.006 130.096 17.7225C130.096 15.439 130.425 13.7746 131.083 12.7293C131.751 11.668 132.661 11.1373 133.815 11.1373ZM133.815 11.6197C133.379 11.6197 133.03 12.1263 132.767 13.1394C132.514 14.1364 132.388 15.6641 132.388 17.7225C132.388 19.7808 132.514 21.3085 132.767 22.3055C133.03 23.3026 133.379 23.8011 133.815 23.8011C134.26 23.8011 134.609 23.3106 134.862 22.3297C135.115 21.3326 135.241 19.7969 135.241 17.7225C135.241 15.648 135.11 14.1123 134.846 13.1153C134.594 12.1183 134.25 11.6197 133.815 11.6197Z"/>
<path d="M150.378 21.7025C150.378 22.3618 150.449 22.8201 150.591 23.0774C150.742 23.3186 150.995 23.4393 151.349 23.4393V23.9458C150.338 23.8815 149.67 23.8493 149.346 23.8493C149.063 23.8493 148.436 23.8815 147.464 23.9458V23.4393C147.738 23.4393 147.925 23.3186 148.026 23.0774C148.137 22.8362 148.193 22.3779 148.193 21.7025V14.2007C148.193 13.5253 148.127 13.0268 147.996 12.7052C147.874 12.3675 147.636 12.1987 147.282 12.1987C146.908 12.1987 146.579 12.4479 146.296 12.9464C146.023 13.4449 145.861 14.056 145.81 14.7797V21.7025C145.81 22.3618 145.871 22.8201 145.992 23.0774C146.124 23.3186 146.357 23.4393 146.69 23.4393V23.9458C145.719 23.8815 145.082 23.8493 144.778 23.8493C144.495 23.8493 143.868 23.8815 142.896 23.9458V23.4393C143.17 23.4393 143.357 23.3186 143.458 23.0774C143.569 22.8201 143.625 22.3618 143.625 21.7025V14.2007C143.625 13.5253 143.569 13.0268 143.458 12.7052C143.347 12.3675 143.129 12.1987 142.805 12.1987C142.401 12.1987 142.052 12.472 141.758 13.0188C141.475 13.5495 141.333 14.2088 141.333 14.9967V21.7025C141.333 22.3618 141.384 22.8201 141.485 23.0774C141.596 23.3186 141.789 23.4393 142.062 23.4393V23.9458C141.171 23.8815 140.574 23.8493 140.271 23.8493C139.967 23.8493 139.269 23.8815 138.177 23.9458V23.4393C138.541 23.4393 138.794 23.3186 138.935 23.0774C139.077 22.8201 139.148 22.3618 139.148 21.7025V14.1043C139.148 13.3645 139.077 12.8258 138.935 12.4881C138.794 12.1504 138.541 11.9816 138.177 11.9816V11.475C138.5 11.5233 138.814 11.5474 139.118 11.5474C140.018 11.5474 140.757 11.4348 141.333 11.2097V13.3806C141.778 11.8851 142.562 11.1373 143.686 11.1373C144.454 11.1373 145.011 11.4509 145.355 12.0781C145.547 12.3997 145.674 12.8821 145.734 13.5253C145.997 12.657 146.341 12.0459 146.766 11.6921C147.191 11.3222 147.687 11.1373 148.254 11.1373C149.022 11.1373 149.579 11.4509 149.923 12.0781C150.085 12.3675 150.201 12.7615 150.272 13.26C150.343 13.7585 150.378 14.4098 150.378 15.2138V21.7025Z"/>
<path d="M156.073 22.3055C156.903 22.3055 157.571 21.6623 158.077 20.3758L158.35 20.5206C158.147 21.5658 157.783 22.4583 157.257 23.198C156.741 23.9217 156.094 24.2835 155.315 24.2835C154.242 24.2835 153.387 23.7448 152.75 22.6674C152.123 21.5739 151.809 19.9658 151.809 17.8431C151.809 15.6721 152.148 14.0158 152.826 12.8741C153.504 11.7162 154.404 11.1373 155.527 11.1373C157.429 11.1373 158.38 12.9223 158.38 16.4923H154.116C154.106 16.7335 154.101 17.1114 154.101 17.626C154.101 18.6873 154.192 19.5718 154.374 20.2793C154.566 20.9869 154.809 21.5015 155.102 21.8231C155.406 22.1447 155.729 22.3055 156.073 22.3055ZM155.436 11.6439C155.072 11.6439 154.768 12.0057 154.525 12.7293C154.293 13.4369 154.146 14.5384 154.085 16.034H156.468C156.488 14.7636 156.407 13.7183 156.225 12.8982C156.053 12.062 155.79 11.6439 155.436 11.6439Z"/>
<path d="M164.512 11.1373C165.281 11.1373 165.837 11.4509 166.181 12.0781C166.353 12.3836 166.475 12.7776 166.546 13.26C166.616 13.7424 166.652 14.3937 166.652 15.2138V21.7025C166.652 22.3618 166.723 22.8201 166.864 23.0774C167.016 23.3186 167.269 23.4393 167.623 23.4393V23.9458C166.611 23.8815 165.944 23.8493 165.62 23.8493C165.316 23.8493 164.659 23.8815 163.647 23.9458V23.4393C163.951 23.4393 164.163 23.3186 164.284 23.0774C164.406 22.8201 164.467 22.3618 164.467 21.7025V14.2007C164.467 13.5414 164.396 13.0429 164.254 12.7052C164.123 12.3675 163.88 12.1987 163.526 12.1987C163.111 12.1987 162.757 12.472 162.463 13.0188C162.17 13.5495 162.023 14.2088 162.023 14.9967V21.7025C162.023 22.3618 162.084 22.8201 162.205 23.0774C162.327 23.3186 162.539 23.4393 162.843 23.4393V23.9458C161.912 23.8815 161.285 23.8493 160.961 23.8493C160.657 23.8493 159.959 23.8815 158.867 23.9458V23.4393C159.231 23.4393 159.484 23.3186 159.625 23.0774C159.767 22.8201 159.838 22.3618 159.838 21.7025V14.1043C159.838 13.3645 159.767 12.8258 159.625 12.4881C159.484 12.1504 159.231 11.9816 158.867 11.9816V11.475C159.19 11.5233 159.504 11.5474 159.807 11.5474C160.708 11.5474 161.446 11.4348 162.023 11.2097V13.3806C162.478 11.8851 163.308 11.1373 164.512 11.1373Z"/>
<path d="M168.956 6.53012C169.452 6.53012 169.811 6.81154 170.034 7.37437C170.135 7.61559 170.216 7.91309 170.277 8.26687C170.337 8.62065 170.368 8.99051 170.368 9.37645C170.368 10.2127 170.231 10.9685 169.958 11.6439C169.695 12.3193 169.3 12.8499 168.774 13.2359L168.638 12.8017C168.931 12.6087 169.184 12.3112 169.396 11.9092C169.619 11.5072 169.751 11.0971 169.791 10.679C169.821 10.486 169.837 10.3011 169.837 10.1242C169.837 9.96341 169.821 9.81064 169.791 9.66591C169.568 10.0519 169.275 10.2448 168.911 10.2448C168.557 10.2448 168.268 10.084 168.046 9.7624C167.823 9.4247 167.712 8.96639 167.712 8.38747C167.712 7.84072 167.828 7.3985 168.061 7.0608C168.294 6.70701 168.592 6.53012 168.956 6.53012Z"/>
<path d="M173.891 11.1373C174.276 11.1373 174.63 11.2177 174.954 11.3785C175.277 11.5233 175.525 11.6921 175.697 11.8851C175.799 11.9976 175.89 12.0539 175.971 12.0539C176.062 12.0539 176.137 11.9816 176.198 11.8368C176.269 11.676 176.315 11.4509 176.335 11.1614H176.653C176.613 11.9816 176.593 13.3967 176.593 15.4068H176.274C176.183 14.3455 175.981 13.461 175.667 12.7535C175.363 12.0298 174.918 11.668 174.331 11.668C174.028 11.668 173.775 11.8047 173.573 12.0781C173.38 12.3514 173.284 12.7293 173.284 13.2118C173.284 13.7585 173.401 14.2329 173.633 14.6349C173.866 15.0209 174.23 15.4953 174.726 16.0581L175.166 16.5646C175.783 17.3044 176.239 17.9637 176.532 18.5426C176.825 19.1215 176.972 19.8452 176.972 20.7135C176.972 21.4211 176.841 22.0482 176.578 22.595C176.325 23.1418 175.981 23.5599 175.546 23.8493C175.111 24.1388 174.63 24.2835 174.104 24.2835C173.547 24.2835 173.072 24.1147 172.677 23.777C172.354 23.5197 172.121 23.3508 171.979 23.2704C171.878 23.2222 171.787 23.2784 171.706 23.4393C171.635 23.584 171.58 23.8091 171.539 24.1147H171.22C171.261 23.198 171.281 21.5899 171.281 19.2904H171.6C171.802 22.2493 172.485 23.7287 173.649 23.7287C173.942 23.7287 174.19 23.592 174.392 23.3186C174.605 23.0292 174.711 22.595 174.711 22.0161C174.711 21.5658 174.645 21.1638 174.514 20.81C174.392 20.4562 174.235 20.1427 174.043 19.8693C173.851 19.5959 173.563 19.218 173.178 18.7356C172.723 18.1567 172.374 17.6903 172.131 17.3365C171.898 16.9827 171.696 16.5646 171.524 16.0822C171.362 15.5998 171.281 15.0611 171.281 14.4661C171.281 13.4369 171.534 12.6248 172.04 12.0298C172.546 11.4348 173.163 11.1373 173.891 11.1373Z"/>
<path d="M188.706 7.35025C188.362 7.38241 188.114 7.44674 187.962 7.54322C187.811 7.63971 187.704 7.82464 187.644 8.09802C187.593 8.37139 187.568 8.81362 187.568 9.4247V21.3889C187.568 22 187.593 22.4422 187.644 22.7156C187.704 22.989 187.811 23.1739 187.962 23.2704C188.114 23.3669 188.362 23.4312 188.706 23.4634V23.9458C188.21 23.8976 187.441 23.8734 186.399 23.8734C185.377 23.8734 184.583 23.8976 184.016 23.9458V23.4634C184.35 23.4312 184.593 23.3669 184.745 23.2704C184.907 23.1739 185.013 22.989 185.064 22.7156C185.124 22.4422 185.155 22 185.155 21.3889V15.5998H181.133V21.3889C181.133 22 181.158 22.4422 181.209 22.7156C181.27 22.989 181.376 23.1739 181.528 23.2704C181.679 23.3669 181.927 23.4312 182.271 23.4634V23.9458C181.725 23.8976 180.961 23.8734 179.98 23.8734C178.897 23.8734 178.098 23.8976 177.582 23.9458V23.4634C177.916 23.4312 178.158 23.3669 178.31 23.2704C178.472 23.1739 178.578 22.989 178.629 22.7156C178.69 22.4422 178.72 22 178.72 21.3889V9.4247C178.72 8.81362 178.69 8.37139 178.629 8.09802C178.578 7.82464 178.472 7.63971 178.31 7.54322C178.158 7.44674 177.916 7.38241 177.582 7.35025V6.86782C178.098 6.91607 178.897 6.94019 179.98 6.94019C180.961 6.94019 181.725 6.91607 182.271 6.86782V7.35025C181.927 7.38241 181.679 7.44674 181.528 7.54322C181.376 7.63971 181.27 7.82464 181.209 8.09802C181.158 8.37139 181.133 8.81362 181.133 9.4247V15.1174H185.155V9.4247C185.155 8.81362 185.124 8.37139 185.064 8.09802C185.013 7.82464 184.907 7.63971 184.745 7.54322C184.593 7.44674 184.35 7.38241 184.016 7.35025V6.86782C184.583 6.91607 185.377 6.94019 186.399 6.94019C187.441 6.94019 188.21 6.91607 188.706 6.86782V7.35025Z"/>
<path d="M193.445 22.3055C194.274 22.3055 194.942 21.6623 195.448 20.3758L195.721 20.5206C195.519 21.5658 195.154 22.4583 194.628 23.198C194.112 23.9217 193.465 24.2835 192.686 24.2835C191.613 24.2835 190.758 23.7448 190.121 22.6674C189.494 21.5739 189.18 19.9658 189.18 17.8431C189.18 15.6721 189.519 14.0158 190.197 12.8741C190.875 11.7162 191.775 11.1373 192.898 11.1373C194.8 11.1373 195.751 12.9223 195.751 16.4923H191.487C191.477 16.7335 191.472 17.1114 191.472 17.626C191.472 18.6873 191.563 19.5718 191.745 20.2793C191.937 20.9869 192.18 21.5015 192.473 21.8231C192.777 22.1447 193.101 22.3055 193.445 22.3055ZM192.807 11.6439C192.443 11.6439 192.14 12.0057 191.897 12.7293C191.664 13.4369 191.517 14.5384 191.457 16.034H193.839C193.859 14.7636 193.779 13.7183 193.596 12.8982C193.424 12.062 193.161 11.6439 192.807 11.6439Z"/>
<path d="M198.33 24.1147C197.682 24.1147 197.197 23.8493 196.873 23.3186C196.559 22.788 196.403 22.0884 196.403 21.2201C196.403 20.4964 196.519 19.9014 196.752 19.4351C196.994 18.9527 197.283 18.5828 197.617 18.3255C197.961 18.0682 198.396 17.7948 198.922 17.5054C199.478 17.1998 199.883 16.9265 200.136 16.6852C200.399 16.428 200.53 16.0822 200.53 15.648V13.7666C200.53 13.0912 200.429 12.5685 200.227 12.1987C200.035 11.8127 199.731 11.6197 199.316 11.6197C198.831 11.6197 198.461 11.8127 198.209 12.1987C198.492 12.3595 198.709 12.6007 198.861 12.9223C199.023 13.2439 199.104 13.6218 199.104 14.056C199.104 14.6028 198.988 15.037 198.755 15.3586C198.522 15.6802 198.239 15.841 197.905 15.841C197.551 15.841 197.278 15.6641 197.086 15.3103C196.893 14.9565 196.797 14.5143 196.797 13.9836C196.797 13.5334 196.863 13.1555 196.994 12.8499C197.136 12.5283 197.349 12.2308 197.632 11.9574C197.905 11.7002 198.239 11.4991 198.633 11.3544C199.038 11.2097 199.478 11.1373 199.954 11.1373C200.45 11.1373 200.88 11.2177 201.244 11.3785C201.608 11.5393 201.912 11.8127 202.154 12.1987C202.377 12.5524 202.524 12.9866 202.594 13.5012C202.675 14.0158 202.716 14.7153 202.716 15.5998V22.1608C202.716 22.5468 202.736 22.8201 202.777 22.9809C202.827 23.1418 202.918 23.2222 203.05 23.2222C203.201 23.2222 203.384 23.0855 203.596 22.8121L203.748 23.2222C203.293 23.8172 202.736 24.1147 202.078 24.1147C201.522 24.1147 201.132 23.9378 200.91 23.584C200.687 23.2302 200.571 22.7558 200.561 22.1608C200.055 23.4634 199.311 24.1147 198.33 24.1147ZM199.499 22.5709C199.893 22.5709 200.237 22.2412 200.53 21.5819V16.637C200.409 16.9586 200.151 17.3124 199.757 17.6983C199.362 18.1004 199.063 18.5024 198.861 18.9044C198.659 19.3064 198.558 19.8854 198.558 20.6412C198.558 21.3005 198.644 21.791 198.816 22.1126C198.988 22.4181 199.215 22.5709 199.499 22.5709Z"/>
<path d="M206.974 21.7025C206.974 22.3618 207.045 22.8201 207.186 23.0774C207.328 23.3186 207.581 23.4393 207.945 23.4393V23.9458C206.893 23.8815 206.215 23.8493 205.912 23.8493C205.568 23.8493 204.87 23.8815 203.817 23.9458V23.4393C204.171 23.4393 204.419 23.3186 204.561 23.0774C204.713 22.8201 204.789 22.3618 204.789 21.7025V7.95329C204.789 7.21356 204.713 6.67485 204.561 6.33715C204.419 5.99945 204.171 5.8306 203.817 5.8306V5.32405C204.141 5.37229 204.455 5.39642 204.758 5.39642C205.638 5.39642 206.377 5.28385 206.974 5.05872V21.7025Z"/>
<path d="M211.368 11.475H213.159V11.9574H211.368V21.7025C211.368 22.1849 211.419 22.5307 211.52 22.7397C211.631 22.9327 211.803 23.0292 212.036 23.0292C212.471 23.0292 212.815 22.5468 213.068 21.5819L213.326 21.799C212.941 23.4553 212.248 24.2835 211.247 24.2835C210.579 24.2835 210.073 24.0101 209.729 23.4634C209.517 23.1257 209.37 22.7076 209.289 22.2091C209.218 21.6945 209.183 20.9949 209.183 20.1105V11.9574H207.908V11.475H209.183V8.29099C210.023 8.29099 210.751 8.03369 211.368 7.5191V11.475Z"/>
<path d="M216.4 13.3806C216.855 11.8851 217.68 11.1373 218.874 11.1373C219.663 11.1373 220.219 11.4509 220.543 12.0781C220.715 12.3836 220.836 12.7856 220.907 13.2841C220.988 13.7666 221.029 14.4098 221.029 15.2138V21.7025C221.029 22.3618 221.1 22.8201 221.241 23.0774C221.383 23.3186 221.636 23.4393 222 23.4393V23.9458C220.948 23.8815 220.28 23.8493 219.997 23.8493C219.653 23.8493 218.995 23.8815 218.024 23.9458V23.4393C218.327 23.4393 218.54 23.3186 218.661 23.0774C218.783 22.8201 218.843 22.3618 218.843 21.7025V14.2007C218.843 13.5414 218.773 13.0429 218.631 12.7052C218.499 12.3675 218.257 12.1987 217.902 12.1987C217.477 12.1987 217.118 12.464 216.825 12.9947C216.542 13.5093 216.4 14.1686 216.4 14.9726V21.7025C216.4 22.3618 216.461 22.8201 216.582 23.0774C216.704 23.3186 216.916 23.4393 217.22 23.4393V23.9458C216.248 23.8815 215.621 23.8493 215.338 23.8493C214.994 23.8493 214.296 23.8815 213.243 23.9458V23.4393C213.597 23.4393 213.845 23.3186 213.987 23.0774C214.139 22.8201 214.215 22.3618 214.215 21.7025V7.97741C214.215 7.23769 214.139 6.69897 213.987 6.36127C213.845 6.02357 213.597 5.85472 213.243 5.85472V5.34817C213.567 5.39642 213.881 5.42054 214.184 5.42054C215.064 5.42054 215.803 5.30797 216.4 5.08284V13.3806Z"/>
</mask>
<path d="M129.831 6.94019C130.307 6.94019 130.696 6.91607 131 6.86782V7.35025C130.747 7.51106 130.499 7.82464 130.256 8.29099C130.024 8.74126 129.826 9.38449 129.664 10.2207L126.993 23.994C126.882 23.978 126.705 23.9699 126.462 23.9699C126.219 23.9699 126.042 23.978 125.931 23.994L123.7 13.2359L121.454 23.994C121.343 23.978 121.166 23.9699 120.923 23.9699C120.68 23.9699 120.503 23.978 120.392 23.994L116.992 8.89403C116.871 8.36335 116.724 7.97741 116.552 7.7362C116.38 7.49498 116.208 7.36633 116.036 7.35025V6.86782C116.643 6.91607 117.397 6.94019 118.298 6.94019C119.147 6.94019 119.77 6.91607 120.164 6.86782V7.35025C119.81 7.43066 119.633 7.74424 119.633 8.29099C119.633 8.54828 119.679 8.91011 119.77 9.37645L121.985 19.5798L123.518 12.3916L122.744 8.65281C122.643 8.18646 122.522 7.86484 122.38 7.68795C122.248 7.49498 122.092 7.38241 121.909 7.35025V6.86782C122.476 6.91607 123.199 6.94019 124.08 6.94019C125.071 6.94019 125.8 6.91607 126.265 6.86782V7.35025C125.901 7.36633 125.638 7.4387 125.476 7.56735C125.314 7.67991 125.233 7.90505 125.233 8.24275C125.233 8.5322 125.284 8.91011 125.385 9.37645L127.464 19.4592L128.906 12.1745C129.138 10.9685 129.255 10.0358 129.255 9.37645C129.255 8.68497 129.143 8.18646 128.921 7.88092C128.708 7.55931 128.385 7.38241 127.95 7.35025V6.86782C128.638 6.91607 129.265 6.94019 129.831 6.94019Z" fill="#777777"/>
<path d="M133.815 11.1373C134.978 11.1373 135.889 11.668 136.546 12.7293C137.204 13.7746 137.533 15.439 137.533 17.7225C137.533 20.006 137.204 21.6703 136.546 22.7156C135.889 23.7609 134.978 24.2835 133.815 24.2835C132.661 24.2835 131.751 23.7609 131.083 22.7156C130.425 21.6703 130.096 20.006 130.096 17.7225C130.096 15.439 130.425 13.7746 131.083 12.7293C131.751 11.668 132.661 11.1373 133.815 11.1373ZM133.815 11.6197C133.379 11.6197 133.03 12.1263 132.767 13.1394C132.514 14.1364 132.388 15.6641 132.388 17.7225C132.388 19.7808 132.514 21.3085 132.767 22.3055C133.03 23.3026 133.379 23.8011 133.815 23.8011C134.26 23.8011 134.609 23.3106 134.862 22.3297C135.115 21.3326 135.241 19.7969 135.241 17.7225C135.241 15.648 135.11 14.1123 134.846 13.1153C134.594 12.1183 134.25 11.6197 133.815 11.6197Z" fill="#777777"/>
<path d="M150.378 21.7025C150.378 22.3618 150.449 22.8201 150.591 23.0774C150.742 23.3186 150.995 23.4393 151.349 23.4393V23.9458C150.338 23.8815 149.67 23.8493 149.346 23.8493C149.063 23.8493 148.436 23.8815 147.464 23.9458V23.4393C147.738 23.4393 147.925 23.3186 148.026 23.0774C148.137 22.8362 148.193 22.3779 148.193 21.7025V14.2007C148.193 13.5253 148.127 13.0268 147.996 12.7052C147.874 12.3675 147.636 12.1987 147.282 12.1987C146.908 12.1987 146.579 12.4479 146.296 12.9464C146.023 13.4449 145.861 14.056 145.81 14.7797V21.7025C145.81 22.3618 145.871 22.8201 145.992 23.0774C146.124 23.3186 146.357 23.4393 146.69 23.4393V23.9458C145.719 23.8815 145.082 23.8493 144.778 23.8493C144.495 23.8493 143.868 23.8815 142.896 23.9458V23.4393C143.17 23.4393 143.357 23.3186 143.458 23.0774C143.569 22.8201 143.625 22.3618 143.625 21.7025V14.2007C143.625 13.5253 143.569 13.0268 143.458 12.7052C143.347 12.3675 143.129 12.1987 142.805 12.1987C142.401 12.1987 142.052 12.472 141.758 13.0188C141.475 13.5495 141.333 14.2088 141.333 14.9967V21.7025C141.333 22.3618 141.384 22.8201 141.485 23.0774C141.596 23.3186 141.789 23.4393 142.062 23.4393V23.9458C141.171 23.8815 140.574 23.8493 140.271 23.8493C139.967 23.8493 139.269 23.8815 138.177 23.9458V23.4393C138.541 23.4393 138.794 23.3186 138.935 23.0774C139.077 22.8201 139.148 22.3618 139.148 21.7025V14.1043C139.148 13.3645 139.077 12.8258 138.935 12.4881C138.794 12.1504 138.541 11.9816 138.177 11.9816V11.475C138.5 11.5233 138.814 11.5474 139.118 11.5474C140.018 11.5474 140.757 11.4348 141.333 11.2097V13.3806C141.778 11.8851 142.562 11.1373 143.686 11.1373C144.454 11.1373 145.011 11.4509 145.355 12.0781C145.547 12.3997 145.674 12.8821 145.734 13.5253C145.997 12.657 146.341 12.0459 146.766 11.6921C147.191 11.3222 147.687 11.1373 148.254 11.1373C149.022 11.1373 149.579 11.4509 149.923 12.0781C150.085 12.3675 150.201 12.7615 150.272 13.26C150.343 13.7585 150.378 14.4098 150.378 15.2138V21.7025Z" fill="#777777"/>
<path d="M156.073 22.3055C156.903 22.3055 157.571 21.6623 158.077 20.3758L158.35 20.5206C158.147 21.5658 157.783 22.4583 157.257 23.198C156.741 23.9217 156.094 24.2835 155.315 24.2835C154.242 24.2835 153.387 23.7448 152.75 22.6674C152.123 21.5739 151.809 19.9658 151.809 17.8431C151.809 15.6721 152.148 14.0158 152.826 12.8741C153.504 11.7162 154.404 11.1373 155.527 11.1373C157.429 11.1373 158.38 12.9223 158.38 16.4923H154.116C154.106 16.7335 154.101 17.1114 154.101 17.626C154.101 18.6873 154.192 19.5718 154.374 20.2793C154.566 20.9869 154.809 21.5015 155.102 21.8231C155.406 22.1447 155.729 22.3055 156.073 22.3055ZM155.436 11.6439C155.072 11.6439 154.768 12.0057 154.525 12.7293C154.293 13.4369 154.146 14.5384 154.085 16.034H156.468C156.488 14.7636 156.407 13.7183 156.225 12.8982C156.053 12.062 155.79 11.6439 155.436 11.6439Z" fill="#777777"/>
<path d="M164.512 11.1373C165.281 11.1373 165.837 11.4509 166.181 12.0781C166.353 12.3836 166.475 12.7776 166.546 13.26C166.616 13.7424 166.652 14.3937 166.652 15.2138V21.7025C166.652 22.3618 166.723 22.8201 166.864 23.0774C167.016 23.3186 167.269 23.4393 167.623 23.4393V23.9458C166.611 23.8815 165.944 23.8493 165.62 23.8493C165.316 23.8493 164.659 23.8815 163.647 23.9458V23.4393C163.951 23.4393 164.163 23.3186 164.284 23.0774C164.406 22.8201 164.467 22.3618 164.467 21.7025V14.2007C164.467 13.5414 164.396 13.0429 164.254 12.7052C164.123 12.3675 163.88 12.1987 163.526 12.1987C163.111 12.1987 162.757 12.472 162.463 13.0188C162.17 13.5495 162.023 14.2088 162.023 14.9967V21.7025C162.023 22.3618 162.084 22.8201 162.205 23.0774C162.327 23.3186 162.539 23.4393 162.843 23.4393V23.9458C161.912 23.8815 161.285 23.8493 160.961 23.8493C160.657 23.8493 159.959 23.8815 158.867 23.9458V23.4393C159.231 23.4393 159.484 23.3186 159.625 23.0774C159.767 22.8201 159.838 22.3618 159.838 21.7025V14.1043C159.838 13.3645 159.767 12.8258 159.625 12.4881C159.484 12.1504 159.231 11.9816 158.867 11.9816V11.475C159.19 11.5233 159.504 11.5474 159.807 11.5474C160.708 11.5474 161.446 11.4348 162.023 11.2097V13.3806C162.478 11.8851 163.308 11.1373 164.512 11.1373Z" fill="#777777"/>
<path d="M168.956 6.53012C169.452 6.53012 169.811 6.81154 170.034 7.37437C170.135 7.61559 170.216 7.91309 170.277 8.26687C170.337 8.62065 170.368 8.99051 170.368 9.37645C170.368 10.2127 170.231 10.9685 169.958 11.6439C169.695 12.3193 169.3 12.8499 168.774 13.2359L168.638 12.8017C168.931 12.6087 169.184 12.3112 169.396 11.9092C169.619 11.5072 169.751 11.0971 169.791 10.679C169.821 10.486 169.837 10.3011 169.837 10.1242C169.837 9.96341 169.821 9.81064 169.791 9.66591C169.568 10.0519 169.275 10.2448 168.911 10.2448C168.557 10.2448 168.268 10.084 168.046 9.7624C167.823 9.4247 167.712 8.96639 167.712 8.38747C167.712 7.84072 167.828 7.3985 168.061 7.0608C168.294 6.70701 168.592 6.53012 168.956 6.53012Z" fill="#777777"/>
<path d="M173.891 11.1373C174.276 11.1373 174.63 11.2177 174.954 11.3785C175.277 11.5233 175.525 11.6921 175.697 11.8851C175.799 11.9976 175.89 12.0539 175.971 12.0539C176.062 12.0539 176.137 11.9816 176.198 11.8368C176.269 11.676 176.315 11.4509 176.335 11.1614H176.653C176.613 11.9816 176.593 13.3967 176.593 15.4068H176.274C176.183 14.3455 175.981 13.461 175.667 12.7535C175.363 12.0298 174.918 11.668 174.331 11.668C174.028 11.668 173.775 11.8047 173.573 12.0781C173.38 12.3514 173.284 12.7293 173.284 13.2118C173.284 13.7585 173.401 14.2329 173.633 14.6349C173.866 15.0209 174.23 15.4953 174.726 16.0581L175.166 16.5646C175.783 17.3044 176.239 17.9637 176.532 18.5426C176.825 19.1215 176.972 19.8452 176.972 20.7135C176.972 21.4211 176.841 22.0482 176.578 22.595C176.325 23.1418 175.981 23.5599 175.546 23.8493C175.111 24.1388 174.63 24.2835 174.104 24.2835C173.547 24.2835 173.072 24.1147 172.677 23.777C172.354 23.5197 172.121 23.3508 171.979 23.2704C171.878 23.2222 171.787 23.2784 171.706 23.4393C171.635 23.584 171.58 23.8091 171.539 24.1147H171.22C171.261 23.198 171.281 21.5899 171.281 19.2904H171.6C171.802 22.2493 172.485 23.7287 173.649 23.7287C173.942 23.7287 174.19 23.592 174.392 23.3186C174.605 23.0292 174.711 22.595 174.711 22.0161C174.711 21.5658 174.645 21.1638 174.514 20.81C174.392 20.4562 174.235 20.1427 174.043 19.8693C173.851 19.5959 173.563 19.218 173.178 18.7356C172.723 18.1567 172.374 17.6903 172.131 17.3365C171.898 16.9827 171.696 16.5646 171.524 16.0822C171.362 15.5998 171.281 15.0611 171.281 14.4661C171.281 13.4369 171.534 12.6248 172.04 12.0298C172.546 11.4348 173.163 11.1373 173.891 11.1373Z" fill="#777777"/>
<path d="M188.706 7.35025C188.362 7.38241 188.114 7.44674 187.962 7.54322C187.811 7.63971 187.704 7.82464 187.644 8.09802C187.593 8.37139 187.568 8.81362 187.568 9.4247V21.3889C187.568 22 187.593 22.4422 187.644 22.7156C187.704 22.989 187.811 23.1739 187.962 23.2704C188.114 23.3669 188.362 23.4312 188.706 23.4634V23.9458C188.21 23.8976 187.441 23.8734 186.399 23.8734C185.377 23.8734 184.583 23.8976 184.016 23.9458V23.4634C184.35 23.4312 184.593 23.3669 184.745 23.2704C184.907 23.1739 185.013 22.989 185.064 22.7156C185.124 22.4422 185.155 22 185.155 21.3889V15.5998H181.133V21.3889C181.133 22 181.158 22.4422 181.209 22.7156C181.27 22.989 181.376 23.1739 181.528 23.2704C181.679 23.3669 181.927 23.4312 182.271 23.4634V23.9458C181.725 23.8976 180.961 23.8734 179.98 23.8734C178.897 23.8734 178.098 23.8976 177.582 23.9458V23.4634C177.916 23.4312 178.158 23.3669 178.31 23.2704C178.472 23.1739 178.578 22.989 178.629 22.7156C178.69 22.4422 178.72 22 178.72 21.3889V9.4247C178.72 8.81362 178.69 8.37139 178.629 8.09802C178.578 7.82464 178.472 7.63971 178.31 7.54322C178.158 7.44674 177.916 7.38241 177.582 7.35025V6.86782C178.098 6.91607 178.897 6.94019 179.98 6.94019C180.961 6.94019 181.725 6.91607 182.271 6.86782V7.35025C181.927 7.38241 181.679 7.44674 181.528 7.54322C181.376 7.63971 181.27 7.82464 181.209 8.09802C181.158 8.37139 181.133 8.81362 181.133 9.4247V15.1174H185.155V9.4247C185.155 8.81362 185.124 8.37139 185.064 8.09802C185.013 7.82464 184.907 7.63971 184.745 7.54322C184.593 7.44674 184.35 7.38241 184.016 7.35025V6.86782C184.583 6.91607 185.377 6.94019 186.399 6.94019C187.441 6.94019 188.21 6.91607 188.706 6.86782V7.35025Z" fill="#777777"/>
<path d="M193.445 22.3055C194.274 22.3055 194.942 21.6623 195.448 20.3758L195.721 20.5206C195.519 21.5658 195.154 22.4583 194.628 23.198C194.112 23.9217 193.465 24.2835 192.686 24.2835C191.613 24.2835 190.758 23.7448 190.121 22.6674C189.494 21.5739 189.18 19.9658 189.18 17.8431C189.18 15.6721 189.519 14.0158 190.197 12.8741C190.875 11.7162 191.775 11.1373 192.898 11.1373C194.8 11.1373 195.751 12.9223 195.751 16.4923H191.487C191.477 16.7335 191.472 17.1114 191.472 17.626C191.472 18.6873 191.563 19.5718 191.745 20.2793C191.937 20.9869 192.18 21.5015 192.473 21.8231C192.777 22.1447 193.101 22.3055 193.445 22.3055ZM192.807 11.6439C192.443 11.6439 192.14 12.0057 191.897 12.7293C191.664 13.4369 191.517 14.5384 191.457 16.034H193.839C193.859 14.7636 193.779 13.7183 193.596 12.8982C193.424 12.062 193.161 11.6439 192.807 11.6439Z" fill="#777777"/>
<path d="M198.33 24.1147C197.682 24.1147 197.197 23.8493 196.873 23.3186C196.559 22.788 196.403 22.0884 196.403 21.2201C196.403 20.4964 196.519 19.9014 196.752 19.4351C196.994 18.9527 197.283 18.5828 197.617 18.3255C197.961 18.0682 198.396 17.7948 198.922 17.5054C199.478 17.1998 199.883 16.9265 200.136 16.6852C200.399 16.428 200.53 16.0822 200.53 15.648V13.7666C200.53 13.0912 200.429 12.5685 200.227 12.1987C200.035 11.8127 199.731 11.6197 199.316 11.6197C198.831 11.6197 198.461 11.8127 198.209 12.1987C198.492 12.3595 198.709 12.6007 198.861 12.9223C199.023 13.2439 199.104 13.6218 199.104 14.056C199.104 14.6028 198.988 15.037 198.755 15.3586C198.522 15.6802 198.239 15.841 197.905 15.841C197.551 15.841 197.278 15.6641 197.086 15.3103C196.893 14.9565 196.797 14.5143 196.797 13.9836C196.797 13.5334 196.863 13.1555 196.994 12.8499C197.136 12.5283 197.349 12.2308 197.632 11.9574C197.905 11.7002 198.239 11.4991 198.633 11.3544C199.038 11.2097 199.478 11.1373 199.954 11.1373C200.45 11.1373 200.88 11.2177 201.244 11.3785C201.608 11.5393 201.912 11.8127 202.154 12.1987C202.377 12.5524 202.524 12.9866 202.594 13.5012C202.675 14.0158 202.716 14.7153 202.716 15.5998V22.1608C202.716 22.5468 202.736 22.8201 202.777 22.9809C202.827 23.1418 202.918 23.2222 203.05 23.2222C203.201 23.2222 203.384 23.0855 203.596 22.8121L203.748 23.2222C203.293 23.8172 202.736 24.1147 202.078 24.1147C201.522 24.1147 201.132 23.9378 200.91 23.584C200.687 23.2302 200.571 22.7558 200.561 22.1608C200.055 23.4634 199.311 24.1147 198.33 24.1147ZM199.499 22.5709C199.893 22.5709 200.237 22.2412 200.53 21.5819V16.637C200.409 16.9586 200.151 17.3124 199.757 17.6983C199.362 18.1004 199.063 18.5024 198.861 18.9044C198.659 19.3064 198.558 19.8854 198.558 20.6412C198.558 21.3005 198.644 21.791 198.816 22.1126C198.988 22.4181 199.215 22.5709 199.499 22.5709Z" fill="#777777"/>
<path d="M206.974 21.7025C206.974 22.3618 207.045 22.8201 207.186 23.0774C207.328 23.3186 207.581 23.4393 207.945 23.4393V23.9458C206.893 23.8815 206.215 23.8493 205.912 23.8493C205.568 23.8493 204.87 23.8815 203.817 23.9458V23.4393C204.171 23.4393 204.419 23.3186 204.561 23.0774C204.713 22.8201 204.789 22.3618 204.789 21.7025V7.95329C204.789 7.21356 204.713 6.67485 204.561 6.33715C204.419 5.99945 204.171 5.8306 203.817 5.8306V5.32405C204.141 5.37229 204.455 5.39642 204.758 5.39642C205.638 5.39642 206.377 5.28385 206.974 5.05872V21.7025Z" fill="#777777"/>
<path d="M211.368 11.475H213.159V11.9574H211.368V21.7025C211.368 22.1849 211.419 22.5307 211.52 22.7397C211.631 22.9327 211.803 23.0292 212.036 23.0292C212.471 23.0292 212.815 22.5468 213.068 21.5819L213.326 21.799C212.941 23.4553 212.248 24.2835 211.247 24.2835C210.579 24.2835 210.073 24.0101 209.729 23.4634C209.517 23.1257 209.37 22.7076 209.289 22.2091C209.218 21.6945 209.183 20.9949 209.183 20.1105V11.9574H207.908V11.475H209.183V8.29099C210.023 8.29099 210.751 8.03369 211.368 7.5191V11.475Z" fill="#777777"/>
<path d="M216.4 13.3806C216.855 11.8851 217.68 11.1373 218.874 11.1373C219.663 11.1373 220.219 11.4509 220.543 12.0781C220.715 12.3836 220.836 12.7856 220.907 13.2841C220.988 13.7666 221.029 14.4098 221.029 15.2138V21.7025C221.029 22.3618 221.1 22.8201 221.241 23.0774C221.383 23.3186 221.636 23.4393 222 23.4393V23.9458C220.948 23.8815 220.28 23.8493 219.997 23.8493C219.653 23.8493 218.995 23.8815 218.024 23.9458V23.4393C218.327 23.4393 218.54 23.3186 218.661 23.0774C218.783 22.8201 218.843 22.3618 218.843 21.7025V14.2007C218.843 13.5414 218.773 13.0429 218.631 12.7052C218.499 12.3675 218.257 12.1987 217.902 12.1987C217.477 12.1987 217.118 12.464 216.825 12.9947C216.542 13.5093 216.4 14.1686 216.4 14.9726V21.7025C216.4 22.3618 216.461 22.8201 216.582 23.0774C216.704 23.3186 216.916 23.4393 217.22 23.4393V23.9458C216.248 23.8815 215.621 23.8493 215.338 23.8493C214.994 23.8493 214.296 23.8815 213.243 23.9458V23.4393C213.597 23.4393 213.845 23.3186 213.987 23.0774C214.139 22.8201 214.215 22.3618 214.215 21.7025V7.97741C214.215 7.23769 214.139 6.69897 213.987 6.36127C213.845 6.02357 213.597 5.85472 213.243 5.85472V5.34817C213.567 5.39642 213.881 5.42054 214.184 5.42054C215.064 5.42054 215.803 5.30797 216.4 5.08284V13.3806Z" fill="#777777"/>
<path d="M129.831 6.94019C130.307 6.94019 130.696 6.91607 131 6.86782V7.35025C130.747 7.51106 130.499 7.82464 130.256 8.29099C130.024 8.74126 129.826 9.38449 129.664 10.2207L126.993 23.994C126.882 23.978 126.705 23.9699 126.462 23.9699C126.219 23.9699 126.042 23.978 125.931 23.994L123.7 13.2359L121.454 23.994C121.343 23.978 121.166 23.9699 120.923 23.9699C120.68 23.9699 120.503 23.978 120.392 23.994L116.992 8.89403C116.871 8.36335 116.724 7.97741 116.552 7.7362C116.38 7.49498 116.208 7.36633 116.036 7.35025V6.86782C116.643 6.91607 117.397 6.94019 118.298 6.94019C119.147 6.94019 119.77 6.91607 120.164 6.86782V7.35025C119.81 7.43066 119.633 7.74424 119.633 8.29099C119.633 8.54828 119.679 8.91011 119.77 9.37645L121.985 19.5798L123.518 12.3916L122.744 8.65281C122.643 8.18646 122.522 7.86484 122.38 7.68795C122.248 7.49498 122.092 7.38241 121.909 7.35025V6.86782C122.476 6.91607 123.199 6.94019 124.08 6.94019C125.071 6.94019 125.8 6.91607 126.265 6.86782V7.35025C125.901 7.36633 125.638 7.4387 125.476 7.56735C125.314 7.67991 125.233 7.90505 125.233 8.24275C125.233 8.5322 125.284 8.91011 125.385 9.37645L127.464 19.4592L128.906 12.1745C129.138 10.9685 129.255 10.0358 129.255 9.37645C129.255 8.68497 129.143 8.18646 128.921 7.88092C128.708 7.55931 128.385 7.38241 127.95 7.35025V6.86782C128.638 6.91607 129.265 6.94019 129.831 6.94019Z" stroke="#777777" mask="url(#path-4-outside-1_404_2428)"/>
<path d="M133.815 11.1373C134.978 11.1373 135.889 11.668 136.546 12.7293C137.204 13.7746 137.533 15.439 137.533 17.7225C137.533 20.006 137.204 21.6703 136.546 22.7156C135.889 23.7609 134.978 24.2835 133.815 24.2835C132.661 24.2835 131.751 23.7609 131.083 22.7156C130.425 21.6703 130.096 20.006 130.096 17.7225C130.096 15.439 130.425 13.7746 131.083 12.7293C131.751 11.668 132.661 11.1373 133.815 11.1373ZM133.815 11.6197C133.379 11.6197 133.03 12.1263 132.767 13.1394C132.514 14.1364 132.388 15.6641 132.388 17.7225C132.388 19.7808 132.514 21.3085 132.767 22.3055C133.03 23.3026 133.379 23.8011 133.815 23.8011C134.26 23.8011 134.609 23.3106 134.862 22.3297C135.115 21.3326 135.241 19.7969 135.241 17.7225C135.241 15.648 135.11 14.1123 134.846 13.1153C134.594 12.1183 134.25 11.6197 133.815 11.6197Z" stroke="#777777" mask="url(#path-4-outside-1_404_2428)"/>
<path d="M150.378 21.7025C150.378 22.3618 150.449 22.8201 150.591 23.0774C150.742 23.3186 150.995 23.4393 151.349 23.4393V23.9458C150.338 23.8815 149.67 23.8493 149.346 23.8493C149.063 23.8493 148.436 23.8815 147.464 23.9458V23.4393C147.738 23.4393 147.925 23.3186 148.026 23.0774C148.137 22.8362 148.193 22.3779 148.193 21.7025V14.2007C148.193 13.5253 148.127 13.0268 147.996 12.7052C147.874 12.3675 147.636 12.1987 147.282 12.1987C146.908 12.1987 146.579 12.4479 146.296 12.9464C146.023 13.4449 145.861 14.056 145.81 14.7797V21.7025C145.81 22.3618 145.871 22.8201 145.992 23.0774C146.124 23.3186 146.357 23.4393 146.69 23.4393V23.9458C145.719 23.8815 145.082 23.8493 144.778 23.8493C144.495 23.8493 143.868 23.8815 142.896 23.9458V23.4393C143.17 23.4393 143.357 23.3186 143.458 23.0774C143.569 22.8201 143.625 22.3618 143.625 21.7025V14.2007C143.625 13.5253 143.569 13.0268 143.458 12.7052C143.347 12.3675 143.129 12.1987 142.805 12.1987C142.401 12.1987 142.052 12.472 141.758 13.0188C141.475 13.5495 141.333 14.2088 141.333 14.9967V21.7025C141.333 22.3618 141.384 22.8201 141.485 23.0774C141.596 23.3186 141.789 23.4393 142.062 23.4393V23.9458C141.171 23.8815 140.574 23.8493 140.271 23.8493C139.967 23.8493 139.269 23.8815 138.177 23.9458V23.4393C138.541 23.4393 138.794 23.3186 138.935 23.0774C139.077 22.8201 139.148 22.3618 139.148 21.7025V14.1043C139.148 13.3645 139.077 12.8258 138.935 12.4881C138.794 12.1504 138.541 11.9816 138.177 11.9816V11.475C138.5 11.5233 138.814 11.5474 139.118 11.5474C140.018 11.5474 140.757 11.4348 141.333 11.2097V13.3806C141.778 11.8851 142.562 11.1373 143.686 11.1373C144.454 11.1373 145.011 11.4509 145.355 12.0781C145.547 12.3997 145.674 12.8821 145.734 13.5253C145.997 12.657 146.341 12.0459 146.766 11.6921C147.191 11.3222 147.687 11.1373 148.254 11.1373C149.022 11.1373 149.579 11.4509 149.923 12.0781C150.085 12.3675 150.201 12.7615 150.272 13.26C150.343 13.7585 150.378 14.4098 150.378 15.2138V21.7025Z" stroke="#777777" mask="url(#path-4-outside-1_404_2428)"/>
<path d="M156.073 22.3055C156.903 22.3055 157.571 21.6623 158.077 20.3758L158.35 20.5206C158.147 21.5658 157.783 22.4583 157.257 23.198C156.741 23.9217 156.094 24.2835 155.315 24.2835C154.242 24.2835 153.387 23.7448 152.75 22.6674C152.123 21.5739 151.809 19.9658 151.809 17.8431C151.809 15.6721 152.148 14.0158 152.826 12.8741C153.504 11.7162 154.404 11.1373 155.527 11.1373C157.429 11.1373 158.38 12.9223 158.38 16.4923H154.116C154.106 16.7335 154.101 17.1114 154.101 17.626C154.101 18.6873 154.192 19.5718 154.374 20.2793C154.566 20.9869 154.809 21.5015 155.102 21.8231C155.406 22.1447 155.729 22.3055 156.073 22.3055ZM155.436 11.6439C155.072 11.6439 154.768 12.0057 154.525 12.7293C154.293 13.4369 154.146 14.5384 154.085 16.034H156.468C156.488 14.7636 156.407 13.7183 156.225 12.8982C156.053 12.062 155.79 11.6439 155.436 11.6439Z" stroke="#777777" mask="url(#path-4-outside-1_404_2428)"/>
<path d="M164.512 11.1373C165.281 11.1373 165.837 11.4509 166.181 12.0781C166.353 12.3836 166.475 12.7776 166.546 13.26C166.616 13.7424 166.652 14.3937 166.652 15.2138V21.7025C166.652 22.3618 166.723 22.8201 166.864 23.0774C167.016 23.3186 167.269 23.4393 167.623 23.4393V23.9458C166.611 23.8815 165.944 23.8493 165.62 23.8493C165.316 23.8493 164.659 23.8815 163.647 23.9458V23.4393C163.951 23.4393 164.163 23.3186 164.284 23.0774C164.406 22.8201 164.467 22.3618 164.467 21.7025V14.2007C164.467 13.5414 164.396 13.0429 164.254 12.7052C164.123 12.3675 163.88 12.1987 163.526 12.1987C163.111 12.1987 162.757 12.472 162.463 13.0188C162.17 13.5495 162.023 14.2088 162.023 14.9967V21.7025C162.023 22.3618 162.084 22.8201 162.205 23.0774C162.327 23.3186 162.539 23.4393 162.843 23.4393V23.9458C161.912 23.8815 161.285 23.8493 160.961 23.8493C160.657 23.8493 159.959 23.8815 158.867 23.9458V23.4393C159.231 23.4393 159.484 23.3186 159.625 23.0774C159.767 22.8201 159.838 22.3618 159.838 21.7025V14.1043C159.838 13.3645 159.767 12.8258 159.625 12.4881C159.484 12.1504 159.231 11.9816 158.867 11.9816V11.475C159.19 11.5233 159.504 11.5474 159.807 11.5474C160.708 11.5474 161.446 11.4348 162.023 11.2097V13.3806C162.478 11.8851 163.308 11.1373 164.512 11.1373Z" stroke="#777777" mask="url(#path-4-outside-1_404_2428)"/>
<path d="M168.956 6.53012C169.452 6.53012 169.811 6.81154 170.034 7.37437C170.135 7.61559 170.216 7.91309 170.277 8.26687C170.337 8.62065 170.368 8.99051 170.368 9.37645C170.368 10.2127 170.231 10.9685 169.958 11.6439C169.695 12.3193 169.3 12.8499 168.774 13.2359L168.638 12.8017C168.931 12.6087 169.184 12.3112 169.396 11.9092C169.619 11.5072 169.751 11.0971 169.791 10.679C169.821 10.486 169.837 10.3011 169.837 10.1242C169.837 9.96341 169.821 9.81064 169.791 9.66591C169.568 10.0519 169.275 10.2448 168.911 10.2448C168.557 10.2448 168.268 10.084 168.046 9.7624C167.823 9.4247 167.712 8.96639 167.712 8.38747C167.712 7.84072 167.828 7.3985 168.061 7.0608C168.294 6.70701 168.592 6.53012 168.956 6.53012Z" stroke="#777777" mask="url(#path-4-outside-1_404_2428)"/>
<path d="M173.891 11.1373C174.276 11.1373 174.63 11.2177 174.954 11.3785C175.277 11.5233 175.525 11.6921 175.697 11.8851C175.799 11.9976 175.89 12.0539 175.971 12.0539C176.062 12.0539 176.137 11.9816 176.198 11.8368C176.269 11.676 176.315 11.4509 176.335 11.1614H176.653C176.613 11.9816 176.593 13.3967 176.593 15.4068H176.274C176.183 14.3455 175.981 13.461 175.667 12.7535C175.363 12.0298 174.918 11.668 174.331 11.668C174.028 11.668 173.775 11.8047 173.573 12.0781C173.38 12.3514 173.284 12.7293 173.284 13.2118C173.284 13.7585 173.401 14.2329 173.633 14.6349C173.866 15.0209 174.23 15.4953 174.726 16.0581L175.166 16.5646C175.783 17.3044 176.239 17.9637 176.532 18.5426C176.825 19.1215 176.972 19.8452 176.972 20.7135C176.972 21.4211 176.841 22.0482 176.578 22.595C176.325 23.1418 175.981 23.5599 175.546 23.8493C175.111 24.1388 174.63 24.2835 174.104 24.2835C173.547 24.2835 173.072 24.1147 172.677 23.777C172.354 23.5197 172.121 23.3508 171.979 23.2704C171.878 23.2222 171.787 23.2784 171.706 23.4393C171.635 23.584 171.58 23.8091 171.539 24.1147H171.22C171.261 23.198 171.281 21.5899 171.281 19.2904H171.6C171.802 22.2493 172.485 23.7287 173.649 23.7287C173.942 23.7287 174.19 23.592 174.392 23.3186C174.605 23.0292 174.711 22.595 174.711 22.0161C174.711 21.5658 174.645 21.1638 174.514 20.81C174.392 20.4562 174.235 20.1427 174.043 19.8693C173.851 19.5959 173.563 19.218 173.178 18.7356C172.723 18.1567 172.374 17.6903 172.131 17.3365C171.898 16.9827 171.696 16.5646 171.524 16.0822C171.362 15.5998 171.281 15.0611 171.281 14.4661C171.281 13.4369 171.534 12.6248 172.04 12.0298C172.546 11.4348 173.163 11.1373 173.891 11.1373Z" stroke="#777777" mask="url(#path-4-outside-1_404_2428)"/>
<path d="M188.706 7.35025C188.362 7.38241 188.114 7.44674 187.962 7.54322C187.811 7.63971 187.704 7.82464 187.644 8.09802C187.593 8.37139 187.568 8.81362 187.568 9.4247V21.3889C187.568 22 187.593 22.4422 187.644 22.7156C187.704 22.989 187.811 23.1739 187.962 23.2704C188.114 23.3669 188.362 23.4312 188.706 23.4634V23.9458C188.21 23.8976 187.441 23.8734 186.399 23.8734C185.377 23.8734 184.583 23.8976 184.016 23.9458V23.4634C184.35 23.4312 184.593 23.3669 184.745 23.2704C184.907 23.1739 185.013 22.989 185.064 22.7156C185.124 22.4422 185.155 22 185.155 21.3889V15.5998H181.133V21.3889C181.133 22 181.158 22.4422 181.209 22.7156C181.27 22.989 181.376 23.1739 181.528 23.2704C181.679 23.3669 181.927 23.4312 182.271 23.4634V23.9458C181.725 23.8976 180.961 23.8734 179.98 23.8734C178.897 23.8734 178.098 23.8976 177.582 23.9458V23.4634C177.916 23.4312 178.158 23.3669 178.31 23.2704C178.472 23.1739 178.578 22.989 178.629 22.7156C178.69 22.4422 178.72 22 178.72 21.3889V9.4247C178.72 8.81362 178.69 8.37139 178.629 8.09802C178.578 7.82464 178.472 7.63971 178.31 7.54322C178.158 7.44674 177.916 7.38241 177.582 7.35025V6.86782C178.098 6.91607 178.897 6.94019 179.98 6.94019C180.961 6.94019 181.725 6.91607 182.271 6.86782V7.35025C181.927 7.38241 181.679 7.44674 181.528 7.54322C181.376 7.63971 181.27 7.82464 181.209 8.09802C181.158 8.37139 181.133 8.81362 181.133 9.4247V15.1174H185.155V9.4247C185.155 8.81362 185.124 8.37139 185.064 8.09802C185.013 7.82464 184.907 7.63971 184.745 7.54322C184.593 7.44674 184.35 7.38241 184.016 7.35025V6.86782C184.583 6.91607 185.377 6.94019 186.399 6.94019C187.441 6.94019 188.21 6.91607 188.706 6.86782V7.35025Z" stroke="#777777" mask="url(#path-4-outside-1_404_2428)"/>
<path d="M193.445 22.3055C194.274 22.3055 194.942 21.6623 195.448 20.3758L195.721 20.5206C195.519 21.5658 195.154 22.4583 194.628 23.198C194.112 23.9217 193.465 24.2835 192.686 24.2835C191.613 24.2835 190.758 23.7448 190.121 22.6674C189.494 21.5739 189.18 19.9658 189.18 17.8431C189.18 15.6721 189.519 14.0158 190.197 12.8741C190.875 11.7162 191.775 11.1373 192.898 11.1373C194.8 11.1373 195.751 12.9223 195.751 16.4923H191.487C191.477 16.7335 191.472 17.1114 191.472 17.626C191.472 18.6873 191.563 19.5718 191.745 20.2793C191.937 20.9869 192.18 21.5015 192.473 21.8231C192.777 22.1447 193.101 22.3055 193.445 22.3055ZM192.807 11.6439C192.443 11.6439 192.14 12.0057 191.897 12.7293C191.664 13.4369 191.517 14.5384 191.457 16.034H193.839C193.859 14.7636 193.779 13.7183 193.596 12.8982C193.424 12.062 193.161 11.6439 192.807 11.6439Z" stroke="#777777" mask="url(#path-4-outside-1_404_2428)"/>
<path d="M198.33 24.1147C197.682 24.1147 197.197 23.8493 196.873 23.3186C196.559 22.788 196.403 22.0884 196.403 21.2201C196.403 20.4964 196.519 19.9014 196.752 19.4351C196.994 18.9527 197.283 18.5828 197.617 18.3255C197.961 18.0682 198.396 17.7948 198.922 17.5054C199.478 17.1998 199.883 16.9265 200.136 16.6852C200.399 16.428 200.53 16.0822 200.53 15.648V13.7666C200.53 13.0912 200.429 12.5685 200.227 12.1987C200.035 11.8127 199.731 11.6197 199.316 11.6197C198.831 11.6197 198.461 11.8127 198.209 12.1987C198.492 12.3595 198.709 12.6007 198.861 12.9223C199.023 13.2439 199.104 13.6218 199.104 14.056C199.104 14.6028 198.988 15.037 198.755 15.3586C198.522 15.6802 198.239 15.841 197.905 15.841C197.551 15.841 197.278 15.6641 197.086 15.3103C196.893 14.9565 196.797 14.5143 196.797 13.9836C196.797 13.5334 196.863 13.1555 196.994 12.8499C197.136 12.5283 197.349 12.2308 197.632 11.9574C197.905 11.7002 198.239 11.4991 198.633 11.3544C199.038 11.2097 199.478 11.1373 199.954 11.1373C200.45 11.1373 200.88 11.2177 201.244 11.3785C201.608 11.5393 201.912 11.8127 202.154 12.1987C202.377 12.5524 202.524 12.9866 202.594 13.5012C202.675 14.0158 202.716 14.7153 202.716 15.5998V22.1608C202.716 22.5468 202.736 22.8201 202.777 22.9809C202.827 23.1418 202.918 23.2222 203.05 23.2222C203.201 23.2222 203.384 23.0855 203.596 22.8121L203.748 23.2222C203.293 23.8172 202.736 24.1147 202.078 24.1147C201.522 24.1147 201.132 23.9378 200.91 23.584C200.687 23.2302 200.571 22.7558 200.561 22.1608C200.055 23.4634 199.311 24.1147 198.33 24.1147ZM199.499 22.5709C199.893 22.5709 200.237 22.2412 200.53 21.5819V16.637C200.409 16.9586 200.151 17.3124 199.757 17.6983C199.362 18.1004 199.063 18.5024 198.861 18.9044C198.659 19.3064 198.558 19.8854 198.558 20.6412C198.558 21.3005 198.644 21.791 198.816 22.1126C198.988 22.4181 199.215 22.5709 199.499 22.5709Z" stroke="#777777" mask="url(#path-4-outside-1_404_2428)"/>
<path d="M206.974 21.7025C206.974 22.3618 207.045 22.8201 207.186 23.0774C207.328 23.3186 207.581 23.4393 207.945 23.4393V23.9458C206.893 23.8815 206.215 23.8493 205.912 23.8493C205.568 23.8493 204.87 23.8815 203.817 23.9458V23.4393C204.171 23.4393 204.419 23.3186 204.561 23.0774C204.713 22.8201 204.789 22.3618 204.789 21.7025V7.95329C204.789 7.21356 204.713 6.67485 204.561 6.33715C204.419 5.99945 204.171 5.8306 203.817 5.8306V5.32405C204.141 5.37229 204.455 5.39642 204.758 5.39642C205.638 5.39642 206.377 5.28385 206.974 5.05872V21.7025Z" stroke="#777777" mask="url(#path-4-outside-1_404_2428)"/>
<path d="M211.368 11.475H213.159V11.9574H211.368V21.7025C211.368 22.1849 211.419 22.5307 211.52 22.7397C211.631 22.9327 211.803 23.0292 212.036 23.0292C212.471 23.0292 212.815 22.5468 213.068 21.5819L213.326 21.799C212.941 23.4553 212.248 24.2835 211.247 24.2835C210.579 24.2835 210.073 24.0101 209.729 23.4634C209.517 23.1257 209.37 22.7076 209.289 22.2091C209.218 21.6945 209.183 20.9949 209.183 20.1105V11.9574H207.908V11.475H209.183V8.29099C210.023 8.29099 210.751 8.03369 211.368 7.5191V11.475Z" stroke="#777777" mask="url(#path-4-outside-1_404_2428)"/>
<path d="M216.4 13.3806C216.855 11.8851 217.68 11.1373 218.874 11.1373C219.663 11.1373 220.219 11.4509 220.543 12.0781C220.715 12.3836 220.836 12.7856 220.907 13.2841C220.988 13.7666 221.029 14.4098 221.029 15.2138V21.7025C221.029 22.3618 221.1 22.8201 221.241 23.0774C221.383 23.3186 221.636 23.4393 222 23.4393V23.9458C220.948 23.8815 220.28 23.8493 219.997 23.8493C219.653 23.8493 218.995 23.8815 218.024 23.9458V23.4393C218.327 23.4393 218.54 23.3186 218.661 23.0774C218.783 22.8201 218.843 22.3618 218.843 21.7025V14.2007C218.843 13.5414 218.773 13.0429 218.631 12.7052C218.499 12.3675 218.257 12.1987 217.902 12.1987C217.477 12.1987 217.118 12.464 216.825 12.9947C216.542 13.5093 216.4 14.1686 216.4 14.9726V21.7025C216.4 22.3618 216.461 22.8201 216.582 23.0774C216.704 23.3186 216.916 23.4393 217.22 23.4393V23.9458C216.248 23.8815 215.621 23.8493 215.338 23.8493C214.994 23.8493 214.296 23.8815 213.243 23.9458V23.4393C213.597 23.4393 213.845 23.3186 213.987 23.0774C214.139 22.8201 214.215 22.3618 214.215 21.7025V7.97741C214.215 7.23769 214.139 6.69897 213.987 6.36127C213.845 6.02357 213.597 5.85472 213.243 5.85472V5.34817C213.567 5.39642 213.881 5.42054 214.184 5.42054C215.064 5.42054 215.803 5.30797 216.4 5.08284V13.3806Z" stroke="#777777" mask="url(#path-4-outside-1_404_2428)"/>
</g>
<defs>
<clipPath id="clip0_404_2428">
<rect width="222" height="24.9586" fill="white"/>
</clipPath>
</defs>
</svg>
