<svg width="87" height="31" viewBox="0 0 87 31" fill="none" xmlns="http://www.w3.org/2000/svg">
<path fill-rule="evenodd" clip-rule="evenodd" d="M12.193 0.023976C7.82408 0.457172 4.68274 0.979717 1.51855 1.79983L0.62115 2.03234L0.538544 2.57838C0.404658 3.46364 0.530862 9.28603 0.71144 10.5534C1.60425 16.8214 3.85299 21.7728 7.61487 25.7541C9.397 27.6401 11.7457 29.4171 13.8726 30.4885C15.1762 31.1452 15.5932 31.157 16.7596 30.5706C23.4397 27.2115 28.0772 20.8836 29.7373 12.8624C30.2529 10.3712 30.3505 9.20984 30.3505 5.56386C30.3505 3.34277 30.3147 2.14448 30.2462 2.07561C30.0287 1.85685 25.6097 0.907735 23.014 0.522327C20.2612 0.113526 19.244 0.0403401 15.9343 0.0125312C14.0961 -0.00292929 12.4126 0.00219075 12.193 0.023976ZM19.476 1.77031C21.1079 1.93967 23.2715 2.26896 24.8135 2.58259C26.6828 2.96298 28.3163 3.35722 28.5012 3.47287C28.8541 3.69354 28.8192 8.72815 28.4469 11.3063C27.2839 19.3619 22.9825 25.7657 16.5463 29.0235L15.4126 29.5974L14.2517 29.028C10.9276 27.3975 7.84464 24.5736 5.83354 21.3175C3.56247 17.6406 2.26559 13.0337 2.09679 8.04356C2.04731 6.57964 2.18688 3.72286 2.31418 3.59475C2.3906 3.51795 4.77702 2.94331 6.35672 2.62145C8.73834 2.13615 10.9595 1.83095 13.5897 1.62786C14.4232 1.5634 18.4136 1.65998 19.476 1.77031ZM63.9976 2.41383C63.4121 2.62416 63.1545 2.83498 62.8548 3.34949C62.6065 3.77577 62.5727 3.94312 62.5399 4.90628L62.5031 5.98551H61.7658H61.0287V6.88906V7.79259H61.727H62.4254V10.5032V13.2139H63.6226H64.8198V10.5032V7.79259H65.6678H66.5158V6.88906V5.98551H65.6678H64.8198L64.8222 5.60904C64.8261 4.99383 64.9943 4.44187 65.2385 4.24269C65.4181 4.09622 65.5699 4.06811 65.9419 4.11248C66.2741 4.15204 66.4181 4.13286 66.4231 4.04823C66.427 3.98176 66.4617 3.5809 66.5 3.15735L66.5697 2.38722L66.2809 2.3291C65.7641 2.2251 64.3801 2.27649 63.9976 2.41383ZM34.842 2.79804C34.8135 2.92232 34.453 5.215 34.0409 7.89298C33.6287 10.571 33.2656 12.8876 33.234 13.0411L33.1768 13.3202L34.5032 13.2921L35.8296 13.264L36.2327 10.484L36.6358 7.70404L37.7271 10.5091L38.8185 13.3142H40.0574C41.0074 13.3142 41.2852 13.285 41.2487 13.1888C41.2122 13.0926 38.063 4.25916 37.5623 2.84823L37.4643 2.57215H36.179C34.9279 2.57215 34.8923 2.57817 34.842 2.79804ZM40.4635 5.18447L39.5024 7.795L40.1045 9.405C40.4356 10.2905 40.7402 10.9789 40.7813 10.9348C40.8225 10.8906 41.1369 10.1882 41.4803 9.37378C41.8236 8.55939 42.1329 7.89298 42.1675 7.89298C42.2022 7.89298 42.3332 8.74009 42.4586 9.77535C42.584 10.8107 42.734 12.0305 42.7922 12.4859L42.8978 13.3142H44.2332C45.5669 13.3142 45.5686 13.314 45.5172 13.0883C45.4678 12.8711 44.0684 2.78007 44.0684 2.64042C44.0684 2.60287 43.4735 2.57255 42.7465 2.57296L41.4246 2.57386L40.4635 5.18447ZM55.3312 2.84542C55.2013 3.18154 51.8501 13.224 51.8501 13.2771C51.8501 13.2974 52.445 13.3141 53.1721 13.3139L54.494 13.3138L54.8291 12.3578L55.1642 11.4019L56.7682 11.4294L58.3722 11.4569L58.6739 12.3856L58.9756 13.3142H60.3015C61.0307 13.3142 61.6262 13.2803 61.6248 13.2389C61.6235 13.1975 60.8445 10.7918 59.8937 7.89298L58.165 2.62235L56.8019 2.59444L55.4389 2.56643L55.3312 2.84542ZM83.6679 3.00123C82.5464 3.7617 82.5046 5.30445 83.5835 6.10839C84.1577 6.53627 85.1644 6.52041 85.7878 6.07366C86.7839 5.35997 86.6558 3.5306 85.5709 2.97352C85.0104 2.6858 84.1136 2.69885 83.6679 3.00123ZM85.4216 3.38122C85.829 3.62758 86.07 4.07453 86.07 4.58362C86.07 5.15295 85.7664 5.61988 85.2248 5.88381C84.674 6.15206 84.1896 6.08079 83.7151 5.66164C82.8438 4.89183 83.1178 3.61855 84.2398 3.2229C84.6683 3.07191 84.9787 3.11347 85.4216 3.38122ZM83.8752 4.6302C83.8752 5.61737 83.9526 5.68434 84.0747 5.68434C84.1759 5.68434 84.2742 5.61737 84.2742 5.18237C84.2742 4.8056 84.2318 4.6804 84.4222 4.6804C84.5664 4.6804 84.6839 4.90628 84.8229 5.18237C84.9982 5.53043 85.1364 5.68434 85.2736 5.68434C85.4107 5.68434 85.5234 5.54158 85.2524 5.10035C85.099 4.85067 84.9845 4.61204 85.0693 4.58362C85.2963 4.50743 85.3484 4.35078 85.3484 4.11376C85.3484 3.92298 85.3252 3.57608 84.5664 3.57608H83.8752V4.6302ZM84.8229 3.96462C84.8708 4.00824 84.8788 4.22484 84.8229 4.28038C84.7564 4.34662 84.6709 4.37923 84.5302 4.37923C84.3237 4.37923 84.2742 4.33074 84.2742 4.12824C84.2742 3.92012 84.322 3.87726 84.5545 3.87726C84.7086 3.87726 84.7203 3.88912 84.8229 3.96462ZM4.16185 7.56169C4.16185 10.7908 4.27111 11.8765 4.81224 14.0243C6.20926 19.5703 9.81472 24.2798 14.4611 26.6281L15.3641 27.0844L15.7976 26.9179C16.0361 26.8261 16.6967 26.4698 17.2659 26.1259C21.768 23.4049 24.8659 19.0092 26.1538 13.515C26.6173 11.5373 26.7091 10.5344 26.7091 7.44844V4.57007L26.1353 4.62709C24.9277 4.74706 22.3376 4.87748 18.9522 4.98861C14.8283 5.12414 7.9866 4.95006 4.73551 4.62709L4.16185 4.57007V7.56169ZM69.9348 5.78392C68.1085 6.17365 67.1103 7.53136 67.1055 9.63249C67.0999 12.0485 68.5358 13.5095 70.92 13.5138C72.4321 13.5165 73.7565 12.7211 74.1926 11.5482C74.3053 11.2454 74.3974 10.9767 74.3974 10.9512C74.3974 10.9256 73.8602 10.9048 73.2037 10.9048C72.1142 10.9048 72.0007 10.9222 71.9038 11.1046C71.8454 11.2143 71.6664 11.3725 71.5061 11.4559C70.8413 11.8019 69.9969 11.5246 69.6978 10.8622C69.3342 10.0565 69.1972 10.1016 72.0029 10.1016H74.4971L74.4951 9.87574C74.4897 9.26134 74.2658 8.19827 74.0307 7.67101C73.7052 6.94115 72.938 6.20798 72.2361 5.95589C71.6395 5.74156 70.5237 5.65823 69.9348 5.78392ZM78.0159 5.78382C76.858 6.03119 75.8957 6.81677 75.4865 7.84871C75.2842 8.3586 75.2496 8.62023 75.2477 9.65197C75.2455 10.8155 75.2571 10.8828 75.5733 11.529C75.9666 12.3331 76.5831 12.915 77.3757 13.2306C77.8352 13.4136 78.1414 13.4557 79.0365 13.4588C80.2491 13.463 80.7184 13.3194 81.4828 12.7102C81.8427 12.4234 82.4784 11.3564 82.4784 11.0393C82.4784 10.9347 82.2235 10.9048 81.3297 10.9048H80.181L79.9022 11.2188C79.6775 11.4719 79.5273 11.5413 79.1303 11.5758C78.3666 11.6422 77.8032 11.2078 77.6417 10.4279L77.574 10.1016H80.0761H82.5782L82.5765 9.67495C82.574 9.06075 82.3285 7.98273 82.079 7.4907C81.7612 6.86365 81.0625 6.23097 80.4211 5.98953C79.7852 5.75019 78.6342 5.65171 78.0159 5.78382ZM48.5579 6.11612C47.3451 6.39703 46.3692 7.20599 45.9475 8.2798C45.7699 8.73196 45.7247 9.04981 45.724 9.85064C45.7233 10.7403 45.7553 10.9257 46.0061 11.4804C46.3048 12.1412 46.9646 12.8536 47.5695 13.1685C48.4032 13.6027 49.8954 13.7379 51.0021 13.4798L51.5009 13.3634L51.5295 12.3851C51.5453 11.847 51.5228 11.4073 51.4796 11.4078C51.4365 11.4084 51.1808 11.4762 50.9115 11.5585C50.2656 11.7556 49.794 11.7441 49.302 11.5191C48.2568 11.0415 47.9012 9.89491 48.4576 8.79742C48.9078 7.90944 49.8968 7.70564 51.1667 8.23923C51.3425 8.31302 51.3688 8.21344 51.5015 6.97749L51.5619 6.41339L51.1401 6.24353C50.5867 6.02065 49.2538 5.9549 48.5579 6.11612ZM57.6361 9.12279C57.6364 9.16416 57.2278 9.19808 56.728 9.19808C56.0174 9.19808 55.8304 9.16928 55.87 9.06577C55.8977 8.99309 56.0841 8.37185 56.2842 7.68537C56.4845 6.99899 56.6746 6.34844 56.7071 6.23991C56.745 6.11251 56.9201 6.57532 57.2007 7.54501C57.44 8.37135 57.6358 9.08143 57.6361 9.12279ZM71.5307 7.67583C71.6825 7.77653 71.8717 7.94559 71.9515 8.0516C72.258 8.4593 72.1689 8.49534 70.8557 8.49534C70.1697 8.49534 69.6086 8.47054 69.6086 8.44012C69.6086 8.4098 69.6736 8.25851 69.753 8.10381C70.0398 7.54582 70.9899 7.31702 71.5307 7.67583ZM79.6552 7.68818C79.8308 7.7959 80.0452 8.02158 80.1316 8.18974L80.2886 8.49534H78.9892C78.2614 8.49534 77.6896 8.45458 77.6896 8.40268C77.6896 8.24877 78.2076 7.67914 78.4297 7.58869C78.7904 7.44182 79.3244 7.48518 79.6552 7.68818ZM14.4702 11.0303C15.0563 12.9215 15.5575 14.7224 15.5575 14.7224L15.6692 15.0557L15.9343 15.9393L16.0182 16.2256L16.395 17.444L16.5625 17.9439C16.5625 17.9439 16.6742 18.2216 16.8281 18.5954C16.9533 18.9436 17.0317 19.2776 17.0317 19.3008C17.0317 19.324 16.3512 19.3305 15.5195 19.3153L14.0074 19.2876L13.2287 16.288C12.8005 14.6383 12.4301 13.2682 12.4055 13.2435C12.3249 13.1625 12.2591 13.5331 11.8402 16.4263C11.6123 18.0001 11.4139 19.3002 11.3992 19.3156C11.3845 19.3311 10.769 19.3311 10.0313 19.3156L8.69006 19.2876L9.41176 14.5691C9.80863 11.9739 10.2098 9.34245 10.3033 8.72122L10.4731 7.5918H11.9389H13.4046L14.4702 11.0303ZM20.5235 7.62604C20.5235 7.64481 20.9052 10.2258 21.3716 13.3615C21.8379 16.4972 22.2196 19.1246 22.2196 19.2002C22.2196 19.3099 21.9477 19.3378 20.8794 19.3378C19.6886 19.3378 19.5338 19.3182 19.4897 19.1621C19.4623 19.0654 19.2277 17.6876 18.9682 16.1001C18.7087 14.5127 18.4688 13.2139 18.4353 13.2139C18.4018 13.2139 18.1774 14.1513 17.9369 15.2969C17.6962 16.4427 17.4713 17.4605 17.4368 17.5589C17.3973 17.6716 17.1018 16.9031 16.6363 15.4771L15.8984 13.2169L16.3739 11.6843C16.6353 10.8414 17.028 9.57586 17.2466 8.87182L17.6439 7.5918H19.0837C19.8756 7.5918 20.5235 7.60717 20.5235 7.62604ZM35.2391 16.7618C34.3452 17.0593 33.7322 17.5705 33.4483 18.2554C33.2171 18.8131 33.2437 19.9737 33.4999 20.5064C33.7973 21.1244 34.2409 21.4691 35.6692 22.1914C36.3655 22.5436 37.0594 22.9639 37.2114 23.1253C37.9163 23.874 37.7133 24.8738 36.7522 25.387C36.2009 25.6813 35.1073 25.6781 34.1958 25.3796C33.8415 25.2636 33.5396 25.1807 33.5249 25.1956C33.5101 25.2104 33.4689 25.5393 33.4331 25.9265L33.368 26.6304L34.1277 26.8106C35.1671 27.0568 36.6952 26.9934 37.5244 26.6696C38.7385 26.1955 39.3376 25.2135 39.2611 23.8227C39.1865 22.4674 38.6815 21.8683 36.8015 20.905C35.2824 20.1266 34.9397 19.8103 34.9397 19.1871C34.9397 18.1269 36.1936 17.6678 37.8352 18.1271C38.2181 18.2341 38.5605 18.2907 38.5961 18.2526C38.6317 18.2145 38.6916 17.9067 38.7291 17.5685L38.7974 16.9539L38.4648 16.8274C37.9788 16.6424 35.7349 16.5969 35.2391 16.7618ZM52.0497 16.7813C50.1396 17.305 48.8759 18.5777 48.3946 20.4628C48.1819 21.2962 48.2571 22.858 48.5505 23.6968C49.1061 25.2856 50.3072 26.3627 52.0222 26.8099C52.7376 26.9964 54.7319 27.0092 55.4916 26.8321L55.9905 26.7158L56.0198 25.9258C56.0468 25.1991 56.0348 25.1418 55.8702 25.2104C54.5388 25.7661 53.123 25.7817 52.0053 25.2531C49.7974 24.2086 49.2189 21.0253 50.8974 19.1558C51.9382 17.9964 53.7674 17.6279 55.3298 18.263L55.9277 18.5061L55.9955 17.8698C56.0327 17.5197 56.038 17.1676 56.0074 17.0872C55.9114 16.8351 55.2391 16.7009 53.8954 16.6652C52.9615 16.6405 52.4447 16.6729 52.0497 16.7813ZM41.275 21.7974V26.8672H44.1682H47.0613V26.1645V25.4618H44.9663H42.8712V23.8555V22.2492H44.8166H46.7621V21.5966V20.9441H44.8166H42.8712V19.5386V18.1331H44.9663H47.0613V17.4303V16.7276H44.1682H41.275V21.7974ZM57.1386 19.8649C57.1389 21.5904 57.1851 23.2862 57.241 23.6333C57.4842 25.1409 58.1361 26.1094 59.2529 26.6217C59.7972 26.8715 60.0282 26.9149 60.9788 26.9464C61.8673 26.976 62.1955 26.9451 62.7023 26.7843C63.7905 26.4389 64.5382 25.6895 64.9739 24.508C65.1386 24.0611 65.163 23.6064 65.1956 20.3668L65.2322 16.7276H64.4274H63.6226V19.9854C63.6226 23.5149 63.5733 23.9794 63.1227 24.6943C62.7002 25.3647 62.1815 25.6089 61.1783 25.6092C60.2929 25.6095 59.9771 25.4892 59.4558 24.9526C58.8327 24.3114 58.7985 24.0792 58.7574 20.2162L58.7202 16.7276H57.9291H57.1378L57.1386 19.8649ZM67.4137 21.7842V26.8672H68.2119H69.01V24.6586V22.4499H69.8176C70.6781 22.4499 71.0519 22.5852 71.3065 22.9887C71.3809 23.1066 71.8108 24.0161 72.2621 25.01L73.0829 26.817L73.9895 26.846C74.4882 26.8618 74.8962 26.8501 74.8962 26.8199C74.8962 26.6 72.6234 22.2564 72.3968 22.0435L72.1123 21.7761L72.4817 21.6641C72.9735 21.5149 73.5594 21.0145 73.8017 20.5368C73.945 20.2541 73.9977 19.9506 73.9961 19.4171C73.9934 18.5156 73.7833 18.0061 73.2112 17.5132C72.542 16.9369 71.9629 16.8175 69.5338 16.7553L67.4137 16.701V21.7842ZM76.3927 21.7974V26.8672H79.3358H82.279V26.1645V25.4618H80.134H77.989V23.8555V22.2492H79.9344H81.8799V21.5966V20.9441H79.9344H77.989V19.5386V18.1331H80.134H82.279V17.4303V16.7276H79.3358H76.3927V21.7974ZM71.7181 18.4109C72.1641 18.6898 72.4439 19.2401 72.3707 19.6942C72.228 20.579 71.5421 20.9703 70.0326 21.028L69.01 21.0673V19.5896V18.1118L70.1822 18.1477C71.1891 18.1785 71.4058 18.2156 71.7181 18.4109Z" fill="black"/>
</svg>
