<svg width="67" height="35" viewBox="0 0 67 35" fill="none" xmlns="http://www.w3.org/2000/svg">
<path fill-rule="evenodd" clip-rule="evenodd" d="M26.1012 0.417675C26.1012 0.958202 26.1461 0.909603 25.6465 0.909603C25.1378 0.909603 25.1747 0.873405 25.1747 1.37285C25.1747 1.87553 25.2821 1.81921 24.323 1.81921H23.5469L23.5005 1.86478C23.4544 1.91006 23.4541 1.91264 23.4541 2.27401C23.4541 2.75918 23.4825 2.72881 23.0287 2.72881C22.7008 2.72881 22.6955 2.72946 22.6497 2.77438L22.6033 2.81994V3.61985V4.41976L22.5569 4.46532C22.511 4.51035 22.5064 4.51089 22.1684 4.51089C21.7073 4.51089 21.7336 4.53614 21.7336 4.09321C21.7336 3.64937 21.7614 3.67554 21.2892 3.67554C20.8171 3.67554 20.8449 3.64937 20.8449 4.09321C20.8449 4.41516 20.8443 4.42039 20.7985 4.46532L20.7521 4.51089L19.1583 4.5105L17.5645 4.51011L17.4321 4.46173C11.9177 2.4465 6.07738 4.28564 2.91439 9.03347C1.52878 11.1133 0.756439 14.0676 1.01014 16.3172C1.01991 16.404 1.03759 16.571 1.04939 16.6884C1.81551 24.31 9.88297 29.209 17.2242 26.5106L17.5078 26.4063L37.0485 26.3965C58.5214 26.3858 56.6509 26.3961 57.4495 26.2844C61.9071 25.6608 65.5777 22.3987 66.6673 18.0922C68.3362 11.4966 63.5299 5.01279 56.614 4.53027C56.4246 4.51705 51.4254 4.51089 40.8776 4.51089H25.4188L25.3724 4.46532C25.3264 4.42021 25.326 4.41631 25.326 4.07465C25.326 3.60442 25.3649 3.63841 24.8258 3.63841C24.2969 3.63841 24.3428 3.6799 24.3428 3.20134C24.3428 2.71713 24.3145 2.74737 24.7682 2.74737C25.2228 2.74737 25.1936 2.77913 25.1936 2.28412C25.1936 1.79671 25.1519 1.83777 25.6474 1.83777C26.1436 1.83777 26.1012 1.79519 26.1012 2.29341C26.1012 2.80375 26.0633 2.76594 26.5738 2.76594C27.0844 2.76594 27.0465 2.80388 27.0465 2.29257C27.0465 1.78134 27.0843 1.81921 26.5747 1.81921C26.0782 1.81921 26.1201 1.86019 26.1201 1.37369C26.1201 0.887179 26.0782 0.928167 26.5747 0.928167C26.9519 0.928167 26.9539 0.927944 27.0001 0.882594L27.0465 0.837039V0.41851V0H26.5738H26.1012V0.417675ZM24.2861 3.6941C24.3211 3.72856 24.3239 3.75597 24.3239 4.07549C24.3239 4.53808 24.3504 4.51089 23.8985 4.51089C23.4473 4.51089 23.473 4.53671 23.473 4.08393C23.473 3.63028 23.4459 3.65698 23.9071 3.65698C24.223 3.65698 24.251 3.65972 24.2861 3.6941ZM63.3005 4.55646C63.1883 4.6666 63.2738 4.8079 63.4526 4.8079C63.5396 4.8079 63.5665 4.81596 63.6047 4.85348L63.6511 4.89903V5.48546V6.0719L63.6975 6.11745C63.762 6.18077 63.8805 6.18077 63.945 6.11745L63.9914 6.0719V5.48546V4.89903L64.0379 4.85348C64.077 4.81507 64.1023 4.8079 64.1994 4.8079C64.3365 4.8079 64.4074 4.75728 64.4074 4.6594C64.4074 4.62323 64.3902 4.58518 64.361 4.55646L64.3146 4.51089H63.8307H63.3469L63.3005 4.55646ZM64.6618 4.55646L64.6154 4.60202V5.33696V6.0719L64.6618 6.11745C64.8229 6.27567 64.8877 6.16453 64.899 5.71082C64.9138 5.11533 64.961 5.14074 65.1467 5.84413C65.2145 6.10102 65.2387 6.14103 65.3353 6.15621C65.46 6.1758 65.4931 6.12514 65.5857 5.7732C65.7439 5.17173 65.8002 5.16597 65.8043 5.75083C65.8068 6.10565 65.8268 6.16303 65.9483 6.16303C65.9753 6.16303 66.0182 6.14251 66.0437 6.11745L66.0901 6.0719V5.33696V4.60202L66.0437 4.55646C66.0033 4.51676 65.9803 4.51089 65.865 4.51089C65.634 4.51089 65.6295 4.51655 65.5128 4.94848C65.3655 5.49413 65.3396 5.49517 65.1938 4.96127C65.0686 4.50311 65.0747 4.51089 64.8405 4.51089C64.7252 4.51089 64.7022 4.51676 64.6618 4.55646ZM20.2124 5.42894C20.2762 5.49153 20.2831 5.83282 20.2221 5.90572L20.1855 5.94955L20.1177 5.91242C19.9711 5.83202 19.4872 5.49363 19.4753 5.46313C19.4379 5.36751 20.1177 5.33597 20.2124 5.42894ZM22.5569 5.42894C22.6026 5.47386 22.6033 5.4791 22.6033 5.80104C22.6033 6.24396 22.6296 6.21872 22.1684 6.21872C21.7073 6.21872 21.7336 6.24396 21.7336 5.80104C21.7336 5.35812 21.7073 5.38337 22.1684 5.38337C22.5064 5.38337 22.511 5.3839 22.5569 5.42894ZM56.4852 5.40215C63.456 5.87045 67.9349 12.7983 65.3782 19.1574C63.9649 22.6725 60.7238 25.0559 56.7783 25.4815C56.4765 25.5141 19.7089 25.5473 19.5261 25.5151C19.4069 25.4942 19.4479 25.4291 19.6727 25.2829C25.4466 21.5264 26.7779 13.7536 22.5813 8.30076C22.3282 7.97186 22.3228 7.92654 22.5367 7.92654C22.6974 7.92654 22.7167 7.88763 22.7167 7.56456C22.7167 7.19258 22.7063 7.20257 23.0949 7.20257C23.3726 7.20257 23.3815 7.20137 23.4266 7.157L23.473 7.11144V6.29297V5.47449L23.5195 5.42894L23.5659 5.38337L39.8885 5.38355C50.4853 5.38366 56.3072 5.3902 56.4852 5.40215ZM13.4711 7.40721C14.9424 7.49602 16.4957 8.00343 17.5445 8.73793C17.741 8.87556 17.6728 8.96609 17.3725 8.96609C17.0788 8.96609 17.0824 8.9608 17.0824 9.39015C17.0824 9.83225 17.1022 9.8076 16.7358 9.82C16.408 9.83108 16.4292 9.81818 16.2359 10.1234C15.4877 11.3049 14.1082 13.8335 13.5859 14.9806C13.3544 15.489 13.3716 15.4856 13.0655 15.0836C11.0035 12.3753 8.62198 10.7297 7.92364 11.5307C7.60293 11.8986 7.73343 12.3559 8.35117 13.0289C9.99781 14.8228 10.9143 16.3065 12.0565 19.0274C12.1915 19.349 12.3286 19.6623 12.361 19.7235C12.7373 20.4333 14.0701 20.6382 14.6546 20.0762C14.786 19.9499 14.8367 19.8604 14.9647 19.5298C15.7186 17.5817 16.7213 15.6312 17.7897 14.0349L18.0561 13.6368L18.0655 13.1932C18.0773 12.64 18.0507 12.6788 18.4183 12.6788C18.7781 12.6788 18.7651 12.6947 18.7651 12.2518C18.7651 11.8071 18.7502 11.8248 19.1244 11.8248C19.382 11.8248 19.3923 11.8233 19.4372 11.7793L19.4836 11.7337V11.3236V10.9135L19.53 10.868C19.6632 10.7373 19.8133 10.8876 20.1667 11.5054C22.9188 16.317 19.9993 22.4054 14.4732 23.3787C8.84477 24.37 3.92663 19.5413 4.93628 14.0153C5.66406 10.0321 9.37372 7.15989 13.4711 7.40721ZM27.3387 7.45234L27.2923 7.4979V11.2772V15.0566L27.3387 15.1021L27.3851 15.1477H28.0864H28.7877L28.8341 15.1021L28.8805 15.0566V12.5903C28.8805 9.88986 28.8762 9.99472 28.9829 10.0985C29.0091 10.124 29.5992 11.2392 30.2941 12.5767C30.989 13.9141 31.5723 15.0301 31.5901 15.0566C31.6503 15.1458 31.6686 15.1477 32.4936 15.1477H33.2688L33.3152 15.1021L33.3616 15.0566V11.2772V7.4979L33.3152 7.45234L33.2688 7.40677H32.5675H31.8662L31.8198 7.45234L31.7734 7.4979V9.73207C31.7734 12.1782 31.7771 12.0958 31.6717 11.9919C31.6457 11.9664 31.0915 10.9473 30.4401 9.72719C29.6925 8.32721 29.2351 7.49004 29.2001 7.45782L29.1446 7.40677H28.2649H27.3851L27.3387 7.45234ZM44.9578 7.8558C44.8961 7.88511 44.8872 7.91977 44.7622 8.62267C44.6987 8.98001 44.638 9.29982 44.6274 9.33336C44.5926 9.4433 44.5847 9.44463 43.9213 9.45419C42.8858 9.46912 42.4645 9.66749 41.9843 10.3662C41.8073 10.6237 41.8043 10.6213 41.5707 10.0289C41.4691 9.77129 41.3684 9.53745 41.347 9.50925L41.3081 9.45802L40.8706 9.45241L40.4332 9.4468L40.3858 9.49332L40.3384 9.53986V12.2982V15.0566L40.3848 15.1021L40.4312 15.1477H41.1892H41.9472L41.9936 15.1021L42.04 15.0566L42.0401 13.8444C42.0401 11.9602 42.107 11.6407 42.6129 11.109C42.9878 10.7149 43.2666 10.6182 44.0274 10.6182H44.4997L44.5461 10.6638L44.5925 10.7094V12.1818C44.5925 13.9705 44.6034 14.0838 44.8139 14.4858C45.1764 15.1776 46.1846 15.4249 47.4286 15.127C47.7379 15.0529 47.7327 15.0703 47.6271 14.4686C47.5174 13.8438 47.5411 13.8727 47.1952 13.9429C46.859 14.0111 46.5953 13.9743 46.4525 13.8392C46.3187 13.7127 46.324 13.7777 46.3178 12.1632L46.3122 10.7102L46.3591 10.6642L46.4059 10.6182H46.9276H47.4492L47.4956 10.5727L47.5421 10.5271V10.0335V9.53986L47.4956 9.49431L47.4492 9.44874H46.9276H46.4059L46.3595 9.40316L46.3131 9.35761V8.64123V7.92485L46.2667 7.8793L46.2203 7.83373L45.6096 7.83499C45.2233 7.83579 44.9839 7.84342 44.9578 7.8558ZM36.5585 9.33981C34.5021 9.58115 33.294 11.7852 34.2193 13.6075C35.3203 15.7759 38.5128 15.781 39.6151 13.6162C40.6895 11.5061 38.9413 9.06015 36.5585 9.33981ZM50.3876 9.33632C47.909 9.61963 46.8104 12.5709 48.5307 14.3245C50.2562 16.0834 53.2729 15.1808 53.6903 12.7809C54.0252 10.8545 52.3541 9.11153 50.3876 9.33632ZM57.1564 9.33971C56.6604 9.40055 56.1576 9.65284 55.686 10.0775C55.4571 10.2837 55.4613 10.2862 55.2866 9.83372C55.1258 9.41716 55.1797 9.44874 54.6306 9.44874H54.2146L54.1682 9.49431L54.1218 9.53986V12.2982V15.0566L54.1682 15.1021L54.2146 15.1477H54.9537H55.6928L55.7392 15.1021L55.7857 15.0566V13.1852C55.7857 11.0297 55.7623 11.2635 55.9978 11.0637C56.5861 10.5646 57.3425 10.6082 57.6084 11.1566L57.6669 11.2772L57.6764 13.177L57.6858 15.0767L57.7305 15.1122C57.7728 15.1458 57.8151 15.1477 58.5396 15.1477H59.3041L59.3513 15.1014L59.3984 15.0551L59.3916 13.0455C59.3843 10.8481 59.3899 10.9626 59.2718 10.6094C58.9667 9.69711 58.1652 9.21601 57.1564 9.33971ZM37.334 10.8371C38.4583 11.1685 38.8219 12.5283 38.0031 13.3402C37.1255 14.2106 35.6346 13.7392 35.4119 12.521C35.2199 11.4709 36.2934 10.5305 37.334 10.8371ZM51.1061 10.8301C52.2548 11.14 52.6277 12.5535 51.7733 13.359C50.8315 14.247 49.2736 13.6545 49.193 12.3778C49.129 11.3651 50.1195 10.5638 51.1061 10.8301ZM28.285 17.4937C27.3771 17.641 26.9006 18.2798 27.0762 19.1143C27.197 19.6885 27.5316 19.9723 28.474 20.2995C29.2959 20.5849 29.4954 20.7481 29.4948 21.1349C29.4936 21.8236 28.457 22.0358 27.5192 21.5392C27.2388 21.3907 27.2556 21.3971 27.205 21.4197C27.1436 21.4472 26.858 21.8791 26.8577 21.945C26.8567 22.1383 27.6477 22.4541 28.2944 22.5186C29.5436 22.6433 30.3403 22.0934 30.3403 21.1065C30.3403 20.31 29.9694 19.9262 28.8333 19.5471C28.0821 19.2965 27.9022 19.1627 27.8666 18.8283C27.8036 18.2372 28.587 18.0095 29.5126 18.3499C29.7848 18.4499 29.7825 18.4514 29.9611 18.0635C30.0524 17.8652 30.0569 17.8483 30.0316 17.8039C29.9082 17.5882 28.8552 17.4011 28.285 17.4937ZM37.8691 17.4939C36.5726 17.7024 35.8668 19.0938 36.1993 20.7857C36.4833 22.2305 37.9083 22.9721 39.1661 22.3298C39.6537 22.0808 39.821 21.8572 39.6603 21.669C39.3217 21.2722 39.3039 21.2644 39.1045 21.4267C38.4436 21.9645 37.6114 21.8697 37.2759 21.2184C36.9727 20.6297 36.9844 19.4146 37.2993 18.7865C37.6104 18.1659 38.3857 18.0245 38.9959 18.4768C39.2035 18.6308 39.2195 18.6273 39.4362 18.3805C39.694 18.0868 39.6997 18.0708 39.5887 17.9501C39.2631 17.5962 38.4967 17.3929 37.8691 17.4939ZM31.8576 17.5879L31.8112 17.6335V20.002V22.3705L31.8576 22.4161L31.904 22.4616H33.371H34.8381L34.8845 22.4161C34.9292 22.3722 34.9309 22.3613 34.9309 22.1182C34.9309 21.8751 34.9292 21.8643 34.8845 21.8204L34.8381 21.7748H33.8059H32.7737L32.7273 21.7292L32.6809 21.6837V21.0137V20.3437L32.7273 20.2982L32.7737 20.2526H33.5223H34.2708L34.3172 20.207C34.362 20.1631 34.3637 20.1523 34.3637 19.9092C34.3637 19.666 34.362 19.6552 34.3172 19.6113L34.2708 19.5658H33.5223H32.7737L32.7273 19.5202L32.6809 19.4746V18.9068V18.3389L32.7273 18.2933L32.7737 18.2478H33.7397H34.7057L34.7521 18.2022C34.797 18.1581 34.7985 18.148 34.7985 17.8951C34.7985 17.6421 34.797 17.632 34.7521 17.5879L34.7057 17.5423H33.3048H31.904L31.8576 17.5879ZM41.1969 17.5888L41.1496 17.6353L41.1566 19.3477C41.1648 21.3526 41.1647 21.3513 41.3999 21.7959C41.9416 22.8205 43.9164 22.7943 44.4389 21.7557C44.6598 21.3165 44.668 21.2266 44.6681 19.254L44.6682 17.6335L44.6217 17.5879C44.5572 17.5246 43.9299 17.5163 43.8525 17.5778L43.8079 17.6133L43.7969 19.3181C43.7842 21.2894 43.7867 21.2627 43.5913 21.5415C43.3435 21.8951 42.5508 21.9186 42.2544 21.5812C42.0286 21.3243 42.0333 21.369 42.0216 19.346L42.0117 17.6133L41.967 17.5778C41.8889 17.5157 41.2623 17.5246 41.1969 17.5888ZM46.3973 17.5879L46.3509 17.6335V20.002V22.3705L46.3973 22.4161C46.4432 22.4611 46.4478 22.4616 46.7858 22.4616C47.1237 22.4616 47.1284 22.4611 47.1742 22.4161L47.2206 22.3705V21.4221V20.4737L47.2683 20.4269L47.316 20.38L47.6303 20.3859L47.9446 20.3918L47.9902 20.4475C48.0153 20.4781 48.2303 20.9248 48.468 21.4402C48.9926 22.5778 48.889 22.4616 49.3784 22.4616C49.9438 22.4616 49.945 22.5777 49.3666 21.352C48.8202 20.194 48.8454 20.2962 49.0758 20.1723C50.0478 19.6496 50.0525 18.2234 49.0837 17.7543C48.711 17.5738 48.4449 17.5423 47.2921 17.5423H46.4437L46.3973 17.5879ZM51.351 17.5879L51.3046 17.6335V20.002V22.3705L51.351 22.4161L51.3974 22.4616H52.8645H54.3315L54.3779 22.4161C54.4226 22.3722 54.4243 22.3613 54.4243 22.1182C54.4243 21.8751 54.4226 21.8643 54.3779 21.8204L54.3315 21.7748H53.2993H52.2672L52.2208 21.7292L52.1744 21.6837V21.0137V20.3437L52.2208 20.2982L52.2672 20.2526H53.0157H53.7643L53.8107 20.207C53.8554 20.1631 53.8571 20.1523 53.8571 19.9092C53.8571 19.666 53.8554 19.6552 53.8107 19.6113L53.7643 19.5658H53.0157H52.2672L52.2208 19.5202L52.1744 19.4746V18.9068V18.3389L52.2208 18.2933L52.2672 18.2478H53.2426H54.2181L54.2645 18.2022C54.3094 18.1581 54.3109 18.148 54.3109 17.8951C54.3109 17.6421 54.3094 17.632 54.2645 17.5879L54.2181 17.5423H52.8078H51.3974L51.351 17.5879ZM55.8907 17.5861L55.8424 17.6335V20.002V22.3705L55.8902 22.4174L55.9379 22.4643L56.793 22.4567C57.8252 22.4475 57.9534 22.428 58.4044 22.2106C59.7749 21.55 59.9422 18.8518 58.668 17.9586C58.213 17.6397 57.8338 17.5593 56.7273 17.5472L55.939 17.5387L55.8907 17.5861ZM48.343 18.2754C49.0418 18.4207 49.1272 19.4382 48.4591 19.6578C48.18 19.7495 47.3513 19.77 47.2671 19.6872L47.2206 19.6417V18.9903V18.3389L47.2671 18.2933L47.3135 18.2478L47.7634 18.2481C48.0837 18.2483 48.2506 18.2562 48.343 18.2754ZM57.5062 18.2676C58.2683 18.3888 58.6039 18.9182 58.6025 19.9966C58.6009 21.2498 58.1991 21.7287 57.1158 21.7688L56.8104 21.7801L56.7613 21.7319L56.7121 21.6837V20.0113V18.3389L56.7585 18.2933C56.8113 18.2415 57.2478 18.2265 57.5062 18.2676ZM26.4123 30.2481L26.3659 30.2937V30.9056C26.3659 31.6697 26.3685 31.6628 26.1433 31.4854C25.1064 30.6683 23.7181 31.836 24.115 33.1912C24.3869 34.1192 25.4905 34.4974 26.1673 33.8946C26.3064 33.7707 26.3659 33.7879 26.3659 33.952C26.3659 34.0958 26.4138 34.1194 26.7062 34.1194C26.9438 34.1194 26.9556 34.1176 27.0001 34.0738L27.0465 34.0283V32.161V30.2937L27.0001 30.2481C26.9556 30.2044 26.9438 30.2025 26.7062 30.2025C26.4686 30.2025 26.4568 30.2044 26.4123 30.2481ZM29.5131 30.2481L29.4667 30.2937V32.161V34.0283L29.5131 34.0738C29.649 34.2073 30.1473 34.121 30.1473 33.964C30.1473 33.8173 30.209 33.8023 30.348 33.9151C31.3427 34.7221 32.7074 33.6888 32.4243 32.343C32.215 31.3482 31.0697 30.8778 30.3703 31.4993C30.1473 31.6976 30.1473 31.6977 30.1473 30.9243V30.2937L30.1009 30.2481C30.0564 30.2044 30.0446 30.2025 29.807 30.2025C29.5694 30.2025 29.5576 30.2044 29.5131 30.2481ZM38.8226 30.343C38.1132 30.4691 37.7101 31.0194 37.8507 31.6703C37.9484 32.1229 38.2519 32.3328 39.1253 32.552C39.7548 32.71 39.9421 32.838 39.9409 33.1089C39.9384 33.6655 39.0086 33.7392 38.2874 33.2399C38.076 33.0936 38.0764 33.0935 37.8719 33.3299C37.6463 33.5908 37.6844 33.6671 38.163 33.9128C39.3341 34.5142 40.6378 34.0654 40.6406 33.0601C40.6422 32.4576 40.3263 32.1754 39.3743 31.929C38.7004 31.7545 38.5233 31.6367 38.5233 31.3627C38.5233 30.8705 39.245 30.7729 39.9469 31.1701C40.147 31.2834 40.1758 31.2811 40.2775 31.1444C40.5185 30.8204 40.5192 30.818 40.4099 30.7152C40.1017 30.4252 39.3509 30.2492 38.8226 30.343ZM56.3615 30.5637C56.3162 30.6082 56.3151 30.6161 56.3151 30.8987C56.3151 31.2424 56.2977 31.2792 56.1354 31.2792C55.9856 31.2792 55.9558 31.3269 55.9558 31.5669C55.9558 31.807 55.9856 31.8547 56.1354 31.8547C56.2024 31.8547 56.2328 31.8651 56.2686 31.9002L56.3151 31.9458V32.6923C56.3151 33.7549 56.3616 33.923 56.699 34.0803C57.0194 34.2296 57.6298 34.1863 57.7239 34.0075C57.7676 33.9245 57.7629 33.6169 57.717 33.5613L57.682 33.5188L57.5264 33.5518C57.2806 33.604 57.1324 33.5616 57.044 33.4139C57.007 33.352 57.0049 33.3164 56.9996 32.6483L56.994 31.9475L57.0413 31.9011C57.0877 31.8555 57.0941 31.8547 57.3833 31.8547C57.7702 31.8547 57.7709 31.8542 57.7709 31.5669C57.7709 31.2797 57.7702 31.2792 57.3833 31.2792C57.0956 31.2792 57.0874 31.2781 57.0421 31.2336C56.9968 31.1892 56.9957 31.1812 56.9957 30.8987C56.9957 30.5104 57.0026 30.5181 56.6554 30.5181C56.4178 30.5181 56.406 30.5199 56.3615 30.5637ZM5.06837 31.2525C4.89567 31.2862 4.69603 31.3828 4.55708 31.4999C4.39797 31.634 4.33883 31.6196 4.33883 31.4467C4.33883 31.2785 3.84779 31.1842 3.70458 31.3248L3.65817 31.3703V33.1263V34.8822L3.70458 34.9277C3.74913 34.9715 3.76091 34.9733 3.9985 34.9733C4.23609 34.9733 4.24787 34.9715 4.29241 34.9277L4.33883 34.8822V34.3909C4.33883 33.7733 4.34545 33.7576 4.53955 33.9151C5.27523 34.512 6.40478 34.0652 6.60827 33.0969C6.83976 31.9955 6.05828 31.0595 5.06837 31.2525ZM8.47008 31.2428C7.0021 31.4671 6.67451 33.3961 7.9974 34.0262C9.19975 34.5989 10.5255 33.5772 10.2003 32.3286C10.011 31.602 9.24906 31.1238 8.47008 31.2428ZM16.4296 31.2419C15.2356 31.4142 14.786 32.9875 15.6931 33.8192C16.201 34.2849 17.0656 34.3154 17.6446 33.8881C17.8779 33.7159 17.8908 33.6587 17.7299 33.5092C17.5168 33.311 17.5133 33.3104 17.3129 33.4405C16.8097 33.7675 16.2164 33.6701 15.9979 33.2247C15.8558 32.9348 15.8029 32.9499 16.9603 32.9499H17.916L17.9651 32.9018C18.014 32.8537 18.0141 32.8529 18.0036 32.6187C17.9629 31.7068 17.2895 31.1178 16.4296 31.2419ZM21.9506 31.2406C21.0765 31.3782 20.5564 32.2399 20.797 33.1516C21.0536 34.1239 22.3147 34.516 23.1655 33.8881C23.4049 33.7114 23.4139 33.6593 23.2339 33.4943C23.0296 33.3071 23.0348 33.3074 22.7887 33.4717C22.3449 33.768 21.7263 33.6476 21.5189 33.2247C21.3767 32.9348 21.3238 32.9499 22.4813 32.9499H23.4369L23.486 32.9018C23.5349 32.8537 23.535 32.8529 23.5246 32.6187C23.4841 31.7122 22.7938 31.1079 21.9506 31.2406ZM45.733 31.2514C45.5694 31.2863 45.4746 31.3315 45.3111 31.4527C45.129 31.5875 45.0841 31.5827 45.0841 31.4281C45.0841 31.3052 45.0248 31.2792 44.7438 31.2792C44.5062 31.2792 44.4944 31.281 44.4499 31.3248L44.4035 31.3703V32.6993V34.0283L44.4499 34.0738C44.4944 34.1176 44.5062 34.1194 44.7438 34.1194C44.9814 34.1194 44.9931 34.1176 45.0377 34.0738L45.0841 34.0283V33.2512C45.0841 32.4283 45.0929 32.318 45.1709 32.167C45.3916 31.7394 45.964 31.7248 46.1807 32.1413L46.2469 32.2685L46.2564 33.1585L46.2658 34.0485L46.3105 34.0839C46.3864 34.1442 46.8267 34.1366 46.8906 34.0738L46.937 34.0283V33.2512C46.937 32.4565 46.9458 32.3327 47.0129 32.1789C47.168 31.8236 47.6565 31.7232 47.9288 31.9907C48.1003 32.159 48.097 32.1379 48.1086 33.1604L48.1187 34.0485L48.1634 34.0839C48.2393 34.1442 48.6796 34.1366 48.7435 34.0738L48.7899 34.0283V33.0651C48.7899 32.0022 48.7848 31.9477 48.662 31.7069C48.3746 31.1432 47.5138 31.0619 46.9585 31.5461C46.8287 31.6594 46.803 31.6565 46.6608 31.5126C46.4261 31.2753 46.079 31.1776 45.733 31.2514ZM54.1607 31.2524C54.0072 31.2851 53.8611 31.3549 53.7348 31.4559C53.5739 31.5846 53.5168 31.5773 53.5168 31.4281C53.5168 31.3052 53.4574 31.2792 53.1764 31.2792C52.9389 31.2792 52.9271 31.281 52.8825 31.3248L52.8361 31.3703V32.6993V34.0283L52.8825 34.0738C52.9464 34.1366 53.3868 34.1442 53.4627 34.0839L53.5073 34.0485L53.5168 33.1785L53.5262 32.3086L53.5884 32.1847C53.8184 31.7261 54.4577 31.7176 54.6777 32.1702L54.7363 32.2909L54.7458 33.1697L54.7552 34.0485L54.7999 34.0839C54.8757 34.1442 55.3161 34.1366 55.38 34.0738L55.4264 34.0283V33.0985C55.4264 32.0546 55.4201 31.9874 55.2995 31.7433C55.1061 31.3518 54.6392 31.1506 54.1607 31.2524ZM59.3333 31.252C58.008 31.4983 57.7554 33.4076 58.9661 34.0273C59.4991 34.3002 60.2384 34.2202 60.6673 33.8432C60.8488 33.6837 60.8475 33.6337 60.6582 33.4713C60.4702 33.3101 60.4728 33.3102 60.2504 33.4583C59.7752 33.7747 59.1721 33.6544 58.9529 33.1993C58.8289 32.9421 58.7981 32.9499 59.9409 32.9499H60.8924L60.9416 32.9016C61.047 32.7981 60.9585 32.2395 60.7839 31.9065C60.52 31.4032 59.9363 31.1399 59.3333 31.252ZM62.7537 31.2429C61.1614 31.4884 61.0293 33.7299 62.5828 34.1409C63.1148 34.2816 63.8833 34.0654 64.0908 33.7167C64.197 33.5381 63.7973 33.2378 63.625 33.3668C62.9831 33.8479 62.2273 33.5409 62.1644 32.7736C62.1006 31.9949 62.8967 31.554 63.5373 32.0132C63.7269 32.1491 63.7425 32.1474 63.9124 31.9707C64.144 31.7299 64.1463 31.6936 63.94 31.5312C63.646 31.2997 63.1566 31.1808 62.7537 31.2429ZM20.0024 31.2799C19.8451 31.3288 19.6801 31.4379 19.559 31.573C19.396 31.7548 19.3512 31.7405 19.3512 31.5069C19.3512 31.2958 19.3271 31.2792 19.0204 31.2792C18.7928 31.2792 18.7803 31.2812 18.7359 31.3248L18.6895 31.3703V32.6993V34.0283L18.7359 34.0738C18.7803 34.1174 18.7928 34.1194 19.0204 34.1194C19.2479 34.1194 19.2605 34.1174 19.3048 34.0738L19.3512 34.0283V33.544C19.3512 32.4356 19.5313 32.0698 20.1324 31.9568C20.3722 31.9118 20.3722 31.9118 20.3722 31.5661C20.3722 31.2242 20.3174 31.1818 20.0024 31.2799ZM50.416 31.2617C49.798 31.3373 49.6447 31.4483 49.746 31.7469C49.833 32.0035 49.8471 32.0107 50.1051 31.9295C50.7562 31.7248 51.3424 31.9078 51.3424 32.3159C51.3424 32.4346 51.3172 32.4425 51.0717 32.401C50.0703 32.2314 49.4139 32.5857 49.4139 33.2959C49.4139 34.0736 50.4287 34.4668 51.1603 33.9726C51.2813 33.8909 51.3355 33.8952 51.3612 33.9888C51.3998 34.1298 51.8556 34.1927 51.9767 34.0738L52.0231 34.0283V33.1115C52.0231 32.2637 52.0203 32.1841 51.9863 32.0534C51.8274 31.4436 51.2615 31.1582 50.416 31.2617ZM10.6203 31.3081C10.5582 31.3508 10.5449 31.3023 11.0122 32.7293C11.5228 34.2881 11.4411 34.138 11.7789 34.138C12.1085 34.138 12.0579 34.2111 12.3739 33.2779C12.7547 32.1531 12.6902 32.1549 13.0567 33.2597C13.3734 34.2144 13.3215 34.138 13.6532 34.138C13.9562 34.138 13.9614 34.1339 14.072 33.8036C14.409 32.7977 14.8702 31.3892 14.8702 31.3658C14.8702 31.2491 14.2869 31.2371 14.2136 31.3522C14.202 31.3705 14.0851 31.7388 13.9538 32.1705C13.6112 33.2973 13.6797 33.2965 13.3095 32.178C13.0308 31.3359 13.0362 31.35 12.9751 31.308C12.9065 31.2608 12.5276 31.2671 12.4636 31.3165C12.4035 31.3629 12.4054 31.3578 12.121 32.2284C11.7785 33.2764 11.8343 33.2833 11.4966 32.1503C11.2132 31.1993 11.2668 31.2792 10.9123 31.2792C10.7166 31.2792 10.6532 31.2855 10.6203 31.3081ZM32.7862 31.3084C32.7341 31.3596 32.747 31.3943 33.3143 32.7309C33.905 34.1227 33.9017 34.1129 33.8243 34.2426C33.7241 34.4105 33.5337 34.4631 33.2906 34.3903C33.1188 34.3387 32.9761 34.48 32.9319 34.7452C32.899 34.9428 33.6 35.0834 33.9217 34.9437C34.3086 34.7757 34.3078 34.777 35.0567 32.8785C35.7529 31.1137 35.7265 31.2792 35.3119 31.2792C34.9354 31.2792 35.0175 31.1603 34.6167 32.2868C34.2941 33.1936 34.2873 33.2098 34.2295 33.2098C34.1805 33.2098 34.1768 33.2014 33.8143 32.2709C33.4563 31.3517 33.4554 31.3495 33.3953 31.3082C33.3335 31.2657 32.8296 31.2658 32.7862 31.3084ZM40.9954 31.2993C40.932 31.3355 40.9654 31.427 41.513 32.7185C42.114 34.136 42.1066 34.1143 42.0324 34.2386C41.9315 34.4078 41.7682 34.4589 41.5243 34.3979C41.32 34.3467 41.3072 34.3532 41.2089 34.5562C41.0585 34.8671 41.2193 34.9919 41.7705 34.9919C42.4198 34.9919 42.4401 34.9628 43.2767 32.837C43.9543 31.1152 43.9303 31.2792 43.5054 31.2792C43.1428 31.2792 43.2156 31.1729 42.8248 32.2721C42.4983 33.1907 42.4904 33.2098 42.4371 33.2098C42.3849 33.2098 42.376 33.1899 41.9997 32.226C41.745 31.5735 41.6509 31.3526 41.614 31.321C41.5601 31.2748 41.0683 31.2576 40.9954 31.2993ZM16.843 31.818C17.1328 31.9059 17.4313 32.3693 17.2664 32.4754C17.1985 32.5191 15.976 32.5115 15.9475 32.4673C15.7492 32.159 16.4034 31.6847 16.843 31.818ZM22.3639 31.818C22.6589 31.9074 22.9536 32.3685 22.7851 32.4768C22.7193 32.5192 21.4961 32.5103 21.4684 32.4673C21.3996 32.3602 21.5582 32.0427 21.747 31.9095C21.9239 31.7848 22.1459 31.7519 22.3639 31.818ZM59.8947 31.8517C60.0868 31.9445 60.2522 32.1679 60.2801 32.372C60.298 32.5033 60.2925 32.5044 59.5818 32.5044C58.8057 32.5044 58.8076 32.5053 58.9614 32.1981C59.1486 31.8243 59.5386 31.6796 59.8947 31.8517ZM5.39338 31.8548C6.15094 32.1159 6.14331 33.3322 5.38265 33.5628C4.76506 33.7501 4.20228 33.173 4.34732 32.5012C4.45515 32.0017 4.94362 31.6999 5.39338 31.8548ZM8.99003 31.8645C9.89465 32.2152 9.67591 33.5996 8.71587 33.5996C8.0513 33.5996 7.64281 32.8881 7.95264 32.2701C8.13542 31.9056 8.61374 31.7186 8.99003 31.8645ZM25.7944 31.8548C26.6536 32.151 26.5035 33.5274 25.6047 33.5941C24.9636 33.6417 24.5327 32.9018 24.8351 32.2724C25.0106 31.907 25.4239 31.7272 25.7944 31.8548ZM31.2866 31.8892C31.9736 32.2135 31.909 33.3451 31.1911 33.5628C30.4787 33.7789 29.888 32.977 30.2406 32.2724C30.4391 31.8756 30.9002 31.7067 31.2866 31.8892ZM51.0317 32.858C51.3836 32.9193 51.4471 33.0166 51.3217 33.3027C51.0969 33.8158 50.0946 33.7853 50.0946 33.2655C50.0946 32.9395 50.4962 32.7649 51.0317 32.858Z" fill="black"/>
</svg>
