<svg width="71" height="33" viewBox="0 0 71 33" fill="none" xmlns="http://www.w3.org/2000/svg">
<g clip-path="url(#clip0_404_2384)">
<path d="M4.10478 3.02774C3.57182 2.87741 3.18343 2.69322 2.93961 2.47516C2.69794 2.25498 2.57711 1.98398 2.57711 1.66217C2.57711 1.29803 2.72492 0.997395 3.02052 0.760276C3.31829 0.521038 3.70451 0.40142 4.17921 0.40142C4.50288 0.40142 4.79093 0.462816 5.04339 0.585611C5.298 0.708406 5.49435 0.877777 5.63245 1.09373C5.7727 1.30968 5.84283 1.54573 5.84283 1.80191H5.21817C5.21817 1.52245 5.12754 1.30332 4.94629 1.14454C4.76504 0.983634 4.50935 0.903182 4.17921 0.903182C3.87282 0.903182 3.63331 0.969873 3.46069 1.10325C3.29023 1.23451 3.20501 1.41765 3.20501 1.65265C3.20501 1.84108 3.28592 2.00092 3.44775 2.13219C3.61174 2.26133 3.889 2.37989 4.27956 2.48787C4.67226 2.59584 4.97865 2.71546 5.19874 2.84672C5.42099 2.97587 5.58498 3.12725 5.69071 3.30085C5.79859 3.47446 5.85253 3.67876 5.85253 3.91376C5.85253 4.28849 5.70365 4.58913 5.40589 4.81566C5.10812 5.04008 4.71001 5.15229 4.21158 5.15229C3.88793 5.15229 3.58584 5.09196 3.30535 4.97127C3.02484 4.84848 2.80799 4.68122 2.65479 4.46951C2.50375 4.25779 2.42822 4.01751 2.42822 3.74862H3.05288C3.05288 4.02809 3.15754 4.24933 3.36683 4.41235C3.5783 4.57326 3.85988 4.6537 4.21158 4.6537C4.53956 4.6537 4.79093 4.58807 4.96571 4.45681C5.14048 4.32554 5.22787 4.14665 5.22787 3.92011C5.22787 3.69358 5.14695 3.51891 4.98513 3.39612C4.8233 3.27121 4.52985 3.14841 4.10478 3.02774ZM8.16164 4.67275C8.37526 4.67275 8.5619 4.60924 8.72157 4.48221C8.88125 4.35519 8.96971 4.1964 8.98697 4.00586H9.55337C9.54258 4.20275 9.47354 4.39012 9.34623 4.56796C9.21893 4.7458 9.04847 4.88765 8.83485 4.9935C8.6234 5.09936 8.39899 5.15229 8.16164 5.15229C7.68479 5.15229 7.30502 4.99668 7.02237 4.68547C6.74186 4.37212 6.60161 3.94446 6.60161 3.40247V3.30402C6.60161 2.96952 6.66419 2.67206 6.78933 2.41164C6.91448 2.15124 7.09357 1.94905 7.3266 1.80508C7.5618 1.66112 7.83906 1.58914 8.1584 1.58914C8.55111 1.58914 8.87692 1.70452 9.13585 1.93529C9.39693 2.16606 9.53611 2.46564 9.55337 2.83402H8.98697C8.96971 2.61171 8.8834 2.42964 8.72804 2.2878C8.57484 2.14383 8.38496 2.07185 8.1584 2.07185C7.85416 2.07185 7.6179 2.17982 7.44959 2.39577C7.28345 2.6096 7.20037 2.91976 7.20037 3.32625V3.43741C7.20037 3.83331 7.28345 4.13818 7.44959 4.35201C7.61574 4.56584 7.85309 4.67275 8.16164 4.67275ZM12.5875 5.08878C12.5529 5.02103 12.5249 4.90035 12.5033 4.72675C12.225 5.01045 11.8927 5.15229 11.5065 5.15229C11.1612 5.15229 10.8775 5.05701 10.6552 4.86647C10.4351 4.67382 10.3251 4.43035 10.3251 4.13607C10.3251 3.77826 10.4632 3.50092 10.7394 3.30402C11.0177 3.10501 11.4083 3.0055 11.911 3.0055H12.4936V2.73557C12.4936 2.5302 12.4311 2.36719 12.3059 2.24652C12.1808 2.12371 11.9963 2.06231 11.7524 2.06231C11.5388 2.06231 11.3597 2.11524 11.2152 2.2211C11.0706 2.32696 10.9983 2.45505 10.9983 2.60536H10.3963C10.3963 2.43387 10.4578 2.26874 10.5808 2.10996C10.7059 1.94905 10.8742 1.82203 11.0857 1.72887C11.2993 1.63572 11.5334 1.58914 11.788 1.58914C12.1915 1.58914 12.5076 1.68864 12.7364 1.88766C12.9651 2.08455 13.0837 2.3566 13.0924 2.70381V4.28532C13.0924 4.60077 13.1334 4.85166 13.2153 5.03796V5.08878H12.5875ZM11.5938 4.641C11.7816 4.641 11.9596 4.59336 12.1279 4.4981C12.2962 4.40282 12.4181 4.27897 12.4936 4.12653V3.42153H12.0243C11.2907 3.42153 10.9239 3.63218 10.9239 4.05349C10.9239 4.23768 10.9864 4.38165 11.1116 4.48539C11.2367 4.58913 11.3975 4.641 11.5938 4.641ZM14.7963 1.65265L14.8157 2.08455C15.0832 1.75428 15.4327 1.58914 15.8643 1.58914C16.6044 1.58914 16.9777 1.9988 16.9842 2.81813V5.08878H16.3854V2.81497C16.3833 2.56726 16.3251 2.38413 16.2107 2.26557C16.0985 2.14701 15.9225 2.08773 15.6831 2.08773C15.4889 2.08773 15.3184 2.13854 15.1717 2.24015C15.025 2.34178 14.9106 2.47516 14.8286 2.6403V5.08878H14.2298V1.65265H14.7963ZM20.7141 4.13607H19.0117L18.6881 5.08878H17.6556L19.4098 0.464934H20.3095L22.0735 5.08878H21.0411L20.7141 4.13607ZM19.2739 3.36436H20.452L19.8597 1.63359L19.2739 3.36436ZM23.6382 5.08878H22.6996V0.210876H23.6382V5.08878ZM26.2224 5.15229C25.7089 5.15229 25.2903 4.99773 24.9666 4.68863C24.6452 4.37954 24.4844 3.96775 24.4844 3.45328V3.36436C24.4844 3.01927 24.5524 2.71122 24.6883 2.44022C24.8243 2.16712 25.0163 1.95752 25.2644 1.81144C25.5147 1.66324 25.7995 1.58914 26.1189 1.58914C26.5978 1.58914 26.9744 1.73733 27.2484 2.03373C27.5246 2.33013 27.6627 2.75039 27.6627 3.2945V3.66923H25.4326C25.4629 3.89365 25.5535 4.07361 25.7045 4.2091C25.8577 4.3446 26.0509 4.41235 26.2839 4.41235C26.6442 4.41235 26.9259 4.28426 27.1287 4.02809L27.5882 4.53303C27.448 4.7278 27.2581 4.88024 27.0187 4.99033C26.7791 5.09831 26.5137 5.15229 26.2224 5.15229ZM26.1156 2.33226C25.93 2.33226 25.779 2.39366 25.6625 2.51645C25.5481 2.63924 25.4748 2.81497 25.4424 3.04362H26.7435V2.97057C26.7392 2.76733 26.6831 2.61066 26.5752 2.50057C26.4673 2.38836 26.3141 2.33226 26.1156 2.33226ZM30.3634 2.51327C30.2362 2.49633 30.124 2.48787 30.0268 2.48787C29.673 2.48787 29.441 2.60536 29.3309 2.84037V5.08878H28.3956V1.65265H29.2792L29.305 2.06231C29.4928 1.74686 29.7528 1.58914 30.0851 1.58914C30.1887 1.58914 30.2858 1.60289 30.3764 1.63042L30.3634 2.51327ZM32.2971 0.807911V1.65265H32.8959V2.3259H32.2971V4.04079C32.2971 4.16782 32.322 4.25886 32.3715 4.31391C32.4212 4.36895 32.5161 4.39647 32.6564 4.39647C32.7599 4.39647 32.8516 4.38905 32.9314 4.37424V5.06973C32.7481 5.12477 32.5593 5.15229 32.3651 5.15229C31.7091 5.15229 31.3747 4.82731 31.3617 4.17735V2.3259H30.8503V1.65265H31.3617V0.807911H32.2971Z" fill="#666666"/>
<path d="M34.3875 0.665168H33.8917V2.01452H33.6893V0.665168H33.1946V0.500916H34.3875V0.665168ZM34.8791 0.500916L35.3834 1.73592L35.8876 0.500916H36.1515V2.01452H35.948V1.42509L35.9672 0.788876L35.4607 2.01452H35.3049L34.7996 0.791994L34.8197 1.42509V2.01452H34.6164V0.500916H34.8791Z" fill="#666666"/>
<path d="M68.5751 5.79828H2.41037C1.07916 5.79828 0 6.85714 0 8.16332V30.6312C0 31.9374 1.07916 32.9963 2.41037 32.9963H68.5751C69.9063 32.9963 70.9855 31.9374 70.9855 30.6312V8.16332C70.9855 6.85714 69.9063 5.79828 68.5751 5.79828Z" fill="black"/>
<path d="M30.4375 16.0862H28.4865V12.7511H25.5962V16.0862H23.634V8.09956H25.5962V11.2701H28.4865V8.09956H30.4375V16.0862ZM36.7516 14.5942H34.0626L33.5931 16.0862H31.4967L34.4819 8.09956H36.3268L39.3345 16.0862H37.2268L36.7516 14.5942ZM34.5323 13.1077H36.2821L35.4044 10.3376L34.5323 13.1077ZM46.7387 13.3819C46.7126 13.9378 46.5598 14.4296 46.2803 14.8574C46.0007 15.2817 45.6076 15.6108 45.1007 15.8449C44.5975 16.0789 44.0217 16.1959 43.3732 16.1959C42.3036 16.1959 41.4613 15.854 40.8464 15.1701C40.2314 14.4864 39.9239 13.5208 39.9239 12.2739V11.8789C39.9239 11.0964 40.0618 10.4126 40.3376 9.82745C40.6172 9.23869 41.0178 8.78524 41.5396 8.46708C42.0613 8.14528 42.6651 7.98438 43.3509 7.98438C44.3385 7.98438 45.1324 8.24036 45.7324 8.75233C46.3325 9.26063 46.6735 9.96276 46.7554 10.8587H44.7988C44.7838 10.3723 44.659 10.0231 44.4242 9.81099C44.1894 9.59889 43.8316 9.49285 43.3509 9.49285C42.8627 9.49285 42.5048 9.67203 42.2775 10.0304C42.0501 10.3888 41.9309 10.9611 41.9197 11.7473V12.3123C41.9197 13.1643 42.0278 13.7732 42.2439 14.1389C42.4639 14.5046 42.8402 14.6874 43.3732 14.6874C43.8242 14.6874 44.169 14.5832 44.4075 14.3747C44.646 14.1664 44.7728 13.8354 44.7876 13.3819H46.7387ZM50.7775 13.1131L49.9724 13.9799V16.0862H48.0101V8.09956H49.9724V11.6211L50.6544 10.6064L52.4099 8.09956H54.8362L52.0856 11.6321L54.8362 16.0862H52.5105L50.7775 13.1131ZM60.7253 12.7017H57.6394V14.6052H61.2844V16.0862H55.6772V8.09956H61.2956V9.58609H57.6394V11.2701H60.7253V12.7017ZM65.4517 13.2667H64.3896V16.0862H62.4273V8.09956H65.6307C66.5959 8.09956 67.3506 8.30984 67.8947 8.73038C68.4389 9.15092 68.711 9.74517 68.711 10.5131C68.711 11.069 68.5954 11.5297 68.3644 11.8955C68.1371 12.2611 67.7793 12.5573 67.2911 12.784L68.9905 16.0039V16.0862H66.8885L65.4517 13.2667ZM64.3896 11.7802H65.6307C66.0033 11.7802 66.2829 11.6851 66.4692 11.495C66.6593 11.3012 66.7544 11.0324 66.7544 10.6886C66.7544 10.3449 66.6593 10.0761 66.4692 9.8823C66.2792 9.68483 65.9996 9.58609 65.6307 9.58609H64.3896V11.7802Z" fill="white"/>
<path d="M30.8544 27.748C30.8544 27.3097 30.688 26.9682 30.3552 26.7236C30.0286 26.4788 29.4508 26.2255 28.6219 25.9637C27.7931 25.702 27.1155 25.4487 26.5892 25.2039C24.877 24.4128 24.021 23.3258 24.021 21.9429C24.021 21.2542 24.2327 20.6481 24.6562 20.1245C25.0858 19.5952 25.6908 19.1855 26.4712 18.8952C27.2516 18.5992 28.1289 18.4512 29.1029 18.4512C30.0527 18.4512 30.9027 18.6106 31.6529 18.9293C32.4092 19.248 32.996 19.7033 33.4135 20.2953C33.8308 20.8814 34.0396 21.553 34.0396 22.3099H30.8634C30.8634 21.8034 30.6971 21.4107 30.3644 21.1318C30.0376 20.8529 29.5929 20.7135 29.0303 20.7135C28.4616 20.7135 28.0109 20.8331 27.6781 21.0721C27.3515 21.3054 27.1881 21.6042 27.1881 21.9684C27.1881 22.2872 27.3696 22.5774 27.7326 22.8392C28.0956 23.0953 28.7339 23.3628 29.6474 23.6417C30.5609 23.9148 31.3112 24.2108 31.898 24.5295C33.3257 25.3036 34.0396 26.3707 34.0396 27.7308C34.0396 28.8179 33.604 29.6716 32.7328 30.2919C31.8617 30.9123 30.6669 31.2225 29.1483 31.2225C28.0774 31.2225 27.1065 31.0432 26.2353 30.6847C25.3701 30.3204 24.7167 29.8252 24.275 29.1992C23.8395 28.5675 23.6217 27.8419 23.6217 27.0223H26.8161C26.8161 27.6881 26.9976 28.1804 27.3606 28.4992C27.7296 28.8122 28.3255 28.9687 29.1483 28.9687C29.6746 28.9687 30.0891 28.8635 30.3915 28.6528C30.7001 28.4366 30.8544 28.1349 30.8544 27.748Z" fill="white"/>
<path d="M43.7355 28.7297H39.3706L38.6082 31.0517H35.2052L40.0511 18.622H43.0458L47.9281 31.0517H44.5068L43.7355 28.7297ZM40.1328 26.4162H42.9732L41.5485 22.105L40.1328 26.4162Z" fill="white"/>
<path d="M57.7782 26.1003H52.642V31.0517H49.4567V18.622H58.2955V20.9355H52.642V23.7954H57.7782V26.1003Z" fill="white"/>
<path d="M68.3726 25.7844H63.3633V28.7468H69.28V31.0517H60.178V18.622H69.2982V20.9355H63.3633V23.5563H68.3726V25.7844Z" fill="white"/>
<path d="M12.7749 7.86768C7.27927 7.86768 3.71601 9.22487 2.77195 9.75564C2.67152 10.3061 2.77188 12.4324 2.77188 17.7167C2.77188 23.0009 9.44057 28.804 12.7749 31.0451C19.9096 26.044 21.9343 20.0757 22.0548 17.7167V9.75564C21.3518 9.22487 18.2705 7.86768 12.7749 7.86768Z" fill="url(#paint0_linear_404_2384)"/>
</g>
<defs>
<linearGradient id="paint0_linear_404_2384" x1="2.65143" y1="22.4347" x2="22.0549" y2="22.4347" gradientUnits="userSpaceOnUse">
<stop offset="0.521228" stop-color="#ACACAC"/>
<stop offset="0.522115" stop-color="#DBDBDB"/>
</linearGradient>
<clipPath id="clip0_404_2384">
<rect width="70.9855" height="32.9923" fill="white" transform="translate(0 0.00390625)"/>
</clipPath>
</defs>
</svg>
