<svg width="120" height="120" viewBox="0 0 120 120" fill="none" xmlns="http://www.w3.org/2000/svg">
<mask id="mask0_404_2303" style="mask-type:alpha" maskUnits="userSpaceOnUse" x="0" y="0" width="120" height="120">
<rect width="120" height="120" fill="#C4C4C4"/>
</mask>
<g mask="url(#mask0_404_2303)">
<path d="M109.907 60.0002C109.907 87.3366 87.6639 109.5 60.222 109.5C32.7802 109.5 10.5374 87.3366 10.5374 60.0002C10.5374 32.6639 32.7802 10.5002 60.222 10.5002C87.6639 10.5002 109.907 32.6639 109.907 60.0002Z" fill="white" stroke="#A62116"/>
<path d="M96.1153 60.0008C96.1153 79.708 80.0725 95.7334 60.2217 95.7334C40.3709 95.7334 24.3281 79.708 24.3281 60.0008C24.3281 40.2935 40.3709 24.2682 60.2217 24.2682C80.0725 24.2682 96.1153 40.2935 96.1153 60.0008Z" stroke="white" stroke-width="15.7143"/>
<path d="M96.3985 60.0007C96.3985 79.6539 80.2756 95.715 60.2271 95.715C40.1785 95.715 24.0557 79.6539 24.0557 60.0007C24.0557 40.3475 40.1785 24.2864 60.2271 24.2864C80.2756 24.2864 96.3985 40.3475 96.3985 60.0007Z" stroke="#A62116" stroke-width="14.2857"/>
<rect width="112.418" height="21.167" transform="matrix(0.914179 -0.40531 0.409052 0.912511 4.28613 72.9177)" fill="white"/>
<rect width="111.177" height="20.0381" transform="matrix(0.913896 -0.405947 0.408412 0.912798 5.08301 73.1813)" fill="#A62116"/>
<path d="M12.8717 74.6428L14.9138 73.736L20.4462 79.9386L19.5549 71.6752L21.597 70.7684L22.679 82.7339L21.0225 83.4695L12.8717 74.6428ZM11.6293 75.1945L13.7428 74.256L17.6739 82.0501L18.7519 84.4778L16.2457 85.5907L11.6293 75.1945ZM20.7259 71.1552L22.8466 70.2135L27.463 80.6096L24.9496 81.7257L23.8716 79.298L20.7259 71.1552ZM30.1036 69.6067L31.215 78.9435L28.5231 80.1389L27.7267 68.0465L29.4332 67.2887L30.1036 69.6067ZM35.849 76.8858L29.6609 69.8033L28.3622 67.7643L30.0901 66.997L38.548 75.6873L35.849 76.8858ZM34.0274 73.0531L34.8866 74.9881L29.5529 77.3565L28.6936 75.4215L34.0274 73.0531ZM42.8355 73.7834L40.5292 74.8075L39.6874 72.8733L41.9794 71.8556C42.4555 71.6442 42.807 71.3513 43.034 70.977C43.2657 70.6006 43.3669 70.1482 43.3374 69.6199C43.3106 69.0847 43.1493 68.4839 42.8533 67.8175L42.6536 67.3676C42.4316 66.8678 42.1872 66.4521 41.9203 66.1204C41.656 65.7819 41.3726 65.5288 41.0702 65.361C40.7656 65.1885 40.442 65.1014 40.0993 65.0997C39.7614 65.0959 39.4092 65.1754 39.0426 65.3381L36.7292 66.3654L35.87 64.4304L38.1834 63.4032C38.8879 63.0903 39.5868 62.9253 40.2801 62.9081C40.976 62.884 41.6376 63.0005 42.2647 63.2577C42.8944 63.5081 43.4612 63.8861 43.965 64.3918C44.4715 64.8907 44.8885 65.509 45.2161 66.2468L45.4095 66.6824C45.735 67.4155 45.9141 68.1395 45.9466 68.8545C45.9839 69.5673 45.8867 70.2402 45.6548 70.8732C45.423 71.5061 45.0683 72.0739 44.5906 72.5767C44.1155 73.0726 43.5305 73.4748 42.8355 73.7834ZM37.348 63.7741L41.9644 74.1702L39.4582 75.2831L34.8418 64.887L37.348 63.7741ZM55.3707 65.9092L56.2268 67.837L50.686 70.2974L49.8299 68.3696L55.3707 65.9092ZM46.9621 59.505L51.5785 69.9011L49.0723 71.014L44.4559 60.6178L46.9621 59.505ZM52.729 61.885L53.5565 63.7486L48.7297 65.8919L47.9022 64.0283L52.729 61.885ZM51.6318 57.4314L52.4911 59.3664L46.9288 61.8363L46.0696 59.9013L51.6318 57.4314ZM59.2358 54.0548L63.8522 64.4509L61.3532 65.5606L56.7368 55.1645L59.2358 54.0548ZM69.8282 49.3513L74.4446 59.7474L71.9455 60.8571L65.3957 56.0209L68.2683 62.49L65.7621 63.6029L61.1457 53.2067L63.6519 52.0938L70.2017 56.93L67.3291 50.461L69.8282 49.3513ZM80.988 44.3957L83.4942 43.2828L86.5095 50.0732C86.8688 50.8824 87.0042 51.6429 86.9157 52.3547C86.825 53.0617 86.5384 53.6933 86.056 54.2494C85.5735 54.8056 84.9205 55.2665 84.097 55.6322C83.283 55.9936 82.5032 56.169 81.7576 56.1581C81.0167 56.1452 80.3488 55.9374 79.754 55.5348C79.1619 55.1253 78.6861 54.5159 78.3268 53.7067L75.3116 46.9164L77.8249 45.8003L80.8402 52.5906C81.0304 53.019 81.2476 53.3414 81.4919 53.5578C81.734 53.7694 82.0016 53.8843 82.2945 53.9023C82.5875 53.9204 82.903 53.8544 83.2409 53.7043C83.5837 53.5521 83.8442 53.3624 84.0225 53.135C84.2007 52.9077 84.2902 52.6343 84.2908 52.3149C84.2894 51.9908 84.1935 51.6145 84.0033 51.1861L80.988 44.3957ZM93.963 47.7721C93.8911 47.6103 93.8028 47.4757 93.6982 47.3683C93.5914 47.2561 93.4484 47.1715 93.2691 47.1143C93.0898 47.0571 92.8535 47.0253 92.56 47.0189C92.2691 47.0056 91.9 47.0213 91.4526 47.0661C90.928 47.1167 90.4116 47.1408 89.9034 47.1386C89.3931 47.1315 88.9142 47.0735 88.4669 46.9644C88.0174 46.8505 87.6179 46.6632 87.2685 46.4024C86.9169 46.1368 86.6375 45.7707 86.4304 45.3043C86.2317 44.8568 86.153 44.4102 86.1944 43.9644C86.2337 43.5138 86.3759 43.0832 86.6208 42.6723C86.8685 42.2547 87.2055 41.8714 87.6318 41.5225C88.056 41.1688 88.5561 40.8641 89.1321 40.6084C89.8937 40.2702 90.6241 40.1054 91.3232 40.1141C92.025 40.1159 92.6479 40.2867 93.1919 40.6264C93.7386 40.9592 94.1578 41.454 94.4495 42.1109L91.9576 43.2175C91.8413 42.9557 91.6841 42.7491 91.4858 42.5978C91.2923 42.4444 91.0631 42.3581 90.7981 42.339C90.5332 42.3198 90.2389 42.3822 89.9152 42.5259C89.601 42.6654 89.358 42.8303 89.1861 43.0206C89.0141 43.2109 88.9094 43.4113 88.8717 43.6218C88.832 43.8275 88.8544 44.0256 88.939 44.216C89.0087 44.373 89.115 44.4968 89.2577 44.5873C89.4031 44.6709 89.5811 44.7315 89.7915 44.7691C90.0067 44.8046 90.2532 44.8206 90.5308 44.817C90.8132 44.8112 91.1231 44.7905 91.4605 44.7546C92.0909 44.6855 92.6689 44.6654 93.1945 44.6941C93.7228 44.7159 94.1958 44.7994 94.6136 44.9444C95.0339 45.0826 95.3974 45.2916 95.7041 45.5714C96.0154 45.8492 96.2684 46.207 96.4628 46.6449C96.67 47.1114 96.7634 47.5657 96.7432 48.0078C96.723 48.4499 96.5999 48.8721 96.3739 49.2745C96.1459 49.6721 95.8248 50.0398 95.4106 50.3776C94.9964 50.7154 94.4989 51.0132 93.9182 51.2711C93.3851 51.5078 92.8295 51.6747 92.2514 51.7719C91.676 51.8621 91.1165 51.8598 90.5729 51.765C90.0272 51.6654 89.5299 51.4502 89.0811 51.1196C88.6349 50.782 88.2754 50.3062 88.0027 49.6922L90.5161 48.5761C90.6514 48.8808 90.806 49.1198 90.9799 49.2934C91.1538 49.4669 91.3479 49.583 91.562 49.6418C91.7741 49.6958 92.007 49.7006 92.2609 49.6563C92.5126 49.6072 92.786 49.5171 93.0812 49.3861C93.4001 49.2444 93.637 49.0851 93.7921 48.908C93.9449 48.7261 94.0328 48.5389 94.0556 48.3464C94.0763 48.1492 94.0454 47.9578 93.963 47.7721ZM99.8941 38.6162L101.006 47.953L98.3137 49.1483L97.5173 37.0559L99.2238 36.2981L99.8941 38.6162ZM105.64 45.8952L99.4514 38.8128L98.1528 36.7737L99.8807 36.0064L108.339 44.6968L105.64 45.8952ZM103.818 42.0625L104.677 43.9975L99.3434 46.3659L98.4842 44.431L103.818 42.0625Z" fill="white"/>
<path d="M27.6112 51.562L24.6363 49.5969L26.3536 52.0435L26.0262 52.9739L23.5596 52.6566L26.5345 54.6218L25.9205 56.3663L20.2731 52.6358L20.9437 50.7302L24.0821 51.1163L21.9102 47.9836L22.5777 46.0869L28.2251 49.8175L27.6112 51.562Z" fill="white"/>
<path d="M24.3011 43.012L25.2982 41.198L31.4359 43.7503L30.5302 45.3979L29.3343 44.8879L28.4699 46.4606L29.277 47.678L28.3668 49.3339L24.3011 43.012ZM28.258 44.3342L26.1727 43.2975L27.668 45.4076L28.258 44.3342Z" fill="white"/>
<path d="M32.1994 42.6123L27.6627 37.6105L29.2804 35.58C29.7466 34.9949 30.2379 34.6192 30.7545 34.453C31.2708 34.277 31.7804 34.2801 32.2835 34.4622C32.7862 34.6346 33.2464 34.9509 33.6638 35.4112C34.1239 35.9184 34.4354 36.4714 34.5984 37.0703C34.7654 37.6642 34.7826 38.2653 34.6501 38.8736C34.5215 39.4769 34.2438 40.0463 33.8172 40.5818L32.1994 42.6123ZM32.4905 36.8838C32.137 36.494 31.7687 36.2883 31.3859 36.2667C31.0027 36.2354 30.663 36.4058 30.3667 36.7776L29.9045 37.3578L32.2687 39.9643L32.7309 39.3842C33.0351 39.0024 33.1553 38.5854 33.0915 38.1332C33.0316 37.676 32.8313 37.2596 32.4905 36.8838Z" fill="white"/>
<path d="M39.3459 32.8266L40.2934 34.1348L36.6881 37.3333L32.7309 31.8698L36.272 28.7282L37.2195 30.0363L35.0678 31.9453L35.6251 32.7149L37.4634 31.084L38.344 32.2998L36.5057 33.9307L37.13 34.7925L39.3459 32.8266Z" fill="white"/>
<path d="M45.4142 31.1507L42.3976 25.1264L44.0723 24.3132L47.0888 30.3375L45.4142 31.1507Z" fill="white"/>
<path d="M50.0638 25.8036L51.2633 28.8884L49.4812 29.4329L47.0411 23.1574L48.4302 22.7329L52.2754 25.1279L51.0347 21.9371L52.8167 21.3925L55.2568 27.668L53.8404 28.1009L50.0638 25.8036Z" fill="white"/>
<path d="M63.6349 27.6217C63.093 27.6206 62.6119 27.5325 62.1915 27.3577C61.7711 27.1828 61.409 26.9428 61.1052 26.6377C60.8078 26.3326 60.5662 25.9841 60.3806 25.5923C60.1937 25.1942 60.0609 24.7777 59.9821 24.3426L59.3656 20.9395L61.2302 20.9435L61.8467 24.3466C61.8996 24.6387 61.9874 24.9123 62.1101 25.1673C62.238 25.4161 62.4021 25.6184 62.6024 25.7741C62.809 25.9299 63.0558 26.0081 63.3427 26.0087C63.6359 26.0094 63.8545 25.9322 63.9985 25.7772C64.1477 25.6159 64.238 25.4111 64.2695 25.1626C64.3062 24.908 64.2986 24.6377 64.2468 24.3517L63.6303 20.9486L65.4949 20.9526L66.1115 24.3557C66.2229 24.9711 66.2122 25.5272 66.0791 26.0239C65.9513 26.5145 65.6876 26.9054 65.2879 27.1966C64.8871 27.4815 64.3361 27.6232 63.6349 27.6217Z" fill="white"/>
<path d="M71.4873 24.2642C71.4873 24.2642 71.4319 24.224 71.3209 24.1435C71.21 24.063 71.0641 23.9706 70.8832 23.8663C70.7019 23.7556 70.5054 23.6519 70.2939 23.555C70.0823 23.4581 69.8759 23.3933 69.6746 23.3605C69.5174 23.3348 69.39 23.339 69.2926 23.373C69.1952 23.4071 69.1502 23.4839 69.1578 23.6037C69.1691 23.7802 69.2871 23.9242 69.5121 24.0357C69.7429 24.142 70.0542 24.2894 70.4458 24.478C70.869 24.6717 71.2367 24.8752 71.549 25.0883C71.8613 25.3014 72.1074 25.5504 72.2874 25.8355C72.4669 26.1143 72.5701 26.4648 72.5969 26.8871C72.6225 27.2905 72.5717 27.6191 72.4447 27.8728C72.3172 28.1203 72.136 28.3059 71.9012 28.4298C71.6663 28.5537 71.4003 28.6288 71.1031 28.6552C70.8056 28.6754 70.4996 28.6598 70.1852 28.6085C69.8644 28.5562 69.5259 28.4698 69.1697 28.3494C68.8193 28.2236 68.477 28.0774 68.1427 27.9106C67.8081 27.7375 67.5005 27.5501 67.2201 27.3485L67.9099 25.861C67.9099 25.861 67.9752 25.9091 68.1058 26.0052C68.2364 26.1014 68.4085 26.2136 68.6221 26.342C68.8356 26.4704 69.0706 26.5929 69.327 26.7096C69.5897 26.8272 69.85 26.9071 70.1078 26.9491C70.3091 26.982 70.4459 26.9793 70.5182 26.9412C70.5963 26.8978 70.6326 26.832 70.627 26.7437C70.6186 26.6114 70.543 26.4993 70.4002 26.4074C70.2571 26.3092 70.0703 26.2101 69.8398 26.1101C69.6153 26.0049 69.365 25.8861 69.0889 25.7538C68.4849 25.4557 68.0388 25.146 67.7508 24.8245C67.4623 24.4968 67.3025 24.0871 67.2713 23.5955C67.2397 23.0976 67.3296 22.7006 67.5411 22.4045C67.7526 22.1083 68.0417 21.906 68.4083 21.7973C68.7807 21.6834 69.1871 21.6623 69.6274 21.7341C69.9545 21.7874 70.2716 21.8797 70.5787 22.0108C70.8917 22.1367 71.1838 22.2779 71.4552 22.4344C71.7329 22.592 71.9755 22.7376 72.1832 22.8712L71.4873 24.2642Z" fill="white"/>
<path d="M76.0846 23.483L78.0676 24.1189L79.7275 31.4929L77.9264 30.9154L77.6128 29.4754L75.8936 28.9241L75.434 30.1161L73.6239 29.5357L76.0846 23.483ZM77.4033 28.1555L76.9696 25.6073L76.2299 27.7792L77.4033 28.1555Z" fill="white"/>
<path d="M93.0261 67.3115L96.0534 69.1965L94.27 66.7967L94.572 65.8579L97.0463 66.1092L94.019 64.2242L94.5851 62.4638L100.332 66.0423L99.7138 67.9651L96.5661 67.6629L98.8225 70.7365L98.2071 72.6503L92.4599 69.0718L93.0261 67.3115Z" fill="white"/>
<path d="M96.5681 75.77L95.6208 77.61L89.4158 75.2225L90.2761 73.5513L91.4855 74.0292L92.3068 72.434L91.4668 71.2386L92.3315 69.559L96.5681 75.77ZM92.5765 74.554L94.6894 75.5346L93.1371 73.4652L92.5765 74.554Z" fill="white"/>
<path d="M88.6835 76.3805L93.355 81.2594L91.7932 83.3323C91.3432 83.9296 90.8623 84.3183 90.3504 84.4983C89.8392 84.688 89.3296 84.6985 88.8218 84.5299C88.3145 84.371 87.8459 84.067 87.416 83.6181C86.9423 83.1233 86.6158 82.5788 86.4365 81.9845C86.2534 81.3953 86.2198 80.7949 86.3357 80.1833C86.4478 79.5768 86.7099 79.0001 87.1217 78.4534L88.6835 76.3805ZM88.5487 82.1146C88.9128 82.4949 89.2865 82.6907 89.6698 82.7021C90.0537 82.7231 90.3887 82.5438 90.6747 82.1641L91.1209 81.5718L88.6865 79.0293L88.2403 79.6216C87.9466 80.0114 87.8378 80.4315 87.9139 80.8818C87.9862 81.3372 88.1978 81.7481 88.5487 82.1146Z" fill="white"/>
<path d="M81.8065 86.3534L80.8237 85.071L84.3404 81.7774L88.4452 87.1332L84.9911 90.3683L84.0082 89.0859L86.1071 87.1201L85.529 86.3658L83.7359 88.0452L82.8224 86.8533L84.6155 85.1739L83.968 84.329L81.8065 86.3534Z" fill="white"/>
<path d="M75.7862 88.1907L78.9658 94.1323L77.314 94.9899L74.1343 89.0483L75.7862 88.1907Z" fill="white"/>
<path d="M71.284 93.6599L70.0009 90.6084L71.7674 90.0165L74.3778 96.2245L73.0008 96.6859L69.0917 94.3945L70.4189 97.551L68.6524 98.1429L66.042 91.9349L67.4462 91.4644L71.284 93.6599Z" fill="white"/>
<path d="M57.6683 92.2048C58.21 92.1915 58.6933 92.2667 59.1184 92.4303C59.5434 92.5938 59.9119 92.8241 60.2239 93.121C60.5295 93.418 60.7805 93.7599 60.9768 94.1466C61.1744 94.5396 61.3185 94.9524 61.4092 95.3853L62.1183 98.7707L60.2542 98.8164L59.5451 95.431C59.4842 95.1404 59.389 94.8693 59.2594 94.6176C59.1248 94.3723 58.9552 94.1745 58.7508 94.0242C58.54 93.874 58.2912 93.8024 58.0044 93.8094C57.7112 93.8166 57.4948 93.8996 57.3551 94.0584C57.2104 94.2236 57.1257 94.4308 57.101 94.68C57.0712 94.9355 57.0862 95.2055 57.1457 95.4899L57.8548 98.8754L55.9908 98.9211L55.2817 95.5357C55.1535 94.9236 55.1491 94.3674 55.2685 93.8673C55.3829 93.3735 55.6358 92.9757 56.0274 92.674C56.4203 92.3784 56.9673 92.222 57.6683 92.2048Z" fill="white"/>
<path d="M49.9103 95.7708C49.9103 95.7708 49.9668 95.8095 50.0799 95.887C50.193 95.9644 50.3413 96.0529 50.525 96.1524C50.7093 96.2582 50.9085 96.3566 51.1226 96.4478C51.3368 96.539 51.5449 96.5983 51.747 96.6258C51.9048 96.6472 52.032 96.6396 52.1285 96.603C52.225 96.5664 52.2678 96.4883 52.2569 96.3688C52.2409 96.1927 52.1189 96.0519 51.891 95.9464C51.6574 95.8464 51.3422 95.7073 50.9456 95.5292C50.5173 95.3469 50.1442 95.1533 49.8262 94.9486C49.5082 94.744 49.2553 94.5015 49.0677 94.2214C48.8806 93.9475 48.7679 93.5998 48.7296 93.1784C48.693 92.7758 48.7348 92.446 48.8549 92.189C48.9755 91.9382 49.1516 91.7478 49.383 91.6177C49.6144 91.4876 49.8783 91.4054 50.1746 91.371C50.4714 91.343 50.7777 91.3504 51.0935 91.3933C51.4156 91.437 51.7563 91.5143 52.1157 91.6252C52.4693 91.7415 52.8155 91.8786 53.1542 92.0364C53.4935 92.2005 53.806 92.3796 54.0919 92.5737L53.4428 94.079C53.4428 94.079 53.3762 94.0327 53.2431 93.9401C53.1099 93.8475 52.9348 93.7398 52.7178 93.6172C52.5008 93.4946 52.2626 93.3784 52.0031 93.2686C51.7373 93.158 51.475 93.0851 51.216 93.05C51.0139 93.0225 50.8773 93.0288 50.8061 93.0689C50.7291 93.1143 50.6947 93.1811 50.7027 93.2691C50.7147 93.4012 50.7933 93.5113 50.9385 93.5993C51.0843 93.6937 51.2738 93.7877 51.5068 93.8815C51.7342 93.9807 51.9876 94.0927 52.2672 94.2177C52.8791 94.4995 53.3335 94.7972 53.6302 95.1109C53.9275 95.4308 54.0984 95.836 54.143 96.3266C54.1882 96.8235 54.1091 97.2228 53.9057 97.5245C53.7024 97.8261 53.419 98.0361 53.0555 98.1545C52.6862 98.2784 52.2806 98.3103 51.8385 98.2503C51.5101 98.2057 51.1906 98.122 50.88 97.999C50.5637 97.8816 50.2678 97.7482 49.9923 97.599C49.7104 97.4489 49.4639 97.3098 49.2526 97.1818L49.9103 95.7708Z" fill="white"/>
<path d="M45.336 96.6744L43.3364 96.0916L41.476 88.7646L43.2922 89.2939L43.6449 90.725L45.3786 91.2302L45.8054 90.0263L47.6308 90.5582L45.336 96.6744ZM43.8904 92.0388L44.3934 94.5745L45.0736 92.3837L43.8904 92.0388Z" fill="white"/>
</g>
</svg>
